<?xml version="1.0" standalone="no"?>
<!DOCTYPE svg PUBLIC "-//W3C//DTD SVG 20010904//EN"
 "http://www.w3.org/TR/2001/REC-SVG-20010904/DTD/svg10.dtd">
<svg version="1.0" xmlns="http://www.w3.org/2000/svg"
 width="450.000000pt" height="450.000000pt" viewBox="0 0 450.000000 450.000000"
 preserveAspectRatio="xMidYMid meet">
<metadata>
Created by potrace 1.10, written by Peter Selinger 2001-2011
</metadata>
<g transform="translate(0.000000,450.000000) scale(0.050000,-0.050000)"
fill="#000000" stroke="none">
<path d="M4060 8538 c-2239 -257 -3934 -2423 -3591 -4588 518 -3271 4566
-4643 6901 -2338 1598 1577 1672 3940 174 5607 l-97 109 -13 -249 -13 -248 87
-111 c309 -394 643 -1072 565 -1150 -18 -18 -42 -27 -53 -20 -11 7 -20 3 -20
-9 0 -11 -9 -21 -20 -21 -31 0 -23 116 12 170 40 61 21 99 -33 65 -21 -13 -36
-37 -34 -53 3 -15 -7 -32 -21 -37 -18 -6 -22 5 -13 40 15 63 -42 94 -61 34 -7
-22 -21 -34 -31 -28 -27 16 -24 -4 10 -70 43 -81 112 -341 91 -341 -10 0 -29
32 -43 70 -15 43 -38 70 -59 70 -19 0 -72 43 -116 95 -45 52 -82 84 -82 71 0
-13 9 -29 20 -36 29 -18 24 -50 -8 -50 -69 0 -83 -63 -24 -107 98 -73 272
-251 271 -278 0 -15 -8 -12 -19 8 -11 18 -51 51 -90 74 -106 63 -91 4 24 -94
52 -45 87 -88 79 -97 -9 -9 -29 1 -44 23 -35 46 -58 30 -39 -28 9 -30 24 -39
49 -31 45 14 81 -29 91 -109 l8 -62 -119 105 c-65 58 -119 119 -119 136 0 17
-28 63 -61 101 -55 62 -61 64 -52 21 l11 -47 -55 52 c-70 67 -83 66 -83 -3 0
-76 50 -140 115 -148 42 -5 56 -18 61 -58 6 -47 1 -52 -47 -43 -48 10 -52 6
-40 -37 20 -67 122 -152 203 -167 52 -10 68 -23 68 -56 0 -33 -5 -38 -24 -19
-29 29 -56 31 -56 4 0 -12 20 -29 45 -39 62 -24 147 -107 119 -116 -25 -9
-244 150 -244 177 0 37 -34 16 -61 -37 -44 -86 -105 -165 -126 -165 -11 0 -38
-16 -59 -35 -39 -34 -40 -34 -27 20 8 31 5 73 -6 93 -19 35 -53 46 -246 75
-82 12 -102 -17 -36 -52 58 -31 94 -25 50 8 -45 35 -32 39 38 12 77 -29 115
-110 45 -97 -77 15 -63 -21 23 -59 67 -29 70 -34 29 -41 -25 -4 -59 4 -75 17
-23 19 -29 17 -29 -9 0 -17 -13 -32 -30 -32 -35 0 -36 -2 -10 -69 10 -28 33
-51 50 -51 17 0 30 -17 30 -40 0 -27 18 -43 55 -51 93 -21 108 -28 96 -48 -7
-10 27 -36 74 -57 93 -41 162 -104 112 -104 -15 0 -76 23 -136 51 -68 32 -127
47 -156 40 -30 -8 -77 6 -136 40 -49 29 -89 45 -89 36 0 -9 -7 -7 -15 6 -8 13
-51 30 -95 37 -75 13 -71 8 79 -82 113 -69 183 -98 244 -101 47 -3 111 -20
141 -37 31 -18 39 -27 19 -21 -122 37 -188 35 -229 -9 -40 -43 -43 -44 -128
-11 -65 25 -101 28 -140 13 -123 -46 -81 -100 97 -122 76 -10 153 -23 170 -30
18 -7 39 -3 46 9 7 11 47 20 87 19 l74 -2 -85 -19 c-47 -11 -82 -26 -77 -34
11 -18 -83 -15 -101 4 -21 20 -87 16 -87 -6 0 -36 123 -85 183 -73 31 6 57 3
57 -6 0 -28 -147 -44 -163 -18 -10 17 -34 13 -86 -15 l-71 -38 105 -35 c74
-25 171 -35 329 -35 174 -1 223 -7 215 -26 -6 -15 15 -35 51 -49 33 -12 60
-31 60 -42 0 -11 -38 -6 -85 11 -112 40 -395 57 -452 27 -65 -35 -58 -87 8
-62 29 11 71 20 95 19 24 0 -5 -18 -65 -40 -78 -28 -113 -32 -123 -16 -46 75
-346 -57 -324 -142 11 -40 11 -40 66 -1 87 62 90 48 11 -44 -99 -116 -88 -148
47 -140 59 3 139 19 177 35 93 39 153 37 80 -2 -71 -39 -70 -51 2 -30 99 29
248 100 317 152 40 31 61 39 54 21 -6 -17 -42 -48 -80 -70 -106 -63 -90 -82
128 -141 72 -19 83 -28 63 -52 -44 -53 -207 -15 -225 52 -7 26 -28 39 -62 39
-59 0 -61 -6 -30 -64 21 -40 19 -41 -56 -29 -57 9 -91 3 -127 -22 l-49 -35 68
-10 c102 -15 123 -66 55 -129 -31 -28 -64 -47 -74 -40 -23 14 -99 -26 -99 -53
0 -11 29 -33 65 -48 l65 -28 -75 -1 c-91 -1 -95 -24 -15 -81 40 -29 75 -38
105 -30 25 7 61 18 80 23 57 16 40 -28 -25 -66 -81 -48 -76 -67 18 -67 64 0
89 12 139 70 68 77 83 84 83 42 0 -41 -185 -195 -202 -169 -8 14 -21 8 -35
-16 -12 -20 -22 -29 -22 -20 -1 10 -14 7 -30 -6 -33 -27 -75 -11 -67 26 3 12
-3 23 -14 23 -23 0 -23 -63 -1 -185 11 -58 9 -85 -6 -85 -12 0 -27 25 -33 55
-6 30 -18 89 -28 130 -11 52 -10 81 6 90 31 20 76 125 53 125 -10 0 -24 -9
-31 -20 -7 -12 -21 -15 -32 -9 -10 6 -24 -16 -31 -49 -6 -34 -20 -56 -29 -50
-10 5 -18 1 -18 -10 0 -11 -13 -16 -29 -10 -21 8 -25 0 -16 -34 12 -47 -9 -43
-80 18 -19 17 -35 24 -35 16 0 -8 -54 15 -121 50 -124 66 -199 49 -168 -39 5
-14 9 -35 9 -45 0 -10 10 -18 22 -18 11 0 48 -27 81 -60 l60 -60 -51 0 c-29 0
-52 -10 -52 -22 0 -15 -8 -16 -25 -4 -34 27 -206 72 -236 62 -35 -11 112 -68
261 -99 83 -18 132 -38 135 -57 8 -44 -224 -51 -358 -11 -130 39 -157 39 -157
1 0 -40 82 -70 178 -67 99 4 137 -18 90 -52 -36 -26 50 -67 90 -42 8 5 15 -4
15 -20 0 -16 -7 -29 -16 -29 -10 0 -34 -17 -56 -39 -38 -38 -39 -38 -114 0
-96 50 -118 49 -156 -5 -46 -66 -40 -80 69 -146 55 -33 99 -68 100 -78 0 -9
45 -11 100 -4 119 16 134 -14 25 -49 -41 -13 -94 -36 -118 -50 -33 -21 -56
-22 -101 -5 -67 25 -181 -34 -219 -115 -21 -44 -19 -45 56 -38 115 11 80 -23
-113 -112 -173 -80 -625 -230 -642 -214 -19 19 39 206 136 445 212 519 277
728 316 1013 71 530 20 1036 -142 1419 -115 273 -125 307 -110 367 24 97 147
200 296 249 299 99 474 333 585 783 91 367 71 380 -319 219 -238 -98 -368
-185 -553 -368 -193 -191 -248 -203 -246 -51 2 83 10 106 50 133 27 18 90 70
139 115 97 88 143 111 450 222 396 144 879 464 1108 735 498 588 337 1743
-283 2030 -196 91 -203 47 -23 -156 227 -257 367 -491 399 -665 14 -80 54 -98
87 -40 17 28 21 29 21 4 1 -43 -56 -119 -89 -119 -39 0 -108 95 -280 391 -83
141 -150 245 -150 232 0 -59 52 -226 125 -403 221 -535 162 -901 -197 -1218
-98 -86 -102 -142 -8 -112 96 31 457 441 461 524 0 9 14 34 31 56 29 38 30 37
17 -20 -42 -179 -253 -462 -428 -573 -158 -101 -200 -69 -250 183 -64 329
-224 701 -411 960 -105 144 -101 98 18 -213 207 -542 252 -899 134 -1072 -72
-105 -675 -375 -840 -375 -134 0 -269 402 -305 910 -15 215 -29 222 -86 37
-55 -176 -54 -429 1 -672 74 -328 10 -635 -129 -618 -62 7 -153 -43 -153 -85
0 -75 -323 -76 -434 -1 -83 57 -100 100 -104 271 -1 67 -26 182 -63 288 -56
161 -90 353 -104 590 l-5 90 -36 -80 c-80 -176 -97 -480 -43 -743 17 -83 26
-156 20 -162 -18 -19 -506 235 -697 362 -580 385 -663 1127 -211 1877 88 147
91 216 8 216 -66 0 -174 -116 -295 -313 -129 -211 -141 -221 -193 -165 -51 54
-71 210 -46 357 40 238 -54 184 -144 -83 -75 -222 -58 -563 48 -969 32 -123
64 -274 71 -336 10 -82 25 -121 55 -142 127 -88 128 -10 5 368 -176 538 -216
815 -154 1040 36 126 43 94 17 -73 -39 -256 26 -560 217 -1014 51 -122 78
-220 84 -304 7 -108 18 -135 81 -209 l73 -85 -148 79 c-382 204 -816 756 -894
1137 -44 214 -46 218 -81 190 -122 -102 61 -628 343 -988 343 -436 485 -530
1072 -707 457 -138 698 -279 755 -443 18 -50 5 -43 -93 56 -151 152 -300 227
-730 367 -593 193 -875 357 -1127 655 -156 185 -163 187 -106 35 155 -416 668
-775 1391 -974 422 -116 582 -217 557 -350 -7 -35 -3 -84 10 -107 34 -64 14
-52 -123 71 -146 131 -340 230 -564 287 -363 92 -432 28 -239 -223 48 -63 128
-197 179 -298 131 -265 251 -382 455 -448 31 -9 33 -17 13 -41 -20 -24 -18
-40 8 -79 45 -70 45 -70 -88 -221 -66 -75 -120 -144 -120 -153 0 -9 -50 -45
-110 -79 -143 -80 -199 -201 -128 -272 16 -16 17 -40 3 -80 -24 -68 -2 -135
56 -170 23 -14 59 -59 80 -98 50 -98 141 -138 315 -138 83 0 170 -13 217 -33
l77 -32 -169 -158 c-152 -141 -176 -156 -230 -146 -34 6 -101 -3 -151 -21 -49
-17 -202 -40 -339 -51 -338 -26 -648 -87 -1009 -201 -171 -54 -301 -11 -372
121 -42 79 13 86 87 12 72 -72 333 -97 333 -31 0 19 -122 59 -190 61 -22 1
-71 15 -110 31 l-70 29 70 -12 c210 -35 280 -35 280 -3 0 39 -102 69 -311 93
-141 16 -329 95 -329 139 0 9 63 23 140 31 164 16 175 38 60 122 -43 33 -79
66 -80 75 0 19 156 -85 280 -188 115 -94 221 -148 238 -122 8 13 44 14 102 3
125 -24 126 -24 165 31 34 47 34 51 -4 123 -46 85 -42 100 17 68 61 -32 58 57
-3 113 -98 90 -298 152 -232 73 25 -31 23 -31 -23 -7 -27 14 -94 37 -150 51
-91 22 -94 25 -33 27 54 2 63 7 46 29 -47 56 -172 75 -326 50 -151 -25 -147
-37 23 -66 69 -11 371 -167 355 -182 -4 -5 -79 28 -166 72 -126 64 -189 83
-302 93 -159 13 -171 33 -55 96 61 33 66 40 35 53 -23 9 4 15 69 16 66 0 102
9 94 21 -7 12 13 20 49 20 33 0 61 -8 61 -18 0 -22 259 -82 352 -82 102 0 78
53 -50 115 -56 27 58 19 131 -9 23 -9 29 0 24 34 -11 71 -141 111 -188 58 -42
-46 -106 -50 -122 -7 -7 18 -25 26 -42 20 -32 -12 -85 21 -85 53 0 10 7 14 15
9 26 -16 214 26 235 52 11 14 42 25 68 25 27 0 52 10 56 23 10 30 -334 30
-372 0 -29 -23 -161 -64 -282 -86 -65 -13 -68 -11 -41 21 29 35 141 101 141
83 0 -5 -28 -24 -62 -42 -34 -18 -57 -37 -50 -43 6 -7 23 -2 37 9 45 38 261
89 452 107 229 21 341 50 357 91 27 71 -158 86 -232 19 -47 -43 -76 -40 -102
8 -24 45 -121 54 -211 19 -30 -11 -59 -16 -65 -10 -16 17 101 53 206 64 55 6
141 31 190 56 50 25 115 52 146 59 31 7 50 22 44 33 -23 36 -136 19 -224 -32
-48 -29 -108 -49 -132 -46 -24 3 -110 -20 -190 -51 -81 -31 -152 -50 -160 -43
-18 19 71 85 151 112 36 12 65 34 65 48 0 15 32 33 72 40 48 9 76 27 83 52 5
22 21 39 35 39 14 0 30 22 35 50 6 34 0 50 -18 50 -15 0 -27 10 -27 22 0 12
-13 17 -30 10 -108 -44 -98 -24 40 79 22 16 63 47 90 68 69 52 39 72 -43 28
-37 -19 -75 -33 -85 -30 -28 8 -132 -39 -132 -59 0 -24 35 -23 50 2 7 11 26
20 44 20 24 0 26 -6 8 -28 -27 -32 -102 -56 -102 -32 0 32 -110 37 -145 5 -33
-29 -35 -26 -35 42 0 52 -9 73 -30 73 -16 0 -30 9 -30 20 0 11 -13 20 -28 20
-30 0 52 -222 104 -285 20 -24 18 -35 -6 -55 -32 -26 -162 85 -140 120 6 9 0
42 -12 73 l-23 57 -22 -52 c-13 -28 -34 -48 -48 -43 -14 5 -41 -19 -60 -53
-38 -67 -72 -84 -51 -27 9 25 -4 20 -46 -18 -97 -88 -142 -103 -193 -68 l-44
31 50 0 c55 0 139 50 139 83 0 28 -121 1 -163 -37 -19 -17 -38 -21 -45 -9 -21
33 81 81 221 103 157 25 227 63 227 123 0 43 -15 43 -110 6 -33 -14 -36 -12
-17 12 23 28 27 40 27 77 0 9 38 23 85 30 111 17 132 32 154 108 26 93 -22 84
-120 -21 -43 -47 -79 -76 -79 -66 0 10 23 43 52 73 116 121 31 105 -91 -17
-112 -112 -208 -176 -139 -92 47 56 -100 12 -187 -56 -41 -32 -75 -50 -75 -39
0 19 113 111 300 246 104 75 69 105 -43 37 -37 -22 -76 -41 -87 -41 -39 0 140
132 258 190 115 57 165 123 87 117 -19 -1 -35 5 -35 13 0 9 -18 12 -40 6 -57
-15 -50 12 24 88 42 43 53 66 34 66 -16 0 -63 -40 -105 -90 -71 -85 -172 -128
-147 -62 6 15 2 36 -9 47 -14 14 -6 47 21 102 23 45 41 102 40 127 0 25 -5 36
-10 24 -5 -12 -32 -18 -59 -13 -45 9 -49 4 -49 -68 l-1 -77 -54 85 c-30 47
-62 85 -70 85 -28 0 -15 -172 16 -211 30 -37 31 -37 18 11 -17 63 20 30 40
-35 10 -32 4 -49 -18 -57 -29 -11 -28 -20 8 -82 23 -37 41 -73 41 -79 0 -22
-57 49 -91 114 -23 44 -39 59 -45 41 -6 -18 -18 -8 -35 30 -25 57 -26 57 -27
9 -2 -45 -5 -47 -33 -19 -28 28 -26 53 19 254 124 549 353 1023 705 1457 161
199 164 203 146 280 -47 204 -15 387 69 387 53 0 81 -54 103 -195 l13 -86 45
36 c292 227 371 309 371 385 0 42 26 133 57 203 113 250 213 264 213 30 0 -73
3 -133 7 -133 12 0 294 168 353 210 76 55 578 217 840 271 1032 211 2130 -42
2936 -676 74 -58 134 -100 134 -93 0 7 -31 91 -68 186 -38 94 -75 215 -83 267
-16 114 -72 157 -439 335 -677 329 -1464 463 -2210 378z m2924 -518 c68 -65
117 -125 110 -133 -7 -7 -70 47 -139 120 -156 165 -136 175 29 13z m-3998
-285 c-11 -14 -62 -90 -114 -170 -101 -154 -142 -194 -72 -70 54 97 177 265
193 265 6 0 3 -11 -7 -25z m-477 -443 c36 -127 37 -132 12 -132 -21 0 -61 126
-61 195 0 72 15 53 49 -63z m3651 -1492 c-27 -21 -165 -98 -305 -171 -281
-145 -453 -285 -532 -432 -45 -84 -46 -85 -35 -21 34 200 191 344 535 491 136
58 274 120 307 139 80 43 91 42 30 -6z m-925 -301 c8 -86 0 -133 -35 -215 -58
-135 -87 -134 -47 1 22 74 29 158 23 285 -10 208 38 150 59 -71z m2936 -141
c28 -91 -113 -262 -170 -206 -16 16 43 157 85 203 51 56 68 56 85 3z m-1991
-89 c0 -6 -25 -33 -55 -60 -47 -41 -50 -51 -25 -68 24 -16 19 -20 -24 -21 -29
0 -59 -9 -66 -20 -7 -11 -3 -20 9 -20 11 0 21 -9 21 -20 0 -11 -28 -20 -62
-20 -131 0 -246 -87 -148 -112 75 -19 60 -48 -25 -48 -53 -1 -66 -6 -46 -19
22 -14 23 -24 5 -46 -13 -16 -19 -33 -14 -39 17 -16 -44 -146 -97 -209 l-49
-58 143 7 c248 12 364 89 479 317 74 147 85 211 16 95 -96 -164 -240 -307
-322 -319 l-70 -11 58 33 c45 26 51 37 30 51 -23 14 -23 17 3 18 17 0 49 13
70 29 35 26 31 27 -49 17 -107 -15 -99 14 22 76 99 50 251 190 327 299 74 107
80 90 29 -84 -102 -346 -283 -538 -535 -567 -69 -7 -130 -22 -136 -32 -29 -46
-93 -13 -149 76 -68 107 -82 169 -27 124 28 -24 36 -22 55 10 12 20 43 63 68
94 36 44 43 71 33 124 -17 91 56 175 229 264 72 37 159 86 192 107 59 39 110
54 110 32z m-1156 -129 c109 -40 236 -139 236 -183 0 -13 -25 -1 -55 27 -52
50 -283 156 -337 156 -14 0 -31 9 -38 20 -20 33 81 23 194 -20z m-1618 -45
c113 -48 236 -180 274 -294 14 -44 38 -81 53 -81 34 0 34 0 -10 -103 -146
-341 -403 -256 -582 193 -27 66 -73 160 -103 210 -94 151 -7 118 99 -39 35
-51 113 -142 174 -202 115 -114 143 -166 59 -111 -83 54 -57 4 49 -95 94 -88
165 -116 190 -74 6 10 3 24 -9 31 -32 20 -23 46 22 61 52 16 31 37 -67 68 -92
29 -95 55 -12 90 l64 26 -84 55 c-96 64 -103 79 -33 65 116 -22 -29 119 -210
205 -156 74 -49 70 126 -5z m837 -15 l47 -40 -56 20 c-91 32 -164 23 -244 -31
-85 -58 -126 -47 -50 13 109 87 227 102 303 38z m3973 -56 c5 -63 -93 -177
-110 -129 -5 14 -18 20 -27 14 -10 -6 -13 3 -6 20 6 18 25 29 41 26 17 -3 45
18 63 45 31 47 31 48 -2 23 -39 -31 -48 -4 -11 33 36 36 47 29 52 -32z m-7337
-177 c23 -30 47 -77 54 -105 7 -29 22 -64 34 -79 16 -21 9 -25 -38 -20 -51 6
-61 18 -78 92 -10 47 -26 85 -35 85 -9 0 -16 18 -16 40 0 55 29 50 79 -13z
m4244 -113 c51 -101 69 -265 36 -344 l-25 -60 -16 85 c-59 313 -385 378 -645
129 -51 -48 -70 -59 -56 -31 39 75 203 204 303 237 70 23 95 41 87 61 -23 61
83 20 181 -68 l57 -53 -13 88 c-16 107 24 88 91 -44z m-1213 -14 c-28 -55 -56
-141 -63 -191 -16 -115 -38 -128 -67 -39 -28 84 27 221 114 290 72 56 73 52
16 -60z m4350 -1 c0 -65 -47 -100 -85 -62 -17 17 -10 36 25 73 59 63 60 63 60
-11z m-2880 -123 c0 -68 -28 -115 -54 -89 -15 16 -11 168 5 195 22 35 48 -22
49 -106z m2533 79 c67 -45 98 -91 77 -112 -17 -16 -74 23 -99 68 -11 21 -34
49 -51 63 -52 43 4 28 73 -19z m-2951 -106 c65 -34 138 -137 138 -196 0 -30
-11 -26 -58 25 -133 142 -363 60 -470 -167 -94 -198 -221 -311 -153 -136 20
52 47 132 59 177 66 248 301 392 484 297z m-4101 -54 c26 7 24 -8 -12 -76 -45
-88 -69 -72 -68 46 0 99 2 103 31 65 17 -22 39 -38 49 -35z m6833 13 c20 6 50
2 66 -8 26 -17 26 -19 -3 -20 -19 0 -42 -27 -55 -63 -30 -86 -28 -89 21 -45
43 38 43 38 19 -7 -25 -48 -52 -57 -72 -24 -8 11 -46 -17 -90 -65 -66 -74 -79
-81 -91 -50 -8 22 -1 49 18 71 18 19 47 82 65 139 27 81 40 99 60 82 14 -12
42 -16 62 -10z m-3985 -190 c18 -46 29 -86 25 -90 -18 -19 -118 112 -107 141
20 52 47 35 82 -51z m1160 24 c12 -20 -67 -46 -93 -30 -9 6 -11 19 -5 29 14
24 83 25 98 1z m3384 -13 c7 -17 7 -36 0 -43 -17 -17 -75 35 -62 56 17 28 49
21 62 -13z m-89 -167 c30 -56 51 -102 48 -102 -4 0 -46 14 -93 30 -92 33 -129
27 -61 -9 23 -12 42 -31 42 -42 0 -11 -27 -6 -59 10 -65 34 -273 44 -221 11
26 -16 24 -23 -10 -48 -58 -43 -153 46 -115 108 14 22 25 52 25 67 0 27 107
64 150 53 11 -3 31 -5 44 -6 13 0 22 -10 20 -21 -4 -20 161 -78 193 -67 9 3
-20 43 -65 90 -99 101 -104 121 -17 68 36 -22 89 -86 119 -142z m-3016 56 c63
-74 64 -88 7 -181 -52 -85 -123 -145 -195 -166 -102 -29 -359 -162 -359 -186
-1 -15 -28 -25 -67 -25 -36 0 -78 11 -92 25 -22 20 -29 20 -36 0 -12 -32 -71
-32 -102 -1 -19 19 -24 14 -24 -22 0 -39 -8 -45 -50 -37 -35 7 -50 1 -50 -20
0 -29 -25 -28 -105 5 -50 21 -46 -41 7 -96 88 -91 122 -248 79 -360 -18 -48
-17 -49 60 -32 43 10 208 13 368 8 390 -13 551 55 551 236 0 71 33 52 43 -26
9 -62 137 176 137 254 0 27 9 43 20 36 63 -39 -15 -304 -125 -424 -154 -166
-192 -177 -602 -170 -329 5 -363 3 -444 -37 -91 -43 -136 -39 -116 11 10 26 2
26 -60 0 -172 -72 -194 -39 -58 87 126 115 158 162 86 124 -92 -50 -403 9
-494 93 l-53 50 78 43 c64 36 82 60 100 133 20 84 23 87 45 46 27 -50 14 -97
-44 -162 -53 -58 -22 -83 100 -84 156 0 178 27 97 124 -27 32 -50 76 -50 97 0
44 -107 130 -185 150 -31 7 -59 20 -64 28 -12 18 363 351 503 446 160 109 199
94 66 -25 -74 -67 -99 -99 -75 -99 40 -1 49 -41 9 -41 -26 0 -260 -189 -268
-216 -2 -8 31 -54 74 -103 l78 -89 80 64 c43 35 102 74 131 87 28 13 51 40 51
60 0 47 12 46 77 -5 l53 -42 6 67 c10 105 33 108 132 17 80 -74 93 -80 103
-47 7 20 22 60 34 87 l23 50 7 -46 c8 -43 12 -44 52 -18 23 16 93 43 154 60
71 21 131 55 170 97 l59 64 -58 -43 c-69 -53 -199 -58 -306 -14 -40 17 -89 25
-109 19 -44 -14 -47 9 -10 60 21 28 42 34 95 24 246 -47 295 -35 340 82 23 62
65 56 126 -17z m-3788 -109 c0 -19 9 -26 23 -17 15 9 18 5 8 -10 -8 -13 -4
-51 10 -84 13 -33 20 -64 15 -69 -18 -18 -76 15 -76 43 0 15 -9 28 -20 28 -27
0 -25 -87 2 -114 13 -13 37 -18 54 -11 18 7 13 -6 -15 -34 -33 -33 -51 -39
-67 -23 -33 33 -133 27 -147 -9 -7 -18 4 -43 25 -59 35 -25 32 -27 -35 -24
-40 2 -69 10 -64 18 4 8 -10 23 -31 35 -48 26 -68 27 -53 3 15 -25 -8 -82 -33
-82 -11 0 -15 15 -8 32 9 25 4 29 -23 19 -28 -11 -30 -8 -10 12 40 40 29 57
-37 57 -40 0 -58 8 -52 25 10 30 161 25 171 -5 12 -36 43 -21 43 20 0 22 -9
40 -20 40 -11 0 -20 10 -20 22 0 15 8 16 25 4 37 -29 126 0 120 38 -4 19 14
36 45 44 27 7 50 22 50 32 0 26 74 100 100 100 11 0 20 -14 20 -31z m4199
-321 c47 -101 186 -530 175 -541 -4 -3 -27 29 -52 73 -54 97 -65 101 -41 15
11 -36 19 -119 19 -185 1 -110 22 -286 49 -410 7 -27 -10 -6 -37 47 -36 73
-50 88 -57 60 -15 -64 -79 110 -88 243 -9 114 -8 118 21 70 55 -90 42 195 -18
380 -15 46 -13 48 21 20 33 -28 35 -27 21 10 -14 39 -92 313 -92 326 0 27 43
-32 79 -108z m2521 2 c0 -16 16 -37 35 -48 33 -18 32 -20 -5 -34 -22 -8 -46
-24 -53 -34 -7 -11 -29 -14 -49 -6 -31 12 -32 17 -8 32 41 25 11 47 -33 24
-40 -22 -56 96 -21 151 21 31 134 -41 134 -85z m-460 -103 c0 -30 -38 -25
-190 25 l-80 27 90 -6 c50 -4 108 -14 130 -23 40 -17 40 -17 0 32 l-40 48 45
-38 c25 -21 45 -50 45 -65z m-6487 -20 c-7 -8 1 -35 17 -60 25 -38 26 -47 3
-47 -15 0 -64 -27 -110 -60 -45 -33 -87 -60 -93 -60 -24 0 -7 48 25 72 31 23
30 25 -13 14 -32 -8 -44 -5 -35 9 7 12 2 25 -12 30 -14 5 25 32 85 62 107 51
161 67 133 40z m6305 -14 c-23 -21 -158 -33 -158 -14 0 12 38 21 83 21 46 0
80 -3 75 -7z m-3838 -73 c0 -11 -20 -20 -45 -20 -25 -1 -84 -19 -132 -40 -116
-53 -170 -50 -237 12 l-56 51 50 -13 c112 -30 154 -31 230 -3 94 35 190 42
190 13z m-389 -221 c18 -30 -33 -85 -57 -61 -22 22 -5 82 24 82 11 0 25 -9 33
-21z m4429 1 c0 -11 -26 -20 -57 -20 -32 0 -97 -15 -145 -33 -94 -35 -218 -50
-218 -26 0 8 14 20 30 26 17 7 30 2 30 -10 0 -13 14 -15 35 -6 180 78 325 109
325 69z m-6300 -33 c0 -21 -68 -66 -100 -66 -20 0 -13 13 20 39 51 40 80 50
80 27z m5900 -124 c0 -22 -157 -93 -172 -78 -7 7 23 30 65 53 86 45 107 50
107 25z m-3527 -66 c133 -25 153 -42 88 -76 -56 -31 -154 -26 -225 11 -40 21
-87 28 -132 21 -71 -12 -144 13 -144 48 0 26 259 24 413 -4z m4087 -15 c0 -11
-31 -29 -69 -42 -38 -12 -71 -33 -75 -47 -4 -18 -24 -15 -76 10 l-70 34 70 31
c77 34 220 43 220 14z m-2758 -247 c51 -99 46 -280 -12 -405 l-37 -80 -22 118
c-21 114 -23 117 -51 74 -28 -41 -30 -34 -31 109 l-1 153 48 -57 48 -57 -12
126 c-13 142 5 147 70 19z m2838 23 c0 -75 -129 -236 -164 -204 -34 31 -32 37
49 127 87 97 115 116 115 77z m-6292 -72 c49 -27 -119 -51 -231 -33 -77 12
-142 75 -94 91 31 11 283 -34 325 -58z m2745 -125 c86 -98 159 -175 164 -171
13 14 -43 158 -100 255 -73 125 -22 102 113 -50 100 -111 104 -107 56 55 -11
40 -11 40 33 0 64 -57 101 -137 101 -219 0 -81 -3 -83 -71 -39 -70 47 -62 23
53 -142 120 -174 196 -390 138 -390 -11 0 -20 13 -20 28 0 15 -34 72 -75 127
-113 149 -272 320 -255 275 8 -22 18 -80 23 -130 l10 -90 -41 85 c-22 47 -82
144 -133 215 -90 127 -189 309 -189 350 0 48 47 9 193 -159z m-312 -401 c13
-60 50 -194 83 -297 70 -222 66 -240 -21 -89 -112 195 -147 330 -149 576 -2
308 30 385 49 120 9 -110 26 -249 38 -310z m1595 100 c8 -167 -24 -430 -56
-450 -31 -19 -39 82 -17 220 12 77 17 230 12 340 -10 194 -9 198 21 130 18
-38 35 -146 40 -240z m1803 269 c-14 -17 -38 -26 -53 -20 -15 6 -44 0 -65 -13
-28 -18 -50 -18 -84 -1 -45 21 -44 22 23 25 39 2 88 11 110 20 69 30 99 25 69
-11z m-3559 -208 c0 -69 16 -160 37 -215 21 -53 44 -150 51 -216 23 -198 65
-313 153 -419 149 -180 214 -384 162 -511 -20 -49 -21 -48 -22 18 -2 116 -44
218 -132 321 -157 184 -187 259 -271 671 l-25 120 -16 -70 c-9 -38 -11 -119
-4 -178 15 -127 -6 -125 -85 10 -63 107 -86 305 -46 398 25 60 25 60 39 -56
17 -145 30 -159 47 -50 19 119 76 296 96 296 9 0 16 -54 16 -119z m388 -26
c16 -86 110 -268 234 -458 108 -165 165 -332 146 -424 -12 -55 -15 -52 -60 59
-26 65 -67 144 -92 178 -173 232 -242 393 -269 626 -14 120 19 136 41 19z
m3177 -200 c17 -49 -119 -188 -185 -188 -50 0 -60 8 -60 48 0 28 8 42 21 34
12 -7 27 6 33 29 6 23 26 42 45 42 18 0 51 13 72 29 48 37 63 38 74 6z m-4887
-43 c-11 -12 -224 -92 -243 -92 -42 0 -6 39 60 67 66 27 205 46 183 25z m-358
-49 c0 -29 -312 -165 -347 -151 -62 23 41 73 342 166 3 1 5 -6 5 -15z m2949
-96 c119 -156 139 -325 58 -495 -44 -93 -60 -91 -51 5 4 42 -2 111 -13 152
-19 69 -18 74 17 65 45 -12 27 52 -44 152 -36 51 -38 59 -10 48 47 -18 43 7
-16 86 -56 76 -58 80 -31 80 11 0 51 -42 90 -93z m-2354 -23 c16 -10 -21 -38
-105 -80 -133 -65 -155 -65 -97 -1 44 48 -8 51 -133 7 -103 -36 -137 -39 -107
-9 62 62 380 122 442 83z m4035 -64 c7 -11 31 -20 53 -20 45 0 41 -37 -8 -68
-30 -19 -112 47 -114 93 -1 22 55 18 69 -5z m13 -240 c42 0 77 -9 77 -20 0
-11 -31 -20 -70 -20 -46 0 -70 -9 -70 -28 0 -33 -43 -52 -120 -52 -32 0 -69
-12 -84 -26 -36 -37 -121 -58 -111 -28 5 13 52 39 105 58 116 41 166 100 105
122 -14 5 1 5 33 1 31 -4 92 -7 135 -7z m-2119 -408 c61 -90 91 -230 61 -283
-16 -28 -22 -22 -33 38 -8 44 -52 119 -110 189 -111 133 -151 204 -172 304
l-14 70 107 -118 c59 -65 132 -155 161 -200z m2016 248 c-16 -11 -57 -19 -90
-18 -52 1 -54 3 -20 18 59 25 149 25 110 0z m-230 -200 c-63 -42 -110 -52
-110 -23 0 10 29 27 65 38 100 32 111 28 45 -15z m-1529 -297 c-44 -236 -327
-373 -617 -297 -207 55 -195 74 38 60 302 -17 506 85 548 273 19 89 47 56 31
-36z"/>
<path d="M1839 4850 c-1 -44 -3 -118 -3 -165 1 -54 -8 -85 -24 -85 -26 0 -92
-122 -92 -169 0 -50 39 -55 93 -12 29 22 64 41 77 41 14 0 46 16 71 37 l45 36
-47 44 c-26 23 -54 43 -62 43 -9 0 -6 22 6 49 12 27 15 65 7 85 -9 20 -18 45
-21 56 -26 101 -47 118 -50 40z"/>
<path d="M6628 2798 c-38 -48 -44 -110 -16 -160 37 -67 34 -98 -9 -98 -20 0
-42 -6 -49 -13 -19 -19 23 -87 54 -87 14 0 60 -31 101 -70 81 -77 92 -81 127
-46 40 40 27 123 -27 181 -57 62 -70 66 -105 31 -19 -19 -25 -2 -26 75 -4 151
-23 222 -50 187z"/>
<path d="M1490 2742 l-60 -13 68 -25 c135 -48 347 -17 260 38 -32 20 -179 20
-268 0z"/>
</g>
</svg>
