<?xml version="1.0" standalone="no"?>
<!DOCTYPE svg PUBLIC "-//W3C//DTD SVG 20010904//EN"
 "http://www.w3.org/TR/2001/REC-SVG-20010904/DTD/svg10.dtd">
<svg version="1.0" xmlns="http://www.w3.org/2000/svg"
 width="1350.000000pt" height="1338.000000pt" viewBox="0 0 1350.000000 1338.000000"
 preserveAspectRatio="xMidYMid meet">
<metadata>
Created by potrace 1.10, written by Peter Selinger 2001-2011
</metadata>
<g transform="translate(0.000000,1338.000000) scale(0.100000,-0.100000)"
fill="#000000" stroke="none">
<path d="M9064 10797 c-60 -29 -111 -86 -155 -174 -33 -67 -79 -103 -132 -103
-39 0 -117 -31 -127 -50 -13 -25 12 -83 47 -108 35 -24 111 -43 141 -35 27 7
41 -21 24 -48 -17 -27 -15 -38 13 -75 19 -25 29 -56 39 -126 15 -99 33 -128
82 -128 16 0 24 -6 24 -16 0 -28 -67 -101 -97 -107 -46 -9 -104 -33 -114 -48
-13 -20 -1 -49 38 -93 44 -48 66 -101 58 -135 -7 -30 -41 -69 -70 -82 -61 -28
-139 -76 -149 -91 -7 -12 -5 -35 9 -85 15 -56 19 -118 24 -343 3 -151 4 -281
2 -287 -2 -7 -8 -13 -13 -13 -12 0 -221 139 -229 153 -4 5 -19 7 -34 3 -22 -6
-42 2 -97 36 -38 24 -89 54 -112 68 -107 63 -134 97 -116 145 11 29 54 35 64
9 3 -8 11 -12 17 -8 9 5 8 10 -2 18 -8 6 -22 23 -32 39 -10 15 -23 27 -30 27
-6 0 -32 14 -57 30 -25 17 -58 39 -75 50 -40 26 -61 25 -81 -5 -19 -30 -11
-58 21 -73 15 -7 25 -20 25 -32 0 -26 -11 -25 -42 4 -14 12 -32 26 -39 30 -8
3 -27 15 -44 26 -16 10 -41 25 -55 33 -34 18 -216 128 -249 149 -14 10 -35 22
-46 28 -11 6 -65 39 -120 75 -55 35 -131 83 -170 107 -38 23 -115 72 -170 108
-55 36 -104 67 -110 70 -9 5 -27 16 -150 95 -27 18 -108 69 -180 115 -71 46
-159 102 -195 125 -36 23 -100 64 -143 91 -44 27 -101 64 -128 82 -27 17 -53
32 -59 32 -6 0 -13 7 -16 15 -4 8 -10 15 -14 15 -5 0 -57 31 -117 70 -187 120
-191 122 -213 110 -42 -22 -15 -55 102 -125 9 -5 48 -29 85 -53 37 -24 77 -48
87 -55 11 -7 67 -43 125 -82 116 -76 139 -91 161 -101 8 -5 39 -24 70 -44 30
-20 110 -72 178 -116 68 -43 166 -107 219 -141 53 -35 97 -63 99 -63 10 0 123
-82 127 -92 3 -7 -6 -32 -20 -56 -14 -25 -22 -50 -18 -62 3 -10 32 -36 63 -56
31 -21 118 -83 192 -139 74 -56 157 -115 185 -131 27 -16 59 -34 70 -41 11 -7
27 -15 35 -19 8 -4 51 -30 95 -59 44 -28 102 -64 129 -80 124 -76 199 -125
224 -148 18 -17 22 -30 20 -74 -2 -45 1 -56 19 -68 12 -9 28 -21 35 -28 23
-21 77 -57 85 -57 4 0 17 14 28 30 13 19 27 29 39 28 30 -5 30 -25 0 -53 -26
-24 -27 -28 -15 -61 10 -28 10 -41 0 -65 -10 -25 -9 -44 5 -107 44 -191 54
-212 105 -212 12 0 46 -22 76 -50 54 -49 56 -50 120 -50 54 0 66 -3 75 -20 6
-12 9 -28 6 -38 -12 -35 -48 -240 -56 -314 -4 -42 -11 -82 -16 -90 -4 -7 -23
-37 -42 -66 -28 -42 -33 -60 -29 -86 4 -26 -2 -45 -28 -87 -86 -136 -132 -268
-115 -327 4 -17 21 -47 35 -67 25 -32 27 -40 22 -98 -3 -34 -11 -127 -17 -206
-6 -79 -13 -148 -17 -154 -3 -5 -9 -66 -13 -136 -11 -159 -27 -343 -41 -446
-11 -82 -24 -242 -35 -443 -6 -107 3 -199 25 -241 19 -37 61 -55 119 -53 138
5 212 40 325 157 40 42 76 73 80 69 11 -12 8 -200 -4 -231 -15 -39 -16 -130
-1 -145 7 -7 12 -22 12 -34 0 -41 19 -36 31 8 11 41 12 42 21 19 5 -14 7 -59
6 -100 l-3 -76 -30 0 c-29 0 -30 -1 -27 -42 4 -53 -13 -85 -80 -149 -71 -67
-69 -66 -162 -74 -72 -7 -82 -10 -102 -36 -55 -71 -61 -74 -116 -74 -119 -1
-249 -54 -296 -122 -15 -21 -47 -48 -72 -60 -40 -21 -61 -23 -190 -24 -80 -1
-154 -2 -165 -3 -12 0 -59 -30 -105 -66 -47 -36 -110 -77 -140 -91 -122 -58
-154 -76 -286 -163 -152 -101 -180 -110 -170 -59 12 55 14 148 4 154 -18 11
-35 -17 -58 -94 -12 -42 -26 -81 -31 -86 -5 -6 -9 -17 -9 -25 -1 -19 -34 -61
-48 -61 -5 0 -15 14 -22 30 -10 24 -10 37 -1 57 6 14 11 53 10 88 -1 34 2 68
6 74 17 28 52 201 54 260 0 42 6 70 16 81 17 18 20 56 6 64 -10 7 -21 -17 -21
-45 0 -10 -4 -19 -9 -19 -5 0 -20 -35 -34 -77 -27 -84 -47 -105 -47 -51 -1 18
-7 44 -15 58 -8 14 -14 51 -15 82 0 56 -12 83 -24 52 -3 -9 -6 -31 -6 -50 0
-20 -5 -45 -12 -57 -6 -12 -15 -42 -19 -67 -3 -25 -16 -88 -29 -140 -12 -52
-25 -117 -29 -145 -4 -27 -12 -60 -19 -72 -7 -12 -12 -43 -13 -70 0 -26 -4
-57 -8 -68 -7 -16 -9 -14 -14 14 -11 53 -8 95 8 117 10 15 14 47 13 115 -1 62
4 113 14 149 40 132 58 279 39 308 -11 19 -21 -8 -21 -58 0 -21 -5 -51 -11
-67 -6 -15 -15 -50 -20 -78 -12 -67 -125 -289 -171 -339 -21 -22 -38 -45 -38
-51 0 -6 -11 -22 -25 -35 -30 -28 -30 -23 -5 60 l20 65 -25 19 c-42 30 -55 68
-55 156 0 79 -14 107 -26 52 -10 -48 -13 -52 -39 -62 -14 -5 -25 -13 -25 -18
0 -5 -11 -22 -25 -37 -21 -25 -25 -27 -31 -12 -10 28 -23 20 -34 -24 -9 -32
-15 -39 -29 -34 -10 3 -24 -1 -31 -10 -21 -25 -30 -7 -30 59 0 44 5 67 15 76
17 14 20 46 5 55 -6 3 -13 -1 -16 -9 -3 -9 -12 -16 -20 -16 -27 0 -13 38 31
86 25 26 45 51 45 56 0 14 -20 9 -26 -7 -8 -21 -43 -19 -50 3 -3 9 -11 28 -18
42 -24 46 -27 80 -11 126 8 24 15 58 15 75 0 73 62 154 151 197 53 26 120 88
155 144 19 30 27 59 31 114 7 91 26 123 98 169 71 46 112 113 178 290 33 89
46 124 78 200 l34 80 0 265 c1 349 3 357 119 395 75 25 153 101 196 192 35 74
38 109 10 118 -18 6 -71 -12 -110 -36 -8 -5 -22 -12 -30 -15 -8 -3 -23 -10
-32 -15 -10 -5 -28 -9 -40 -9 -22 0 -22 1 7 25 17 13 35 24 40 25 22 0 162
100 214 151 83 81 122 151 175 304 20 58 33 316 19 378 -10 46 -26 49 -33 6
-7 -48 -22 -44 -50 14 -27 57 -148 187 -174 187 -15 0 -15 -3 -2 -28 8 -16 22
-34 30 -41 9 -8 16 -18 16 -24 0 -6 7 -18 16 -28 9 -10 14 -25 11 -34 -11 -27
-43 -16 -85 30 -22 25 -48 45 -56 45 -21 0 -21 0 19 -60 36 -54 46 -105 23
-128 -21 -21 -34 -14 -106 53 -90 84 -122 109 -129 101 -8 -7 2 -20 117 -153
97 -111 131 -160 183 -255 50 -91 51 -151 5 -240 -50 -95 -199 -230 -225 -204
-4 3 -1 35 6 71 13 66 10 101 -9 90 -5 -3 -10 -19 -10 -34 0 -47 -47 -141 -70
-141 -13 0 -22 9 -26 28 -3 15 -10 43 -15 62 -5 19 -9 54 -9 77 0 48 -8 75
-21 67 -5 -3 -9 -68 -9 -145 0 -127 -2 -144 -24 -187 -40 -80 -73 -97 -203
-107 -99 -8 -119 -3 -139 36 -18 36 -21 87 -12 194 4 47 4 70 -1 55 -5 -14
-16 -38 -25 -55 -9 -16 -16 -37 -16 -45 0 -21 -20 -40 -41 -40 -21 0 -63 84
-80 158 -7 27 -20 60 -30 73 l-19 24 1 -30 c0 -26 12 -97 35 -207 8 -37 -14
-45 -80 -28 -135 34 -220 145 -220 285 -1 94 10 120 109 270 47 71 85 132 85
137 0 21 -29 4 -48 -29 -31 -54 -102 -125 -121 -121 -13 3 -15 15 -12 78 2 41
9 87 17 102 18 34 19 91 2 86 -7 -3 -14 -20 -16 -39 -2 -19 -9 -48 -17 -66 -8
-17 -15 -39 -15 -50 0 -20 -32 -124 -50 -164 -25 -56 -90 -63 -98 -11 -7 43
41 204 89 300 26 53 46 98 43 101 -15 15 -164 -194 -164 -230 0 -6 -6 -23 -14
-37 -26 -50 -41 -146 -41 -267 0 -161 17 -202 114 -274 42 -32 75 -48 206
-106 17 -8 45 -17 63 -20 46 -9 41 -29 -5 -21 -21 4 -50 11 -64 17 -35 14 -79
8 -92 -12 -14 -22 35 -117 87 -169 54 -55 98 -76 171 -85 80 -9 110 -21 124
-51 15 -35 14 -56 -8 -106 -33 -73 -84 -141 -131 -173 l-45 -30 -164 3 c-179
2 -229 -6 -347 -59 -72 -32 -182 -52 -279 -51 -85 0 -349 30 -382 43 -14 5
-39 9 -56 9 -17 0 -65 7 -107 14 -273 53 -346 56 -510 20 -166 -36 -182 -40
-210 -52 -14 -5 -50 -17 -80 -25 -30 -9 -80 -23 -111 -31 -31 -9 -76 -16 -101
-16 -40 0 -50 -5 -78 -36 l-32 -36 33 -34 32 -33 -18 -68 c-9 -37 -19 -81 -22
-98 -4 -34 -27 -137 -50 -235 -23 -93 -75 -199 -125 -254 -27 -29 -71 -60
-118 -84 -48 -24 -79 -46 -87 -62 -28 -60 -43 -109 -88 -280 -88 -341 -108
-370 -250 -370 -42 0 -104 -7 -137 -16 -76 -19 -113 -16 -113 11 0 13 10 22
33 29 17 5 32 12 32 16 0 3 -13 16 -30 28 -36 27 -38 49 -5 58 31 8 50 29 35
39 -6 4 -18 1 -27 -6 -13 -11 -18 -10 -33 8 -17 22 -21 22 -106 12 -106 -13
-147 -3 -142 34 2 17 9 22 28 20 30 -2 80 16 80 28 0 5 -8 9 -18 9 -10 0 -27
7 -38 15 -25 19 -54 19 -95 -2 -28 -14 -62 -17 -189 -17 -153 0 -207 10 -217
39 -5 18 50 45 69 34 13 -7 20 -4 28 11 9 17 17 20 44 15 23 -5 36 -2 45 9 16
19 42 21 58 5 6 -6 16 -8 22 -5 17 11 13 45 -9 73 -44 56 -18 69 125 64 91 -3
104 -1 137 20 21 13 37 31 38 40 0 20 20 29 65 29 39 0 51 12 30 30 -8 7 -15
21 -15 31 0 10 -5 21 -11 25 -6 3 -8 17 -5 30 4 15 1 26 -10 32 -12 7 -15 17
-10 36 5 20 12 26 35 26 35 0 43 8 29 30 -17 27 -2 54 25 46 84 -25 107 -18
107 31 0 18 -8 24 -42 33 -24 6 -56 14 -73 18 -21 5 -31 15 -33 31 -3 21 -1
23 25 18 15 -3 38 -8 51 -12 18 -6 21 -4 16 10 -8 21 11 35 49 35 32 0 37 24
8 40 -24 13 -132 13 -187 0 -23 -5 -91 -11 -150 -12 -71 -1 -116 -6 -129 -15
-26 -18 -99 -17 -115 2 -7 9 -9 26 -5 45 6 29 9 30 59 30 29 0 58 -6 65 -12
10 -11 16 -8 31 12 15 20 20 22 34 11 19 -16 50 -6 43 13 -8 21 2 25 34 14 23
-8 35 -7 53 5 13 9 41 17 62 19 32 2 40 7 42 26 3 21 7 22 48 16 44 -6 44 -6
45 25 1 17 2 37 3 44 1 9 -34 13 -129 18 -122 5 -156 12 -197 41 -14 10 -21 9
-37 -6 -30 -27 -112 -33 -135 -11 -9 10 -15 22 -13 29 4 11 11 11 69 -1 39 -7
37 20 -2 49 -35 25 -39 48 -9 48 18 0 19 2 9 15 -11 13 -9 20 10 40 13 14 34
25 47 25 15 0 23 6 23 18 0 27 20 42 57 42 20 0 36 6 39 14 3 8 15 17 27 21
21 6 21 7 -8 20 -36 16 -218 9 -289 -11 -90 -25 -143 -17 -194 29 -23 21 -30
71 -12 82 6 3 30 -10 53 -29 24 -20 46 -33 49 -30 3 3 -4 23 -15 44 -24 44
-15 67 13 33 23 -28 36 -29 43 -3 8 30 25 24 44 -15 20 -42 35 -44 63 -7 26
33 49 43 73 30 12 -6 23 -5 32 2 12 10 24 8 56 -9 55 -29 68 -17 46 41 -15 36
-15 44 -3 56 19 19 77 8 101 -18 18 -20 18 -20 42 2 13 12 23 27 23 35 0 7 6
13 13 14 6 0 26 2 42 2 25 2 31 7 33 29 3 21 9 27 30 30 49 6 28 23 -33 26
-40 2 -71 -2 -96 -14 -32 -14 -48 -15 -125 -4 -48 6 -91 13 -95 16 -4 2 -20
-1 -34 -8 -23 -10 -29 -10 -39 4 -11 14 -15 14 -46 -3 -19 -10 -47 -18 -61
-19 -15 0 -32 -7 -39 -15 -16 -19 -49 -19 -74 0 -31 23 -80 18 -115 -11 -23
-19 -35 -23 -44 -16 -7 6 -30 12 -52 14 l-40 3 0 108 c0 108 10 137 28 82 13
-39 12 -38 34 -27 11 6 66 7 136 3 l119 -6 -7 30 c-17 85 -18 98 -1 107 11 6
14 17 10 34 -9 36 13 30 57 -16 42 -44 59 -50 59 -20 0 24 35 28 44 4 10 -27
26 -5 26 37 0 46 13 50 71 17 l38 -21 20 24 c25 30 23 53 -6 57 -26 4 -57 37
-48 51 3 6 26 11 50 11 24 0 46 4 50 9 3 5 -11 23 -31 39 -46 38 -38 56 21 48
34 -6 44 -4 49 9 10 28 7 35 -19 45 -14 5 -30 21 -37 34 -6 14 -24 29 -39 35
-16 5 -29 15 -29 21 0 7 -6 10 -12 7 -7 -2 -13 -19 -13 -38 0 -29 -4 -35 -25
-38 -30 -4 -40 -17 -40 -53 0 -26 -3 -28 -46 -28 -51 0 -117 26 -111 44 2 6
15 13 28 16 39 8 87 38 91 57 3 10 -2 26 -10 35 -18 21 -8 38 23 38 16 0 25 7
29 26 8 31 -2 44 -46 58 -44 15 -55 37 -40 79 20 56 9 69 -57 64 -55 -4 -100
-17 -153 -43 -38 -20 -61 -17 -82 13 -15 21 -17 31 -9 53 8 21 6 34 -8 61 -28
53 -25 69 14 69 18 0 42 6 52 14 17 13 18 17 6 40 -18 32 -13 37 46 47 27 4
61 12 76 18 25 10 28 15 25 48 -3 41 -8 43 -70 27 -25 -6 -28 -4 -28 19 0 35
-13 40 -41 18 -45 -35 -62 -34 -143 10 -71 38 -88 59 -48 59 26 1 93 35 131
68 29 24 32 32 23 49 -9 17 -8 24 8 38 13 12 20 31 20 57 0 47 -20 50 -71 13
-22 -17 -42 -24 -55 -21 -13 4 -27 0 -34 -9 -20 -25 -56 -18 -85 16 -30 36
-28 51 6 60 24 6 26 10 14 42 -6 14 -1 17 28 17 41 0 54 12 32 30 -8 7 -15 21
-15 31 0 21 21 25 50 9 16 -8 24 -6 40 12 12 13 27 30 35 38 9 10 11 21 4 32
-10 17 -5 24 35 52 13 9 17 19 13 31 -9 23 -45 14 -117 -31 -59 -36 -79 -41
-98 -22 -9 9 -2 20 28 48 49 45 51 62 8 58 -27 -2 -34 1 -36 18 -2 11 6 28 18
39 31 28 26 49 -10 42 -42 -9 -45 5 -11 60 16 26 27 51 24 57 -3 5 -11 2 -18
-7 -7 -10 -24 -17 -39 -17 l-26 0 -1 93 c0 50 -4 101 -9 112 -7 18 -9 16 -15
-13 -9 -39 -24 -51 -37 -28 -17 30 -27 6 -12 -29 19 -46 18 -72 -5 -80 -21 -6
-18 -47 5 -66 16 -13 19 -59 5 -59 -5 0 -23 14 -40 31 -25 24 -32 28 -37 15
-3 -8 1 -25 10 -38 25 -36 21 -59 -10 -56 -43 5 -40 -20 10 -67 40 -37 44 -44
31 -55 -8 -7 -15 -18 -15 -25 0 -7 -12 -20 -26 -30 -18 -12 -23 -21 -18 -33 4
-9 8 -30 8 -47 1 -16 6 -54 10 -83 8 -51 10 -54 35 -48 54 13 56 13 56 -24 0
-34 -1 -35 -45 -40 -45 -5 -45 -5 -51 -50 -4 -25 -12 -58 -18 -73 -18 -45 -14
-77 8 -77 11 0 23 5 26 10 7 12 65 14 65 2 0 -5 -15 -19 -32 -32 -68 -49 -78
-63 -78 -110 0 -72 17 -119 45 -126 14 -3 41 -15 62 -25 l36 -18 -27 -11 c-15
-5 -33 -10 -39 -10 -7 0 -23 -7 -36 -16 -21 -15 -23 -22 -17 -66 4 -27 12 -58
19 -69 9 -15 9 -23 -1 -39 -7 -12 -10 -25 -7 -30 8 -13 48 -13 61 0 13 13 64
-7 64 -26 0 -15 -25 -25 -45 -18 -24 10 -82 -34 -105 -79 -12 -23 -30 -55 -40
-72 -58 -90 -83 -174 -95 -310 -3 -38 -9 -85 -12 -103 -5 -33 -5 -34 28 -32
19 1 39 1 44 -1 6 -1 25 -3 44 -3 19 -1 36 -6 38 -12 5 -16 -36 -64 -65 -75
-29 -11 -58 9 -74 51 -17 45 -26 1 -19 -95 4 -49 4 -106 -1 -125 -4 -19 -8
-53 -8 -76 0 -22 -9 -76 -21 -120 -31 -117 -26 -375 11 -537 43 -193 43 -192
30 -340 -7 -78 -16 -198 -20 -267 -8 -137 -26 -318 -41 -420 -38 -247 -40
-297 -19 -490 8 -74 13 -184 11 -245 -10 -292 -7 -387 17 -500 13 -60 27 -130
32 -155 5 -25 13 -63 19 -85 6 -22 11 -97 11 -166 0 -123 20 -258 43 -286 7
-10 1120 -13 5504 -13 l5495 0 -6 43 c-23 153 -18 248 20 350 19 51 18 146 -3
193 -23 54 -23 281 0 339 44 111 66 300 67 555 0 74 5 185 12 245 15 136 15
187 -1 395 -7 91 -18 275 -25 410 -7 135 -18 256 -24 270 -6 14 -13 38 -17 53
-4 22 -10 27 -24 22 -27 -8 -48 3 -71 40 -11 18 -20 35 -20 38 0 4 23 16 50
28 52 22 64 43 30 52 -11 3 -20 12 -20 21 0 9 9 21 20 28 26 17 25 30 -4 57
l-24 23 -26 -41 c-14 -22 -26 -46 -26 -52 0 -6 -8 -9 -17 -7 -15 3 -17 12 -15
58 3 46 0 59 -17 74 -12 11 -21 29 -21 41 0 52 -41 52 -109 1 -39 -29 -54 -32
-70 -12 -8 10 -6 27 7 69 27 81 47 107 82 107 19 0 35 9 49 26 24 30 18 54
-14 54 -12 0 -28 7 -35 15 -16 19 -29 19 -51 -1 -16 -14 -21 -14 -63 5 -25 11
-46 24 -46 29 0 5 17 17 38 26 49 22 76 65 63 99 -14 36 -26 40 -62 22 -30
-16 -32 -16 -55 6 -13 12 -24 30 -24 39 0 9 26 43 59 76 64 65 97 111 87 121
-6 6 -54 -15 -88 -39 -28 -20 -45 4 -31 42 10 26 9 32 -8 40 -13 7 -19 21 -19
44 0 19 -7 39 -15 46 -9 7 -15 30 -16 54 0 22 -4 49 -8 60 -12 32 -44 -28 -37
-69 4 -22 2 -36 -8 -44 -8 -6 -12 -21 -9 -31 3 -11 0 -26 -6 -34 -9 -10 -8
-16 4 -26 26 -22 19 -42 -13 -35 -20 4 -33 1 -42 -10 -7 -8 -18 -15 -26 -15
-7 0 -15 -4 -18 -9 -8 -12 86 -108 110 -113 15 -2 19 -12 19 -43 0 -38 -2 -40
-33 -43 -18 -2 -40 2 -48 8 -23 20 -42 5 -36 -27 9 -47 31 -73 63 -73 33 0 48
-22 30 -43 -20 -25 -88 -41 -115 -29 -20 9 -29 7 -51 -10 -20 -16 -23 -23 -14
-34 6 -8 18 -14 25 -14 7 0 21 -11 30 -25 10 -15 26 -25 40 -25 14 0 27 -7 30
-15 4 -8 18 -15 33 -15 31 0 51 -16 51 -41 0 -19 -70 -49 -118 -49 -43 0 -42
-22 3 -49 19 -11 35 -25 35 -31 0 -5 15 -10 34 -10 44 0 53 -13 21 -34 -43
-28 -76 -16 -118 45 -18 25 -37 17 -37 -14 0 -12 -9 -28 -20 -35 -15 -9 -20
-23 -20 -58 0 -56 12 -80 45 -88 18 -5 25 -13 25 -31 0 -20 -5 -25 -25 -25
-44 0 -140 75 -158 124 -6 15 -10 16 -22 6 -15 -12 -7 -41 15 -55 6 -3 10 -26
10 -51 0 -29 5 -47 14 -50 8 -3 17 -20 20 -39 4 -18 12 -37 19 -42 15 -12 99
-39 151 -49 25 -4 40 -13 43 -25 5 -16 12 -18 62 -12 71 7 101 -6 101 -46 0
-53 -26 -64 -152 -61 -62 1 -126 2 -143 2 -16 -1 -46 -1 -65 -1 -176 -2 -205
0 -221 15 -24 22 -39 9 -39 -32 0 -39 -24 -48 -34 -12 -4 18 -8 20 -18 10 -10
-10 -10 -16 0 -30 7 -9 14 -21 16 -27 33 -93 66 -248 66 -309 0 -37 19 -123
46 -206 17 -53 18 -100 4 -100 -6 0 -13 8 -17 18 -18 51 -45 101 -73 137 -17
22 -34 52 -37 67 -8 39 -23 45 -43 17 l-18 -23 -22 37 c-26 45 -42 43 -52 -4
-5 -26 -3 -37 9 -46 31 -24 13 -147 -18 -127 -5 3 -9 16 -9 30 0 13 -9 29 -20
36 -17 11 -20 24 -20 96 0 54 5 90 14 105 8 12 16 40 18 62 2 31 -1 40 -15 43
-14 3 -17 -4 -17 -45 0 -26 -7 -57 -15 -67 -8 -11 -15 -33 -15 -49 0 -41 -30
-189 -41 -203 -5 -6 -6 -25 -3 -43 7 -34 -5 -41 -30 -15 -15 15 -17 29 -21
176 -1 44 -13 61 -22 30 -9 -35 -31 -26 -38 16 -9 52 -13 61 -14 32 -2 -51
-41 -67 -41 -17 0 20 -18 59 -21 47 -1 -3 -4 -54 -8 -114 -4 -67 -10 -111 -17
-113 -18 -6 -41 56 -48 127 -3 35 -10 68 -15 73 -12 12 -23 -75 -16 -127 9
-55 -1 -86 -26 -86 -28 0 -89 131 -89 193 0 28 -5 49 -14 54 -7 4 -16 19 -19
33 -3 14 -10 41 -17 60 -7 19 -16 49 -22 65 -5 17 -16 122 -24 235 -14 210
-27 333 -38 360 -3 8 -17 78 -31 155 -13 77 -27 152 -31 166 -5 23 0 31 32 53
21 14 45 26 54 26 8 0 31 10 50 21 32 20 33 22 15 35 -23 17 -67 18 -134 2
-47 -10 -53 -10 -85 13 -39 26 -46 59 -21 93 23 30 18 52 -28 140 -72 134 -88
186 -77 248 7 35 7 78 -1 135 -14 109 -11 114 82 106 l69 -6 0 49 c1 27 5 109
10 182 12 173 0 281 -40 366 -57 121 -40 116 111 -31 75 -74 128 -118 141
-118 16 0 34 25 80 115 33 63 66 122 74 131 38 42 10 57 -173 95 -46 10 -88
21 -94 25 -12 7 5 44 43 91 14 19 23 46 25 85 5 63 24 124 60 188 12 22 39 72
60 110 l38 70 -3 141 c-1 78 2 154 8 168 7 19 6 41 -4 79 -24 88 -67 211 -79
227 -28 35 -45 79 -50 132 -6 63 -21 117 -44 163 -9 17 -27 52 -40 78 -14 27
-34 92 -44 145 -29 142 -48 192 -136 367 -8 17 -48 64 -88 105 -40 41 -80 89
-89 106 -13 27 -23 33 -63 39 -136 20 -200 77 -255 225 -13 33 -37 70 -61 93
-48 47 -55 76 -49 203 4 95 3 101 -28 167 -39 83 -126 172 -208 213 -48 24
-72 29 -147 32 -78 2 -97 0 -141 -21z m-1038 -2032 c4 -8 11 -15 16 -15 5 0
23 -9 39 -21 39 -27 38 -56 -3 -74 -34 -14 -51 -10 -89 23 -20 17 -35 74 -24
91 9 16 55 13 61 -4z m-1041 -1315 c28 -31 55 -118 55 -177 0 -50 -2 -53 -25
-53 -21 0 -30 11 -60 74 -33 70 -43 124 -29 160 8 22 37 20 59 -4z m-5017
-375 c2 -34 -3 -46 -32 -77 -40 -43 -45 -45 -76 -20 -27 22 -22 34 24 56 26
12 33 21 29 36 -7 24 14 52 36 48 11 -2 17 -16 19 -43z m6648 -75 c2 -19 7
-74 13 -122 10 -84 9 -90 -15 -135 -28 -55 -50 -152 -41 -176 3 -9 16 -17 27
-17 20 0 20 -4 15 -162 -4 -116 -11 -187 -26 -246 -22 -88 -20 -107 17 -162
13 -19 24 -38 24 -42 0 -4 -14 -23 -31 -42 -16 -19 -33 -51 -36 -70 -5 -33 -1
-39 59 -99 61 -60 66 -68 77 -128 12 -73 5 -111 -31 -159 -20 -28 -92 -87
-139 -115 -10 -5 -44 -26 -76 -45 -100 -60 -109 -63 -131 -35 -41 52 -38 277
8 625 11 85 25 207 30 270 5 63 14 153 20 200 5 47 10 187 10 312 0 223 0 227
22 242 12 9 34 16 49 16 36 0 73 32 99 86 27 55 53 57 56 4z m-2972 8 c3 -13
8 -54 12 -93 3 -38 13 -83 20 -98 15 -29 12 -47 -10 -47 -6 0 -32 20 -56 45
-38 39 -44 51 -48 98 -4 46 -1 57 23 85 31 38 53 41 59 10z m-4244 -130 c0
-16 -60 -58 -82 -58 -34 0 -28 30 10 49 43 23 72 26 72 9z m7932 -365 c9 -21
23 -69 32 -108 50 -203 78 -293 106 -335 52 -79 63 -114 62 -197 l-2 -81 42
-22 c29 -15 61 -22 101 -23 l59 0 18 -41 c37 -84 46 -110 95 -291 9 -33 21
-73 27 -90 13 -39 28 -134 32 -210 2 -34 12 -80 24 -107 13 -26 22 -67 22 -93
0 -38 -5 -52 -29 -76 -20 -20 -31 -41 -33 -67 -3 -42 -33 -56 -55 -26 -10 14
-16 15 -25 6 -9 -9 -9 -15 0 -24 19 -19 15 -60 -4 -56 -14 2 -32 36 -68 128
-3 8 -10 22 -15 30 -6 8 -12 27 -16 43 -3 15 -10 27 -15 27 -16 0 -11 -79 6
-106 13 -18 14 -30 7 -47 -10 -21 -11 -20 -18 12 -4 19 -14 41 -21 49 -8 7
-14 23 -14 34 0 11 -12 34 -27 52 -25 29 -26 29 -19 6 4 -14 11 -45 16 -70 4
-25 12 -58 18 -75 18 -53 32 -126 26 -136 -3 -6 -24 -7 -49 -4 -26 4 -45 3
-49 -4 -9 -13 -91 -3 -128 15 -37 19 -159 18 -184 -1 -30 -23 -53 -18 -60 13
-3 15 -8 34 -10 43 -4 15 1 32 46 149 30 81 36 189 15 274 -14 55 -16 85 -9
145 4 42 7 114 7 161 -1 47 -3 213 -5 370 -3 250 -6 289 -21 318 -16 29 -16
36 -4 65 8 17 20 46 26 62 16 42 41 192 41 243 0 44 14 82 29 82 5 0 15 -17
23 -37z m-7782 -252 c0 -39 -5 -73 -10 -76 -16 -10 -70 50 -70 77 0 30 34 68
60 68 18 0 20 -7 20 -69z m-182 37 c-4 -28 -21 -33 -42 -13 -20 21 -12 35 20
35 20 0 25 -4 22 -22z m356 -306 c3 -10 5 -37 4 -60 -1 -24 4 -48 10 -54 23
-23 12 -36 -35 -40 -27 -3 -58 -1 -71 4 -20 7 -23 14 -20 45 3 36 5 38 42 43
43 6 55 20 31 40 -15 13 -20 42 -9 53 10 10 42 -11 48 -31z m-18 -583 c3 -6 1
-15 -7 -19 -14 -9 -49 5 -49 20 0 14 47 13 56 -1z m93 -18 c19 -12 5 -31 -24
-31 -13 0 -27 5 -31 11 -7 11 12 29 31 29 6 0 16 -4 24 -9z m10292 -51 c20
-11 26 -45 9 -55 -5 -3 -16 -3 -22 2 -7 4 -23 6 -36 4 -30 -3 -42 27 -17 45
22 17 40 18 66 4z m-750 -212 c18 -23 25 -59 12 -71 -7 -8 -52 61 -53 81 0 19
20 14 41 -10z m-9137 -23 c9 -24 -23 -46 -62 -43 -45 4 -50 18 -14 40 34 21
68 22 76 3z m9326 5 c0 -20 -24 -60 -34 -57 -13 4 -20 33 -12 53 6 15 46 20
46 4z m264 -15 c33 -33 -7 -59 -106 -69 l-58 -6 0 29 c0 38 15 49 75 54 28 2
55 4 62 5 6 1 18 -5 27 -13z m-7878 -152 c62 -66 86 -156 69 -253 -13 -79 -45
-131 -130 -214 -65 -64 -81 -96 -72 -144 14 -69 20 -89 33 -119 8 -17 14 -39
14 -49 0 -10 6 -36 14 -59 7 -22 21 -65 29 -95 9 -30 23 -77 32 -103 15 -49
20 -109 9 -120 -7 -7 -53 20 -71 42 -7 8 -13 31 -14 50 -1 41 -13 79 -21 65
-3 -5 -9 -24 -13 -41 -7 -33 -18 -42 -30 -23 -3 6 -16 10 -28 10 -13 0 -30 12
-42 30 -14 21 -28 30 -46 30 -38 0 -51 -21 -43 -67 5 -33 3 -41 -11 -47 -29
-11 -61 19 -73 67 -6 24 -21 52 -32 62 -11 10 -23 36 -26 57 -4 21 -11 41 -17
45 -19 11 -122 2 -145 -13 -13 -9 -39 -14 -57 -13 -21 2 -41 -3 -53 -14 -11
-10 -35 -17 -58 -17 -21 0 -47 -7 -58 -15 -10 -7 -43 -17 -73 -21 -60 -7 -80
5 -62 37 5 10 9 40 9 68 0 28 9 79 19 113 11 35 33 113 51 173 37 129 51 161
101 235 55 83 144 143 259 174 36 10 80 24 98 32 18 8 40 14 48 14 9 0 28 6
42 14 15 7 47 23 72 35 51 24 67 34 123 74 29 19 52 27 84 27 35 0 49 -6 69
-27z m8204 -81 c0 -30 -63 -44 -74 -16 -9 23 -8 24 17 33 22 9 57 -2 57 -17z
m-1660 -101 c0 -31 5 -62 11 -68 6 -6 9 -19 6 -29 -4 -18 -4 -18 -12 1 -5 11
-14 25 -21 30 -17 14 -27 105 -13 121 19 23 29 5 29 -55z m-5943 -2 c115 -50
170 -60 363 -65 105 -3 195 -10 208 -16 16 -9 25 -9 33 -1 13 13 36 7 63 -16
14 -12 20 -13 23 -3 6 17 133 16 157 -1 20 -15 55 -154 55 -224 1 -23 6 -64
12 -92 6 -27 9 -63 7 -78 l-3 -28 -16 29 -17 30 -6 -31 c-5 -22 -2 -39 10 -58
12 -18 15 -39 12 -74 -3 -31 0 -55 9 -67 7 -10 13 -43 13 -76 0 -57 -1 -59
-30 -69 -31 -11 -41 -29 -15 -29 16 0 55 -81 55 -116 0 -24 -24 -54 -42 -54
-25 0 -48 34 -48 72 0 38 -15 52 -26 23 -9 -23 -34 -18 -35 8 -2 45 3 83 18
129 15 49 15 89 -2 89 -5 0 -11 -9 -13 -20 -2 -11 -10 -25 -18 -31 -9 -8 -14
-32 -14 -67 0 -47 -3 -56 -21 -60 -17 -5 -19 -11 -14 -42 4 -25 1 -42 -9 -56
-9 -11 -16 -31 -16 -45 -1 -38 -14 -54 -29 -36 -29 35 -25 171 6 202 14 13 14
21 4 50 -11 29 -10 37 8 61 16 22 19 37 15 66 -4 20 -10 37 -15 37 -10 0 -40
-56 -33 -62 5 -6 -19 -119 -37 -168 -6 -19 -13 -41 -15 -47 -7 -26 -23 -12
-47 40 -13 28 -27 69 -30 89 -5 36 -43 98 -59 98 -4 0 -8 -18 -8 -41 0 -23 -7
-47 -15 -55 -19 -19 -19 -53 -1 -73 18 -21 26 -152 9 -158 -15 -5 -33 58 -33
117 0 34 -3 41 -12 32 -18 -18 -25 -15 -37 19 -6 17 -20 33 -31 36 -14 4 -20
14 -20 34 0 32 -20 39 -40 14 -18 -22 -30 -9 -30 35 0 43 -23 60 -50 35 -19
-17 -40 -3 -40 26 0 30 -16 29 -39 -1 -12 -17 -25 -30 -29 -30 -8 0 -52 92
-52 108 0 5 -11 19 -25 32 -32 30 -33 14 -4 -76 18 -57 19 -69 8 -90 -11 -21
-10 -29 5 -55 17 -29 17 -31 1 -49 -16 -18 -16 -22 -2 -58 15 -38 18 -93 14
-246 -1 -52 -6 -81 -14 -83 -18 -6 -71 55 -78 89 -6 26 -25 40 -25 18 0 -5 -7
-10 -15 -10 -8 0 -15 7 -15 15 0 23 -39 53 -62 47 -19 -5 -21 -2 -14 29 15 76
18 117 8 123 -7 4 -14 -10 -19 -36 -5 -23 -14 -43 -21 -46 -19 -6 -16 121 4
159 16 32 16 70 -1 70 -5 0 -11 -11 -13 -25 -2 -13 -10 -30 -18 -36 -8 -7 -14
-24 -14 -39 0 -38 -28 -122 -44 -135 -8 -6 -16 -20 -18 -30 -7 -42 -23 -18
-26 39 -1 33 -5 71 -8 84 -8 38 -24 6 -24 -51 0 -105 -48 -46 -74 90 -10 51
-24 108 -32 127 -27 64 -17 111 54 255 26 53 62 101 124 166 94 99 133 156
192 277 42 86 47 89 123 56z m-1738 -598 c9 -6 11 -18 7 -35 -8 -33 -50 -36
-66 -5 -20 36 21 64 59 40z m634 -145 c19 -15 26 -28 21 -39 -7 -20 -7 -20
-63 -3 -51 15 -59 26 -36 50 22 22 45 20 78 -8z m2847 -306 c0 -28 -11 -51
-21 -44 -10 6 -12 57 -3 67 11 10 24 -3 24 -23z"/>
<path d="M5330 4400 c0 -11 7 -23 15 -26 8 -4 15 -14 15 -24 0 -25 10 -50 21
-50 14 0 10 46 -5 59 -8 7 -17 23 -20 36 -8 30 -26 33 -26 5z"/>
<path d="M4899 4258 c0 -2 -1 -60 -2 -129 -2 -121 -1 -126 16 -114 35 24 48
62 37 108 -5 23 -12 63 -16 90 -3 32 -10 47 -20 47 -8 0 -14 -1 -15 -2z"/>
<path d="M5217 4136 c-4 -10 -5 -21 -2 -24 9 -9 17 6 13 25 -3 17 -4 17 -11
-1z"/>
<path d="M4497 3944 c-8 -8 1 -24 14 -24 5 0 9 7 9 15 0 15 -12 20 -23 9z"/>
<path d="M8422 8889 c7 -20 14 -27 20 -21 13 13 0 52 -17 52 -11 0 -12 -6 -3
-31z"/>
<path d="M6118 4405 c-6 -14 -8 -28 -5 -32 9 -8 47 27 47 44 0 23 -30 14 -42
-12z"/>
<path d="M6117 4334 c-10 -10 -9 -44 2 -44 13 0 23 32 13 42 -5 5 -11 5 -15 2z"/>
<path d="M6084 4233 c-4 -16 -14 -38 -22 -50 -13 -21 -13 -23 6 -23 25 0 42
28 42 69 0 38 -17 41 -26 4z"/>
<path d="M6025 4130 c-7 -23 2 -43 16 -35 12 8 12 55 0 55 -5 0 -12 -9 -16
-20z"/>
</g>
</svg>
