<?xml version="1.0" standalone="no"?>
<!DOCTYPE svg PUBLIC "-//W3C//DTD SVG 20010904//EN"
 "http://www.w3.org/TR/2001/REC-SVG-20010904/DTD/svg10.dtd">
<svg version="1.0" xmlns="http://www.w3.org/2000/svg"
 width="1350.000000pt" height="1182.000000pt" viewBox="0 0 1350.000000 1182.000000"
 preserveAspectRatio="xMidYMid meet">
<metadata>
Created by potrace 1.10, written by Peter Selinger 2001-2011
</metadata>
<g transform="translate(0.000000,1182.000000) scale(0.100000,-0.100000)"
fill="#000000" stroke="none">
<path d="M6607 11134 c-6 -7 19 -52 39 -69 22 -19 114 -168 114 -184 0 -26
-29 -61 -51 -61 -10 0 -19 -6 -19 -14 0 -7 -10 -25 -21 -40 -17 -22 -27 -26
-48 -21 -31 8 -60 32 -72 60 -5 11 -14 27 -19 35 -6 8 -26 44 -45 80 l-35 65
2 -75 c1 -41 5 -79 8 -85 12 -17 20 -76 14 -101 -13 -50 -81 -24 -123 46 l-21
35 0 -46 c0 -25 4 -49 10 -55 5 -5 12 -41 16 -81 6 -67 5 -71 -15 -78 -14 -4
-31 -1 -46 9 -32 21 -35 20 -35 -9 0 -13 -8 -28 -17 -34 -14 -7 -15 -13 -6
-34 9 -19 17 -23 36 -20 32 6 44 -13 17 -27 -16 -9 -18 -15 -10 -30 5 -10 10
-23 10 -29 0 -18 -31 -41 -56 -41 -30 0 -31 -18 -1 -50 47 -50 363 -349 407
-385 25 -21 54 -47 65 -59 50 -52 186 -156 205 -156 6 0 10 -4 10 -9 0 -5 10
-13 22 -17 12 -3 44 -20 70 -36 27 -17 55 -27 64 -24 9 3 30 0 47 -8 18 -7 64
-23 102 -34 150 -45 180 -55 190 -63 6 -4 31 -10 58 -14 26 -4 50 -11 53 -16
3 -5 27 -9 55 -9 l49 0 55 -85 c54 -82 117 -155 134 -155 5 0 14 -7 21 -15 17
-21 66 -42 115 -50 22 -3 52 -11 67 -17 24 -9 37 -6 85 18 47 23 70 28 121 27
66 -1 92 -14 92 -44 0 -21 -37 -34 -69 -24 -18 5 -82 -16 -136 -47 -11 -6 -49
-13 -85 -16 -52 -3 -68 -1 -79 12 -7 9 -22 16 -33 16 -11 0 -33 8 -49 17 -29
17 -31 17 -82 -10 -64 -33 -91 -34 -154 -3 -26 13 -70 34 -98 46 -27 12 -64
29 -81 37 -24 12 -54 15 -135 11 -57 -2 -113 -9 -124 -15 -11 -6 -40 -21 -65
-33 -60 -29 -219 -149 -300 -225 -75 -71 -176 -141 -217 -151 -15 -4 -33 -11
-39 -16 -7 -5 -40 -13 -75 -17 -140 -20 -216 -32 -259 -42 -75 -16 -184 -51
-205 -65 -11 -8 -29 -14 -41 -14 -12 0 -27 -7 -34 -15 -7 -8 -18 -15 -25 -15
-7 0 -18 -7 -25 -15 -7 -8 -19 -15 -27 -15 -8 0 -29 -11 -46 -24 -18 -14 -43
-29 -57 -35 -14 -6 -39 -20 -57 -31 -70 -42 -273 -62 -413 -39 -88 14 -177 26
-284 39 -48 6 -97 15 -107 20 -22 13 -141 13 -171 1 -13 -5 -53 -16 -90 -25
-103 -23 -147 -44 -260 -121 -86 -59 -92 -63 -149 -94 -24 -13 -56 -35 -71
-48 -26 -25 -54 -43 -93 -62 -11 -5 -31 -21 -44 -35 -14 -14 -29 -26 -33 -26
-5 0 -16 -6 -23 -12 -8 -7 -33 -26 -55 -43 -23 -16 -58 -45 -79 -62 -21 -18
-43 -33 -48 -33 -10 0 -172 -156 -209 -200 -34 -42 -84 -120 -84 -133 0 -7 -7
-25 -15 -41 -24 -46 -37 -311 -25 -516 6 -96 13 -184 16 -195 10 -31 34 -244
47 -415 7 -85 16 -162 19 -170 10 -25 48 -528 48 -627 0 -51 4 -95 10 -98 5
-3 10 -40 10 -82 0 -67 -4 -83 -31 -131 -17 -31 -50 -72 -73 -93 l-41 -38 1
-130 c1 -81 5 -135 12 -144 6 -7 11 -27 10 -43 -2 -49 14 -218 22 -229 8 -10
16 -75 26 -213 7 -79 -2 -102 -41 -102 -12 0 -25 -3 -29 -7 -4 -5 -47 -13 -94
-20 -48 -6 -114 -18 -147 -27 -110 -27 -199 -38 -300 -34 l-100 3 -6 40 c-7
50 -53 158 -69 163 -9 3 -11 -3 -6 -24 4 -16 12 -60 18 -98 15 -100 21 -98
-206 -86 -104 6 -194 14 -200 19 -6 5 -29 13 -51 17 -48 8 -119 78 -156 152
-13 26 -47 79 -75 117 -56 78 -114 171 -114 184 0 4 -11 21 -25 37 -25 29 -93
137 -149 237 -77 140 -78 141 -88 123 -12 -22 -4 -57 25 -104 13 -20 33 -62
46 -92 12 -30 26 -64 30 -75 5 -11 16 -40 26 -65 9 -25 23 -60 31 -78 8 -18
14 -41 14 -50 0 -10 7 -27 15 -38 8 -10 15 -25 15 -32 0 -15 13 -47 67 -161
29 -61 33 -78 24 -97 -13 -28 -46 -31 -106 -9 -43 15 -95 20 -95 8 0 -14 251
-127 325 -147 23 -7 55 -54 55 -81 0 -9 6 -31 14 -48 25 -55 37 -103 30 -120
-19 -50 -133 13 -297 165 -50 46 -116 104 -148 130 -32 25 -83 72 -114 103
-54 55 -55 58 -55 113 0 178 -33 380 -79 487 -55 128 -101 204 -170 283 -42
48 -92 107 -111 132 -77 99 -140 169 -140 155 0 -8 5 -15 10 -15 6 0 10 -7 10
-16 0 -9 6 -28 14 -42 15 -28 99 -205 131 -277 10 -22 28 -56 39 -75 31 -50
100 -213 125 -293 23 -74 28 -176 9 -195 -7 -7 -19 -12 -28 -12 -22 0 -123
113 -155 174 -49 93 -87 138 -149 177 -33 21 -66 39 -72 39 -6 0 -41 32 -78
70 -71 76 -92 87 -81 42 10 -40 74 -142 90 -142 25 0 130 -79 149 -112 11 -18
23 -35 26 -38 8 -6 80 -185 80 -199 0 -4 14 -26 31 -47 27 -33 98 -140 156
-233 15 -24 19 -64 15 -163 -2 -53 -4 -58 -24 -58 -13 0 -44 7 -69 16 -72 26
-186 2 -116 -25 88 -34 107 -46 141 -90 32 -43 36 -54 36 -110 0 -47 -4 -63
-16 -68 -24 -9 -202 15 -238 32 -17 9 -49 37 -71 65 -22 27 -46 49 -52 50 -26
1 -12 -48 22 -83 43 -44 74 -61 162 -88 68 -21 128 -54 152 -82 21 -27 -1
-253 -28 -280 -5 -5 -32 7 -62 26 -72 45 -159 74 -241 81 -65 5 -90 14 -173
58 -46 25 -208 39 -228 19 -18 -18 10 -38 64 -45 32 -4 73 -21 114 -46 36 -22
77 -42 92 -46 35 -8 109 -32 150 -50 17 -8 34 -14 37 -14 12 0 142 -83 169
-109 40 -37 50 -57 37 -80 -12 -24 -47 -29 -235 -36 -198 -8 -382 -38 -413
-68 -18 -19 -9 -35 10 -19 15 12 174 9 348 -6 63 -6 152 -11 196 -11 111 -1
108 3 123 -241 7 -107 16 -229 20 -270 6 -56 5 -79 -5 -89 -11 -12 -17 -5 -39
43 -16 35 -49 80 -89 119 -53 52 -79 69 -148 97 -45 18 -110 36 -143 41 -103
13 -158 30 -220 70 -86 55 -102 36 -36 -42 54 -62 143 -105 239 -113 40 -4 91
-16 115 -26 72 -32 147 -126 147 -183 0 -14 7 -38 15 -53 8 -16 15 -54 15 -84
0 -43 8 -71 36 -127 20 -40 45 -81 57 -90 12 -10 38 -38 56 -62 32 -41 34 -45
22 -75 -7 -17 -16 -65 -21 -106 -8 -80 -11 -84 -114 -165 -36 -28 -39 -35 -45
-95 l-6 -65 -65 -39 c-44 -26 -83 -42 -125 -48 -118 -17 -130 -21 -170 -48
-22 -15 -52 -34 -67 -43 -41 -25 -51 -79 -49 -257 1 -109 6 -171 17 -210 9
-30 19 -84 23 -120 l6 -65 43 -3 c34 -3 52 3 89 28 26 16 64 35 85 40 40 11
135 3 144 -11 3 -5 26 -9 52 -9 l47 1 -34 15 -34 14 23 25 c13 14 31 25 40 25
26 0 29 9 15 37 -19 36 -9 53 32 53 33 0 34 1 28 32 -9 56 31 238 53 238 10 0
13 -22 11 -97 -3 -125 3 -146 41 -138 22 5 33 1 46 -13 14 -17 20 -18 35 -9
16 10 21 8 34 -10 8 -11 58 -42 111 -67 88 -43 101 -46 174 -46 43 0 91 5 107
11 15 6 58 10 95 10 56 -2 75 2 112 24 24 14 54 41 67 60 19 27 38 39 91 56
l68 22 40 -28 c21 -15 40 -37 42 -48 2 -16 12 -23 38 -28 19 -3 46 -11 60 -16
14 -5 61 -9 105 -7 l79 2 70 72 c42 43 96 86 134 106 36 19 71 42 79 50 8 7
29 14 46 14 35 0 71 21 100 57 14 18 29 23 62 23 37 0 47 -5 65 -30 13 -18 30
-30 43 -30 13 0 38 -13 57 -28 47 -39 74 -52 105 -52 14 0 42 -7 63 -16 28
-13 66 -16 162 -15 134 2 141 3 289 86 24 14 53 25 63 25 26 0 58 18 85 47 18
19 32 23 75 22 114 -1 149 -12 193 -63 40 -46 55 -50 55 -15 0 29 38 44 59 25
22 -20 35 -20 51 -1 7 8 25 15 41 15 24 0 29 -4 29 -26 0 -14 5 -35 11 -46 10
-18 17 -20 70 -14 l58 7 16 -37 15 -37 88 6 c98 6 135 19 174 59 25 27 31 28
102 26 69 -3 77 -1 91 20 19 26 39 28 79 7 15 -8 50 -15 77 -15 48 0 49 1 49
30 0 17 6 33 14 36 8 3 18 19 21 34 5 22 13 30 33 32 18 2 28 10 32 28 8 32
33 37 58 10 l19 -21 6 31 c5 24 12 30 33 30 19 0 28 -7 37 -30 13 -34 23 -37
49 -13 18 16 20 15 48 -18 15 -19 47 -43 69 -54 23 -10 41 -22 41 -27 0 -18
41 -48 67 -48 14 0 49 14 76 32 41 26 63 33 116 36 71 4 91 9 189 54 73 32
131 36 169 11 23 -15 52 -18 193 -18 l165 0 90 46 c122 64 167 74 239 58 l57
-12 94 48 c52 27 105 59 117 70 51 46 87 65 124 65 50 0 138 -28 199 -63 43
-25 57 -29 102 -24 83 9 123 27 130 59 4 20 12 28 27 28 11 0 27 4 35 9 17 11
0 44 -34 67 -26 17 -34 43 -12 45 6 0 32 1 57 2 36 2 45 6 48 22 6 30 18 38
56 37 32 -1 35 1 38 31 4 39 35 48 63 17 23 -26 57 -26 80 0 30 33 53 25 75
-25 11 -25 21 -45 23 -45 2 0 18 7 35 16 40 19 52 12 52 -31 0 -25 5 -35 20
-40 22 -7 26 -35 8 -53 -9 -9 -7 -12 9 -12 52 0 70 -34 38 -70 -19 -21 -10
-47 18 -56 32 -11 385 -5 427 6 19 5 53 27 74 49 55 56 128 78 204 61 118 -26
280 -38 305 -23 5 3 7 25 3 50 -4 31 -1 54 10 75 9 16 19 66 24 110 l8 81 -34
29 c-46 40 -46 68 0 68 19 0 38 5 41 10 4 6 -15 35 -40 65 -56 65 -56 90 2 79
21 -3 42 -10 48 -15 5 -5 18 -9 28 -9 18 0 18 6 12 86 -7 80 -6 86 11 82 10
-2 36 -29 57 -61 23 -35 45 -57 56 -57 20 0 63 36 80 68 7 12 16 22 21 22 13
0 13 -67 0 -75 -5 -3 -10 -18 -10 -32 0 -25 2 -26 47 -19 25 3 54 13 63 21 21
19 30 19 30 1 0 -8 -13 -25 -29 -38 -37 -30 -66 -77 -55 -88 5 -5 66 -4 139 1
215 14 258 21 296 50 49 36 100 48 236 55 86 5 122 4 127 -5 4 -6 18 -11 32
-11 29 0 171 -57 197 -79 10 -8 32 -45 49 -81 26 -56 30 -76 30 -143 -1 -43
-7 -93 -13 -112 -12 -31 -11 -36 7 -49 25 -19 134 -56 165 -56 39 0 51 13 40
43 -12 31 11 59 31 39 22 -22 41 -14 34 13 -7 29 15 45 37 26 10 -7 18 -5 30
9 20 24 43 26 55 4 18 -33 30 -5 25 59 -4 51 -1 71 16 105 11 22 21 50 21 62
0 26 45 49 62 32 9 -9 8 -19 -6 -43 -30 -50 -37 -91 -30 -171 5 -56 10 -78 20
-78 8 0 14 9 14 19 0 27 20 38 32 17 6 -10 22 -16 48 -16 47 0 53 -8 34 -44
-7 -16 -14 -30 -14 -32 0 -9 53 -3 85 10 40 17 55 42 55 94 0 42 43 133 89
189 14 17 34 43 44 57 20 29 76 56 115 56 14 0 41 15 63 35 22 19 46 35 54 35
9 0 32 11 53 24 20 12 47 26 59 30 29 9 35 30 19 68 -12 28 -12 38 1 73 31 83
53 121 92 165 44 48 71 97 71 127 0 10 7 29 16 41 18 26 39 207 36 310 -2 61
0 68 48 140 60 94 77 112 112 119 52 10 62 33 55 134 -3 50 -10 96 -14 102
-22 30 -31 89 -28 177 1 52 -1 100 -5 105 -18 25 -54 225 -50 278 5 66 4 377
0 423 -4 33 -16 66 -33 91 -15 22 -27 44 -27 50 0 22 -52 53 -89 53 -39 0 -91
38 -91 67 0 9 20 58 45 109 69 141 86 204 86 309 0 50 2 118 5 153 4 37 2 62
-4 62 -5 0 -13 25 -17 57 -4 31 -13 62 -20 70 -20 19 -30 138 -16 181 11 33
10 44 -18 107 -33 77 -84 176 -111 215 -34 48 -60 109 -60 139 0 16 -4 32 -9
35 -16 10 -22 -27 -15 -93 5 -51 19 -90 66 -180 70 -140 77 -160 88 -279 8
-92 -5 -246 -29 -326 -36 -124 -76 -243 -84 -254 -23 -29 -45 -13 -62 45 -24
82 -12 162 60 382 18 58 23 87 16 94 -15 15 -35 -5 -73 -72 -47 -80 -90 -192
-84 -215 5 -21 -19 -56 -38 -56 -23 0 -40 48 -53 150 -20 152 -30 334 -22 394
15 108 31 191 40 201 19 19 4 191 -16 187 -6 -2 -15 40 -21 95 -11 109 -19 99
-28 -36 -3 -47 -10 -89 -16 -95 -5 -5 -10 -19 -10 -29 0 -10 -21 -58 -46 -105
-54 -102 -76 -166 -99 -287 l-17 -90 26 -115 c47 -204 55 -260 58 -389 l3
-126 -27 -3 c-20 -2 -32 5 -53 32 -15 20 -57 58 -94 85 -36 27 -79 68 -96 91
-16 23 -35 47 -41 54 -27 30 -119 268 -116 303 1 12 15 42 32 66 16 25 30 48
30 51 0 4 10 28 21 54 22 48 23 71 3 264 -5 55 -9 66 -23 61 -15 -4 -15 -3 0
9 9 7 22 38 29 68 7 30 19 67 26 82 18 35 18 63 -1 78 -22 18 -51 0 -95 -57
l-35 -47 0 -150 c0 -98 -4 -158 -12 -171 -6 -11 -26 -50 -43 -86 -60 -129
-120 -187 -179 -174 -39 8 -107 82 -120 130 -6 22 -11 62 -11 88 0 50 -37 148
-48 130 -4 -6 -5 -64 -2 -130 l6 -118 52 -91 c51 -88 52 -93 43 -135 -5 -24
-13 -92 -17 -151 l-7 -106 37 -38 c39 -41 44 -55 21 -74 -16 -13 -29 -7 -87
42 -32 28 -36 43 -42 178 -5 92 -13 146 -42 275 -4 17 -11 35 -15 41 -5 6 -29
68 -53 138 -25 70 -67 173 -94 229 -27 56 -60 131 -72 167 -13 36 -27 70 -32
76 -4 6 -11 62 -15 123 -4 75 -10 115 -20 122 -7 7 -16 9 -20 5 -3 -3 -8 -91
-11 -194 -4 -176 -3 -192 17 -235 12 -25 21 -52 21 -59 0 -8 4 -18 9 -23 5 -6
19 -41 31 -78 13 -37 27 -70 31 -73 5 -3 9 -13 9 -22 0 -9 7 -30 15 -45 8 -15
19 -42 24 -60 28 -93 51 -182 71 -272 12 -55 26 -113 31 -129 12 -38 0 -50
-40 -41 -36 8 -64 53 -76 124 -12 73 -57 173 -139 311 -55 93 -173 219 -246
265 -85 53 -168 126 -195 170 -45 78 -60 52 -26 -46 47 -134 134 -268 232
-358 118 -107 208 -254 212 -343 l2 -43 -100 0 -101 0 -69 52 c-63 46 -281
159 -345 178 -14 4 -30 11 -35 16 -10 7 -111 31 -187 44 -43 7 -45 2 -22 -44
12 -23 15 -52 13 -104 -2 -40 0 -73 5 -75 11 -4 46 84 46 115 0 16 8 25 25 29
20 5 38 -3 83 -35 31 -22 81 -55 110 -72 60 -35 132 -100 132 -118 0 -13 -25
-39 -93 -94 -48 -39 -134 -144 -125 -152 3 -3 31 6 64 19 44 17 87 25 168 29
60 3 114 11 120 17 21 21 63 11 91 -22 69 -85 102 -129 151 -199 30 -42 61
-82 69 -89 20 -16 19 -59 0 -67 -9 -3 -23 1 -33 9 -40 34 -80 41 -223 36 -132
-4 -141 -3 -159 16 -119 127 -194 184 -225 172 -22 -8 -18 -19 15 -41 38 -26
99 -108 106 -143 8 -38 -8 -48 -91 -60 -87 -12 -462 -7 -530 7 -118 24 -194
46 -265 74 -56 22 -173 43 -217 39 -25 -2 -33 -8 -33 -23 0 -15 -7 -19 -33
-19 -43 0 -51 8 -33 36 8 12 12 24 9 28 -4 3 -45 6 -91 6 -65 0 -90 4 -104 16
-14 13 -21 14 -32 5 -11 -9 -20 -10 -35 -2 -12 7 -99 11 -228 11 -174 -1 -217
-4 -263 -19 -33 -11 -65 -15 -80 -11 -14 4 -41 3 -60 -1 -81 -19 -234 -21
-295 -5 -32 9 -73 16 -91 16 -48 0 -68 29 -62 92 3 29 11 54 17 56 23 8 11 40
-20 51 -29 10 -31 14 -25 43 3 18 13 173 21 343 8 171 19 346 25 390 5 44 10
127 10 183 0 80 4 111 17 133 10 16 21 29 24 29 4 0 14 6 21 13 7 6 33 22 58
34 44 21 250 210 250 229 0 5 14 24 30 43 17 18 30 37 30 42 0 4 13 36 29 71
41 91 42 96 51 172 6 52 14 74 31 92 22 21 27 22 62 11 29 -9 37 -17 35 -32
-2 -12 -12 -21 -25 -23 -25 -4 -29 -13 -38 -92 -13 -103 -128 -313 -225 -409
-72 -71 -165 -146 -210 -170 -69 -36 -70 -39 -70 -190 0 -75 -4 -174 -9 -221
-5 -47 -12 -187 -16 -311 -4 -151 -11 -243 -21 -274 -16 -53 -18 -85 -6 -85 8
0 24 35 54 125 19 59 26 77 66 165 40 89 54 147 64 260 9 102 14 122 44 178
19 35 44 74 57 87 12 14 33 46 47 72 81 152 113 207 135 227 69 64 211 289
247 391 23 65 22 96 -2 174 -11 35 -18 73 -14 83 7 24 -32 84 -61 93 -17 6
-14 9 18 17 43 11 44 16 17 46 -22 23 -27 67 -9 78 14 8 69 130 69 153 0 9 7
27 16 39 11 16 14 34 10 60 -12 72 -12 77 7 76 23 -2 22 12 -2 19 -11 2 -25
22 -34 48 -53 149 -52 146 -50 337 1 122 6 189 14 198 20 24 48 17 55 -13 4
-16 10 -32 14 -38 4 -5 10 -66 13 -135 5 -134 29 -247 64 -296 33 -47 53 -95
53 -125 0 -23 7 -32 34 -43 30 -12 35 -20 38 -53 3 -34 6 -38 28 -35 13 1 34
11 45 22 29 27 45 9 45 -52 0 -54 6 -57 44 -27 23 18 26 28 26 81 0 50 3 61
19 65 26 7 32 38 19 90 -11 45 -10 55 16 172 19 85 29 101 63 101 23 0 25 -3
20 -28 -3 -16 0 -41 9 -56 15 -30 55 -76 66 -76 3 0 4 33 1 73 -2 39 -5 126
-6 192 -2 101 1 125 17 155 11 19 26 40 34 46 9 6 12 16 8 23 -6 8 -2 11 10 9
14 -2 20 4 22 25 3 22 -1 27 -17 27 l-21 0 21 55 c15 41 18 59 10 74 -6 11
-11 28 -11 38 0 10 -14 30 -31 44 -37 30 -32 49 12 49 32 0 44 -6 135 -67 34
-22 76 -44 92 -48 30 -6 66 -33 75 -57 4 -10 10 -8 21 6 13 16 19 17 28 8 7
-7 19 -12 27 -12 11 0 11 4 -3 19 -18 19 -14 47 4 36 5 -3 18 -2 27 3 30 16
57 -1 63 -38 4 -28 11 -35 38 -42 28 -8 36 -5 52 14 12 15 15 24 7 26 -39 11
-40 12 -27 27 11 13 7 15 -29 15 -23 0 -41 5 -41 11 0 6 -16 30 -35 53 -31 38
-35 50 -35 100 0 35 -6 69 -16 84 -21 37 -5 82 29 82 24 0 44 -32 63 -100 4
-14 20 -40 35 -58 16 -18 29 -37 29 -43 0 -6 7 -17 15 -25 8 -9 15 -31 15 -49
0 -39 19 -57 27 -26 6 24 35 28 52 8 19 -23 83 -40 111 -28 24 9 24 10 3 10
-13 1 -23 5 -23 10 0 18 18 21 45 9 15 -7 29 -8 35 -2 5 5 6 53 3 108 -5 79
-10 102 -25 116 -20 18 -20 18 1 29 24 13 27 48 7 76 -14 19 -15 19 -51 0 -35
-19 -37 -19 -46 -2 -7 12 -17 16 -30 12 -25 -8 -25 20 0 58 15 24 19 26 25 12
3 -9 6 -28 6 -41 0 -28 2 -29 40 -9 39 20 38 35 -5 71 -42 35 -43 41 -9 56 22
10 24 16 19 49 -5 29 -3 39 11 47 24 14 14 80 -23 137 -15 24 -38 61 -51 82
-13 22 -32 43 -42 48 -10 6 -43 26 -72 45 -29 20 -78 43 -108 52 -137 41 -196
60 -215 68 -11 5 -39 14 -62 20 -29 7 -53 23 -78 53 -35 40 -65 96 -65 121 0
15 72 127 92 144 21 17 177 50 242 51 25 1 50 10 70 25 17 13 51 33 76 44 25
11 63 38 85 59 22 21 70 62 106 90 58 46 99 91 99 108 0 3 -7 5 -15 5 -8 0
-15 -5 -15 -11 0 -5 -5 -7 -10 -4 -17 10 -1 25 28 25 56 1 81 45 40 72 -24 16
-17 38 13 38 23 0 24 4 3 35 -12 19 -14 28 -5 39 31 37 67 245 49 280 -6 10
-12 63 -15 117 -3 55 -9 99 -13 99 -4 0 -10 -60 -12 -132 -3 -76 -10 -146 -17
-163 -49 -113 -51 -116 -84 -113 -24 2 -33 8 -35 25 -2 12 -9 27 -17 33 -11 9
-15 4 -20 -27 -4 -21 -8 -44 -10 -50 -5 -14 -44 -17 -60 -5 -12 9 -45 78 -45
95 0 7 -9 18 -20 25 -19 11 -20 10 -20 -24 0 -21 12 -62 26 -92 21 -44 25 -64
20 -101 -4 -25 -8 -67 -9 -92 -3 -37 -10 -53 -37 -79 -31 -30 -34 -39 -35 -94
-1 -83 -21 -109 -104 -135 -46 -14 -70 -17 -83 -10 -25 13 -23 26 10 46 45 28
72 55 72 74 0 9 7 22 15 29 20 16 19 39 -2 62 -20 23 -9 36 17 20 25 -16 30
-15 30 3 0 8 -12 17 -27 21 -16 3 -51 17 -79 31 -28 13 -57 24 -65 23 -33 -5
-49 1 -49 19 0 23 -25 45 -40 36 -22 -14 -48 24 -45 65 1 21 5 42 9 48 3 6 -8
24 -25 41 -20 20 -29 37 -25 48 4 9 -1 24 -10 34 -13 15 -14 22 -5 33 16 18 5
122 -15 151 -8 11 -14 28 -14 38 0 10 -7 32 -15 48 -8 16 -22 42 -30 58 -8 16
-15 35 -15 41 0 7 -10 23 -22 34 -13 12 -28 31 -35 42 -11 18 -12 17 -12 -7
-1 -15 6 -32 14 -39 8 -7 15 -23 15 -37 0 -13 5 -34 12 -46 7 -12 15 -58 18
-102 5 -85 0 -98 -49 -124 -33 -18 -134 -14 -151 7 -46 53 -112 177 -119 222
-4 21 -13 36 -23 38 -20 4 -26 -26 -17 -88 8 -55 -2 -122 -19 -128 -18 -6
-152 135 -152 161 0 7 -4 17 -9 22 -21 22 -81 152 -81 175 0 15 -5 31 -10 36
-6 6 -14 35 -17 65 l-7 54 -6 -44 c-11 -71 5 -212 29 -261 26 -55 27 -80 1
-87 -21 -6 -26 -18 -11 -28 20 -12 -3 -132 -49 -256 l-21 -57 25 -46 25 -46
-18 -63 c-10 -35 -25 -76 -34 -93 -19 -37 -86 -104 -104 -104 -8 0 -13 -8 -11
-17 4 -25 -4 -28 -29 -12 -31 19 -32 69 -2 76 20 6 21 10 13 67 -12 94 -6 182
17 223 21 37 42 95 53 148 l7 30 -36 -38 c-19 -21 -35 -41 -35 -45 0 -20 -63
-72 -88 -72 -53 0 -66 27 -50 103 6 28 12 67 13 86 6 76 65 76 65 0 0 -64 16
-51 85 68 20 34 15 54 -8 34 -8 -6 -21 -9 -28 -7 -8 2 -26 7 -41 10 -28 6 -28
7 -28 89 0 80 -15 165 -28 153 -3 -4 -7 -37 -8 -74 -2 -85 -16 -122 -46 -122
-22 0 -58 29 -168 134 -72 68 -73 68 -65 -8 l7 -66 -27 0 c-30 0 -139 68 -197
123 -36 34 -37 36 -31 91 4 36 2 56 -5 56 -5 0 -12 -7 -16 -15 -11 -30 -52
-16 -100 35 -26 28 -51 50 -55 50 -9 0 7 -51 27 -87 7 -12 12 -30 12 -40 0
-10 14 -31 30 -47 25 -24 30 -38 30 -75 0 -39 -6 -52 -38 -88 -52 -59 -92 -60
-147 -3 -21 22 -43 40 -47 40 -13 0 -9 -38 5 -47 18 -12 47 -68 47 -91 0 -44
-74 -67 -116 -37 -39 27 -54 76 -54 179 0 55 -4 96 -10 96 -20 0 -30 -42 -36
-147 -6 -115 -26 -188 -55 -203 -29 -16 -75 -11 -92 8 -10 10 -17 21 -17 25 0
3 -20 49 -45 101 -25 53 -45 102 -45 110 0 8 -6 16 -14 19 -7 3 -22 23 -32 44
-25 48 -74 122 -96 145 -10 10 -18 22 -18 28 0 9 -184 200 -193 200 -2 0 -6
-3 -10 -6z m1103 -496 c7 -18 17 -43 22 -54 25 -53 -27 -93 -77 -60 -26 17
-27 21 -21 69 4 28 12 57 18 64 19 23 45 14 58 -19z m310 -63 c40 -77 59 -89
80 -50 16 29 56 58 70 50 12 -8 13 -39 2 -63 -46 -95 -61 -118 -84 -135 -26
-19 -28 -19 -53 -3 -14 9 -37 41 -50 71 -40 86 -49 81 -43 -24 3 -51 11 -98
17 -104 6 -6 11 -46 11 -95 0 -69 -4 -89 -21 -114 -14 -19 -28 -28 -43 -26
-20 3 -21 10 -27 123 -3 66 -11 148 -18 181 -20 92 -5 201 32 242 16 17 30 22
56 20 32 -3 38 -9 71 -73z m-293 -441 c12 -13 25 -24 29 -24 19 0 124 -74 124
-87 0 -31 -31 -53 -74 -53 -40 0 -44 3 -92 68 -54 71 -70 105 -59 122 10 16
47 2 72 -26z m2223 -44 c0 -15 -42 -29 -72 -23 -14 3 -29 0 -32 -6 -9 -14 -66
-15 -66 -1 0 6 12 10 28 10 15 1 38 7 52 15 29 17 90 20 90 5z m-93 -122 c-4
-14 -55 -12 -91 2 -15 6 -5 9 37 9 43 1 57 -2 54 -11z m-893 -117 c3 -4 27
-11 54 -15 41 -5 54 -12 80 -46 18 -21 32 -50 32 -65 0 -32 -23 -90 -41 -100
-14 -9 -68 -22 -147 -35 -35 -6 -58 -16 -71 -31 l-18 -23 -42 22 c-50 27 -190
32 -210 8 -6 -7 -25 -16 -41 -20 -24 -4 -30 -11 -30 -30 0 -14 4 -27 9 -30 13
-9 22 -136 10 -158 -14 -26 -3 -35 21 -20 27 17 51 15 102 -7 50 -21 88 -68
88 -108 1 -15 7 -39 15 -53 42 -74 -19 -88 -64 -15 -11 17 -11 14 -7 -22 6
-40 5 -43 -18 -43 -19 0 -26 7 -31 30 -8 34 -54 65 -85 55 -10 -3 -22 -19 -25
-35 -8 -34 -29 -39 -45 -11 -16 31 -12 51 19 82 42 41 90 40 130 -3 34 -37 44
-35 33 7 -5 19 -21 35 -44 47 -32 17 -42 18 -77 7 -32 -10 -43 -9 -56 1 -13
11 -19 10 -33 -4 -23 -20 -84 -21 -121 -1 -16 8 -44 34 -62 57 -18 24 -38 46
-44 51 -28 21 -87 27 -174 18 -97 -10 -246 0 -283 20 -12 6 -18 19 -16 32 3
20 11 23 88 31 47 5 113 8 147 7 44 -1 64 3 70 13 10 17 123 27 123 10 0 -6
17 -16 39 -22 24 -8 57 -32 90 -67 29 -30 58 -55 65 -55 7 0 27 7 44 16 42 20
50 54 26 106 -14 31 -15 43 -6 46 22 7 13 18 -33 36 -25 11 -45 22 -45 27 0 4
-18 10 -40 14 -22 4 -40 11 -40 15 0 5 -9 12 -20 15 -11 4 -34 19 -51 34 -23
22 -31 38 -34 76 -5 44 -2 50 35 89 l40 41 151 0 c108 0 154 -4 161 -12 12
-15 104 -17 113 -3 3 6 48 10 98 10 51 0 99 5 107 10 19 12 57 13 64 1z m225
-285 c21 -34 19 -66 -4 -66 -6 0 -24 11 -39 25 -15 14 -36 25 -46 25 -10 0
-22 5 -25 10 -12 19 17 40 55 40 33 0 41 -5 59 -34z m-589 -86 c0 -5 -7 -10
-15 -10 -8 0 -15 5 -15 10 0 6 7 10 15 10 8 0 15 -4 15 -10z m28 -381 c2 -11
-6 -18 -23 -21 -28 -6 -40 5 -31 28 8 20 50 14 54 -7z m-138 -24 c7 -8 18 -15
25 -15 7 0 18 -6 24 -14 7 -8 42 -15 92 -19 89 -6 91 -7 135 -91 14 -27 37
-61 52 -74 15 -14 45 -41 67 -61 61 -57 114 -80 223 -98 18 -3 37 -14 43 -25
8 -15 13 -17 25 -7 11 9 14 8 14 -5 0 -42 -130 -30 -244 24 -95 44 -202 137
-244 211 l-27 49 -59 0 c-87 0 -165 53 -166 113 0 30 20 36 40 12z m-183 -127
c4 -7 9 -47 9 -88 2 -135 29 -265 60 -291 8 -6 14 -16 14 -22 0 -5 16 -29 35
-53 33 -40 68 -61 205 -121 19 -9 44 -20 54 -26 27 -13 121 -29 186 -31 48 -1
55 -4 55 -21 0 -26 -79 -41 -133 -25 -20 6 -67 15 -103 19 -88 11 -235 83
-306 150 -29 27 -53 51 -53 55 0 3 -14 34 -31 68 -57 117 -66 215 -33 376 5
24 28 30 41 10z m1383 -137 c0 -12 -20 -25 -27 -18 -7 7 6 27 18 27 5 0 9 -4
9 -9z m-77 -26 c-3 -8 -9 -15 -14 -15 -10 0 -12 24 -3 33 11 11 24 -3 17 -18z
m-49 -14 c3 -5 -1 -12 -10 -15 -20 -8 -29 -1 -19 13 8 13 22 14 29 2z m-1394
-40 c5 -11 10 -47 10 -80 0 -71 21 -140 61 -198 16 -23 29 -46 29 -51 0 -5 28
-48 63 -94 35 -47 73 -105 85 -131 12 -25 26 -48 32 -52 13 -8 13 -52 0 -60
-17 -10 -51 19 -89 75 -21 30 -59 85 -84 123 -26 37 -47 72 -47 77 0 6 -3 10
-7 10 -9 0 -32 38 -76 125 -26 51 -31 74 -35 152 -2 51 -2 99 2 108 8 21 43
19 56 -4z m1330 9 c0 -5 -14 -10 -31 -10 -17 0 -28 4 -24 10 3 6 17 10 31 10
13 0 24 -4 24 -10z m-1796 -65 c3 -9 5 -80 5 -159 0 -158 11 -213 63 -297 15
-25 28 -51 28 -57 0 -6 4 -12 8 -14 10 -4 101 -154 149 -248 107 -205 106
-202 114 -290 9 -103 18 -129 73 -200 39 -51 66 -114 66 -155 0 -10 7 -25 15
-34 9 -9 36 -43 60 -76 42 -59 44 -65 51 -154 6 -74 4 -95 -7 -102 -18 -11
-69 37 -69 66 0 44 -67 200 -105 245 -13 15 -45 101 -45 121 0 8 -74 114 -110
156 -5 7 -10 47 -10 91 0 43 -4 82 -9 87 -5 6 -14 26 -19 45 -5 22 -14 35 -25
34 -12 -1 -14 6 -10 32 4 25 2 35 -11 40 -9 3 -16 12 -16 19 0 7 -7 18 -15 25
-8 7 -15 20 -15 30 0 10 -7 23 -15 30 -8 7 -15 21 -15 32 0 10 -7 21 -15 24
-8 4 -15 14 -15 24 0 10 -7 23 -15 30 -8 7 -15 19 -15 27 0 7 -7 16 -15 19 -8
4 -15 11 -15 18 0 7 -20 50 -44 97 -24 46 -51 114 -60 150 -20 80 -21 215 -2
266 8 21 17 50 20 66 7 29 30 36 40 12z m2056 -5 c0 -5 -7 -10 -15 -10 -8 0
-15 5 -15 10 0 6 7 10 15 10 8 0 15 -4 15 -10z m-26 -37 c8 -21 -10 -33 -51
-33 -59 0 -28 38 38 49 4 1 10 -7 13 -16z m-259 -19 c29 -19 33 -52 8 -61 -9
-4 -28 -20 -43 -36 -29 -32 -60 -32 -60 0 -1 27 -21 48 -60 59 l-35 11 27 13
c23 11 30 11 43 0 13 -11 20 -10 43 8 33 26 46 27 77 6z m361 -63 c-10 -16
-36 -13 -36 3 0 17 21 27 34 16 4 -5 5 -13 2 -19z m-2730 -195 c3 -7 -5 -32
-16 -55 -19 -35 -22 -57 -21 -148 2 -175 11 -217 92 -410 7 -18 19 -33 26 -33
10 0 12 16 7 68 -4 43 -2 82 5 104 9 28 8 42 -4 71 -19 46 -19 74 0 111 8 15
15 36 15 46 0 24 70 130 86 130 22 0 25 -17 10 -57 -20 -51 -29 -188 -17 -243
6 -25 22 -92 36 -150 22 -89 26 -132 29 -285 3 -175 19 -329 35 -350 5 -5 12
-28 16 -50 9 -50 59 -125 143 -216 55 -59 157 -139 178 -139 3 0 33 -16 65
-36 40 -25 59 -43 59 -57 0 -17 -5 -19 -42 -14 -24 3 -44 11 -46 16 -2 6 -8
11 -14 11 -25 0 -227 133 -269 177 -59 61 -149 214 -149 251 0 5 -6 22 -14 38
-12 26 -35 113 -51 197 -5 22 -9 26 -19 18 -19 -16 -54 143 -36 164 15 18 0
48 -48 94 -37 37 -102 133 -102 151 0 7 -6 24 -14 38 -64 126 -77 394 -23 495
39 72 70 96 83 63z m-3002 -362 c10 -27 7 -33 -39 -82 -25 -26 -52 -54 -59
-62 -27 -31 -35 -79 -28 -172 9 -127 7 -218 -6 -270 -6 -24 -14 -60 -17 -80
-5 -31 -10 -38 -29 -38 -13 0 -28 6 -34 13 -6 6 -12 68 -15 137 -2 69 -10 164
-17 212 -12 78 -12 89 3 112 9 14 17 37 17 51 0 14 4 25 10 25 5 0 12 11 16
24 10 41 131 144 170 145 12 1 25 -6 28 -15z m618 -11 c43 -52 71 -129 76
-210 6 -103 -15 -173 -74 -254 -59 -80 -103 -164 -111 -213 -7 -46 -29 -86
-47 -86 -6 0 -20 9 -29 21 -15 17 -16 26 -8 51 6 17 11 43 11 58 0 15 7 33 15
40 8 7 15 17 15 22 0 5 16 33 35 62 19 29 35 58 35 65 0 6 5 11 10 11 6 0 10
11 10 24 0 13 6 29 14 35 17 14 27 59 14 67 -6 4 -6 10 1 17 21 21 7 180 -17
196 -15 10 -23 71 -12 92 13 24 42 25 62 2z m1959 -59 c14 -17 12 -25 -51
-184 -12 -30 -25 -68 -30 -85 -8 -29 -20 -66 -46 -135 -21 -58 -36 -234 -29
-348 8 -149 32 -272 72 -375 19 -49 32 -95 29 -103 -7 -19 -46 -15 -57 6 -31
60 -49 103 -49 114 0 8 -7 27 -15 42 -8 16 -15 36 -15 45 0 9 -7 30 -15 45 -8
16 -15 37 -15 47 0 10 -5 28 -11 39 -6 12 -15 48 -20 82 -5 34 -13 81 -17 106
-4 25 -4 74 1 110 4 36 11 93 15 127 4 34 13 68 20 75 6 6 12 20 12 30 0 10
13 44 28 75 16 32 50 103 77 158 45 93 79 145 96 145 3 0 13 -7 20 -16z
m-1951 -632 c0 -21 -5 -43 -12 -50 -16 -16 -23 -261 -9 -332 26 -140 40 -189
66 -242 26 -53 28 -88 6 -88 -27 0 -150 202 -151 247 -1 10 -7 29 -15 43 -20
36 -20 227 0 266 8 16 15 41 15 55 0 14 7 34 15 45 8 10 15 27 15 37 0 21 35
57 55 57 11 0 15 -11 15 -38z m2258 -602 c2 -14 8 -29 13 -34 5 -6 9 -20 9
-32 0 -14 23 -44 60 -80 64 -62 82 -102 79 -171 -3 -55 20 -222 33 -246 11
-21 18 -47 40 -136 5 -24 27 -76 48 -117 47 -89 76 -192 85 -295 7 -73 6 -77
-15 -84 -35 -11 -58 19 -65 84 -8 76 -21 124 -57 201 -44 95 -53 118 -78 190
-12 36 -26 74 -31 85 -12 26 -28 151 -35 285 l-7 105 -63 67 c-35 36 -64 73
-64 83 0 9 -7 30 -16 47 -22 43 -6 81 34 76 20 -2 28 -9 30 -28z m-175 -72 c2
-7 0 -31 -5 -53 -14 -61 -5 -113 54 -315 5 -19 14 -39 18 -45 4 -5 11 -26 15
-45 4 -19 11 -41 15 -50 5 -8 18 -44 31 -80 12 -36 26 -69 31 -74 4 -6 8 -19
8 -31 0 -11 6 -29 14 -40 7 -11 16 -38 20 -60 4 -22 13 -58 21 -80 8 -22 28
-92 45 -155 36 -130 115 -377 129 -400 5 -9 12 -31 16 -50 4 -19 11 -39 15
-45 4 -5 11 -34 15 -62 4 -29 11 -55 16 -59 5 -3 9 -20 9 -39 0 -19 5 -46 12
-60 16 -36 -2 -51 -77 -64 -137 -23 -350 -79 -390 -103 -11 -6 -67 -13 -125
-15 -129 -5 -134 -7 -121 -32 8 -14 26 -21 68 -25 111 -13 178 -7 276 23 117
35 152 41 246 41 113 0 134 -7 157 -51 14 -28 14 -33 -1 -55 -32 -49 -118 -90
-260 -126 -44 -11 -96 -24 -115 -29 -19 -6 -147 -11 -285 -13 -243 -3 -329
-11 -420 -42 -199 -66 -643 -89 -860 -45 -60 12 -129 20 -151 18 -23 -2 -49 0
-57 5 -13 7 -127 226 -127 243 0 3 -16 38 -35 79 -19 41 -42 101 -50 132 -8
32 -19 60 -24 63 -5 3 -11 29 -14 56 -3 28 -13 79 -22 115 -26 100 -28 117
-16 124 6 4 11 26 11 49 0 24 6 51 14 62 7 11 17 31 21 43 11 36 65 113 84
119 63 22 104 50 157 105 84 88 114 130 114 162 0 15 7 34 15 43 22 22 15 43
-20 62 -86 46 -148 113 -138 150 8 30 17 27 62 -21 60 -66 75 -69 433 -99 239
-19 453 0 788 71 80 17 168 35 196 39 56 10 150 38 176 52 10 5 24 9 32 9 23
0 27 15 15 47 -24 58 -48 128 -49 141 0 8 -6 28 -14 45 -44 100 -72 309 -47
355 13 24 66 31 74 10z m-2125 -267 c21 -13 10 -54 -15 -61 -21 -5 -63 -50
-63 -67 0 -5 -21 -28 -46 -51 -25 -22 -43 -46 -39 -52 3 -5 24 -19 46 -30 26
-14 41 -29 45 -48 3 -15 10 -39 16 -54 11 -29 8 -71 -11 -178 -14 -79 -33
-131 -85 -234 -33 -68 -124 -200 -147 -216 -4 -3 -17 -30 -29 -60 -20 -50 -21
-60 -10 -112 11 -49 20 -65 64 -107 55 -53 53 -51 109 -126 20 -27 41 -55 47
-62 5 -6 22 -29 37 -51 16 -22 49 -66 74 -98 25 -33 63 -88 85 -123 21 -35 46
-74 54 -86 8 -13 34 -55 58 -94 23 -38 47 -73 52 -76 18 -11 12 -55 -7 -55
-276 -1 -321 -8 -368 -60 l-20 -23 35 7 c87 17 106 18 157 6 30 -6 103 -13
162 -14 59 -1 113 -6 119 -10 7 -4 19 -21 28 -37 14 -27 14 -33 0 -53 -8 -13
-25 -26 -38 -29 -100 -23 -213 -67 -283 -110 -74 -46 -155 -99 -185 -122 -55
-42 -97 -55 -194 -62 -50 -3 -98 -9 -106 -14 -28 -14 31 -20 166 -17 155 5
187 15 332 112 55 36 105 66 112 66 6 0 21 5 33 12 77 42 225 71 244 47 5 -8
25 -54 43 -104 18 -49 37 -103 43 -118 9 -26 13 -28 51 -22 59 9 168 46 189
63 24 21 22 33 -18 91 -43 61 -46 91 -10 91 14 0 33 -4 43 -9 9 -4 35 -17 57
-27 22 -10 50 -30 63 -43 19 -21 26 -23 47 -13 14 6 25 18 25 26 0 19 -58 86
-74 86 -6 0 -22 6 -37 13 -49 26 -123 47 -165 47 -37 0 -47 5 -72 36 -52 63
-58 81 -36 105 15 17 27 20 64 16 52 -5 123 -23 148 -37 22 -12 74 -34 142
-60 30 -12 59 -25 65 -29 5 -5 34 -15 62 -25 50 -16 56 -15 125 4 131 38 160
41 403 41 274 0 300 1 311 12 4 4 18 7 32 7 23 0 129 50 162 76 27 21 132 74
149 74 9 0 29 7 45 15 15 8 32 12 37 9 11 -6 130 15 144 26 6 4 36 10 67 14
31 3 69 14 85 23 40 22 58 13 86 -44 30 -59 36 -92 46 -264 10 -149 0 -238
-29 -264 -10 -9 -44 -23 -77 -31 -139 -35 -181 -45 -223 -54 -70 -15 -247 -68
-265 -80 -44 -29 -111 -42 -203 -38 -86 3 -104 7 -164 37 -42 21 -84 52 -109
80 -154 173 -209 206 -370 216 -81 5 -108 4 -122 -7 -18 -13 -18 -16 -1 -50
23 -49 14 -73 -52 -141 -74 -76 -101 -96 -207 -152 -85 -45 -135 -55 -144 -28
-2 6 43 61 101 122 59 60 106 118 106 128 -1 10 -16 28 -34 39 l-33 21 -36
-61 c-19 -33 -50 -77 -69 -96 -54 -56 -156 -112 -211 -118 -26 -2 -50 -9 -53
-13 -8 -13 -211 -11 -253 2 -20 7 -63 21 -96 33 -44 15 -83 21 -145 21 -122
-1 -167 -11 -235 -51 l-60 -35 40 6 c128 18 156 18 191 -1 19 -10 34 -24 34
-30 0 -7 -26 -20 -57 -31 -47 -14 -90 -18 -223 -18 -159 0 -167 1 -222 27
-116 56 -175 70 -292 70 -131 0 -151 9 -162 71 -4 23 -7 150 -6 283 1 228 2
243 22 278 l22 36 141 1 c78 1 154 0 169 -1 15 -1 37 2 49 5 47 15 -14 27
-165 32 -100 4 -160 10 -178 20 -27 13 -28 15 -28 101 1 49 7 104 15 127 8 22
15 60 15 85 0 25 6 65 14 90 8 25 22 79 31 120 29 131 48 184 77 214 15 17 28
33 28 36 0 4 9 17 20 30 11 13 20 29 20 36 0 7 6 28 14 46 34 78 67 171 101
283 50 164 67 217 76 240 4 11 17 50 29 88 12 37 28 79 36 95 7 15 14 32 14
37 0 6 31 44 70 85 38 41 70 78 70 81 0 3 8 15 18 27 28 33 46 60 72 110 40
75 136 130 178 103z m-108 -932 c0 -11 -11 -37 -25 -57 -34 -50 -35 -144 -2
-204 50 -92 64 -115 90 -156 31 -47 30 -72 -3 -72 -13 0 -30 15 -48 43 -15 23
-52 74 -83 112 -68 86 -84 131 -64 189 8 22 15 47 15 54 0 23 50 93 73 102 35
14 47 11 47 -11z m6974 -110 c10 -22 20 -59 23 -82 10 -85 82 -217 119 -217 6
0 17 -7 24 -15 20 -24 -3 -40 -56 -37 -58 2 -104 30 -153 92 -59 75 -66 100
-53 187 14 90 26 113 55 113 17 0 28 -10 41 -41z m-7948 -134 c19 -14 19 -15
-4 -55 -22 -39 -23 -45 -12 -108 7 -37 10 -80 9 -97 -3 -25 -8 -30 -33 -30
-25 0 -30 6 -47 50 -21 56 -25 145 -8 178 13 25 60 77 69 77 3 0 15 -7 26 -15z
m7236 -175 c20 -58 42 -113 58 -142 6 -10 10 -23 10 -30 0 -7 6 -25 14 -39 7
-14 16 -38 20 -53 4 -15 30 -51 59 -80 54 -55 82 -94 73 -103 -8 -8 -54 6 -66
20 -6 6 -29 38 -52 71 -40 57 -50 74 -128 221 -20 39 -49 88 -64 109 -42 62
-35 89 23 84 32 -3 36 -7 53 -58z m-1848 -354 c112 -3 203 -10 210 -15 7 -6
46 -15 87 -21 41 -6 88 -14 104 -19 17 -5 89 -15 162 -22 105 -10 160 -10 270
0 76 7 153 17 172 23 48 15 61 -9 21 -40 -19 -15 -34 -41 -45 -78 -9 -31 -15
-58 -13 -59 2 -2 35 26 73 61 114 106 221 148 264 105 12 -12 21 -29 21 -38 0
-25 37 -83 53 -83 18 0 62 -48 53 -57 -4 -4 -53 -8 -109 -8 -56 -1 -111 -6
-122 -12 -11 -5 -35 -17 -53 -26 -19 -9 -40 -17 -47 -17 -8 0 -42 -28 -77 -62
-61 -60 -110 -142 -136 -225 -9 -29 -8 -33 8 -33 9 0 28 15 40 33 55 80 233
167 343 167 37 0 68 5 75 12 10 10 15 10 22 -2 15 -23 12 -29 -17 -36 -16 -4
-43 -19 -61 -32 -38 -29 -37 -15 -11 -194 9 -60 10 -97 3 -115 -10 -28 -11
-28 -82 -24 -71 3 -143 -6 -272 -36 -150 -34 -232 -46 -342 -50 -102 -4 -118
-2 -118 11 0 23 54 72 86 78 22 4 32 38 11 38 -8 0 -21 -7 -28 -17 -17 -20
-77 -46 -89 -38 -6 4 -10 28 -10 54 0 58 -7 67 -31 38 -24 -30 -50 -14 -64 41
-5 22 -13 44 -17 48 -5 4 -8 22 -8 40 0 18 -4 36 -10 39 -6 4 -10 -15 -10 -48
0 -38 -4 -57 -14 -60 -15 -6 -47 32 -56 67 -3 11 -11 21 -18 24 -16 5 -16 -45
1 -55 17 -11 50 -110 43 -129 -4 -9 -13 -13 -24 -10 -12 4 -20 -1 -27 -17 -6
-12 -20 -23 -32 -25 -33 -5 -39 -39 -13 -75 21 -27 21 -31 7 -42 -9 -7 -71
-15 -139 -19 -117 -7 -225 -28 -316 -63 -39 -15 -45 -15 -59 -1 -13 14 -13 23
-2 74 16 75 18 326 3 345 -6 8 -12 47 -12 86 -1 60 -7 82 -32 130 -17 31 -42
71 -55 89 -14 18 -25 36 -25 39 0 4 -13 27 -30 52 -16 24 -30 48 -30 52 0 5
-18 21 -40 36 -45 31 -53 67 -21 85 11 5 49 10 85 10 36 0 68 5 71 10 3 6 41
11 83 11 42 1 91 5 107 8 17 4 33 6 36 5 3 -2 94 -5 203 -8z m-1503 -81 c3
-44 12 -101 19 -127 13 -43 12 -49 -5 -68 -23 -26 -37 -25 -63 3 -37 40 -44
72 -32 160 14 97 24 119 53 115 20 -3 23 -11 28 -83z m3061 45 c41 0 121 -22
143 -40 5 -4 21 -11 35 -15 77 -23 240 -182 240 -234 0 -34 -46 -28 -65 9 -9
17 -21 30 -28 31 -6 0 -58 2 -114 3 l-102 3 -76 58 c-77 59 -134 116 -154 154
-9 17 -8 24 9 41 20 20 23 20 45 6 14 -9 44 -16 67 -16z m-2470 -101 c9 -5 31
-9 48 -9 17 0 50 -10 73 -22 23 -12 52 -26 64 -32 62 -31 197 -189 218 -256 4
-14 13 -33 20 -43 27 -38 -3 -238 -47 -322 -38 -72 -160 -205 -188 -205 -8 0
-28 -7 -44 -15 -33 -17 -165 -30 -181 -18 -6 4 -32 36 -58 70 -52 68 -138 126
-234 157 -29 10 -55 21 -58 25 -22 36 -26 452 -5 551 31 144 27 142 218 134
86 -4 165 -11 174 -15z m4059 -111 c0 -7 0 -38 -1 -70 -2 -70 30 -148 60 -148
13 0 20 -7 20 -19 0 -30 11 -51 26 -51 8 0 14 5 14 10 0 23 40 8 55 -19 10
-20 24 -31 42 -33 22 -2 28 -8 26 -25 -1 -11 4 -27 12 -33 21 -17 19 -26 -10
-53 l-25 -23 30 -29 c24 -23 30 -37 30 -70 0 -22 -5 -46 -12 -53 -7 -7 -41
-12 -80 -12 -40 0 -81 -6 -96 -14 -19 -10 -81 -16 -204 -19 l-177 -5 -20 34
c-11 19 -24 34 -29 34 -14 0 -75 -32 -90 -47 -7 -7 -24 -13 -37 -13 -14 0 -29
-9 -36 -21 -9 -17 -17 -20 -43 -15 -21 4 -39 1 -51 -9 -33 -24 -55 -18 -71 21
-17 41 -11 84 11 84 19 0 49 66 49 109 0 20 -2 73 -3 118 -5 117 -7 116 152
111 139 -5 139 -6 156 -65 5 -18 17 -50 27 -72 16 -36 21 -40 61 -43 25 -2 48
-1 51 2 4 3 7 30 7 60 0 79 7 90 55 90 25 0 39 4 35 10 -3 6 -19 10 -36 10
-16 0 -29 5 -29 11 0 6 13 39 29 73 16 34 32 77 36 95 13 61 63 128 66 89z
m-8599 -170 c9 -17 13 -102 13 -333 l0 -310 -55 -12 c-30 -7 -84 -17 -120 -23
-36 -6 -80 -15 -97 -21 -18 -5 -50 -14 -70 -20 -21 -6 -72 -23 -113 -39 -217
-80 -213 -82 -274 152 -26 100 -36 153 -45 246 -9 80 -7 103 10 170 11 42 27
83 36 90 11 7 49 12 102 12 95 0 217 14 301 36 30 7 72 16 93 19 20 4 49 13
65 21 15 7 37 14 49 14 12 0 25 5 28 10 12 19 64 11 77 -12z m8478 -9 c0 -12
-7 -19 -20 -19 -23 0 -24 4 -9 31 12 23 29 16 29 -12z m-9423 -80 c70 -8 117
-17 124 -25 8 -10 8 -39 -1 -111 -32 -268 -34 -414 -4 -480 24 -54 29 -117 9
-136 -19 -20 -80 -23 -92 -4 -4 6 -8 91 -8 187 0 148 -3 180 -17 205 -10 17
-18 39 -18 49 0 33 -68 160 -121 225 -53 66 -55 71 -37 89 15 15 24 15 165 1z
m8066 -66 c23 -14 47 -33 54 -42 6 -9 32 -38 58 -66 61 -65 135 -177 135 -203
0 -29 -10 -32 -61 -21 -114 27 -234 42 -344 46 -66 2 -125 9 -131 14 -9 7 -12
52 -12 145 l0 134 94 0 c51 0 96 4 99 10 11 18 65 10 108 -17z m-9011 -29 c42
-44 261 -214 348 -269 49 -31 122 -104 154 -155 40 -63 54 -121 59 -240 7
-156 -3 -177 -44 -92 -104 215 -246 382 -465 547 -117 88 -118 90 -127 173 -6
52 1 82 19 82 8 0 33 -21 56 -46z m9361 19 c8 -10 25 -47 36 -83 12 -36 26
-73 31 -82 12 -22 13 -68 1 -86 -14 -22 -44 -10 -68 28 -12 19 -26 40 -31 45
-67 85 -82 111 -82 146 0 20 6 40 13 42 29 12 85 6 100 -10z m-9315 -400 c164
-180 332 -405 332 -444 0 -6 29 -71 65 -144 36 -74 65 -140 65 -149 0 -8 4
-17 9 -20 4 -3 11 -35 14 -70 3 -36 10 -73 15 -83 6 -10 31 -62 56 -115 48
-100 58 -148 31 -148 -8 0 -15 6 -15 14 0 8 -6 21 -13 28 -7 7 -16 20 -20 28
-4 8 -11 22 -17 30 -5 8 -19 37 -30 63 -30 68 -78 146 -117 187 -18 19 -33 38
-33 41 0 4 -24 23 -54 44 -62 43 -73 60 -79 135 -14 162 -134 395 -282 550
-41 43 -51 69 -47 123 4 37 42 15 120 -70z m4528 35 c38 -28 78 -61 89 -72 11
-12 36 -32 55 -46 59 -41 72 -57 68 -81 -3 -25 -35 -35 -188 -58 -57 -8 -272
-96 -279 -113 -19 -51 -174 -162 -303 -217 -84 -36 -143 -45 -402 -61 -81 -5
-156 -12 -165 -15 -9 -4 -38 -10 -66 -15 -94 -15 -170 -31 -215 -45 -25 -8
-74 -24 -110 -35 -36 -11 -87 -31 -115 -44 -27 -13 -74 -33 -103 -45 -30 -13
-82 -39 -115 -60 -58 -34 -255 -133 -357 -178 -39 -18 -126 -43 -280 -82 -90
-23 -226 -45 -280 -46 l-55 0 4 146 c3 148 -3 205 -20 178 -5 -8 -9 -28 -9
-46 0 -17 -4 -34 -9 -37 -5 -3 -12 -27 -16 -53 -4 -27 -11 -52 -15 -58 -5 -5
-16 -30 -26 -55 -9 -25 -28 -57 -42 -72 -23 -25 -32 -28 -93 -28 -106 0 -106
0 -124 213 -8 98 -19 185 -24 195 -5 9 -12 53 -16 97 -4 44 -12 91 -17 104 -7
19 -5 29 9 43 16 15 23 16 53 7 19 -7 43 -16 53 -20 27 -14 102 -38 149 -49
158 -35 173 -36 352 -28 99 5 184 12 190 17 6 5 32 12 59 15 26 4 59 14 75 22
15 7 32 14 39 14 6 0 51 21 100 46 48 26 113 60 143 76 30 15 59 33 64 38 6 6
19 10 29 10 10 0 31 6 45 14 72 37 106 47 292 86 54 11 134 20 185 20 50 0
106 4 125 10 19 5 116 14 215 19 99 5 193 14 208 20 16 6 49 11 75 11 26 0 59
6 73 14 14 7 39 16 55 20 67 15 161 73 239 147 100 95 132 113 220 120 39 3
79 6 91 7 12 1 51 -21 90 -50z m1147 -112 c5 -6 6 -52 2 -103 -3 -55 -1 -94 4
-98 6 -3 62 -13 124 -21 111 -15 116 -15 159 4 33 14 50 30 66 60 12 23 17 44
13 47 -5 2 -12 -2 -15 -11 -12 -32 -26 0 -26 61 0 68 6 75 58 75 31 -1 81 -61
101 -123 20 -61 10 -172 -22 -238 -31 -63 -43 -77 -112 -122 -47 -30 -174 -89
-220 -101 -36 -10 -378 13 -432 29 -29 8 -77 22 -105 30 -61 18 -163 35 -228
39 -25 2 -83 8 -130 15 -47 6 -146 11 -220 11 -153 0 -191 11 -223 68 -36 62
-10 89 127 133 32 11 76 19 97 19 69 0 193 22 236 41 23 10 44 19 47 19 2 0
33 13 68 29 132 61 175 78 213 85 22 4 45 11 50 16 6 4 32 10 58 14 27 3 54 9
60 13 20 13 160 30 202 25 22 -3 44 -10 48 -16z m1632 -20 c39 -8 88 -21 110
-29 22 -8 60 -18 85 -21 25 -4 77 -22 115 -40 120 -57 192 -70 247 -46 13 5
80 14 150 19 129 9 185 3 240 -25 14 -8 35 -14 46 -14 11 0 55 -20 98 -45 44
-25 82 -45 87 -45 4 0 26 -12 50 -27 23 -14 55 -29 72 -33 30 -6 45 -34 28
-51 -5 -5 -47 -12 -93 -15 -46 -3 -91 -9 -100 -14 -8 -4 -40 -11 -70 -15 -30
-4 -98 -19 -150 -33 -91 -25 -105 -26 -338 -24 -157 1 -250 -2 -263 -9 -11 -5
-61 -13 -112 -16 -51 -2 -105 -11 -122 -18 -16 -7 -46 -16 -65 -19 -20 -3 -60
-22 -90 -41 -30 -19 -70 -40 -89 -46 -20 -6 -48 -25 -62 -41 -20 -23 -33 -30
-63 -30 -21 0 -45 7 -56 17 -17 15 -24 16 -50 5 -26 -11 -33 -10 -49 4 -9 9
-21 16 -26 16 -5 0 -17 7 -27 16 -16 16 -18 16 -24 0 -3 -9 -17 -16 -29 -16
-13 0 -27 -5 -30 -11 -4 -5 -18 -14 -31 -19 -24 -9 -33 -30 -14 -30 16 0 12
-30 -10 -76 -17 -35 -27 -42 -57 -47 -44 -7 -73 -33 -73 -63 0 -16 -15 -34
-46 -59 -26 -19 -50 -35 -55 -35 -4 0 -11 -10 -15 -22 -10 -34 -74 -127 -93
-137 -19 -11 -118 -27 -276 -47 -146 -17 -209 -29 -272 -47 -29 -9 -53 -14
-53 -12 0 2 -25 -5 -57 -16 -31 -10 -69 -19 -84 -19 -15 0 -30 -4 -33 -9 -3
-4 -28 -11 -56 -15 -29 -4 -80 -23 -118 -43 l-66 -36 -96 8 c-128 11 -135 10
-215 -14 -38 -12 -88 -27 -110 -32 -22 -6 -44 -14 -49 -20 -6 -5 -18 -9 -27
-9 -22 0 -126 -34 -167 -55 -18 -9 -51 -39 -75 -67 -79 -96 -82 -98 -133 -98
l-47 0 6 40 c4 33 2 42 -14 50 -12 7 -19 21 -19 41 0 24 -4 30 -15 25 -8 -3
-22 -9 -30 -12 -11 -4 -20 5 -31 32 l-16 38 -17 -23 c-11 -14 -25 -22 -37 -19
-15 3 -20 14 -24 63 -5 54 -31 115 -49 115 -4 0 -7 -33 -7 -72 0 -40 -6 -83
-12 -95 -14 -25 -41 -30 -60 -11 -7 7 -12 8 -13 3 0 -6 -2 -23 -2 -40 -2 -27
-6 -30 -39 -33 -21 -2 -38 -5 -38 -7 0 -3 9 -19 19 -37 23 -36 19 -48 -14 -48
-34 0 -41 -18 -11 -30 40 -15 29 -42 -19 -47 -11 -1 -60 -6 -109 -12 -49 -5
-112 -7 -139 -4 -43 5 -52 11 -80 49 -46 61 -99 80 -186 66 -61 -9 -70 -8
-112 12 -58 30 -130 25 -254 -16 -94 -31 -120 -47 -131 -82 -4 -11 -13 -25
-20 -31 -7 -5 -24 -30 -37 -55 -26 -49 -99 -108 -150 -120 -17 -4 -57 -14 -87
-23 -41 -10 -72 -12 -120 -6 -36 5 -127 6 -202 3 l-138 -6 0 25 c0 17 12 33
41 52 37 26 59 53 59 71 0 3 -13 4 -30 0 -43 -8 -90 3 -90 22 0 9 10 26 22 39
29 31 17 39 -32 23 -31 -10 -46 -11 -65 -2 -29 14 -31 24 -9 58 12 18 14 28 6
36 -7 7 -20 1 -44 -21 -48 -45 -64 -41 -82 23 -9 30 -19 75 -22 100 -4 25 -11
46 -16 46 -11 0 -38 -62 -38 -89 0 -20 -25 -51 -41 -51 -5 0 -13 8 -16 18 -4
9 -17 31 -29 47 -12 17 -28 43 -34 59 -8 22 -14 26 -22 18 -9 -9 -9 -31 0 -89
10 -73 10 -79 -8 -95 -12 -10 -29 -14 -42 -10 -33 8 -124 103 -142 146 -32 76
23 270 85 304 17 9 63 12 149 11 112 -2 184 4 494 41 48 6 97 15 107 20 10 6
28 10 41 10 13 0 110 44 216 97 143 72 195 94 204 85 30 -30 -75 -228 -149
-278 -75 -51 -141 -81 -191 -89 -39 -6 -63 -27 -49 -41 11 -11 263 19 322 38
95 31 261 148 314 219 44 60 142 141 259 215 35 21 74 46 87 54 100 63 149 89
205 110 36 13 76 30 90 37 14 7 33 13 42 13 9 0 19 4 23 9 6 11 83 22 191 26
44 2 117 11 164 20 105 20 527 37 735 30 142 -6 315 -24 415 -45 25 -5 61 -12
80 -15 42 -8 109 -28 207 -62 125 -42 323 -34 444 19 27 12 49 25 49 30 0 4 6
8 13 8 17 0 123 110 183 190 56 76 61 80 95 80 15 0 53 9 87 19 54 18 79 28
122 53 8 4 24 12 35 17 27 12 172 165 212 224 28 40 37 47 66 47 19 0 79 9
133 20 175 34 177 34 269 16z m-5022 -52 c43 -23 57 -39 68 -78 11 -42 -3
-117 -31 -155 -26 -38 -201 -122 -322 -155 -76 -21 -359 -22 -432 -2 -28 8
-78 22 -111 32 -184 51 -185 51 -212 111 -16 35 -23 63 -19 79 7 28 1 26 125
49 86 16 173 41 226 65 52 23 136 41 195 43 l65 2 0 -132 c0 -124 1 -133 21
-147 36 -26 97 -30 161 -11 99 29 97 27 112 92 11 51 11 64 -3 96 -8 20 -19
37 -25 37 -16 0 -18 33 -4 63 13 26 17 27 84 27 45 0 81 -6 102 -16z m-2385
-16 c7 -7 12 -18 12 -26 0 -8 14 -44 31 -80 51 -112 75 -232 46 -232 -8 0 -24
11 -37 25 -13 14 -43 37 -67 50 -53 32 -68 57 -52 88 7 12 12 50 10 85 -1 35
1 72 4 83 7 21 35 25 53 7z m1205 -365 c18 -11 35 -64 41 -133 4 -41 11 -95
16 -120 25 -126 32 -190 32 -331 0 -131 -2 -154 -15 -157 -24 -5 -29 13 -38
138 -8 122 -15 159 -56 300 -14 47 -30 103 -36 125 -5 22 -13 45 -17 50 -4 6
-13 34 -21 64 -12 50 -12 54 6 67 18 13 63 12 88 -3z m-1185 -249 c56 -47 104
-96 107 -107 2 -12 7 -118 10 -236 4 -118 11 -225 16 -239 5 -13 9 -44 9 -70
1 -26 9 -65 19 -86 24 -50 15 -75 -32 -91 -32 -11 -38 -10 -52 5 -9 10 -20 45
-25 78 -4 32 -12 68 -18 78 -5 10 -17 44 -27 74 -9 30 -23 69 -30 85 -34 80
-77 241 -86 326 -5 52 -13 130 -18 174 -5 44 -6 83 -4 88 10 17 35 2 131 -79z
m1119 -984 c1 -8 5 -41 8 -73 l7 -58 39 6 c48 8 59 -10 33 -51 -18 -26 -18
-27 10 -49 l27 -22 -23 -15 c-20 -14 -21 -18 -10 -42 21 -47 16 -74 -15 -78
-18 -2 -29 -10 -33 -25 -13 -54 -108 -82 -175 -51 -19 9 -28 9 -37 0 -14 -14
-284 -17 -292 -3 -3 4 -38 11 -77 15 -72 6 -73 6 -105 -25 -28 -27 -37 -31
-56 -22 -15 7 -32 7 -51 0 -22 -7 -42 -5 -80 8 -42 14 -58 26 -82 64 -27 42
-30 55 -32 141 -1 68 3 109 15 145 27 79 38 85 151 89 54 2 109 10 122 16 14
8 65 13 134 14 108 0 111 -1 185 -38 41 -21 84 -46 95 -56 25 -23 74 -42 92
-36 8 3 13 22 13 51 0 33 4 45 15 45 8 0 15 -6 15 -14 0 -37 23 -22 45 29 19
41 30 56 43 53 9 -2 18 -10 19 -18z"/>
<path d="M7220 7800 c0 -19 3 -21 12 -12 9 9 9 15 0 24 -9 9 -12 7 -12 -12z"/>
<path d="M7216 7715 c-9 -23 -8 -25 9 -25 17 0 19 9 6 28 -7 11 -10 10 -15 -3z"/>
<path d="M10020 10835 c-3 -18 1 -100 6 -117 8 -28 21 -21 27 15 4 28 -28 130
-33 102z"/>
<path d="M8396 10658 c8 -52 5 -48 32 -42 l21 6 -22 39 c-29 50 -39 49 -31 -3z"/>
<path d="M10070 10175 c0 -8 7 -15 15 -15 8 0 15 4 15 9 0 5 -7 11 -15 15 -9
3 -15 0 -15 -9z"/>
<path d="M10180 10125 c0 -9 -9 -15 -25 -15 -16 0 -25 -6 -25 -15 0 -8 9 -15
20 -15 11 0 23 7 26 15 4 8 12 15 20 15 8 0 14 7 14 15 0 8 -7 15 -15 15 -8 0
-15 -7 -15 -15z"/>
<path d="M9777 8213 c-15 -14 -6 -24 20 -21 34 4 43 28 11 28 -14 0 -28 -3
-31 -7z"/>
<path d="M9572 8128 c-18 -18 -14 -28 8 -28 11 0 20 6 20 14 0 21 -15 27 -28
14z"/>
<path d="M9625 8119 c-10 -15 1 -22 24 -14 12 3 19 11 16 16 -8 12 -32 11 -40
-2z"/>
<path d="M12166 6166 c-8 -43 3 -94 15 -74 11 17 11 108 0 108 -5 0 -12 -15
-15 -34z"/>
</g>
</svg>
