<?xml version="1.0" standalone="no"?>
<!DOCTYPE svg PUBLIC "-//W3C//DTD SVG 20010904//EN"
 "http://www.w3.org/TR/2001/REC-SVG-20010904/DTD/svg10.dtd">
<svg version="1.0" xmlns="http://www.w3.org/2000/svg"
 width="1350.000000pt" height="1077.000000pt" viewBox="0 0 1350.000000 1077.000000"
 preserveAspectRatio="xMidYMid meet">
<metadata>
Created by potrace 1.10, written by Peter Selinger 2001-2011
</metadata>
<g transform="translate(0.000000,1077.000000) scale(0.100000,-0.100000)"
fill="#000000" stroke="none">
<path d="M0 10708 l0 -63 4618 -4 c2539 -2 5577 0 6750 4 l2132 8 0 58 0 59
-6750 0 -6750 0 0 -62z"/>
<path d="M2580 10201 c-49 -27 -67 -49 -81 -102 -10 -37 -10 -55 0 -92 16 -57
32 -71 129 -122 70 -36 77 -43 77 -70 0 -40 -42 -62 -94 -49 -29 7 -37 14 -39
36 -4 31 -32 44 -62 28 -16 -9 -20 -21 -20 -63 0 -63 12 -81 64 -97 92 -29
184 -7 233 57 25 32 28 45 28 109 0 88 -15 108 -115 156 -106 51 -125 79 -74
112 39 26 75 17 103 -26 43 -67 81 -45 81 45 0 58 0 58 -37 74 -58 25 -151 27
-193 4z"/>
<path d="M3507 10201 c-49 -23 -81 -54 -109 -105 -20 -36 -22 -56 -23 -166 0
-134 4 -146 64 -213 52 -57 134 -72 241 -43 75 21 91 43 86 116 -4 45 -1 62
11 71 20 17 34 55 27 74 -5 13 -23 15 -98 13 -84 -3 -91 -5 -94 -24 -2 -12 9
-35 23 -52 19 -23 25 -40 23 -64 -3 -32 -4 -33 -57 -36 -72 -4 -95 17 -111
103 -9 48 -9 76 0 121 15 77 32 101 78 115 48 14 96 -7 106 -46 5 -20 13 -25
36 -25 l30 0 0 73 0 73 -53 17 c-67 21 -131 20 -180 -2z"/>
<path d="M5496 10201 c-57 -20 -120 -84 -137 -140 -17 -58 -22 -172 -10 -231
23 -108 102 -178 201 -179 48 -1 153 28 172 47 6 6 12 43 12 82 2 61 5 72 24
86 17 12 22 24 20 47 l-3 32 -87 3 c-80 3 -88 1 -98 -18 -9 -17 -8 -27 5 -46
8 -13 20 -24 25 -24 17 0 12 -87 -6 -94 -20 -8 -62 -7 -92 0 -74 20 -91 237
-24 316 35 41 123 34 142 -13 10 -24 18 -29 47 -29 l34 0 -3 72 -3 73 -70 17
c-87 20 -89 20 -149 -1z"/>
<path d="M7420 10204 c-26 -9 -59 -30 -77 -51 -30 -33 -33 -42 -33 -98 0 -88
23 -119 127 -170 78 -38 82 -42 83 -72 0 -26 -6 -36 -30 -48 -41 -21 -78 -10
-102 31 -15 26 -27 34 -49 34 l-29 0 0 -74 0 -75 54 -15 c30 -9 73 -16 95 -16
98 0 181 83 181 180 0 75 -43 125 -140 165 -47 19 -80 48 -80 70 0 24 31 45
64 45 38 0 63 -17 68 -45 2 -15 11 -20 33 -20 l30 0 0 70 0 70 -60 17 c-74 20
-80 21 -135 2z"/>
<path d="M2945 10203 c-48 -3 -74 -9 -81 -19 -14 -18 -7 -51 11 -58 19 -7 44
-57 55 -109 5 -23 16 -64 24 -92 24 -78 47 -156 61 -205 13 -49 31 -59 92 -52
35 4 63 40 63 81 0 11 6 35 14 53 7 18 21 60 31 93 9 33 23 75 31 93 8 18 14
43 14 55 0 25 24 63 54 88 17 14 19 22 11 45 l-11 29 -84 -4 c-47 -2 -88 -5
-92 -8 -15 -9 -8 -47 14 -70 l21 -23 -33 -112 c-18 -62 -34 -119 -36 -126 -5
-18 -24 -5 -24 17 0 17 -5 36 -46 163 -18 57 -18 58 3 80 11 13 23 29 27 36 9
15 -21 53 -38 50 -6 -1 -42 -3 -81 -5z"/>
<path d="M4418 10194 c-28 -8 -23 -58 7 -78 l25 -16 0 -170 0 -170 -26 -16
c-19 -13 -24 -24 -22 -48 l3 -31 100 0 100 0 3 33 c3 27 -1 34 -22 42 -23 8
-26 15 -26 54 0 49 1 50 83 61 87 12 138 81 137 186 -1 54 -25 105 -63 133
-25 18 -44 21 -155 23 -70 1 -135 -1 -144 -3z m234 -111 c24 -22 25 -94 1
-115 -22 -19 -64 -30 -80 -20 -9 6 -17 86 -14 140 1 18 71 15 93 -5z"/>
<path d="M4822 10188 c-18 -18 -14 -49 9 -74 21 -22 22 -32 20 -191 -2 -156
-3 -169 -22 -184 -15 -11 -20 -24 -17 -45 l3 -29 90 0 90 0 3 28 c3 20 -4 35
-22 52 -25 23 -26 30 -26 121 0 95 0 97 19 80 11 -10 47 -74 82 -142 34 -68
68 -129 75 -135 7 -6 34 -9 61 -7 l48 3 3 217 c2 212 3 217 25 235 60 47 35
83 -58 83 -73 0 -115 -13 -115 -35 0 -8 14 -29 30 -47 30 -31 31 -33 28 -125
-2 -51 -7 -93 -12 -94 -5 0 -43 64 -83 142 -41 79 -80 147 -86 151 -19 12
-132 9 -145 -4z"/>
<path d="M6493 10190 c-32 -13 -29 -42 7 -73 l30 -27 0 -161 0 -160 -31 -29
c-25 -23 -30 -33 -25 -54 l6 -26 169 0 c191 0 181 -5 181 84 0 79 -42 104 -77
46 -20 -35 -54 -47 -92 -34 -24 9 -26 14 -26 69 l0 60 55 3 c66 4 82 16 78 56
-3 30 -5 31 -60 36 -31 3 -62 10 -68 16 -6 6 -10 31 -8 55 l3 44 47 3 c43 3
49 0 59 -22 14 -30 44 -39 64 -19 22 21 21 129 -1 137 -24 9 -286 6 -311 -4z"/>
<path d="M6892 10188 c-18 -18 -14 -45 10 -68 21 -19 22 -26 19 -193 -2 -155
-4 -174 -22 -190 -20 -19 -23 -34 -13 -61 5 -13 23 -16 93 -16 113 0 140 24
85 75 -21 19 -25 31 -22 67 l3 43 65 8 c59 6 68 11 101 47 63 69 65 194 4 254
-18 18 -47 36 -65 40 -58 11 -245 7 -258 -6z m242 -110 c38 -54 8 -126 -54
-130 l-35 -3 -3 78 -3 77 40 0 c30 0 44 -6 55 -22z"/>
<path d="M8946 10190 c-37 -12 -64 -37 -87 -82 -53 -104 13 -210 159 -253 12
-4 30 -17 38 -31 15 -22 15 -26 0 -49 -28 -42 -126 -43 -126 0 0 17 -35 55
-49 55 -25 0 -41 -34 -41 -83 0 -57 5 -69 35 -84 30 -16 118 -24 166 -17 32 5
54 18 86 50 43 43 43 44 43 115 0 62 -4 77 -26 106 -14 18 -31 33 -38 33 -8 0
-19 7 -26 15 -7 8 -20 15 -29 15 -30 0 -91 49 -91 73 0 34 19 47 67 47 33 0
45 -4 49 -17 12 -38 22 -48 50 -48 26 0 29 4 36 45 10 56 4 86 -22 100 -27 14
-159 21 -194 10z"/>
<path d="M8427 10183 c-17 -16 -6 -63 18 -79 l25 -16 0 -170 0 -170 -26 -20
c-18 -14 -24 -28 -22 -47 l3 -26 100 0 100 0 3 26 c2 19 -4 33 -22 47 -20 16
-26 29 -26 61 0 39 2 41 30 41 56 0 133 37 160 77 35 51 40 163 11 211 -39 62
-70 72 -217 72 -72 0 -134 -3 -137 -7z m240 -105 c34 -32 32 -99 -3 -127 -15
-12 -40 -21 -55 -21 l-29 0 0 79 c0 54 4 81 13 84 26 11 52 6 74 -15z"/>
<path d="M9242 10178 c-20 -20 -13 -46 18 -70 l30 -22 0 -168 c0 -167 0 -168
-25 -184 -27 -18 -38 -43 -29 -68 5 -14 25 -16 135 -16 108 0 136 3 167 19 70
36 105 90 121 187 24 141 -16 261 -104 311 -36 20 -54 23 -170 23 -89 0 -135
-4 -143 -12z m264 -109 c27 -25 44 -82 44 -149 0 -102 -34 -163 -96 -176 -56
-11 -61 6 -63 180 -2 139 0 156 16 165 24 15 72 5 99 -20z"/>
<path d="M10507 10148 c-9 -24 -23 -68 -33 -98 -9 -30 -21 -66 -25 -78 -19
-49 -47 -138 -54 -169 -3 -17 -22 -48 -41 -68 -62 -66 -42 -87 83 -83 84 3 88
4 91 26 2 14 -5 33 -18 47 -12 13 -20 31 -18 42 3 15 13 18 73 18 80 0 92 -13
55 -63 -15 -20 -20 -37 -15 -51 6 -21 12 -22 108 -19 102 3 102 3 105 29 2 19
-4 33 -22 47 -17 13 -33 44 -47 88 -12 38 -27 85 -34 104 -7 19 -20 60 -29 90
-9 30 -25 82 -35 115 l-19 60 -55 3 -55 3 -15 -43z m85 -193 c10 -31 16 -60
13 -65 -4 -6 -22 -10 -41 -10 -37 0 -43 16 -25 62 5 13 12 36 16 52 8 36 13
30 37 -39z"/>
<path d="M10852 10178 c-19 -19 -14 -46 13 -70 25 -21 25 -23 25 -186 0 -160
-1 -165 -25 -194 -26 -31 -30 -45 -17 -66 6 -9 34 -12 103 -10 92 3 94 3 97
28 2 17 -6 34 -23 50 -25 23 -25 25 -25 188 0 164 0 165 26 188 18 17 24 32
22 52 -3 27 -3 27 -93 30 -62 2 -94 -1 -103 -10z"/>
<path d="M219 10121 c-50 -51 -35 -97 46 -136 46 -21 56 -30 53 -48 -4 -32
-53 -35 -83 -7 -13 12 -28 19 -34 15 -16 -9 -13 -51 5 -69 23 -23 99 -21 140
5 31 19 34 25 34 69 0 47 -1 49 -42 68 -24 11 -51 23 -60 26 -11 3 -18 15 -18
31 0 21 4 25 32 25 17 0 39 -7 49 -16 21 -19 39 -11 39 16 0 33 -28 50 -81 50
-42 0 -55 -5 -80 -29z"/>
<path d="M427 10143 c-10 -9 -9 -43 1 -43 12 0 50 -95 74 -183 6 -21 19 -42
30 -48 24 -13 54 -4 61 19 33 101 71 200 84 214 25 28 9 48 -37 48 -45 0 -61
-20 -42 -50 8 -13 7 -29 -5 -61 -24 -70 -46 -88 -58 -46 -3 12 -11 39 -17 59
-8 28 -8 41 1 51 21 26 2 47 -43 47 -24 0 -46 -3 -49 -7z"/>
<path d="M795 10132 c-45 -28 -56 -46 -62 -105 -11 -107 37 -167 133 -167 61
0 94 21 94 58 0 15 7 38 16 50 21 31 10 42 -41 42 -50 0 -60 -9 -40 -36 23
-30 18 -53 -12 -60 -36 -9 -75 14 -85 51 -10 37 0 94 20 118 19 21 75 23 92 2
21 -25 40 -18 40 15 0 24 -6 33 -26 40 -40 15 -96 12 -129 -8z"/>
<path d="M1060 10130 c-12 -8 -13 -13 -2 -30 18 -29 16 -171 -3 -196 -22 -30
-18 -34 31 -34 40 0 45 2 38 18 -4 9 -8 33 -8 52 -1 31 2 35 24 35 20 0 30
-10 51 -50 19 -39 31 -51 52 -53 15 -2 27 -1 27 2 0 4 -13 25 -30 48 -33 46
-37 69 -15 88 21 17 19 83 -2 102 -21 18 -142 31 -163 18z m121 -30 c40 -22
16 -90 -32 -90 -23 0 -32 6 -40 26 -16 43 -2 66 44 73 5 0 17 -4 28 -9z"/>
<path d="M1383 10126 c-42 -19 -63 -62 -63 -128 0 -45 5 -59 31 -91 27 -33 35
-37 78 -37 66 0 109 37 122 104 11 58 -2 114 -31 141 -26 23 -97 29 -137 11z
m83 -22 c29 -8 44 -44 44 -105 0 -81 -56 -122 -115 -83 -28 19 -39 60 -30 115
11 65 44 88 101 73z"/>
<path d="M1663 10133 c-33 -4 -42 -16 -23 -28 17 -10 13 -191 -5 -209 -23 -23
-19 -26 35 -26 28 0 50 2 50 3 0 2 -6 17 -14 33 -20 41 -19 174 1 196 14 16
11 40 -5 36 -4 0 -22 -3 -39 -5z"/>
<path d="M1804 10132 c-7 -5 -8 -38 -4 -102 5 -70 3 -102 -7 -124 -7 -16 -13
-31 -13 -33 0 -1 31 -3 69 -3 82 0 121 18 151 71 33 59 22 128 -26 170 -20 18
-151 34 -170 21z m148 -55 c24 -30 24 -114 -1 -146 -13 -17 -29 -24 -57 -25
l-39 -1 -3 97 c-2 85 -1 97 15 101 30 8 67 -3 85 -26z"/>
<path d="M11555 10105 c-48 -47 -26 -103 51 -137 41 -17 54 -28 54 -44 0 -39
-51 -46 -87 -12 -20 19 -25 20 -33 8 -28 -43 0 -72 70 -73 67 -1 104 25 108
77 4 46 -14 69 -76 96 -35 16 -43 24 -40 42 4 32 43 36 73 8 27 -25 45 -19 45
14 0 35 -20 46 -82 46 -49 0 -63 -4 -83 -25z"/>
<path d="M11755 10121 c-3 -5 -1 -12 5 -16 16 -10 80 -175 80 -208 0 -20 33
-47 58 -47 24 0 34 19 78 145 13 39 33 82 44 96 10 15 16 29 13 33 -4 3 -28 6
-53 6 l-48 0 2 -52 c1 -62 -20 -120 -42 -116 -21 4 -47 107 -33 130 6 10 11
22 11 28 0 13 -107 13 -115 1z"/>
<path d="M12113 10102 c-35 -32 -50 -94 -40 -159 12 -74 86 -112 175 -90 42
11 47 15 50 42 1 17 8 40 14 52 14 28 3 57 -18 49 -9 -3 -27 -6 -40 -6 -27 0
-31 -19 -12 -49 27 -44 -38 -68 -83 -32 -20 16 -24 28 -24 81 0 54 3 64 25 80
32 25 66 25 87 0 28 -32 45 -25 41 18 l-3 37 -70 3 c-65 2 -72 1 -102 -26z"/>
<path d="M12427 10121 c-46 -6 -47 -7 -33 -26 22 -28 22 -187 1 -205 -21 -18
-9 -30 29 -30 39 0 50 8 35 26 -6 7 -9 25 -7 41 2 22 8 28 27 28 19 0 29 -10
45 -42 21 -42 53 -62 76 -48 7 4 2 16 -15 32 -34 35 -41 67 -21 98 9 13 16 40
16 58 0 55 -54 79 -153 68z m91 -37 c24 -17 29 -56 10 -72 -46 -36 -95 -12
-84 42 10 47 35 57 74 30z"/>
<path d="M12723 10114 c-42 -21 -63 -64 -63 -126 0 -47 21 -105 44 -120 18
-13 121 -9 137 5 63 52 71 174 14 227 -31 29 -91 35 -132 14z m88 -27 c38 -29
50 -93 28 -156 -23 -66 -107 -62 -130 6 -31 95 39 198 102 150z"/>
<path d="M12996 10121 c-35 -5 -38 -7 -23 -20 14 -11 17 -32 17 -112 0 -55 -4
-101 -10 -104 -20 -12 1 -25 41 -25 41 0 49 9 24 30 -23 19 -22 195 1 208 15
9 12 34 -4 31 -4 -1 -25 -5 -46 -8z"/>
<path d="M13129 10094 c17 -22 20 -39 19 -110 -1 -57 -6 -88 -14 -95 -25 -20
-3 -29 71 -29 68 0 78 3 106 28 24 21 32 38 36 74 14 122 -21 158 -155 158
l-83 0 20 -26z m152 -23 c24 -25 29 -38 29 -79 0 -68 -27 -102 -81 -102 l-39
0 -2 63 c-1 34 -2 77 -1 96 1 58 47 68 94 22z"/>
<path d="M6075 10073 c-35 -9 -83 -63 -94 -108 -17 -68 7 -129 67 -170 65 -44
155 -27 201 40 69 101 9 234 -108 241 -25 1 -55 0 -66 -3z"/>
<path d="M4053 10049 c-71 -45 -95 -141 -52 -213 30 -51 65 -70 129 -70 91 0
150 59 150 151 0 118 -131 194 -227 132z"/>
<path d="M7922 10047 c-93 -63 -97 -184 -8 -257 26 -21 40 -25 95 -24 63 0 65
1 103 44 35 39 38 47 38 103 0 49 -5 66 -26 94 -50 65 -138 83 -202 40z"/>
<path d="M9955 10051 c-64 -39 -87 -94 -73 -171 22 -118 171 -159 252 -70 71
78 55 184 -36 243 -36 22 -105 22 -143 -2z"/>
<path d="M716 9759 c-9 -64 5 -83 28 -38 25 51 17 89 -19 89 -1 0 -5 -23 -9
-51z"/>
<path d="M1464 9786 c-8 -33 -1 -91 11 -89 14 4 19 113 6 113 -6 0 -13 -11
-17 -24z"/>
<path d="M1856 9759 c-9 -67 7 -86 28 -34 20 48 20 71 0 79 -9 3 -17 6 -19 6
-1 0 -5 -23 -9 -51z"/>
<path d="M302 9752 c6 -59 21 -83 40 -64 9 9 7 22 -7 54 -29 67 -38 69 -33 10z"/>
<path d="M420 9780 c0 -22 1 -23 24 -14 23 9 20 34 -4 34 -13 0 -20 -7 -20
-20z"/>
<path d="M813 9751 c2 -49 10 -65 20 -38 3 8 11 4 22 -11 24 -32 34 -16 28 41
-4 36 -10 47 -23 47 -10 0 -25 3 -34 6 -12 5 -14 -3 -13 -45z"/>
<path d="M937 9793 c-4 -3 -7 -28 -7 -54 0 -49 14 -65 41 -48 12 8 11 11 -4
20 -13 8 -18 20 -15 44 2 35 -4 50 -15 38z"/>
<path d="M1230 9746 c0 -61 9 -73 42 -54 l23 13 -22 3 c-27 4 -35 25 -23 58
13 33 13 34 -5 34 -11 0 -15 -13 -15 -54z"/>
<path d="M1354 9745 c0 -37 4 -55 13 -55 15 0 33 31 33 58 0 16 -28 52 -41 52
-3 0 -5 -25 -5 -55z"/>
<path d="M1746 9792 c-2 -4 -4 -29 -4 -55 1 -39 4 -47 20 -47 20 0 24 15 8 25
-8 5 -8 11 0 20 6 7 8 25 4 39 -6 26 -18 33 -28 18z"/>
<path d="M12054 9789 c-3 -6 -2 -15 4 -21 7 -7 7 -16 0 -28 -6 -10 -8 -25 -4
-35 6 -17 7 -17 26 0 25 22 27 80 4 89 -21 8 -22 8 -30 -5z"/>
<path d="M12583 9793 c-20 -7 -17 -122 2 -130 9 -3 19 -2 23 2 4 4 1 10 -5 12
-19 7 -17 93 2 93 8 0 15 4 15 9 0 11 -21 19 -37 14z"/>
<path d="M12809 9798 c-5 -13 -7 -86 -3 -98 9 -25 25 11 18 42 -3 14 0 29 6
33 11 7 4 25 -11 25 -5 0 -9 -1 -10 -2z"/>
<path d="M13199 9798 c-5 -14 -6 -87 -2 -101 4 -16 7 -15 24 8 25 31 23 88 -3
93 -10 2 -18 2 -19 0z"/>
<path d="M11540 9780 c0 -5 6 -10 14 -10 8 0 18 5 21 10 3 6 -3 10 -14 10 -12
0 -21 -4 -21 -10z"/>
<path d="M11760 9780 c0 -5 6 -10 14 -10 8 0 18 5 21 10 3 6 -3 10 -14 10 -12
0 -21 -4 -21 -10z"/>
<path d="M12150 9740 c0 -48 11 -63 26 -39 4 8 13 4 25 -12 l19 -24 0 58 c0
53 -2 58 -19 52 -11 -3 -22 -1 -26 5 -14 23 -25 7 -25 -40z"/>
<path d="M12277 9783 c-14 -13 -7 -100 8 -113 9 -7 19 -10 22 -6 4 4 3 10 -3
14 -17 12 -14 85 4 99 15 11 15 12 -4 13 -11 0 -24 -3 -27 -7z"/>
<path d="M12694 9735 c0 -46 3 -55 18 -55 25 0 35 47 17 79 -25 43 -36 36 -35
-24z"/>
<path d="M13086 9774 c-3 -9 -6 -31 -6 -50 0 -33 1 -33 20 -17 18 15 18 19 5
32 -13 13 -13 17 2 33 14 16 14 18 1 18 -9 0 -19 -7 -22 -16z"/>
<path d="M13310 9780 c0 -5 6 -10 14 -10 8 0 18 5 21 10 3 6 -3 10 -14 10 -12
0 -21 -4 -21 -10z"/>
<path d="M200 9766 c0 -8 5 -18 10 -21 6 -3 10 3 10 14 0 12 -4 21 -10 21 -5
0 -10 -6 -10 -14z"/>
<path d="M11640 9746 c0 -66 31 -111 45 -67 6 21 -22 101 -36 101 -5 0 -9 -15
-9 -34z"/>
<path d="M573 9762 c-21 -14 -20 -67 2 -76 37 -14 65 26 45 64 -11 21 -27 25
-47 12z"/>
<path d="M1086 9749 c-17 -25 -12 -45 16 -60 15 -8 24 -7 39 7 24 21 24 36 1
57 -25 22 -38 21 -56 -4z"/>
<path d="M1621 9756 c-17 -20 -10 -56 12 -70 15 -9 22 -7 38 13 17 21 18 26 6
45 -18 26 -40 31 -56 12z"/>
<path d="M11906 9734 c-19 -18 -19 -20 -6 -45 12 -21 40 -25 58 -7 18 18 14
46 -7 58 -25 13 -27 13 -45 -6z"/>
<path d="M12438 9743 c-34 -8 -32 -57 3 -68 22 -7 59 11 59 28 -1 28 -30 47
-62 40z"/>
<path d="M12968 9743 c-26 -7 -24 -60 2 -68 39 -12 66 35 38 63 -7 7 -14 11
-17 11 -4 -1 -14 -3 -23 -6z"/>
<path d="M425 9720 c-14 -15 -16 -23 -7 -32 17 -17 42 -1 42 27 0 30 -11 32
-35 5z"/>
<path d="M11773 9725 c-3 -9 -3 -19 1 -22 3 -3 1 -12 -6 -20 -15 -18 -2 -29
17 -13 17 14 21 70 5 70 -6 0 -13 -7 -17 -15z"/>
<path d="M211 9707 c-6 -8 -8 -17 -5 -20 9 -8 44 11 44 23 0 15 -26 12 -39 -3z"/>
<path d="M1979 9704 c-11 -14 -10 -15 11 -12 13 1 25 9 28 16 5 17 -23 15 -39
-4z"/>
<path d="M13333 9685 c-15 -16 -16 -25 -5 -25 4 0 13 9 20 20 14 23 3 26 -15
5z"/>
<path d="M9225 7554 c-78 -12 -241 -66 -259 -84 -6 -6 -16 -10 -23 -10 -7 0
-47 -20 -89 -45 -41 -25 -78 -45 -81 -45 -3 0 -22 -13 -43 -30 -21 -16 -40
-30 -43 -30 -3 0 -52 -35 -110 -78 -151 -113 -171 -121 -504 -208 -29 -8 -77
-21 -106 -29 -30 -8 -63 -15 -74 -15 -11 0 -39 -6 -64 -14 -24 -7 -78 -21
-119 -30 -41 -10 -100 -23 -130 -31 -30 -7 -91 -21 -135 -30 -44 -9 -109 -23
-145 -30 -183 -39 -482 -72 -710 -79 -231 -7 -399 -25 -665 -71 -44 -8 -123
-21 -175 -30 -209 -36 -317 -64 -499 -130 -115 -42 -370 -170 -526 -265 -33
-20 -67 -40 -75 -44 -17 -8 -39 -21 -97 -59 -24 -15 -45 -27 -47 -27 -3 0 -24
-13 -48 -29 -24 -16 -61 -39 -83 -51 -22 -12 -53 -30 -70 -41 -16 -10 -37 -22
-45 -26 -8 -3 -73 -40 -143 -80 -71 -40 -131 -73 -133 -73 -2 0 -21 -10 -42
-23 -20 -13 -64 -38 -97 -56 -57 -31 -215 -126 -273 -163 -15 -10 -34 -21 -42
-25 -37 -17 -209 -155 -253 -202 -122 -134 -377 -504 -649 -944 -40 -65 -80
-129 -88 -142 -8 -13 -39 -64 -69 -112 -30 -48 -89 -131 -130 -184 -191 -242
-281 -454 -267 -635 6 -74 -11 -188 -37 -259 -8 -22 -36 -82 -61 -134 -25 -52
-46 -103 -46 -112 0 -10 12 -29 26 -43 39 -35 28 -70 -58 -182 -40 -52 -88
-114 -105 -137 -33 -43 -41 -67 -22 -67 16 0 113 78 210 167 93 87 106 93 249
118 195 33 264 57 390 134 19 11 42 24 50 28 21 10 288 170 327 196 36 24 53
61 53 113 0 18 6 48 14 66 21 49 45 234 51 393 3 77 10 215 17 306 9 145 9
174 -5 220 -54 183 -59 254 -22 331 37 78 85 126 134 134 71 11 70 32 -7 113
-24 25 -42 58 -52 91 -12 43 12 100 65 154 53 54 106 76 186 76 72 0 80 -6
158 -107 17 -23 50 -56 72 -74 l40 -32 25 23 c13 13 24 29 24 35 0 7 9 24 21
39 15 19 30 26 54 26 19 0 39 6 44 13 6 6 25 29 43 51 25 30 33 49 35 89 2 28
4 51 5 52 6 3 224 193 267 232 31 29 55 43 74 43 16 0 41 11 55 24 15 14 126
109 247 212 121 104 231 198 245 210 43 38 255 217 305 259 27 22 54 46 61 53
7 6 17 12 23 12 27 0 5 -30 -70 -95 -45 -38 -88 -77 -97 -86 -10 -8 -66 -58
-127 -110 -155 -134 -153 -131 -153 -163 0 -25 -26 -55 -176 -200 -162 -158
-177 -174 -182 -214 -5 -28 -18 -56 -43 -85 -73 -83 -71 -76 -71 -252 l0 -161
-50 -76 c-39 -59 -50 -85 -50 -116 0 -22 -6 -44 -13 -50 -7 -6 -42 -16 -77
-21 -55 -9 -68 -15 -89 -43 -14 -18 -59 -68 -98 -111 -46 -49 -73 -86 -73
-101 0 -12 -7 -31 -15 -42 -18 -24 -19 -82 -1 -159 20 -86 40 -304 32 -356
-17 -111 -17 -150 -2 -196 8 -26 16 -61 18 -78 3 -27 6 -30 39 -30 40 0 64
-15 84 -55 19 -38 -1 -64 -66 -85 -58 -20 -57 -11 -24 -155 26 -116 28 -117
80 -68 24 23 46 51 49 64 3 12 25 45 49 73 73 86 98 202 72 332 -24 115 -25
320 -2 371 9 21 17 40 17 43 0 3 -26 18 -57 32 -63 29 -152 83 -176 108 -20
19 -11 45 15 45 10 0 38 -9 61 -21 92 -45 147 -60 216 -60 59 0 81 6 154 40
46 22 127 49 178 61 145 34 211 51 244 65 17 7 47 20 68 29 21 9 45 16 55 16
19 1 99 28 147 51 17 7 68 40 115 73 47 32 103 69 125 80 22 12 63 46 91 76
51 56 61 80 94 225 23 105 27 121 38 145 18 45 42 132 42 155 0 54 117 141
225 170 79 20 88 19 125 -11 l31 -26 114 28 c88 21 118 25 127 16 6 -6 14 -50
16 -97 l4 -85 -34 -32 c-54 -52 -78 -69 -134 -95 -47 -21 -114 -85 -114 -109
0 -4 -11 -35 -25 -69 -43 -108 -56 -359 -24 -443 6 -15 19 -55 30 -90 18 -62
18 -66 0 -151 -10 -49 -24 -97 -30 -109 -17 -32 4 -36 48 -7 50 31 55 31 69 0
9 -19 19 -25 45 -25 18 0 38 5 44 11 5 5 25 18 44 27 l34 17 3 123 c2 100 5
122 18 122 22 0 25 -17 27 -138 2 -92 5 -113 21 -131 26 -29 52 -27 60 5 9 34
-2 110 -20 152 -17 38 -8 65 12 37 8 -10 20 -15 29 -11 13 5 15 15 10 53 -8
56 -33 143 -48 161 -6 8 -6 12 2 12 18 0 69 -59 76 -89 25 -100 102 -183 140
-151 43 36 95 182 95 268 0 73 15 80 37 17 11 -33 11 -51 -2 -124 -9 -47 -18
-100 -22 -117 -4 -23 2 -41 20 -70 50 -79 93 -100 113 -56 5 9 8 108 9 219 0
127 4 204 10 205 6 2 11 -8 13 -22 2 -14 10 -47 18 -74 10 -36 14 -105 14
-246 0 -194 0 -196 28 -250 15 -30 35 -56 45 -58 16 -3 17 15 17 280 0 156 4
289 9 296 14 23 21 -23 21 -143 1 -159 16 -323 30 -340 17 -21 36 -19 59 6 18
19 20 39 23 245 2 144 7 227 14 234 14 14 24 -96 24 -272 0 -71 5 -138 10
-149 13 -23 52 -25 70 -4 7 8 15 15 19 15 4 0 39 32 78 70 45 44 83 73 102 76
39 8 59 32 111 129 58 109 99 164 123 165 12 0 -3 -48 -34 -106 -44 -81 -36
-104 19 -66 33 23 92 52 105 52 6 0 -17 -27 -51 -61 -65 -64 -72 -81 -44 -115
14 -17 62 -44 77 -44 7 0 42 73 49 103 10 43 34 34 38 -15 3 -36 6 -42 23 -40
10 2 25 11 32 20 32 41 110 159 116 175 3 9 11 17 17 17 15 0 12 -76 -5 -117
-26 -63 -20 -85 36 -132 58 -50 99 -110 99 -145 0 -35 -15 -40 -34 -11 -28 43
-116 127 -129 122 -22 -7 -20 -102 2 -144 22 -42 78 -106 101 -117 8 -3 33
-17 55 -31 46 -28 116 -33 135 -10 20 24 -6 152 -55 270 -7 17 -20 50 -30 75
-9 25 -21 53 -26 62 -18 35 -8 32 29 -9 45 -52 82 -144 99 -250 6 -37 26 -58
48 -49 12 4 15 27 15 120 0 63 4 118 10 121 5 3 11 -4 14 -17 2 -13 11 -62 19
-110 15 -86 39 -137 65 -138 6 0 12 -3 12 -8 0 -12 87 -54 107 -50 35 6 46 70
46 258 0 139 -3 184 -16 219 -10 24 -17 47 -17 52 0 16 20 9 27 -8 4 -10 16
-31 27 -48 12 -16 22 -32 24 -35 2 -3 10 4 18 14 12 18 14 7 14 -90 0 -197 15
-250 51 -186 29 50 42 119 35 185 l-6 62 24 -28 c14 -16 27 -34 29 -40 3 -9 8
-9 16 -1 14 12 18 235 6 273 -10 31 19 27 42 -6 24 -36 53 -100 53 -118 0 -32
40 -105 57 -105 54 1 151 49 206 102 58 57 116 98 139 98 10 0 18 -2 18 -4 0
-2 -31 -35 -70 -74 -73 -73 -83 -98 -61 -154 5 -13 19 -57 31 -98 15 -50 32
-84 50 -102 24 -22 28 -34 27 -74 -2 -46 -1 -47 42 -70 71 -38 71 -38 71 84 0
117 7 163 21 140 5 -7 9 -31 10 -53 1 -22 5 -53 9 -70 l7 -30 11 27 c6 15 16
78 22 140 19 198 20 200 38 196 24 -4 31 -81 24 -244 -3 -72 -2 -143 2 -157 9
-36 42 -35 104 3 27 16 55 30 62 30 8 0 10 8 6 28 -12 45 -19 150 -12 175 6
25 39 43 85 49 23 3 26 11 41 89 22 112 28 128 40 109 6 -8 10 -29 10 -47 0
-17 4 -34 9 -38 9 -5 81 102 81 121 0 14 50 57 57 50 4 -3 -12 -41 -35 -84
-98 -183 -105 -201 -93 -216 7 -8 31 -17 54 -21 23 -3 71 -12 107 -20 186 -38
401 -55 470 -35 58 17 66 25 52 52 -15 27 -94 87 -152 114 -8 4 -37 21 -65 38
-80 48 -84 66 -22 94 90 42 360 82 557 83 164 0 204 7 208 37 2 14 -2 22 -11
22 -14 0 -66 14 -175 48 -89 28 -147 91 -109 119 10 8 127 40 267 74 19 4 58
15 85 23 28 9 73 22 100 30 195 57 340 126 418 199 28 27 36 57 15 57 -7 0
-33 -9 -57 -20 -50 -23 -81 -26 -81 -7 0 8 27 52 61 98 70 97 139 233 146 287
4 28 0 43 -12 55 -22 23 -36 21 -80 -9 -30 -20 -307 -254 -325 -274 -3 -3 -36
-30 -75 -60 -38 -30 -78 -62 -88 -72 -29 -25 -177 -123 -225 -148 -24 -13 -63
-25 -88 -28 -68 -7 -268 22 -439 65 -205 51 -230 57 -380 103 -148 45 -352
138 -600 275 -126 70 -229 126 -260 141 -16 8 -70 37 -120 64 -177 98 -412
208 -520 246 -60 20 -132 45 -160 54 -73 25 -238 97 -293 127 -125 69 -139
100 -69 154 23 19 44 36 47 39 12 15 288 218 315 232 82 43 266 98 510 152 74
16 283 32 555 42 91 3 210 12 264 20 213 30 587 17 851 -31 140 -25 372 -37
655 -33 246 3 279 5 304 21 41 27 32 63 -26 107 -51 38 -79 50 -238 100 -58
19 -118 39 -135 46 -16 7 -48 19 -70 27 -40 15 -240 97 -302 123 -67 28 -99
42 -143 60 -25 10 -52 24 -61 31 -8 7 -19 13 -22 13 -4 0 -40 26 -80 58 -264
213 -306 242 -409 290 -157 74 -338 118 -583 141 -130 13 -146 13 -250 -5z
m87 -3499 c-2 -30 -8 -55 -13 -55 -11 0 -12 164 -1 174 11 12 19 -56 14 -119z"/>
<path d="M4127 5122 c-26 -26 -47 -53 -47 -60 0 -7 -4 -12 -9 -12 -4 0 -6 -11
-4 -25 5 -24 -14 -39 -81 -59 -16 -6 -18 -13 -12 -59 9 -66 16 -73 63 -61 39
9 49 24 111 164 8 19 21 47 29 62 15 29 18 84 5 92 -5 3 -30 -16 -55 -42z"/>
<path d="M7520 4150 c0 -12 9 -33 20 -47 11 -14 20 -31 20 -37 0 -6 7 -22 16
-34 l16 -23 34 38 c18 21 33 41 34 45 0 14 -79 68 -109 74 -27 6 -31 4 -31
-16z"/>
<path d="M8956 4151 c-9 -14 5 -42 18 -38 18 6 20 47 2 47 -8 0 -17 -4 -20 -9z"/>
<path d="M8870 4131 c-31 -13 -60 -36 -60 -48 0 -9 16 -13 50 -13 38 0 52 4
59 19 8 13 7 22 -2 28 -22 18 -32 21 -47 14z"/>
<path d="M9066 4116 c-21 -33 -20 -43 5 -57 27 -14 40 3 37 45 -4 38 -21 43
-42 12z"/>
<path d="M7334 4101 c-35 -10 -114 -64 -114 -78 0 -7 -4 -13 -9 -13 -5 0 -13
-10 -16 -22 -4 -13 -13 -38 -21 -55 -35 -81 -43 -100 -53 -132 -15 -48 -14
-53 10 -39 49 29 113 96 136 143 14 28 40 70 58 95 49 68 57 86 42 97 -6 6
-22 7 -33 4z"/>
<path d="M6472 4083 c-14 -26 -5 -41 38 -63 42 -22 50 -18 50 21 0 47 -69 80
-88 42z"/>
<path d="M6585 4090 c-9 -15 5 -78 21 -91 8 -6 14 -26 14 -44 0 -44 9 -65 28
-65 9 0 30 -5 49 -12 18 -6 35 -9 38 -6 14 14 24 120 13 138 -15 23 -82 54
-101 47 -9 -3 -19 4 -26 19 -11 25 -26 31 -36 14z"/>
<path d="M9145 4063 c3 -16 15 -37 26 -48 19 -19 19 -19 19 10 -1 33 -20 65
-40 65 -8 0 -10 -9 -5 -27z"/>
<path d="M7495 4048 c-2 -7 -1 -38 3 -68 6 -45 10 -55 26 -55 22 0 40 46 31
80 -7 27 -54 61 -60 43z"/>
<path d="M7661 4034 c-11 -14 -37 -59 -57 -100 -33 -67 -36 -79 -26 -107 32
-94 41 -112 60 -115 24 -4 25 0 45 113 26 145 35 209 30 222 -8 21 -30 15 -52
-13z"/>
<path d="M7416 3998 c-40 -87 -40 -90 -1 -133 23 -26 38 -36 44 -30 12 12 2
215 -10 215 -5 0 -19 -24 -33 -52z"/>
<path d="M8758 3970 c-39 -30 -68 -83 -68 -124 0 -20 3 -36 8 -36 4 0 38 29
75 64 54 50 68 69 65 87 -4 32 -45 37 -80 9z"/>
<path d="M7091 3935 c-11 -19 -17 -35 -13 -35 13 1 39 25 51 48 20 38 -14 27
-38 -13z"/>
<path d="M7766 3928 c-3 -24 -8 -65 -11 -92 -6 -41 -3 -52 16 -72 31 -34 45
-30 53 14 13 79 7 151 -14 172 -29 29 -38 25 -44 -22z"/>
<path d="M9150 3952 c0 -25 11 -34 28 -23 9 5 7 12 -8 26 -19 18 -20 18 -20
-3z"/>
<path d="M7001 3877 c-20 -22 -22 -33 -19 -108 2 -66 6 -84 18 -84 24 0 38 44
42 129 3 87 -5 100 -41 63z"/>
<path d="M8346 3874 c-3 -8 -2 -23 3 -33 13 -23 108 -111 121 -111 21 0 9 43
-22 83 -63 79 -89 95 -102 61z"/>
<path d="M8786 3846 c-20 -19 -36 -38 -36 -41 0 -4 -9 -18 -20 -32 -27 -35
-25 -59 6 -88 45 -42 59 -34 84 48 12 39 26 85 31 101 13 41 12 46 -10 46 -10
0 -35 -15 -55 -34z"/>
<path d="M7970 3845 c0 -8 4 -15 8 -15 5 0 14 -11 20 -25 6 -14 16 -25 22 -25
16 0 12 40 -5 46 -8 4 -15 12 -15 20 0 8 -7 14 -15 14 -8 0 -15 -7 -15 -15z"/>
<path d="M9635 3836 c-33 -19 -41 -29 -43 -58 -3 -33 16 -68 37 -68 4 0 25 23
46 52 22 28 46 57 53 64 37 38 -32 45 -93 10z"/>
<path d="M7370 3801 c0 -38 13 -46 35 -21 21 23 13 50 -15 50 -15 0 -20 -7
-20 -29z"/>
<path d="M9005 3766 c-12 -18 -15 -44 -13 -97 2 -41 7 -73 12 -72 12 2 35 81
43 146 5 39 3 47 -10 47 -9 0 -24 -11 -32 -24z"/>
<path d="M8336 3773 c-3 -3 -6 -51 -6 -105 0 -108 8 -121 55 -100 26 12 55 69
55 106 0 36 -85 117 -104 99z"/>
<path d="M7165 3733 c-4 -15 -13 -40 -20 -54 -15 -28 -23 -94 -13 -105 12 -11
28 7 28 32 0 14 7 41 15 61 17 41 19 79 5 88 -5 3 -12 -7 -15 -22z"/>
<path d="M8035 3731 c-7 -12 34 -41 57 -41 21 0 22 9 4 33 -14 18 -51 23 -61
8z"/>
<path d="M7887 3713 c-4 -3 -7 -15 -7 -25 0 -21 25 -24 33 -4 6 16 -16 40 -26
29z"/>
<path d="M7746 3671 c-4 -6 -10 -33 -13 -61 -5 -42 -3 -51 12 -56 33 -13 50 9
50 67 0 48 -3 54 -22 57 -11 2 -24 -2 -27 -7z"/>
<path d="M9116 3654 c-4 -10 -2 -22 3 -27 7 -7 13 -5 17 7 4 10 2 22 -3 27 -7
7 -13 5 -17 -7z"/>
<path d="M4525 3483 c-4 -18 -14 -38 -21 -44 -8 -6 -14 -18 -14 -27 0 -39 -60
-114 -212 -268 -80 -82 -106 -113 -94 -117 9 -4 39 12 76 38 33 25 63 45 66
45 7 0 81 56 111 85 52 50 122 252 103 299 -8 19 -9 18 -15 -11z"/>
<path d="M3466 2589 c-7 -36 7 -60 25 -42 13 13 8 65 -7 70 -6 2 -14 -11 -18
-28z"/>
<path d="M672 1073 c-30 -4 -33 -7 -26 -26 12 -37 16 -166 5 -197 -13 -38 0
-46 72 -42 68 5 102 31 118 92 15 56 5 112 -24 144 -23 26 -81 38 -145 29z
m104 -64 c22 -24 24 -87 3 -125 -9 -18 -20 -24 -38 -22 -25 3 -26 6 -29 72 -2
38 -1 75 2 83 8 20 40 16 62 -8z"/>
<path d="M1068 1072 c-38 -16 -60 -61 -62 -126 -1 -74 14 -107 59 -131 62 -34
135 2 135 65 0 14 5 31 12 38 18 18 -4 34 -43 30 -28 -2 -33 -7 -31 -23 9 -57
8 -60 -26 -63 -27 -3 -34 1 -42 23 -21 55 -6 137 27 150 9 3 30 -4 48 -15 35
-22 45 -18 45 17 0 35 -71 56 -122 35z"/>
<path d="M1432 1073 c-68 -4 -82 -16 -62 -53 11 -20 13 -20 29 -6 10 9 21 13
24 9 12 -11 8 -150 -5 -178 -14 -32 -8 -38 42 -38 50 0 55 5 39 35 -12 22 -14
176 -3 188 3 3 12 -4 20 -14 19 -26 37 -9 32 30 -3 32 -7 33 -116 27z"/>
<path d="M1831 1071 c-11 -7 -12 -13 -4 -23 18 -21 19 -169 2 -196 -19 -31 -1
-42 72 -42 59 0 79 11 79 46 0 31 -18 39 -40 19 -16 -15 -22 -15 -35 -5 -18
15 -21 150 -4 167 30 30 -31 59 -70 34z"/>
<path d="M870 1056 c0 -8 5 -18 11 -22 8 -4 10 -41 7 -115 l-4 -109 36 0 36 0
-4 110 c-3 73 -1 114 7 123 16 20 4 27 -46 27 -31 0 -43 -4 -43 -14z"/>
<path d="M1255 1048 c14 -42 17 -152 5 -192 -14 -46 -6 -54 46 -48 31 4 35 7
28 26 -4 11 -9 59 -11 104 -4 67 -1 87 11 101 21 24 11 31 -42 31 -42 0 -44
-1 -37 -22z"/>
<path d="M1645 1058 c-2 -7 -6 -24 -8 -38 -7 -34 -25 -85 -53 -148 -13 -29
-24 -55 -24 -57 0 -3 20 -5 45 -5 45 0 45 0 45 36 0 33 2 35 28 32 21 -2 27
-9 29 -28 0 -14 1 -30 2 -36 1 -7 14 -10 34 -8 17 1 35 3 40 3 11 1 8 46 -4
58 -6 6 -14 26 -19 44 -4 19 -14 50 -21 69 -6 19 -16 47 -22 63 -7 21 -16 27
-39 27 -16 0 -30 -6 -33 -12z m47 -130 c-20 -20 -36 5 -21 33 l12 24 10 -23
c7 -16 7 -26 -1 -34z"/>
<path d="M368 703 c-29 -3 -38 -9 -38 -23 0 -10 5 -22 10 -25 6 -3 10 -44 10
-89 0 -63 -4 -87 -15 -96 -27 -22 0 -34 72 -32 62 2 70 4 96 32 24 27 27 38
27 103 0 63 -3 76 -22 94 -31 28 -63 43 -85 41 -10 -1 -35 -3 -55 -5z m103
-80 c13 -33 6 -107 -11 -128 -18 -22 -47 -18 -54 8 -8 30 -8 132 1 140 3 4 17
7 30 7 16 0 27 -8 34 -27z"/>
<path d="M623 689 c-33 -21 -63 -81 -63 -127 1 -48 34 -107 70 -122 43 -18 97
-4 124 33 17 23 21 43 21 104 0 72 -1 76 -33 104 -38 34 -74 37 -119 8z m97
-80 c17 -60 -5 -123 -43 -127 -24 -3 -30 2 -43 34 -17 40 -14 95 7 120 6 8 24
14 40 14 25 0 30 -5 39 -41z"/>
<path d="M812 697 c-8 -10 -8 -20 2 -39 8 -15 22 -59 31 -100 25 -103 32 -118
55 -118 23 0 39 31 47 93 3 21 9 40 14 42 4 3 18 -26 30 -65 21 -64 26 -71 48
-68 24 3 39 38 58 138 3 19 15 52 26 73 24 46 12 61 -38 51 -39 -8 -39 -8 -26
-45 8 -24 8 -38 -2 -57 -19 -40 -35 -38 -42 5 -10 67 -20 88 -41 91 -17 2 -24
-6 -37 -49 -9 -28 -17 -60 -17 -70 0 -21 -15 -25 -26 -8 -3 6 -7 39 -8 73 -1
61 -1 61 -32 64 -17 2 -36 -3 -42 -11z"/>
<path d="M1178 703 c-19 -5 -24 -38 -8 -48 14 -9 13 -161 -2 -185 -15 -24 -6
-33 32 -32 44 1 54 11 35 32 -18 19 -18 96 0 94 5 -1 23 -27 40 -59 17 -31 39
-61 49 -67 34 -19 44 6 48 120 2 59 8 114 12 123 5 13 1 18 -20 22 -49 9 -55
1 -48 -64 6 -50 4 -59 -9 -59 -10 0 -25 20 -38 50 -19 44 -52 82 -69 79 -3 -1
-13 -3 -22 -6z"/>
<path d="M1438 705 c-3 -3 -3 -53 0 -110 4 -80 2 -108 -9 -121 -22 -27 8 -39
84 -36 l67 4 0 39 c0 42 -13 51 -30 19 -13 -24 -45 -26 -54 -4 -10 27 -7 126
6 161 6 18 10 34 7 37 -8 8 -65 17 -71 11z"/>
<path d="M1662 697 c-37 -21 -54 -56 -60 -123 -4 -56 -2 -68 19 -99 35 -51
104 -59 152 -17 9 8 24 37 31 63 36 119 -51 226 -142 176z m76 -56 c8 -4 16
-27 19 -51 11 -83 -55 -148 -88 -87 -17 29 -16 111 0 131 15 17 48 21 69 7z"/>
<path d="M1934 684 c-9 -13 -20 -38 -24 -56 -13 -51 -30 -100 -51 -140 -22
-42 -14 -53 36 -50 34 3 52 16 36 26 -24 15 -11 36 22 36 42 0 49 -7 34 -31
-15 -24 -5 -32 41 -32 58 0 65 8 37 49 -13 19 -28 54 -34 77 -31 130 -64 172
-97 121z m36 -110 c0 -31 -23 -28 -28 4 -2 15 2 22 12 22 11 0 16 -9 16 -26z"/>
<path d="M2122 697 c-9 -11 -10 -22 -2 -41 13 -36 13 -152 -1 -178 -17 -31 2
-42 73 -39 56 1 66 5 90 31 49 53 49 146 0 201 -23 26 -37 31 -87 36 -47 4
-63 2 -73 -10z m128 -66 c15 -29 12 -104 -6 -129 -18 -26 -49 -29 -58 -6 -8
21 -8 139 1 147 13 14 53 6 63 -12z"/>
</g>
</svg>
