<?xml version="1.0" standalone="no"?>
<!DOCTYPE svg PUBLIC "-//W3C//DTD SVG 20010904//EN"
 "http://www.w3.org/TR/2001/REC-SVG-20010904/DTD/svg10.dtd">
<svg version="1.0" xmlns="http://www.w3.org/2000/svg"
 width="300.000000pt" height="195.000000pt" viewBox="0 0 300.000000 195.000000"
 preserveAspectRatio="xMidYMid meet">
<metadata>
Created by potrace 1.10, written by Peter Selinger 2001-2011
</metadata>
<g transform="translate(0.000000,195.000000) scale(0.050000,-0.050000)"
fill="#000000" stroke="none">
<path d="M0 1950 l0 -1950 3000 0 3000 0 0 1950 0 1950 -3000 0 -3000 0 0
-1950z m2473 1127 c407 -152 514 -613 179 -769 -138 -64 -165 -62 -180 17 -65
345 -376 550 -642 424 -137 -65 -149 -108 -27 -97 160 15 326 -113 206 -160
-103 -39 -108 -255 -18 -697 69 -337 66 -402 -19 -487 -172 -172 -338 -74
-585 342 -246 416 -418 588 -591 590 -83 0 -86 36 -5 52 307 57 526 -76 818
-496 125 -178 259 -314 285 -288 5 4 -33 69 -84 143 -335 490 -388 908 -153
1205 184 232 533 327 816 221z m1742 -36 c474 -254 501 -841 64 -1417 -84
-112 -90 -124 -59 -124 44 0 183 152 320 350 264 382 509 516 800 435 l70 -20
-60 -13 c-198 -45 -222 -58 -340 -179 -78 -80 -169 -209 -260 -370 -213 -376
-302 -463 -471 -463 -201 0 -246 143 -168 534 80 399 80 621 0 705 -97 102 -6
189 184 175 120 -8 109 31 -25 95 -247 117 -512 -35 -614 -353 -47 -145 -52
-149 -158 -113 -307 104 -337 399 -68 669 188 189 527 228 785 89z m-1065
-576 c11 -8 45 -52 74 -98 50 -78 254 -207 327 -207 96 0 96 -138 -1 -188 -92
-48 -158 -162 -188 -322 -25 -132 -14 -136 38 -13 41 94 110 180 129 161 5 -5
-35 -125 -89 -268 -67 -177 -102 -305 -111 -404 -14 -153 -22 -165 -154 -244
-108 -65 -103 0 5 68 133 84 112 149 -24 71 l-104 -59 -106 60 c-102 59 -106
59 -106 19 0 -27 25 -57 71 -84 66 -39 129 -117 94 -117 -8 0 -61 31 -118 69
l-102 68 -9 147 c-8 111 -34 208 -111 406 -55 143 -97 264 -93 268 16 18 75
-53 130 -157 54 -101 58 -105 47 -41 -40 235 -95 333 -214 378 -113 43 -71
156 75 201 121 38 220 110 290 210 62 91 180 127 250 76z"/>
</g>
</svg>
