<?xml version="1.0" standalone="no"?>
<!DOCTYPE svg PUBLIC "-//W3C//DTD SVG 20010904//EN"
 "http://www.w3.org/TR/2001/REC-SVG-20010904/DTD/svg10.dtd">
<svg version="1.0" xmlns="http://www.w3.org/2000/svg"
 width="1350.000000pt" height="1458.000000pt" viewBox="0 0 1350.000000 1458.000000"
 preserveAspectRatio="xMidYMid meet">
<metadata>
Created by potrace 1.10, written by Peter Selinger 2001-2011
</metadata>
<g transform="translate(0.000000,1458.000000) scale(0.100000,-0.100000)"
fill="#000000" stroke="none">
<path d="M4285 11250 c-44 -10 -107 -28 -140 -40 -33 -11 -68 -24 -77 -27 -42
-13 -269 -133 -333 -175 -38 -26 -92 -70 -120 -97 -43 -44 -75 -64 -75 -45 0
10 78 118 109 152 33 35 26 39 -36 17 -143 -50 -311 -176 -432 -324 -29 -36
-67 -79 -85 -98 l-31 -33 -50 46 c-59 54 -193 145 -250 169 -129 54 -300 90
-399 83 -36 -2 -68 -7 -72 -10 -8 -9 4 -29 46 -75 19 -21 44 -51 55 -68 21
-32 85 -153 85 -161 0 -12 -26 -1 -46 21 -39 43 -57 29 -30 -23 15 -29 41 -86
64 -142 36 -86 45 -107 59 -133 17 -32 9 -50 -18 -42 -21 7 -24 -5 -10 -33 11
-20 63 -134 81 -177 26 -63 38 -211 25 -324 -12 -103 -19 -134 -52 -251 -43
-152 -126 -336 -206 -455 -87 -131 -251 -299 -653 -672 -155 -145 -165 -153
-179 -153 -16 0 -110 105 -128 144 -43 91 -47 108 -47 206 0 103 23 193 55
220 18 15 10 30 -16 30 -63 0 -187 -105 -227 -193 -47 -103 -66 -290 -37 -378
20 -63 66 -149 106 -200 16 -20 29 -43 29 -51 0 -14 -50 -64 -136 -138 -16
-14 -51 -36 -78 -49 -62 -30 -80 -67 -64 -132 6 -24 17 -51 24 -60 8 -8 14
-22 14 -29 0 -23 330 -342 405 -392 82 -54 162 -88 208 -88 38 0 108 31 157
68 l35 27 202 -3 c207 -4 306 9 358 44 11 8 26 14 34 14 9 0 42 13 76 29 165
79 320 106 550 96 126 -6 225 -21 331 -51 56 -16 90 -18 97 -6 3 4 -19 34 -49
67 -30 33 -54 63 -54 67 0 30 156 -37 241 -103 30 -23 109 -96 177 -162 67
-66 125 -117 128 -114 5 5 -14 77 -31 120 -15 36 15 14 110 -83 58 -58 103
-96 108 -91 5 5 1 32 -9 64 -9 30 -14 63 -10 72 6 15 12 12 40 -21 103 -120
227 -234 254 -234 14 0 11 21 -13 75 -39 90 -45 109 -38 116 5 5 42 -23 83
-62 145 -136 316 -267 331 -252 4 4 -5 35 -21 68 -16 33 -29 68 -30 79 0 16 4
15 38 -10 94 -70 175 -150 198 -195 21 -42 24 -62 24 -150 0 -94 -9 -154 -46
-301 -8 -32 -21 -86 -29 -120 -9 -35 -22 -84 -30 -109 -8 -26 -15 -54 -15 -64
0 -10 -7 -38 -15 -64 -13 -43 -23 -81 -61 -236 -44 -177 -64 -234 -136 -385
-68 -142 -82 -161 -243 -326 -104 -106 -219 -243 -239 -284 -10 -21 -28 -51
-48 -79 -16 -23 -24 -25 -170 -32 -444 -23 -557 -36 -551 -64 4 -19 313 -47
728 -65 694 -29 1088 -34 3540 -38 2162 -3 2647 -2 3190 12 352 9 735 21 850
27 116 6 296 15 400 19 105 5 219 14 255 19 36 6 88 11 117 11 46 0 74 12 60
27 -12 11 -89 24 -202 33 -166 13 -185 17 -185 45 0 12 6 28 14 34 8 6 17 28
21 49 13 74 16 240 6 296 -6 32 -8 63 -5 68 4 6 32 -15 63 -45 100 -98 129
-82 116 68 -9 122 -54 233 -138 343 -24 31 -59 81 -78 110 -18 28 -37 52 -41
52 -5 0 -8 9 -8 21 0 22 17 20 71 -7 27 -13 39 -10 39 10 0 6 -33 61 -73 122
-89 134 -92 141 -66 149 23 8 24 25 5 85 -29 90 -39 178 -41 360 -2 164 -4
190 -23 225 -31 60 -69 98 -149 144 -85 49 -150 105 -208 181 -45 60 -105 178
-105 209 0 11 -5 32 -11 48 -6 15 -11 64 -11 108 0 77 5 123 37 335 36 237 46
311 51 400 2 52 7 111 10 130 3 19 1 91 -4 160 -10 124 -4 169 18 119 5 -13
14 -31 20 -39 5 -8 29 -55 53 -105 52 -109 100 -195 138 -253 16 -24 29 -45
29 -48 0 -3 20 -32 45 -64 52 -68 58 -82 74 -174 12 -71 58 -174 93 -213 23
-24 29 -35 82 -139 20 -39 36 -78 36 -87 0 -9 7 -17 15 -17 11 0 15 12 16 43
1 23 4 53 8 67 l7 24 19 -29 c32 -48 43 -67 66 -115 12 -25 43 -88 68 -140 26
-52 51 -94 56 -93 6 2 11 57 13 123 2 94 -1 126 -13 150 -19 38 -10 58 15 35
25 -23 33 -4 16 37 -8 18 -22 60 -31 93 -53 185 -135 296 -268 365 -72 37 -82
48 -179 210 -45 76 -136 259 -179 360 -35 83 -136 278 -169 327 -17 24 -30 46
-30 48 0 16 -158 230 -244 330 -147 171 -383 387 -540 493 -78 53 -234 144
-306 179 -102 49 -182 85 -210 94 -14 4 -50 17 -80 29 -57 22 -144 50 -240 77
-30 9 -75 22 -99 29 -25 8 -56 14 -70 14 -14 0 -48 7 -75 15 -27 8 -79 15
-116 15 -37 0 -86 7 -109 15 -34 12 -139 14 -633 13 -514 -1 -606 1 -688 16
-178 31 -330 65 -395 87 -16 6 -43 15 -60 19 -32 9 -81 27 -185 66 -66 25 -92
36 -165 68 -22 10 -53 24 -70 31 -16 7 -57 25 -90 40 -33 15 -80 36 -105 47
-25 10 -58 25 -75 33 -16 7 -55 24 -85 38 -30 14 -80 35 -110 47 -30 12 -68
28 -85 35 -16 7 -50 21 -75 30 -25 10 -57 23 -72 31 -14 8 -31 14 -38 14 -7 0
-26 6 -43 13 -43 18 -95 37 -132 47 -28 8 -44 13 -138 47 -20 7 -46 13 -56 13
-10 0 -43 11 -72 24 -53 24 -53 25 -21 25 98 2 317 -34 405 -65 152 -56 24 75
-158 160 -116 54 -145 66 -161 66 -9 0 -37 7 -63 15 -25 8 -84 21 -131 30
-119 21 -488 21 -630 -1 -156 -23 -259 -43 -318 -61 -37 -12 -56 -13 -63 -6
-12 12 -6 17 112 74 112 55 208 88 309 106 85 15 47 42 -99 69 -132 24 -508
24 -631 0 -47 -9 -121 -24 -165 -32 -44 -9 -123 -27 -175 -41 -52 -13 -110
-27 -128 -30 -18 -3 -35 -9 -38 -14 -11 -18 -25 -9 -14 10 23 43 246 168 333
186 15 3 25 10 22 15 -10 16 -153 10 -240 -10z m-35 -351 c0 -6 -12 -29 -28
-52 -53 -81 -62 -111 -62 -217 0 -97 3 -111 46 -205 18 -39 45 -140 51 -188 6
-46 -4 -137 -18 -157 -8 -13 -11 -13 -23 3 -8 10 -17 35 -20 55 -4 20 -17 63
-29 95 -17 45 -26 57 -40 53 -25 -6 -45 18 -52 62 -3 20 -12 60 -21 87 -17 55
-23 199 -11 259 l8 38 -43 -5 c-51 -5 -148 -38 -198 -68 -8 -5 -33 -18 -55
-30 -133 -72 -292 -251 -319 -361 -11 -48 -26 -30 -26 32 0 55 7 81 48 170 36
77 88 140 183 222 80 69 146 106 250 138 41 12 94 29 118 36 25 8 56 14 70 14
14 0 49 7 76 14 62 18 95 19 95 5z m-460 -472 c0 -2 -24 -44 -53 -93 -80 -135
-103 -247 -72 -350 31 -102 -19 -64 -56 44 -49 141 0 277 135 380 26 20 46 28
46 19z m695 -208 c3 -8 6 -72 7 -141 2 -125 1 -127 -32 -193 -51 -101 -134
-180 -230 -219 -25 -10 -60 -24 -78 -32 -36 -15 -122 -19 -122 -5 0 5 29 23
65 41 77 38 190 121 232 170 50 59 81 121 104 210 31 121 34 154 15 169 -8 7
-12 19 -10 26 5 11 10 12 25 2 11 -7 21 -19 24 -28z m951 -94 c60 -20 143 -53
184 -73 76 -38 180 -110 180 -124 0 -16 -42 -7 -107 23 -97 43 -120 54 -196
88 -37 17 -72 31 -77 31 -6 0 -18 4 -28 9 -24 14 -104 48 -124 55 -10 3 -18
10 -18 16 0 20 79 9 186 -25z m1290 -215 c14 -14 289 -155 474 -243 245 -116
290 -137 294 -137 3 0 48 -20 100 -45 53 -25 100 -45 105 -45 5 0 14 -6 20
-14 6 -7 25 -16 42 -20 19 -3 28 -10 23 -17 -7 -13 -32 -9 -129 21 -38 11 -83
25 -100 30 -29 8 -59 18 -135 45 -65 24 -195 79 -240 103 -50 27 -132 72 -158
87 -53 30 -252 168 -281 194 -19 17 -39 31 -43 31 -5 0 -6 5 -3 10 8 13 18 13
31 0z m-3716 -330 c0 -6 -10 -27 -23 -48 -23 -37 -42 -76 -70 -142 -8 -19 -22
-52 -31 -73 -17 -41 -21 -67 -8 -67 4 0 34 27 67 60 33 33 63 60 67 60 15 0 8
-30 -21 -87 -16 -32 -50 -103 -76 -158 -27 -55 -60 -118 -74 -140 -14 -22 -30
-48 -36 -57 -22 -37 -90 -135 -118 -171 -43 -55 -22 -64 40 -17 49 38 73 49
73 33 0 -16 -149 -204 -264 -332 -69 -79 -79 -96 -67 -118 17 -31 59 -128 83
-189 19 -51 22 -78 22 -194 l0 -135 -39 -79 c-22 -44 -58 -98 -80 -121 -51
-50 -132 -105 -157 -105 -15 0 -12 9 20 58 92 138 128 271 126 462 -1 105 -24
264 -44 300 -5 10 -10 26 -10 35 0 27 -57 133 -105 197 -26 33 -45 64 -43 68
2 5 35 44 74 87 89 99 191 225 242 300 21 32 87 130 146 217 115 173 152 220
236 308 54 57 70 68 70 48z m6846 -35 c4 -8 18 -15 33 -15 14 0 58 -12 96 -26
39 -14 82 -29 96 -33 14 -5 34 -13 45 -18 10 -6 35 -17 54 -26 67 -29 185 -89
215 -108 17 -10 37 -22 45 -26 20 -10 102 -65 116 -78 6 -5 27 -21 47 -35 50
-34 232 -221 288 -295 39 -51 93 -133 146 -220 7 -11 22 -40 33 -65 12 -25 28
-56 35 -70 29 -54 53 -130 76 -240 6 -30 15 -64 20 -75 13 -29 18 -231 9 -360
-8 -119 -24 -212 -45 -260 -7 -16 -17 -40 -21 -53 -6 -15 -9 45 -9 170 0 192
-12 329 -40 443 -17 73 -63 214 -75 235 -10 17 -39 74 -69 140 -28 59 -32 65
-131 200 -83 113 -321 365 -403 427 -23 17 -51 40 -62 50 -116 107 -471 323
-530 323 -8 0 -15 7 -15 15 0 8 9 15 20 15 11 0 23 -7 26 -15z m-2732 -124
c195 -96 341 -163 506 -234 19 -8 51 -22 70 -30 19 -9 60 -25 90 -37 30 -12
92 -40 138 -61 46 -22 86 -39 90 -39 4 0 34 -13 67 -29 202 -96 359 -166 418
-185 9 -3 17 -10 17 -16 0 -6 -40 -10 -107 -10 -114 0 -279 25 -404 60 -41 12
-89 25 -108 30 -18 5 -38 13 -44 19 -6 6 -19 11 -28 11 -10 0 -30 7 -46 14
-15 8 -62 31 -103 51 -201 95 -367 206 -580 389 -133 114 -150 129 -150 139 0
13 11 8 174 -72z m-3718 -103 c52 -25 41 -38 -30 -38 -46 0 -80 -6 -111 -21
-42 -20 -117 -90 -127 -119 -2 -8 -9 -10 -16 -6 -44 27 40 162 121 192 38 15
125 11 163 -8z m54 -308 c0 -43 -27 -92 -64 -117 -18 -11 -65 -29 -105 -38
-46 -12 -77 -25 -84 -37 -7 -10 -17 -18 -24 -18 -30 0 -1 91 43 137 10 11 46
30 79 42 33 13 74 31 90 41 46 28 65 25 65 -10z m7028 -196 c174 -157 242
-309 242 -540 0 -137 -13 -195 -25 -108 -26 205 -128 449 -262 626 -73 96 -49
108 45 22z m-6478 -87 c0 -12 7 -47 15 -77 20 -73 19 -214 -1 -281 -27 -90
-36 -109 -84 -183 -74 -113 -187 -206 -330 -273 -119 -55 -140 -63 -170 -63
-36 0 -38 12 -7 33 38 26 10 31 -75 13 -260 -54 -279 -56 -285 -40 -4 12 116
96 182 127 157 73 305 184 426 317 40 44 74 78 77 75 7 -7 -29 -154 -39 -161
-13 -8 -11 -34 3 -34 30 0 130 106 175 187 44 79 67 211 64 368 l-2 89 25 -37
c14 -21 26 -48 26 -60z m992 -68 c40 -51 87 -109 103 -129 47 -59 270 -324
287 -340 8 -8 47 -53 88 -100 41 -47 134 -145 207 -217 73 -73 133 -135 133
-138 0 -10 -40 -5 -77 11 -21 9 -51 22 -68 29 -105 44 -241 116 -338 178 -31
20 -60 37 -62 37 -11 0 -4 -50 10 -77 8 -15 30 -62 50 -103 45 -93 75 -146
134 -235 50 -77 142 -198 153 -203 12 -5 9 -32 -3 -32 -38 0 -233 177 -321
292 -59 78 -126 187 -162 263 -10 22 -22 48 -27 57 -16 31 -67 182 -93 273
-40 140 -44 157 -90 388 -18 88 -20 137 -7 137 5 0 42 -41 83 -91z m-2809
-194 c33 -151 13 -293 -65 -463 -24 -51 -37 -50 -100 9 -23 21 -46 39 -50 39
-11 0 -32 -36 -54 -92 -17 -42 -44 -66 -44 -38 0 6 -7 10 -15 10 -9 0 -15 -9
-15 -22 0 -23 34 -137 53 -177 15 -30 15 -227 0 -242 -7 -7 -16 1 -30 28 -11
21 -32 61 -47 90 -35 68 -128 165 -190 197 -27 14 -54 30 -60 35 -6 5 -47 17
-91 26 -44 9 -83 19 -87 23 -4 4 36 41 88 82 52 41 94 77 94 81 0 4 22 21 49
38 27 16 94 67 148 112 108 92 122 103 273 242 58 53 110 96 116 97 6 0 18
-34 27 -75z m2338 -30 c33 -189 -2 -391 -95 -553 -59 -102 -299 -314 -324
-286 -4 4 -1 9 6 11 6 3 12 11 12 19 0 8 4 14 8 14 9 0 125 153 149 194 41 74
102 207 113 251 5 17 13 44 19 60 26 78 71 295 71 346 0 28 10 44 20 32 4 -5
13 -44 21 -88z m2029 -609 c0 -4 20 -50 45 -102 25 -51 45 -97 45 -103 0 -6 6
-25 14 -43 48 -112 61 -342 27 -478 -46 -185 -154 -342 -308 -446 -43 -29 -50
-31 -64 -18 -15 14 -20 9 -55 -48 -20 -35 -66 -100 -101 -145 -35 -45 -63 -87
-63 -93 0 -10 51 -99 102 -178 10 -15 22 -36 28 -47 6 -11 18 -33 28 -50 79
-131 225 -422 282 -565 12 -30 28 -70 36 -88 8 -18 14 -40 14 -50 0 -9 7 -37
16 -62 11 -31 16 -85 17 -175 2 -130 2 -130 -30 -181 -17 -28 -69 -97 -116
-152 -46 -56 -101 -128 -122 -161 -21 -32 -50 -64 -64 -71 -39 -18 -1531 -28
-1531 -10 0 7 12 26 26 44 38 46 132 196 146 234 7 17 17 32 23 32 6 0 34 -36
63 -79 67 -101 80 -112 98 -87 7 11 26 51 41 90 26 67 28 80 27 221 -1 107 -6
168 -17 211 -17 62 -23 144 -11 144 4 0 27 -19 52 -41 40 -38 46 -40 55 -24 9
17 4 125 -9 173 -9 30 11 28 41 -4 22 -24 25 -25 32 -9 3 10 1 55 -5 100 -17
117 -16 125 12 125 13 0 26 -4 28 -9 5 -14 100 -71 109 -65 14 9 10 87 -7 138
-9 26 -13 50 -10 53 4 4 35 8 69 9 34 1 88 9 121 18 64 17 162 68 159 82 -2 5
-42 12 -90 15 -83 5 -163 29 -163 48 0 4 39 16 88 26 77 16 106 26 162 56 79
42 96 53 107 67 18 24 16 35 -4 28 -10 -4 -53 -12 -97 -17 -78 -10 -126 -6
-126 9 0 5 26 27 58 49 94 66 167 138 242 238 38 52 70 96 70 99 0 3 14 25 30
50 91 135 239 468 274 620 5 21 10 26 18 18 6 -6 11 -66 11 -156 0 -80 4 -146
8 -146 29 0 112 128 152 235 49 130 64 392 31 519 -31 119 -49 176 -56 176 -5
0 -8 7 -8 16 0 13 5 11 25 -7 13 -13 25 -28 25 -33z m-5135 -52 c60 -28 95
-54 95 -71 0 -13 -8 -15 -45 -10 -24 4 -47 2 -50 -2 -3 -5 9 -23 25 -40 94
-93 170 -204 149 -216 -5 -4 -26 7 -47 22 -20 16 -57 43 -82 59 -25 17 -95 64
-155 105 -115 77 -167 106 -199 111 -45 7 -24 47 30 59 66 14 234 4 279 -17z
m8197 -717 c61 -70 198 -207 298 -299 58 -54 69 -68 52 -68 -12 0 -22 5 -22
10 0 6 -4 10 -9 10 -16 0 -231 130 -231 140 0 15 -74 12 -107 -4 -111 -54
-285 -114 -395 -136 -78 -15 -85 -46 -35 -142 78 -152 185 -281 352 -423 138
-118 185 -184 185 -262 0 -30 -49 -168 -70 -198 -4 -5 -26 -46 -50 -90 -49
-92 -162 -270 -211 -333 -52 -67 -116 -136 -339 -367 -115 -119 -170 -188
-219 -277 -18 -31 -37 -58 -44 -60 -7 -2 -411 -2 -899 0 l-887 4 11 24 c6 13
14 24 18 24 28 0 80 163 80 252 0 96 20 100 105 23 61 -56 88 -67 99 -39 20
52 -12 232 -58 324 -34 69 -155 236 -218 302 -39 39 -5 50 72 23 23 -8 46 -12
51 -9 5 3 -10 31 -34 62 -24 31 -47 64 -50 72 -4 8 -18 33 -32 55 -26 42 -32
75 -15 75 6 0 24 -7 40 -15 16 -8 31 -11 34 -6 3 5 -13 46 -36 91 -22 45 -44
99 -48 119 -4 20 -13 57 -20 82 -8 25 -10 53 -7 63 6 14 15 9 62 -29 59 -48
85 -56 85 -27 0 20 -26 135 -47 206 -18 61 -6 76 32 41 42 -40 54 -19 31 53
-30 96 -57 163 -93 237 -9 19 -14 37 -10 41 4 4 37 -5 74 -20 99 -40 132 -52
193 -71 30 -10 70 -24 88 -31 18 -8 40 -14 49 -14 9 0 39 -6 67 -14 126 -35
319 -65 420 -66 l40 0 -22 20 c-12 11 -32 25 -44 30 -77 34 -167 103 -150 114
6 3 39 -1 74 -9 82 -19 234 -43 323 -50 39 -3 104 -10 145 -15 41 -5 121 -9
178 -10 84 0 102 3 102 15 0 8 -4 15 -9 15 -19 0 -122 103 -113 112 6 6 51 3
116 -6 132 -20 330 -22 324 -3 -3 6 -15 13 -29 15 -41 5 -128 44 -134 60 -7
18 11 32 40 32 11 0 52 12 90 26 39 14 84 29 100 34 69 18 290 121 440 204 45
25 111 70 132 89 20 18 21 22 8 47 -16 32 -7 50 12 23 8 -9 36 -44 65 -76z
m784 -596 c8 -8 131 -61 229 -98 22 -9 54 -21 70 -28 17 -7 50 -21 75 -30 25
-10 59 -23 75 -30 17 -7 50 -21 75 -30 25 -10 59 -23 75 -31 17 -7 62 -27 100
-44 39 -17 77 -35 85 -40 8 -6 24 -14 36 -19 63 -28 193 -235 298 -476 68
-155 136 -429 136 -547 0 -35 -10 -88 -26 -135 -14 -43 -30 -91 -34 -108 -5
-16 -29 -88 -54 -160 l-45 -130 -1020 0 c-560 0 -1022 3 -1026 7 -4 4 9 24 28
45 80 87 99 110 118 146 11 20 26 37 34 37 9 0 35 -20 58 -45 49 -51 83 -58
107 -22 32 48 90 249 90 310 0 43 24 116 68 205 36 72 77 126 171 227 26 28
114 122 196 210 82 88 156 166 163 174 40 42 66 98 66 147 1 45 -5 59 -55 135
-53 81 -81 134 -108 209 -17 47 -30 113 -25 122 7 11 28 10 40 -1z"/>
<path d="M0 535 l0 -535 6750 0 6750 0 0 535 0 535 -6750 0 -6750 0 0 -535z
m446 59 c51 -157 66 -174 84 -102 23 85 74 218 87 223 40 15 41 -21 4 -115
-12 -30 -33 -88 -47 -129 -28 -87 -38 -101 -70 -101 -32 0 -45 25 -109 217
-13 40 -29 81 -35 92 -8 16 -7 22 7 29 9 6 22 8 29 5 6 -2 29 -56 50 -119z
m1475 116 c36 -10 85 -63 74 -80 -11 -18 -41 -11 -65 15 -28 29 -74 33 -102 8
-40 -36 -9 -73 76 -88 20 -4 51 -19 67 -32 38 -32 40 -89 5 -130 -22 -26 -30
-28 -96 -28 -68 0 -73 2 -101 33 -55 62 -22 98 34 38 41 -43 77 -47 112 -12
43 43 11 78 -95 100 -44 9 -70 42 -70 89 0 73 71 112 161 87z m859 -84 c0 -47
4 -87 8 -90 5 -3 28 15 52 39 42 42 72 56 84 37 3 -5 -15 -28 -39 -52 l-43
-42 44 -66 c33 -46 42 -68 34 -76 -15 -15 -39 2 -73 52 -17 25 -36 42 -48 42
-16 0 -19 -7 -19 -44 0 -48 -8 -60 -34 -50 -14 5 -16 29 -16 170 l0 164 25 0
c25 0 25 -1 25 -84z m-1544 30 c3 -13 17 -29 31 -35 21 -9 23 -14 13 -26 -7
-8 -18 -15 -26 -15 -16 0 -26 -50 -22 -110 2 -36 8 -47 28 -57 14 -7 25 -18
25 -25 0 -17 -48 -22 -75 -8 -18 9 -20 20 -20 95 0 83 -7 104 -42 118 -9 4 -4
13 15 27 15 12 27 30 27 41 0 29 38 25 46 -5z m883 -6 c7 -20 17 -30 30 -30
29 0 26 -27 -4 -34 -28 -7 -38 -44 -33 -116 2 -38 7 -47 31 -58 15 -7 27 -17
27 -22 0 -18 -53 -24 -79 -9 -24 14 -26 20 -29 99 -2 69 -7 89 -23 106 l-21
22 21 11 c12 7 21 20 21 30 0 42 44 43 59 1z m-1291 -50 c28 -23 43 -70 30
-93 -7 -14 -24 -17 -83 -17 -43 0 -77 -5 -81 -11 -10 -17 30 -64 59 -67 15 -2
38 6 56 19 29 21 51 19 51 -4 -1 -26 -54 -52 -107 -52 -44 0 -57 4 -80 28 -25
24 -28 35 -28 93 0 61 2 67 33 95 26 24 41 29 80 29 31 -1 55 -7 70 -20z m271
-14 c18 -19 30 -39 27 -45 -12 -19 -43 -12 -60 14 -19 29 -55 33 -91 9 -21
-13 -25 -24 -25 -62 0 -82 65 -120 114 -67 27 29 56 33 56 7 0 -24 -38 -59
-73 -67 -52 -13 -95 3 -127 47 -34 46 -38 84 -14 130 26 51 53 67 110 68 44 0
54 -4 83 -34z m419 3 c29 -29 32 -37 32 -93 0 -56 -3 -65 -29 -90 -34 -33
-102 -44 -141 -24 -34 18 -70 75 -70 110 0 16 7 43 16 60 26 51 53 67 110 68
43 0 55 -4 82 -31z m130 19 c9 -9 15 -9 24 0 7 7 23 12 36 12 31 0 26 -30 -8
-47 -47 -23 -60 -50 -60 -124 0 -66 -11 -92 -32 -71 -7 7 -12 127 -8 230 0 15
32 16 48 0z m744 -13 c48 -44 50 -147 4 -193 -29 -29 -99 -39 -136 -20 -33 18
-70 75 -70 109 0 39 19 80 50 106 37 33 116 32 152 -2z m269 -4 c16 -16 29
-37 29 -45 0 -24 -34 -19 -60 9 -31 33 -72 33 -99 -1 -42 -54 -12 -144 48
-144 18 0 40 12 60 31 25 23 36 28 44 20 16 -16 -10 -61 -43 -79 -32 -17 -101
-10 -132 14 -13 10 -32 37 -42 59 -16 40 -16 44 2 83 27 59 57 81 115 82 41 0
53 -5 78 -29z m8909 0 c0 -9 -7 -26 -15 -37 -8 -10 -15 -32 -15 -49 0 -16 -7
-39 -15 -49 -8 -11 -15 -32 -15 -47 0 -14 -7 -32 -15 -39 -8 -7 -15 -19 -15
-26 0 -8 -4 -14 -10 -14 -5 0 -10 9 -10 19 0 11 5 23 10 26 6 3 10 19 10 34 0
15 7 36 15 47 8 10 15 31 15 45 0 14 7 34 15 45 8 10 15 28 15 40 0 11 3 24 6
27 10 10 24 -2 24 -22z m167 12 c3 -8 -11 -13 -38 -15 -76 -6 -79 -56 -3 -56
48 0 54 -8 54 -63 0 -40 -5 -55 -22 -70 -33 -27 -80 -24 -108 6 -31 33 -14 55
20 25 43 -37 80 -20 80 37 0 36 -1 36 -70 37 l-45 1 3 40 c5 58 26 77 81 73
24 -2 46 -8 48 -15z m-2537 -15 c0 -13 -7 -32 -15 -42 -8 -11 -15 -29 -15 -41
0 -12 -7 -30 -15 -41 -8 -10 -15 -28 -15 -39 0 -24 -18 -45 -37 -45 -14 0 -53
70 -53 95 0 9 -6 26 -14 38 -8 12 -17 37 -21 55 -6 29 -4 33 10 30 18 -3 44
-61 52 -115 10 -62 36 -36 80 79 19 50 43 64 43 26z m881 12 c10 -6 19 -20 19
-30 0 -24 -13 -26 -30 -5 -16 19 -39 19 -65 -1 -20 -15 -20 -15 5 -35 14 -10
36 -22 50 -25 60 -15 77 -60 38 -101 -30 -32 -85 -31 -124 2 -21 18 -26 27
-17 36 9 9 18 6 39 -10 33 -26 60 -27 74 -2 15 29 14 30 -42 56 -29 14 -63 32
-75 41 -20 14 -23 14 -42 -5 -16 -16 -21 -34 -21 -77 0 -46 -3 -55 -17 -52
-13 2 -17 16 -17 78 l-1 75 39 3 c25 2 52 14 75 33 37 30 77 37 112 19z m557
-41 c4 -61 16 -68 48 -30 19 22 30 29 37 22 8 -8 4 -18 -12 -35 -24 -25 -22
-65 5 -87 15 -13 19 -49 5 -49 -5 0 -19 16 -32 35 -28 40 -42 40 -49 -1 -3
-16 -10 -29 -15 -29 -6 0 -11 47 -13 113 -2 89 0 113 10 110 7 -3 14 -24 16
-49z m1293 22 c25 -25 29 -37 29 -84 0 -72 -33 -117 -86 -117 -28 0 -39 7 -65
43 -33 45 -34 76 -7 137 24 55 85 65 129 21z m189 16 c45 -36 63 -104 39 -150
-37 -72 -91 -87 -140 -38 -25 25 -29 37 -29 84 0 47 4 60 29 86 31 33 73 41
101 18z m205 -11 c28 -22 29 -27 27 -91 -1 -54 -6 -71 -24 -91 -31 -32 -77
-32 -107 0 -26 28 -10 48 18 22 22 -20 40 -20 63 1 32 29 22 43 -32 43 -56 0
-70 15 -70 73 0 63 70 87 125 43z m384 -8 c26 -27 31 -40 31 -80 0 -86 -80
-148 -132 -101 -10 9 -18 22 -18 30 0 18 26 17 34 -2 8 -21 38 -19 59 5 27 32
21 40 -32 40 -41 0 -51 4 -65 25 -23 35 -20 58 10 89 37 36 74 34 113 -6z
m193 1 c37 -30 39 -30 44 -12 6 22 43 43 74 43 10 0 32 -12 49 -26 28 -23 31
-31 31 -84 0 -73 -32 -120 -83 -120 -32 0 -67 24 -67 47 0 18 26 17 34 -2 8
-22 45 -18 66 7 25 31 17 38 -41 38 -46 0 -50 2 -62 32 l-13 33 -52 -53 c-29
-29 -52 -57 -52 -62 0 -5 18 -10 40 -12 22 -2 40 -7 40 -13 0 -13 -142 -13
-147 0 -2 6 26 41 63 78 l65 68 -22 23 c-25 26 -46 24 -67 -6 -18 -25 -32 -23
-32 5 0 26 29 45 69 46 13 1 41 -13 63 -30z m-388 5 c3 -9 6 -34 6 -57 0 -22
7 -48 15 -57 14 -15 14 -18 0 -30 -8 -7 -15 -21 -15 -31 0 -28 -38 -25 -42 4
-3 19 -10 22 -50 25 -40 3 -48 6 -48 23 0 11 7 22 15 25 8 4 15 13 15 20 0 8
7 17 15 20 8 4 15 10 15 16 0 18 35 57 51 58 9 0 20 -7 23 -16z m-2886 -19
c21 -21 22 -26 8 -31 -22 -8 -23 -106 -1 -124 18 -15 10 -30 -16 -30 -24 0
-39 36 -39 91 0 22 -5 48 -12 59 -10 15 -9 23 6 39 24 26 26 26 54 -4z m577 1
c26 -24 26 -25 6 -36 -31 -16 -30 -101 2 -123 21 -14 21 -16 3 -23 -35 -14
-51 8 -54 75 -2 43 -7 64 -17 68 -20 7 -19 19 3 42 23 25 26 25 57 -3z m-877
-25 c12 -11 22 -30 22 -45 0 -24 -3 -26 -44 -26 -50 0 -58 -6 -49 -38 6 -26
50 -31 59 -7 7 18 34 20 34 3 0 -22 -33 -48 -62 -48 -18 0 -38 10 -53 26 -38
41 -37 85 3 127 30 31 58 34 90 8z m180 0 c12 -11 22 -24 22 -30 0 -17 -30
-13 -36 4 -9 22 -43 18 -65 -7 -23 -28 -23 -42 -3 -73 18 -28 61 -34 70 -10 8
19 34 20 34 1 0 -18 -43 -46 -72 -46 -12 0 -35 12 -50 27 -40 39 -39 92 3 127
36 31 65 33 97 7z m297 -16 c43 -43 44 -70 3 -112 -37 -38 -71 -42 -108 -13
-21 16 -25 27 -25 68 0 41 5 53 25 71 36 30 66 26 105 -14z m572 13 c11 -13
25 -32 31 -43 11 -20 11 -20 18 0 12 35 46 65 73 65 14 -1 39 -12 56 -25 25
-21 27 -25 12 -31 -11 -4 -25 0 -36 10 -38 35 -75 5 -69 -56 4 -44 30 -57 68
-35 42 25 60 11 25 -19 -48 -41 -96 -27 -133 41 -6 11 -12 15 -12 8 0 -6 -12
-25 -26 -42 -52 -62 -133 -27 -134 59 0 36 5 48 28 67 35 29 73 29 99 1z m593
-3 c36 -38 15 -47 -32 -13 -30 21 -53 -2 -53 -52 0 -57 22 -72 65 -46 40 23
50 13 20 -19 -50 -53 -120 -16 -120 64 0 82 69 120 120 66z m186 -9 c44 -44
44 -75 2 -115 -38 -36 -72 -39 -108 -11 -21 16 -25 27 -25 68 0 41 5 53 25 71
36 30 67 26 106 -13z m154 22 c16 -10 24 -10 40 0 28 17 46 15 70 -10 26 -28
30 -148 5 -148 -11 0 -15 12 -15 48 0 49 -21 92 -44 92 -20 0 -36 -46 -36
-101 0 -75 -24 -59 -28 18 -3 64 -19 90 -47 79 -11 -4 -15 -22 -15 -71 0 -56
-2 -66 -17 -63 -13 2 -16 17 -17 78 l-1 75 30 6 c47 10 54 10 75 -3z m-500
-154 c0 -11 -5 -14 -16 -10 -9 3 -18 6 -20 6 -3 0 -2 5 1 10 10 16 35 12 35
-6z"/>
<path d="M716 569 c-14 -11 -24 -25 -21 -30 7 -10 108 -12 118 -2 10 10 -34
53 -53 53 -10 0 -29 -9 -44 -21z"/>
<path d="M1393 563 c-32 -22 -33 -103 -1 -133 59 -55 141 21 108 101 -21 49
-64 62 -107 32z"/>
<path d="M2261 554 c-42 -54 -12 -144 49 -144 32 0 57 20 71 57 14 37 11 49
-17 82 -33 40 -74 42 -103 5z"/>
<path d="M11837 551 c-21 -36 -22 -69 -1 -109 18 -38 42 -41 72 -9 30 32 30
99 0 127 -30 28 -51 25 -71 -9z"/>
<path d="M12041 554 c-12 -15 -21 -41 -21 -59 0 -38 33 -85 60 -85 25 0 50 42
50 85 0 43 -25 85 -50 85 -10 0 -28 -12 -39 -26z"/>
<path d="M12246 571 c-10 -11 -16 -30 -14 -43 3 -20 9 -23 43 -23 34 0 40 3
43 23 2 14 -5 30 -20 42 -29 24 -31 24 -52 1z"/>
<path d="M12621 566 c-32 -34 -15 -66 34 -66 42 0 55 28 28 64 -23 32 -34 32
-62 2z"/>
<path d="M12984 565 c-24 -37 -10 -65 32 -65 46 0 62 34 30 67 -27 29 -42 29
-62 -2z"/>
<path d="M12436 503 c-4 -9 -2 -21 3 -26 15 -15 41 0 41 23 0 25 -35 28 -44 3z"/>
<path d="M9256 521 c-9 -15 22 -33 44 -26 31 10 25 35 -9 35 -17 0 -32 -4 -35
-9z"/>
<path d="M9710 501 c-27 -66 31 -122 72 -69 22 29 22 47 -1 76 -27 31 -56 28
-71 -7z"/>
<path d="M10297 512 c-22 -24 -21 -65 1 -85 36 -32 72 -14 72 36 0 61 -39 87
-73 49z"/>
<path d="M11059 503 c-25 -67 32 -124 73 -71 22 29 22 47 -1 76 -27 31 -59 29
-72 -5z"/>
</g>
</svg>
