<?xml version="1.0" standalone="no"?>
<!DOCTYPE svg PUBLIC "-//W3C//DTD SVG 20010904//EN"
 "http://www.w3.org/TR/2001/REC-SVG-20010904/DTD/svg10.dtd">
<svg version="1.0" xmlns="http://www.w3.org/2000/svg"
 width="1350.000000pt" height="1347.000000pt" viewBox="0 0 1350.000000 1347.000000"
 preserveAspectRatio="xMidYMid meet">
<metadata>
Created by potrace 1.10, written by Peter Selinger 2001-2011
</metadata>
<g transform="translate(0.000000,1347.000000) scale(0.100000,-0.100000)"
fill="#000000" stroke="none">
<path d="M4743 13458 c-2 -5 69 -7 159 -6 166 2 149 6 -45 10 -60 2 -111 0
-114 -4z"/>
<path d="M5800 13456 c0 -19 18 -22 149 -24 107 -2 131 -5 120 -17 -3 -2 -52
-9 -109 -14 -147 -15 -192 -22 -485 -82 -237 -49 -352 -74 -475 -107 -190 -51
-373 -107 -413 -128 -16 -8 -39 -14 -51 -14 -12 0 -31 -7 -42 -15 -10 -8 -30
-15 -44 -15 -15 0 -30 -4 -35 -9 -12 -10 -188 -81 -203 -81 -5 0 -41 -14 -78
-31 -38 -17 -82 -37 -99 -44 -16 -7 -131 -62 -255 -123 -276 -135 -426 -220
-688 -395 -181 -120 -293 -197 -352 -242 -142 -108 -301 -237 -421 -340 -131
-113 -545 -529 -662 -666 -209 -245 -317 -378 -317 -391 0 -5 -20 -33 -45 -61
-25 -29 -45 -57 -45 -63 0 -6 -7 -18 -16 -25 -9 -7 -47 -61 -85 -119 -37 -58
-80 -120 -94 -139 -14 -19 -25 -39 -25 -46 0 -6 -11 -22 -25 -35 -14 -13 -25
-29 -25 -35 0 -6 -19 -40 -42 -76 -37 -56 -79 -131 -137 -247 -7 -15 -22 -36
-31 -47 -16 -19 -44 -74 -92 -185 -29 -69 -56 -126 -104 -227 -24 -50 -44 -96
-44 -102 0 -6 -15 -43 -34 -83 -18 -40 -40 -91 -47 -113 -7 -22 -19 -49 -26
-60 -7 -11 -13 -28 -13 -38 0 -10 -6 -31 -14 -45 -14 -29 -32 -78 -46 -127 -5
-16 -19 -57 -30 -90 -23 -63 -33 -95 -55 -185 -8 -30 -23 -86 -34 -125 -34
-114 -74 -285 -116 -499 -27 -132 -37 -197 -55 -346 -6 -47 -13 -96 -16 -110
-5 -23 -6 -23 -16 -6 -6 11 -12 122 -13 283 -2 145 -6 267 -9 270 -3 4 -6
-587 -6 -1312 0 -725 3 -1315 7 -1311 4 3 8 118 8 254 2 248 10 337 26 297 4
-11 8 -42 8 -68 1 -56 24 -191 77 -452 52 -260 91 -421 143 -590 67 -221 87
-279 112 -330 16 -33 29 -69 29 -80 0 -11 7 -29 15 -39 8 -11 15 -28 15 -38 0
-10 14 -45 30 -78 17 -33 30 -66 30 -75 0 -8 17 -50 39 -93 21 -42 51 -108 66
-147 55 -140 198 -406 360 -670 66 -108 125 -204 130 -213 6 -9 37 -55 70
-101 33 -46 85 -118 115 -162 30 -43 84 -114 120 -159 36 -45 75 -95 87 -111
32 -44 168 -201 248 -286 39 -41 73 -81 77 -87 8 -14 438 -427 555 -532 43
-39 103 -89 133 -111 30 -22 64 -50 74 -62 11 -11 24 -21 30 -21 6 0 34 -20
63 -45 28 -25 55 -45 59 -45 4 0 27 -17 52 -37 25 -21 60 -47 78 -58 33 -20
225 -148 279 -185 17 -11 46 -32 65 -45 19 -14 72 -43 117 -65 45 -23 87 -48
94 -56 7 -8 159 -87 338 -176 179 -88 338 -167 353 -174 14 -8 33 -14 41 -14
8 0 42 -13 75 -30 34 -16 65 -30 69 -30 4 -1 26 -9 48 -20 22 -11 46 -19 53
-20 7 0 37 -11 65 -25 53 -25 361 -128 477 -160 133 -37 156 -43 205 -55 136
-34 253 -59 368 -80 26 -5 56 -11 65 -14 10 -4 51 -11 92 -16 41 -6 122 -18
180 -26 58 -8 137 -20 175 -25 88 -12 101 -17 88 -30 -7 -7 -200 -11 -557 -13
-300 -1 -549 -6 -553 -9 -3 -4 897 -7 2002 -7 1105 0 2006 2 2003 5 -3 3 -355
8 -782 11 -428 3 -787 9 -799 14 -21 8 -22 8 -2 15 11 4 31 11 45 16 14 5 64
14 110 19 194 21 316 41 456 75 56 14 144 34 195 45 151 33 219 49 322 80 17
5 64 18 102 29 39 12 79 25 90 29 29 13 86 33 120 42 48 13 98 31 128 46 16 8
37 14 48 14 10 0 45 13 76 29 79 40 129 61 142 61 6 0 25 9 43 20 18 11 51 25
73 31 52 14 612 292 677 335 27 19 51 34 53 34 2 0 56 34 122 75 65 41 142 89
171 107 180 113 576 417 737 567 33 31 78 69 100 86 60 44 470 452 545 540 36
43 94 110 130 149 71 78 150 176 191 237 15 22 45 59 68 84 22 24 41 49 41 53
0 9 21 38 90 127 44 57 76 104 101 150 21 38 63 107 105 169 26 39 81 136 94
166 6 14 20 34 30 45 10 11 75 137 144 280 70 143 134 272 142 287 7 14 14 35
14 45 0 10 6 27 13 38 8 11 22 43 32 70 9 28 26 68 36 90 10 22 35 87 57 145
57 155 63 172 72 205 5 17 17 53 27 80 11 28 30 91 42 140 13 50 29 104 36
120 12 29 19 57 66 255 11 47 24 93 30 102 5 10 9 30 9 44 0 14 6 52 14 83 7
31 21 101 30 156 10 55 22 123 27 150 5 28 17 118 26 200 17 138 20 151 41
160 12 5 22 18 22 27 0 21 -20 24 -38 6 -9 -9 -12 -8 -12 5 0 10 7 20 15 23 8
4 15 16 16 28 0 20 1 20 9 1 5 -11 9 344 9 825 0 467 -3 851 -8 859 -17 27
-22 -25 -26 -298 -2 -149 -7 -276 -10 -281 -14 -23 -23 4 -24 72 -1 40 -6 98
-11 128 -6 30 -14 87 -20 125 -32 220 -131 672 -190 865 -53 175 -84 271 -96
298 -8 18 -14 41 -14 50 0 10 -7 27 -15 38 -8 10 -15 31 -15 45 0 14 -7 34
-15 45 -8 10 -15 30 -15 44 0 14 -7 34 -15 44 -8 11 -15 28 -15 38 0 10 -13
45 -30 78 -16 33 -30 66 -30 75 0 8 -17 50 -39 93 -21 42 -51 109 -66 147 -28
70 -58 131 -118 237 -18 31 -55 98 -82 150 -67 124 -141 252 -180 313 -18 28
-43 69 -54 93 -23 44 -54 82 -70 82 -5 0 -32 -37 -61 -82 -29 -46 -61 -94 -72
-108 -10 -14 -25 -39 -33 -56 -7 -17 -21 -37 -30 -44 -9 -7 -28 -38 -43 -69
-14 -31 -39 -71 -54 -89 -15 -18 -28 -38 -28 -44 0 -6 -6 -19 -14 -27 -13 -14
6 -58 165 -375 98 -197 179 -364 179 -372 0 -8 16 -47 36 -86 20 -40 45 -97
55 -128 11 -30 30 -86 43 -125 13 -38 36 -96 50 -127 14 -31 26 -63 26 -72 0
-8 6 -27 14 -43 21 -43 37 -93 46 -145 5 -26 13 -56 19 -67 6 -11 11 -31 11
-45 0 -14 6 -40 14 -58 21 -49 46 -137 46 -162 0 -13 3 -26 8 -30 4 -4 12 -40
19 -79 7 -40 23 -137 37 -217 57 -329 63 -390 77 -737 8 -218 8 -359 0 -550
-15 -326 -30 -538 -42 -583 -5 -19 -9 -48 -9 -65 0 -16 -7 -61 -15 -100 -9
-38 -29 -135 -45 -215 -16 -80 -39 -179 -50 -220 -12 -41 -28 -101 -36 -132
-13 -57 -150 -464 -174 -523 -7 -16 -19 -43 -26 -60 -7 -16 -20 -50 -29 -75
-10 -25 -27 -68 -40 -96 -13 -28 -41 -93 -64 -146 -48 -113 -166 -346 -187
-370 -9 -9 -32 -49 -52 -90 -21 -40 -54 -99 -75 -131 -20 -31 -37 -62 -37 -67
0 -6 -9 -19 -20 -30 -10 -10 -28 -37 -40 -60 -11 -22 -25 -40 -30 -40 -5 0
-12 -10 -16 -22 -8 -26 -78 -131 -99 -148 -8 -7 -15 -18 -15 -24 0 -6 -19 -34
-43 -61 -24 -28 -46 -57 -50 -67 -3 -9 -43 -62 -89 -118 -46 -57 -94 -117
-108 -135 -102 -134 -554 -600 -694 -715 -37 -30 -95 -79 -129 -108 -34 -29
-84 -71 -112 -93 -27 -22 -61 -49 -75 -61 -14 -11 -43 -32 -65 -46 -22 -14
-44 -31 -50 -38 -9 -11 -413 -284 -421 -284 -2 0 -22 -13 -46 -29 -24 -15 -74
-45 -113 -66 -38 -20 -77 -43 -85 -50 -26 -23 -467 -243 -563 -280 -50 -20
-112 -47 -138 -61 -27 -13 -56 -24 -65 -24 -9 0 -28 -6 -42 -14 -15 -8 -67
-28 -117 -46 -49 -18 -102 -38 -117 -46 -14 -8 -34 -14 -43 -14 -9 0 -29 -6
-43 -14 -15 -8 -48 -18 -74 -21 -26 -3 -50 -10 -53 -16 -4 -5 -15 -9 -25 -9
-11 0 -34 -6 -52 -14 -31 -13 -90 -29 -168 -46 -19 -4 -62 -15 -95 -24 -157
-44 -568 -112 -795 -131 -500 -43 -1064 -25 -1440 47 -30 6 -82 14 -115 18
-71 10 -206 36 -255 49 -19 6 -100 26 -179 46 -80 20 -152 40 -162 46 -10 5
-27 9 -38 9 -25 0 -443 140 -488 163 -18 10 -38 17 -46 17 -8 0 -41 13 -73 30
-32 16 -67 30 -77 30 -9 0 -80 32 -157 70 -77 39 -146 70 -154 70 -7 0 -19 7
-26 15 -7 8 -20 15 -30 15 -10 0 -23 7 -30 15 -7 8 -20 15 -30 15 -10 0 -23 6
-29 14 -7 8 -64 40 -127 72 -63 31 -117 61 -120 65 -3 5 -12 9 -21 9 -8 0 -28
10 -43 22 -16 13 -58 41 -95 63 -37 22 -81 50 -98 62 -18 13 -46 29 -62 37
-17 8 -39 24 -49 35 -11 12 -25 21 -32 21 -7 0 -27 12 -44 27 -18 15 -45 34
-60 42 -27 15 -104 73 -225 170 -27 22 -67 53 -89 68 -21 15 -72 59 -113 96
-41 37 -105 92 -141 121 -166 134 -522 519 -765 829 -87 110 -353 503 -401
592 -9 17 -30 53 -46 80 -17 28 -45 80 -64 117 -19 37 -42 80 -53 95 -10 15
-26 44 -35 63 -8 19 -52 112 -96 205 -45 94 -84 181 -88 195 -4 14 -18 47 -32
75 -13 27 -38 88 -54 135 -16 47 -32 94 -37 105 -5 11 -17 43 -26 70 -10 28
-21 55 -25 60 -4 6 -11 26 -15 45 -4 19 -12 40 -17 47 -5 7 -12 27 -14 45 -5
35 -28 110 -50 168 -16 39 -51 170 -65 240 -5 25 -18 83 -30 129 -61 252 -93
563 -103 1026 -6 232 7 688 23 865 11 119 46 365 61 419 5 20 16 70 25 111 23
106 55 240 66 275 12 37 58 199 69 240 14 54 63 200 70 210 4 6 18 44 31 85
12 41 29 84 36 95 7 11 13 28 13 38 0 10 14 45 30 79 17 33 30 66 30 73 0 12
56 140 110 250 17 33 30 65 30 70 0 16 102 213 142 275 19 30 47 81 62 113 15
31 32 57 37 57 5 0 9 9 9 19 0 11 6 26 13 33 7 7 32 42 55 78 22 36 51 79 62
95 27 38 61 91 80 125 8 15 25 40 38 56 12 16 62 79 110 140 48 62 102 131
119 155 18 24 64 82 103 129 39 47 91 112 118 145 26 33 68 83 95 111 26 28
47 56 47 62 0 5 48 60 108 120 93 95 119 117 199 157 116 59 166 110 183 186
7 30 16 158 19 284 7 208 9 234 29 272 25 48 59 74 120 92 90 25 182 -34 244
-158 64 -130 77 -139 132 -98 66 49 315 195 446 261 52 27 102 54 110 60 28
22 416 206 434 206 7 0 59 23 116 50 57 28 153 67 214 86 61 20 123 42 138 50
14 8 37 14 50 14 12 0 32 7 42 15 11 8 30 15 42 15 12 0 35 6 51 14 61 30 189
66 338 96 33 7 67 16 76 20 9 5 34 11 55 15 39 6 68 13 152 35 44 11 103 20
317 45 66 8 143 19 170 24 46 10 444 32 630 35 365 6 1005 -65 1305 -144 19
-5 103 -25 185 -45 164 -38 243 -60 293 -81 18 -8 39 -14 46 -14 8 0 27 -7 42
-15 16 -8 38 -15 49 -15 11 0 29 -7 39 -15 11 -8 30 -15 42 -15 13 0 26 -4 29
-10 3 -5 25 -14 48 -21 23 -6 64 -22 90 -35 27 -13 56 -24 65 -24 9 0 44 -14
76 -30 32 -17 65 -30 72 -30 15 0 215 -88 229 -101 5 -5 16 -9 25 -9 18 0 274
-128 340 -171 61 -39 110 -66 143 -80 15 -6 27 -15 27 -19 0 -14 71 -33 82
-22 11 11 24 132 38 357 5 88 13 185 16 216 6 54 6 55 -29 82 -20 15 -42 27
-50 27 -8 0 -20 7 -27 15 -7 8 -19 15 -26 15 -8 0 -119 51 -247 114 -127 62
-254 121 -282 131 -27 9 -59 23 -70 29 -11 7 -42 20 -70 30 -27 10 -68 27 -91
37 -22 10 -45 19 -51 19 -6 0 -24 7 -39 15 -16 8 -36 15 -46 15 -9 0 -38 11
-65 24 -26 13 -73 31 -103 40 -30 9 -77 23 -103 31 -26 8 -54 15 -62 15 -8 0
-29 6 -47 14 -45 19 -106 38 -148 46 -19 4 -78 19 -130 33 -52 14 -116 28
-143 32 -26 4 -50 11 -53 16 -3 5 -17 9 -32 9 -15 0 -70 9 -122 20 -52 11
-135 27 -185 35 -49 8 -110 19 -135 24 -25 6 -67 11 -95 11 -93 2 -113 28 -24
32 23 1 58 7 77 13 32 11 33 12 11 18 -13 4 -426 7 -916 7 -754 0 -893 -2
-893 -14z"/>
<path d="M8055 13460 c-15 -6 -7 -9 29 -9 27 -1 47 1 45 3 -11 9 -56 13 -74 6z"/>
<path d="M8149 13459 c-10 -6 -7 -9 14 -9 29 0 35 5 14 13 -8 3 -20 1 -28 -4z"/>
<path d="M8209 13459 c-10 -6 -7 -9 14 -9 29 0 35 5 14 13 -8 3 -20 1 -28 -4z"/>
<path d="M8297 13458 c-7 -4 44 -8 112 -8 68 0 122 2 119 6 -9 8 -218 10 -231
2z"/>
<path d="M5138 13453 c29 -2 74 -2 100 0 26 2 2 3 -53 3 -55 0 -76 -1 -47 -3z"/>
<path d="M5578 13453 c23 -2 59 -2 80 0 20 2 1 4 -43 4 -44 0 -61 -2 -37 -4z"/>
<path d="M7738 13453 c23 -2 61 -2 85 0 23 2 4 4 -43 4 -47 0 -66 -2 -42 -4z"/>
<path d="M7903 13453 c15 -2 37 -2 50 0 12 2 0 4 -28 4 -27 0 -38 -2 -22 -4z"/>
<path d="M10298 13163 c-30 -33 -49 -71 -67 -133 -7 -25 -17 -56 -21 -70 -9
-26 -45 -217 -54 -285 -6 -37 -28 -213 -41 -315 -3 -25 -12 -117 -20 -205 -13
-145 -22 -231 -55 -540 -6 -55 -13 -107 -16 -115 -3 -8 -9 -46 -14 -85 -16
-121 -35 -210 -72 -340 -50 -172 -93 -302 -107 -320 -9 -11 -27 -42 -41 -68
-44 -85 -129 -145 -169 -120 -9 5 -21 21 -27 34 -15 30 -34 451 -35 754 0 224
-9 381 -27 478 -10 51 -61 117 -92 117 -35 0 -80 -76 -104 -175 -13 -55 -38
-187 -50 -260 -10 -65 -59 -321 -80 -420 -24 -108 -75 -305 -91 -350 -8 -22
-21 -65 -29 -95 -8 -30 -25 -80 -37 -110 -11 -30 -31 -83 -43 -117 -13 -35
-25 -65 -28 -69 -4 -3 -32 -56 -63 -117 -82 -163 -111 -202 -193 -258 -74 -50
-137 -38 -229 44 -24 20 -47 37 -52 37 -9 0 -57 61 -124 159 -48 70 -104 179
-128 250 -11 30 -23 59 -28 65 -4 6 -16 36 -26 66 -10 30 -24 64 -31 75 -8 11
-14 31 -14 45 0 14 -7 34 -15 44 -8 11 -15 28 -15 38 0 10 -13 46 -29 80 -17
35 -33 76 -36 92 -7 33 -74 106 -98 106 -31 0 -76 -51 -92 -103 -27 -90 -14
-398 26 -612 27 -146 93 -397 119 -450 11 -23 20 -47 20 -55 0 -7 17 -49 39
-94 21 -44 42 -92 45 -106 4 -14 13 -38 20 -55 28 -64 51 -140 62 -210 11 -63
-26 -107 -183 -213 -35 -23 -65 -42 -69 -42 -3 0 -36 -19 -72 -43 -110 -70
-371 -193 -449 -212 -58 -14 -98 -16 -225 -11 -562 23 -673 18 -770 -30 -39
-20 -62 -24 -135 -24 -126 1 -279 37 -330 79 -17 14 -42 34 -56 43 -36 25 -67
96 -67 154 0 72 47 202 150 419 26 55 58 125 70 155 12 30 28 70 36 88 8 18
14 41 14 50 0 10 7 27 15 38 8 10 15 27 15 37 0 10 7 40 16 68 11 33 15 71 12
115 -4 60 -7 70 -36 95 -64 57 -94 41 -325 -176 -250 -235 -288 -256 -388
-217 -30 12 -72 90 -89 167 -40 175 -84 458 -125 810 -30 249 -53 427 -62 475
-4 19 -8 42 -9 50 -22 145 -47 179 -118 159 -27 -7 -41 -19 -55 -47 -24 -48
-46 -198 -65 -447 -49 -627 -66 -792 -88 -849 -13 -32 -62 -66 -96 -66 -107 0
-315 230 -444 492 -26 54 -48 103 -48 110 0 7 -6 24 -13 38 -7 14 -21 48 -31
75 -10 28 -23 64 -31 80 -18 43 -36 94 -45 135 -17 70 -39 139 -49 159 -6 11
-11 34 -11 51 0 17 -5 41 -12 53 -11 21 -15 34 -43 147 -7 30 -20 82 -29 115
-10 33 -21 74 -25 90 -4 17 -24 63 -45 102 -27 54 -43 74 -61 79 -34 9 -71 -2
-80 -23 -14 -36 -17 -228 -8 -593 11 -443 7 -578 -21 -609 -41 -45 -95 -18
-160 79 -74 110 -198 454 -270 750 -8 30 -21 80 -30 110 -9 30 -19 71 -23 90
-3 19 -9 40 -14 45 -4 6 -11 31 -15 55 -4 25 -13 56 -20 70 -7 14 -23 54 -35
89 -14 39 -37 79 -59 103 -40 42 -48 44 -74 25 -50 -37 -46 -391 10 -807 38
-285 44 -374 25 -393 -15 -14 -55 27 -144 151 -108 148 -193 216 -242 194 -50
-23 -60 -55 -60 -197 0 -71 6 -150 12 -175 7 -25 19 -81 28 -125 9 -44 21 -93
26 -110 6 -16 14 -43 19 -60 13 -48 31 -98 46 -128 8 -16 14 -39 14 -51 0 -12
6 -30 14 -41 7 -11 19 -38 26 -60 17 -53 86 -192 115 -230 12 -16 34 -52 48
-80 14 -27 56 -88 93 -135 82 -103 334 -352 386 -382 21 -12 38 -25 38 -29 0
-4 25 -24 57 -45 31 -20 64 -44 73 -53 17 -17 42 -32 146 -91 34 -19 71 -42
81 -51 10 -9 28 -20 41 -23 12 -4 22 -11 22 -15 0 -5 27 -20 60 -35 32 -15 62
-31 65 -36 8 -12 285 -150 302 -150 8 0 56 -20 107 -45 52 -25 100 -45 109
-45 8 0 17 -7 21 -15 3 -8 17 -15 31 -15 15 0 36 -5 48 -12 12 -7 42 -19 67
-29 174 -63 248 -90 265 -99 11 -5 79 -29 150 -54 72 -24 146 -50 165 -59 19
-8 65 -27 103 -42 88 -36 114 -57 128 -107 14 -52 5 -99 -24 -126 -12 -11 -69
-45 -127 -74 -193 -100 -279 -163 -314 -233 -48 -95 -53 -152 -30 -313 5 -34
2 -47 -12 -64 -11 -11 -116 -85 -234 -163 -199 -133 -270 -183 -422 -297 -205
-154 -340 -265 -495 -410 -135 -125 -353 -354 -353 -371 0 -6 -14 -26 -32 -44
-37 -38 -65 -83 -111 -178 -54 -109 -68 -156 -104 -335 -13 -69 -29 -144 -34
-168 -13 -62 -11 -170 5 -222 19 -59 168 -361 211 -425 77 -116 174 -170 391
-215 197 -41 207 -44 255 -76 24 -16 80 -74 126 -129 46 -55 102 -121 123
-147 42 -49 104 -95 155 -116 44 -17 174 -42 221 -42 57 0 229 27 253 39 11 6
28 11 38 11 58 0 211 118 249 192 9 18 26 45 38 59 22 27 39 54 91 144 66 114
136 186 265 271 98 66 128 80 140 68 6 -6 2 -91 -10 -229 -51 -603 -53 -1273
-4 -1430 40 -126 182 -379 238 -423 89 -70 140 -297 157 -707 9 -220 40 -511
57 -540 24 -39 63 -355 71 -565 l6 -185 50 1 c232 4 872 25 889 29 12 3 102 9
201 15 99 5 191 12 205 15 14 4 57 10 95 15 96 12 225 37 258 49 16 6 43 11
61 11 17 0 36 4 41 9 11 10 56 24 145 46 30 8 75 19 100 25 43 11 466 150 560
184 25 9 68 27 95 40 28 13 70 31 95 41 53 21 160 71 210 97 19 10 116 60 215
109 98 50 193 101 210 113 39 28 66 45 85 53 29 13 225 145 395 267 139 99
182 132 245 190 14 12 47 39 73 59 26 20 54 42 61 49 7 7 112 104 233 215 120
111 284 273 363 360 80 87 181 196 225 243 44 47 105 118 135 159 30 40 67 87
81 104 14 18 32 43 39 56 18 34 5 112 -29 180 -16 31 -37 79 -47 106 -9 28
-21 55 -26 61 -5 6 -19 42 -32 80 -13 38 -37 96 -54 129 -16 33 -42 89 -57
125 -35 84 -257 528 -290 580 -24 38 -35 46 -47 35 -7 -7 30 -148 67 -260 15
-44 33 -105 40 -135 8 -30 24 -92 36 -137 13 -45 19 -86 15 -90 -11 -11 -42
32 -73 102 -45 101 -184 367 -219 422 -19 28 -34 54 -34 57 0 4 -12 25 -27 49
-40 62 -51 80 -61 102 -6 11 -26 44 -46 72 -20 29 -36 57 -36 62 0 5 -6 16
-13 23 -7 7 -27 34 -44 59 -63 92 -86 84 -37 -13 14 -28 55 -139 90 -247 36
-108 69 -204 74 -213 6 -10 10 -28 10 -41 0 -12 6 -31 14 -42 7 -11 16 -40 19
-65 4 -25 10 -56 13 -70 l7 -25 -26 24 c-15 13 -57 85 -95 160 -234 465 -555
900 -994 1349 -120 122 -218 227 -218 232 0 6 7 10 15 10 17 0 393 -184 409
-200 6 -6 18 -10 27 -10 9 0 22 -7 29 -15 7 -8 18 -15 25 -15 12 0 53 -22 140
-76 22 -13 93 -51 157 -84 64 -33 119 -64 123 -70 3 -5 27 -20 53 -31 26 -12
56 -29 67 -38 11 -10 52 -36 91 -59 39 -24 81 -54 94 -67 13 -14 31 -25 41
-25 9 0 23 -7 30 -16 8 -9 47 -43 89 -74 123 -95 275 -260 395 -430 22 -31 59
-83 83 -116 24 -32 90 -131 148 -218 117 -178 135 -201 250 -336 83 -98 101
-115 138 -137 69 -40 100 -39 111 4 7 31 -10 58 -121 194 -113 138 -135 168
-308 424 -171 252 -183 268 -283 388 -78 94 -241 260 -293 299 -19 14 -48 38
-63 52 -34 32 -124 101 -177 136 -21 14 -50 34 -66 44 -111 75 -270 167 -359
209 -16 8 -36 21 -44 30 -7 10 -21 17 -31 17 -10 0 -23 6 -29 14 -7 8 -76 46
-154 85 -78 39 -149 75 -157 80 -8 5 -22 12 -30 15 -8 3 -23 10 -32 16 -44 25
-87 46 -186 91 -59 27 -150 56 -197 64 -63 11 -245 61 -325 90 -70 26 -210 97
-261 132 -28 20 -54 50 -67 75 -54 112 -102 221 -102 234 0 8 -17 49 -39 92
-21 42 -42 88 -46 102 -20 70 -202 414 -265 500 -117 160 -210 304 -210 322 0
16 11 18 103 19 227 1 374 36 503 120 107 70 307 270 324 324 24 78 72 161
124 215 30 30 62 70 72 88 10 17 21 32 25 32 9 0 74 134 89 185 22 69 57 120
102 145 71 41 143 71 213 90 17 5 44 13 60 19 17 5 57 17 90 26 33 9 83 22
110 29 28 7 86 21 130 30 44 10 109 24 145 32 53 11 335 54 455 69 16 2 59 11
95 20 36 9 76 19 90 22 14 3 30 9 35 13 6 4 25 11 44 15 18 4 54 17 80 29 25
13 66 33 91 44 25 12 54 27 65 34 111 69 200 131 273 192 101 85 332 320 366
374 13 20 33 46 46 57 12 11 28 32 35 46 8 14 29 44 47 66 18 22 42 56 53 74
11 18 30 49 43 69 12 19 26 45 32 57 5 11 14 24 19 28 11 6 131 244 131 258 0
9 44 126 61 162 17 37 59 208 81 325 26 141 38 588 18 680 -22 103 -76 155
-120 115 -35 -32 -78 -136 -120 -290 -12 -44 -28 -98 -36 -120 -8 -23 -14 -47
-14 -55 -1 -8 -9 -33 -20 -55 -11 -22 -19 -46 -20 -52 0 -24 -60 -140 -81
-159 -16 -14 -24 -16 -37 -7 -14 9 -17 25 -15 89 1 44 7 115 12 159 32 236 40
634 20 1010 -15 268 -33 370 -70 398 -29 21 -63 17 -73 -9 -25 -66 -60 -324
-76 -569 -12 -171 -36 -368 -59 -480 -20 -96 -57 -229 -72 -257 -5 -10 -9 -23
-9 -28 0 -39 -136 -272 -172 -294 -38 -23 -40 -1 -28 295 16 385 8 1141 -12
1225 -17 72 -49 121 -83 130 -93 23 -140 -122 -165 -511 -5 -77 -14 -178 -19
-225 -6 -47 -18 -143 -26 -215 -15 -124 -27 -186 -62 -320 -64 -245 -142 -401
-237 -476 -39 -31 -112 -35 -154 -9 -39 24 -78 102 -92 182 -30 170 -57 565
-80 1198 -16 411 -29 642 -40 674 -6 16 -10 39 -10 51 0 30 -40 65 -76 65 -20
0 -39 -9 -56 -27z m40 -470 c-2 -53 -7 -93 -13 -93 -12 0 -19 150 -9 200 6 34
7 34 15 11 6 -14 8 -67 7 -118z m-898 -1307 c0 -29 -5 -78 -11 -107 -6 -30
-17 -85 -25 -124 -8 -38 -18 -92 -23 -120 -5 -27 -14 -70 -21 -95 -6 -25 -18
-71 -26 -102 -26 -106 -46 -183 -60 -228 -62 -205 -78 -251 -94 -265 -11 -10
-15 -25 -12 -40 3 -18 0 -25 -12 -25 -18 0 -22 35 -6 45 6 4 8 10 6 13 -4 8 5
46 48 197 24 84 45 161 67 245 5 19 18 76 29 125 12 50 25 106 30 125 5 20 14
65 20 100 17 108 47 246 66 308 9 30 24 -3 24 -52z m2820 -102 c0 -25 -5 -43
-49 -179 -31 -95 -48 -140 -81 -208 -16 -35 -30 -71 -30 -79 0 -9 -7 -21 -15
-28 -8 -7 -15 -20 -15 -30 0 -10 -7 -23 -15 -30 -8 -7 -15 -21 -15 -31 0 -10
-5 -21 -10 -24 -6 -4 -17 -21 -26 -38 -8 -18 -23 -45 -33 -62 -9 -16 -32 -57
-49 -90 -31 -56 -49 -86 -113 -181 -34 -50 -147 -172 -172 -186 -19 -10 -19
-9 1 20 12 16 22 36 22 42 0 7 14 28 30 47 17 18 30 40 30 47 0 7 9 21 20 31
11 10 34 46 50 81 17 34 43 80 57 101 33 47 266 515 282 564 6 20 20 53 31 74
11 22 20 44 20 51 0 18 61 134 71 134 5 0 9 -12 9 -26z m-7252 -459 c7 -55 16
-185 22 -290 15 -289 51 -562 120 -900 42 -203 97 -322 240 -519 36 -49 192
-207 213 -216 7 -3 72 -45 145 -94 155 -104 165 -123 62 -118 -83 3 -168 30
-348 109 -58 25 -124 75 -189 142 -98 101 -181 286 -219 491 -58 307 -87 648
-100 1170 -6 234 -5 270 10 304 9 23 20 36 25 30 4 -5 13 -54 19 -109z m-1812
78 c4 -16 23 -80 44 -143 21 -63 52 -162 70 -220 36 -121 107 -350 123 -397 8
-23 8 -36 0 -44 -13 -13 -43 36 -68 112 -10 30 -24 65 -31 79 -16 28 -92 261
-118 360 -9 36 -23 86 -31 111 -17 53 -20 169 -5 169 5 0 13 -12 16 -27z
m8164 -202 c0 -11 -6 -32 -14 -48 -8 -15 -38 -76 -66 -135 -29 -59 -59 -113
-66 -119 -8 -6 -14 -19 -14 -29 0 -10 -7 -23 -15 -30 -8 -7 -15 -19 -15 -27 0
-8 -11 -28 -25 -45 -14 -16 -25 -35 -25 -41 -1 -7 -12 -25 -25 -42 -20 -24
-25 -26 -30 -13 -4 9 1 30 9 47 9 16 16 37 16 46 0 9 41 96 91 195 105 206
179 306 179 241z m-7472 -141 c5 -64 -27 -258 -49 -302 -11 -21 -27 -41 -37
-46 -25 -14 -182 9 -182 26 0 9 81 42 103 42 25 0 77 54 77 80 0 12 4 29 10
39 5 10 14 52 20 92 16 113 19 121 38 117 12 -2 18 -15 20 -48z m6842 -9 c0
-11 -6 -32 -14 -48 -8 -15 -26 -54 -40 -85 -14 -31 -30 -59 -35 -63 -5 -3 -26
-40 -46 -82 -20 -42 -46 -89 -58 -104 -12 -15 -35 -49 -51 -76 -56 -92 -116
-180 -131 -193 -8 -7 -15 -18 -15 -24 0 -20 -176 -200 -188 -192 -14 8 9 54
43 86 14 13 25 28 25 34 0 6 20 34 45 63 25 28 45 56 45 61 0 6 12 25 27 42
15 18 34 45 42 60 9 16 32 53 52 82 47 68 119 194 119 206 0 5 6 15 14 21 8 7
27 36 41 64 70 134 125 199 125 148z m-1020 -230 c0 -28 -130 -94 -148 -76
-12 12 61 65 90 65 15 0 30 5 33 10 8 13 25 13 25 1z m-1279 -407 c23 -21 151
-84 170 -84 9 0 22 -6 28 -14 9 -11 8 -15 -5 -20 -54 -21 -165 27 -236 102
-27 27 -48 52 -48 56 0 9 71 -22 91 -40z m-2591 -66 c0 -14 -179 -198 -192
-198 -5 0 -26 -13 -48 -29 -37 -27 -127 -58 -137 -47 -15 14 29 51 121 101 72
40 125 77 168 120 62 62 88 78 88 53z m-2332 -353 c16 -14 34 -25 39 -25 6 0
18 -9 28 -20 9 -10 47 -38 84 -61 36 -23 77 -49 90 -58 49 -34 80 -52 284
-166 34 -20 69 -40 77 -45 8 -4 35 -18 60 -30 25 -11 52 -25 60 -30 8 -6 42
-21 75 -36 33 -14 97 -43 142 -65 44 -21 88 -39 96 -39 8 0 45 -16 82 -35 37
-20 95 -45 128 -56 34 -11 70 -27 81 -35 11 -8 29 -14 39 -14 10 0 41 -12 70
-27 29 -14 66 -29 82 -34 17 -4 75 -24 130 -44 168 -62 287 -102 345 -115 101
-23 105 -25 105 -51 0 -23 -3 -24 -60 -23 -33 1 -85 9 -115 19 -30 9 -77 23
-105 30 -27 8 -95 30 -150 50 -55 20 -113 40 -130 45 -105 31 -361 131 -510
199 -38 18 -83 39 -100 46 -96 42 -209 101 -320 165 -22 13 -65 36 -95 52 -30
16 -69 39 -87 51 -17 12 -55 36 -84 52 -29 17 -62 37 -75 45 -55 38 -109 78
-151 113 -24 20 -48 37 -53 37 -13 0 -150 134 -150 148 0 16 44 -6 88 -43z
m4642 -389 c0 -33 -111 -117 -315 -238 -81 -48 -462 -238 -477 -238 -7 0 -25
-6 -39 -14 -14 -7 -42 -16 -63 -20 -53 -10 -61 18 -16 55 30 25 328 179 347
179 10 1 220 105 236 118 7 5 35 22 62 37 52 28 91 51 190 114 33 21 63 36 68
34 4 -2 7 -15 7 -27z m1290 -90 c0 -16 -75 -56 -106 -56 -10 0 -28 -7 -38 -15
-11 -8 -28 -15 -38 -15 -10 0 -35 -8 -56 -19 -20 -10 -93 -37 -162 -61 -69
-23 -139 -48 -157 -56 -17 -8 -40 -14 -51 -14 -12 0 -23 -4 -26 -9 -3 -4 -20
-11 -38 -15 -18 -3 -46 -12 -63 -20 -33 -15 -83 -33 -130 -46 -16 -5 -95 -32
-175 -60 -80 -28 -158 -55 -175 -60 -51 -14 -99 -32 -128 -46 -16 -8 -38 -14
-48 -14 -11 0 -30 -5 -42 -12 -12 -6 -35 -15 -52 -19 -31 -7 -84 -26 -120 -40
-24 -10 -85 -29 -185 -58 -41 -12 -88 -26 -105 -32 -43 -14 -156 -23 -199 -15
-26 5 -36 12 -36 26 0 18 48 60 68 60 6 0 39 13 74 28 34 16 89 37 120 47 32
10 63 24 69 31 6 8 22 14 36 14 13 0 34 5 46 12 12 6 35 15 52 19 32 8 88 27
120 41 22 9 144 46 255 77 19 5 91 26 160 46 69 21 157 47 195 57 39 11 81 24
95 28 14 4 63 18 110 29 47 12 99 27 115 32 17 6 50 15 75 20 25 6 53 14 62
19 10 6 26 10 37 10 10 0 43 7 72 16 134 39 266 73 304 77 59 7 65 7 65 -7z
m-2599 -256 c69 -37 -45 -95 -195 -99 -88 -2 -205 -30 -269 -65 -25 -13 -69
-31 -98 -42 -30 -10 -63 -24 -74 -31 -26 -17 -96 -16 -131 2 -25 13 -31 12
-66 -7 -45 -26 -138 -115 -138 -132 0 -7 -9 -21 -21 -32 -30 -27 -59 -89 -75
-159 -13 -59 -18 -125 -9 -125 13 0 64 27 95 50 55 42 130 74 142 62 9 -9 -6
-75 -28 -129 -10 -24 47 -13 119 23 141 70 253 108 412 140 131 26 239 32 233
12 -5 -15 -118 -78 -141 -78 -20 0 -193 -85 -201 -99 -13 -21 22 -23 156 -11
124 12 152 12 266 -4 209 -29 312 -61 312 -97 0 -24 12 -25 -140 11 -112 26
-310 28 -372 3 -109 -43 -282 -190 -351 -300 -25 -40 -81 -93 -98 -93 -16 0
-10 60 11 100 36 71 20 102 -31 61 -13 -10 -94 -60 -179 -110 -85 -51 -162
-96 -170 -101 -8 -5 -63 -34 -121 -64 -58 -30 -136 -73 -173 -95 -36 -23 -69
-41 -72 -41 -4 0 -260 -154 -427 -257 -29 -18 -58 -36 -66 -39 -30 -15 -439
-289 -516 -345 -44 -33 -145 -106 -223 -164 -79 -57 -158 -116 -175 -130 -277
-225 -529 -471 -590 -577 -43 -75 -70 -103 -87 -93 -29 18 34 185 109 290 53
74 258 295 385 414 61 57 138 130 171 161 33 31 69 63 81 71 11 8 47 37 80 66
32 28 75 64 96 80 162 124 320 240 413 302 61 40 142 98 182 128 39 30 107 78
151 106 90 58 259 177 312 219 201 160 245 200 267 241 30 58 -10 45 -89 -28
-62 -58 -134 -115 -144 -115 -5 0 -26 -11 -46 -25 -39 -26 -68 -32 -68 -15 0
6 19 32 43 58 23 26 59 68 80 94 21 26 51 60 67 77 32 32 39 61 15 61 -44 0
-200 -106 -291 -197 -74 -74 -100 -82 -91 -26 4 21 15 49 25 63 48 64 252 190
367 224 61 19 72 26 87 56 23 50 46 127 53 185 12 100 31 136 108 212 150 147
327 237 489 250 66 5 245 55 297 82 46 25 305 40 342 21z m217 -95 c1 -11 -7
-47 -18 -80 -34 -95 -35 -107 -15 -122 11 -7 31 -13 46 -13 28 0 59 -34 59
-66 0 -34 59 -91 132 -127 40 -20 82 -42 92 -50 19 -14 19 -15 -4 -27 l-23
-12 28 -22 c46 -37 26 -49 -69 -44 -60 3 -95 11 -136 30 -129 62 -230 195
-230 302 0 48 24 137 50 188 33 62 82 86 88 43z m2182 6 c0 -21 -72 -110 -161
-200 -115 -116 -287 -261 -311 -261 -41 0 76 134 300 342 81 76 153 138 160
138 6 0 12 -9 12 -19z m-430 -74 c0 -25 -195 -147 -235 -147 -8 0 -29 -6 -47
-14 -52 -21 -129 -44 -173 -50 -89 -13 -81 36 12 73 32 12 66 27 76 32 9 5 43
19 75 30 31 11 71 26 87 34 107 46 205 66 205 42z m-955 -297 c10 -16 -16 -43
-28 -31 -11 11 -2 41 12 41 5 0 13 -5 16 -10z m919 -188 c3 -5 -18 -32 -47
-60 -52 -51 -125 -94 -182 -108 -16 -4 -34 -10 -40 -14 -5 -4 -53 -15 -105
-25 -169 -33 -374 -23 -430 20 -8 7 -24 15 -34 19 -41 15 3 20 167 22 95 1
195 7 222 13 28 7 70 16 95 20 72 13 143 32 172 47 14 8 32 14 40 14 7 0 33
14 58 30 45 30 74 37 84 22z m-918 -157 c21 -53 -54 -178 -138 -231 -47 -30
-66 -23 -38 13 11 14 20 31 20 38 0 6 9 20 20 30 25 22 70 109 70 134 0 10 3
21 7 24 12 13 54 7 59 -8z m-898 -135 c57 -6 115 -15 129 -21 13 -5 38 -9 54
-9 33 0 48 -22 29 -45 -15 -18 -94 -20 -262 -4 -89 9 -122 9 -131 0 -6 -6 -26
-11 -45 -11 -30 0 -87 -22 -137 -53 -36 -22 -199 -155 -229 -186 -53 -56 -64
-29 -16 37 17 23 30 45 30 48 0 13 137 158 179 190 61 47 176 77 261 68 19 -2
82 -9 138 -14z m-82 -194 c23 -18 12 -42 -29 -66 -23 -13 -29 -12 -61 5 -34
18 -48 50 -29 68 12 13 99 7 119 -7z m149 -157 c12 -19 -47 -90 -94 -113 -96
-47 -235 -59 -290 -24 -40 25 -16 33 96 33 l109 0 59 45 c92 70 109 78 120 59z
m345 -190 c0 -28 -31 -119 -40 -119 -5 0 -13 -12 -19 -27 -27 -65 -52 -103
-88 -132 -38 -32 -100 -58 -110 -47 -4 3 19 33 50 65 32 33 57 66 57 74 0 7
11 24 25 37 14 13 32 46 40 74 8 27 22 60 30 73 20 29 55 31 55 2z m-280 -22
c0 -18 -18 -38 -60 -68 -56 -40 -119 -59 -198 -59 -72 0 -98 15 -44 25 25 5
61 14 138 34 16 4 54 24 83 45 56 38 81 45 81 23z m1227 -64 c22 -32 76 -134
122 -228 45 -93 87 -178 92 -187 5 -10 9 -27 9 -37 0 -11 4 -23 10 -26 12 -8
50 -93 50 -114 0 -9 6 -25 13 -36 8 -11 22 -42 32 -70 9 -27 23 -63 30 -80 39
-89 160 -459 171 -520 3 -22 10 -44 14 -50 8 -11 24 -73 46 -170 7 -33 20 -89
29 -125 8 -36 20 -99 26 -140 5 -41 12 -82 16 -90 3 -8 9 -58 14 -110 24 -297
30 -406 24 -500 -10 -172 -34 -432 -45 -480 -13 -60 -34 -165 -55 -270 -9 -47
-23 -105 -30 -130 -7 -25 -20 -76 -30 -115 -10 -38 -24 -84 -31 -102 -8 -17
-14 -38 -14 -47 0 -9 -4 -24 -9 -34 -5 -9 -26 -66 -45 -127 -20 -60 -47 -141
-61 -180 -14 -38 -30 -81 -34 -95 -11 -33 -87 -214 -112 -267 -44 -94 -52 -26
-13 112 14 50 30 108 35 130 6 22 14 49 19 60 4 11 16 49 25 85 10 36 24 85
30 110 12 41 24 97 60 270 56 272 99 593 115 865 18 295 14 421 -30 905 -19
205 -39 228 -56 65 -12 -115 -35 -375 -39 -435 -9 -135 -30 -209 -53 -185 -6
6 -12 164 -15 380 -5 342 -10 444 -38 675 -6 47 -14 117 -19 155 -4 39 -12 86
-19 105 -6 19 -11 53 -11 75 0 23 -5 46 -11 52 -6 6 -12 30 -15 54 -3 24 -9
55 -14 69 -5 14 -21 68 -34 120 -33 123 -50 177 -59 186 -4 4 -7 14 -7 23 0 9
-29 106 -65 216 -90 277 -88 272 -81 284 13 20 24 12 63 -46z m-335 -140 c25
-28 168 -318 168 -340 0 -10 5 -24 11 -30 6 -6 15 -29 20 -50 4 -21 12 -58 18
-83 25 -118 40 -442 17 -385 -4 11 -13 31 -21 45 -7 14 -16 48 -19 75 -4 28
-11 64 -16 80 -5 17 -16 66 -25 110 -9 44 -23 96 -30 115 -15 41 -36 122 -43
165 -2 17 -9 36 -15 43 -5 7 -20 42 -33 79 -13 36 -28 71 -34 77 -5 5 -10 17
-10 26 0 8 -7 28 -15 44 -22 42 -3 63 27 29z m-2354 -140 c-2 -11 -14 -19 -31
-21 -30 -4 -36 12 -9 27 26 16 44 13 40 -6z m40 -79 c-2 -9 -48 -44 -102 -78
-55 -33 -134 -94 -177 -133 -68 -65 -109 -89 -109 -65 0 44 121 188 199 237
80 49 196 73 189 39z m552 -579 c0 -14 -247 -257 -380 -374 -132 -115 -169
-142 -245 -177 -106 -49 -184 -76 -196 -68 -24 14 -2 37 69 73 106 53 310 194
391 270 14 13 44 37 66 53 22 16 73 59 114 96 102 92 181 147 181 127z m2726
-37 c85 -43 115 -59 145 -81 13 -10 49 -34 80 -55 57 -37 182 -153 275 -252
54 -60 149 -190 206 -285 65 -109 173 -350 198 -445 7 -25 18 -57 26 -72 8
-14 14 -38 14 -51 0 -14 4 -28 9 -32 5 -3 12 -31 16 -63 3 -31 12 -84 20 -117
20 -87 31 -360 15 -370 -18 -11 -27 9 -33 83 -4 36 -11 70 -17 76 -5 5 -10 29
-10 53 0 24 -7 60 -15 80 -8 19 -15 47 -15 62 -1 14 -7 37 -15 51 -8 14 -14
36 -15 51 0 14 -4 29 -9 35 -5 5 -14 25 -19 44 -22 76 -72 193 -117 277 -97
180 -189 325 -234 367 -27 26 -31 27 -37 12 -4 -9 0 -34 9 -54 25 -63 47 -147
47 -183 0 -19 5 -40 11 -46 6 -6 13 -47 16 -92 5 -66 3 -81 -8 -81 -17 0 -49
50 -49 74 0 9 -11 39 -25 66 -14 27 -25 55 -25 62 -1 7 -9 31 -20 53 -11 22
-19 46 -20 54 0 7 -27 70 -61 138 -59 122 -158 278 -255 401 -27 35 -58 75
-69 90 -11 15 -39 51 -63 80 -40 51 -51 80 -35 95 9 10 6 11 79 -25z m-899
-85 c13 -32 16 -86 16 -343 0 -194 -4 -324 -11 -357 -7 -29 -16 -75 -21 -102
-14 -73 -90 -293 -109 -314 -9 -10 -16 -30 -17 -45 0 -17 -6 -28 -17 -30 -19
-4 -25 22 -9 32 5 3 7 14 4 25 -2 10 7 56 21 102 27 92 52 206 61 284 3 28 8
70 10 95 5 38 24 559 25 658 0 45 27 42 47 -5z m-612 -65 c-8 -39 -35 -96 -76
-158 -16 -25 -37 -58 -47 -75 -9 -16 -53 -67 -97 -111 -65 -66 -99 -91 -175
-129 -128 -65 -250 -91 -555 -122 -269 -26 -386 -20 -348 18 10 10 45 15 213
33 225 24 391 57 485 96 11 5 31 12 45 15 24 6 185 83 225 108 98 61 223 195
275 295 35 68 66 85 55 30z m-2912 -30 c93 -40 147 -150 147 -300 0 -98 -13
-99 -45 -3 -29 89 -46 120 -78 145 -63 50 -146 63 -214 35 -19 -8 -43 -15 -52
-15 -9 0 -29 -7 -45 -15 -15 -8 -33 -15 -40 -15 -15 0 -129 -59 -186 -95 -102
-66 -313 -172 -360 -182 -23 -4 -34 0 -54 22 -22 23 -26 38 -26 85 0 34 6 64
15 76 8 10 15 25 15 33 0 8 19 35 43 60 23 25 49 55 57 66 8 11 33 34 55 50
40 30 40 30 185 31 150 1 200 6 285 29 28 8 64 16 80 19 56 8 170 -6 218 -26z
m-54 -399 c20 -19 22 -28 16 -68 -13 -89 -158 -343 -254 -444 -47 -50 -114
-97 -139 -97 -29 0 -43 63 -49 227 -5 131 -4 146 16 188 21 45 33 55 164 138
62 40 152 74 198 76 14 1 36 -9 48 -20z m971 -388 c0 -12 -110 -117 -154 -148
-72 -48 -187 -96 -244 -101 -42 -4 -54 -2 -50 8 2 7 67 45 144 84 76 39 170
92 209 119 68 45 95 57 95 38z m1639 -142 c44 -141 74 -613 55 -889 -16 -241
-35 -346 -100 -550 -46 -145 -53 -166 -85 -241 -16 -36 -29 -69 -29 -73 0 -17
-110 -233 -125 -246 -9 -7 -22 -28 -30 -47 -17 -40 -61 -86 -75 -78 -13 8 -13
103 0 141 23 69 42 302 46 564 5 327 7 342 37 338 17 -2 24 -13 30 -43 20
-103 26 -195 27 -377 0 -108 3 -204 7 -213 7 -19 34 42 54 120 78 304 102 435
129 700 17 165 19 236 14 539 -3 191 -2 361 1 378 9 40 27 31 44 -23z m-2539
-268 c0 -18 -55 -62 -109 -87 -69 -33 -171 -53 -270 -53 -97 -1 -261 28 -261
45 0 21 30 24 235 27 l190 2 75 37 c70 34 140 49 140 29z m617 -237 c12 -33
-34 -99 -146 -211 -62 -62 -120 -113 -127 -113 -30 0 -10 34 67 118 106 114
164 183 172 205 8 21 26 22 34 1z m683 -799 c0 -22 7 -58 15 -80 8 -22 14 -59
15 -82 0 -23 4 -44 9 -48 5 -3 12 -31 16 -63 3 -31 10 -75 16 -97 9 -37 14
-67 40 -254 12 -84 3 -107 -31 -76 -11 10 -20 27 -20 37 0 11 -5 28 -11 39
-16 31 -48 160 -49 199 0 19 -7 62 -15 95 -15 61 -21 347 -9 380 10 26 24 -2
24 -50z m4294 -291 c9 -24 7 -486 -4 -729 -5 -115 -12 -277 -15 -360 -9 -224
-29 -396 -51 -441 -21 -44 -51 -55 -71 -28 -16 22 -17 250 -3 459 26 372 31
442 45 600 20 231 49 436 70 503 6 17 22 15 29 -4z m-3586 -16 c26 -33 35
-139 23 -267 -7 -69 -17 -139 -22 -156 -5 -16 -21 -75 -35 -130 -50 -187 -182
-413 -242 -415 -22 0 -61 51 -68 89 -4 20 -13 45 -20 56 -8 11 -14 30 -14 42
0 13 -4 31 -10 41 -21 39 -50 312 -50 476 0 169 8 216 35 216 22 0 23 -6 29
-180 3 -85 10 -186 16 -225 23 -164 42 -272 60 -350 5 -22 12 -57 15 -78 l6
-37 24 29 c14 16 25 36 25 44 0 9 5 19 10 22 18 11 57 116 95 255 9 36 21 76
26 90 20 61 59 304 64 400 2 41 4 78 4 83 1 11 17 8 29 -5z m1898 -562 c12
-32 -51 -230 -117 -372 -16 -33 -29 -67 -29 -75 0 -17 -181 -377 -221 -439
-16 -25 -34 -56 -41 -70 -35 -70 -218 -320 -239 -328 -28 -11 17 94 85 198 20
30 36 58 36 62 0 4 17 34 37 65 41 64 313 599 313 615 0 6 13 38 28 72 16 34
37 86 47 116 9 30 24 74 32 98 22 62 56 91 69 58z m-2040 -663 c3 -10 9 -25
14 -33 4 -9 17 -61 29 -115 12 -55 27 -120 33 -145 19 -81 66 -224 92 -280 14
-30 26 -61 26 -68 0 -12 66 -153 156 -335 61 -122 59 -149 -7 -79 -50 52 -148
184 -199 267 -48 79 -120 223 -120 241 0 6 -7 25 -15 40 -8 16 -15 38 -15 50
0 11 -4 24 -9 30 -32 34 -66 268 -52 354 13 75 20 90 42 90 11 0 22 -8 25 -17z"/>
<path d="M10629 12095 c-3 -2 -2 -35 2 -72 5 -38 13 -196 19 -353 15 -395 27
-479 68 -495 17 -6 42 5 42 20 0 6 9 20 21 31 28 25 112 207 126 274 3 14 9
30 13 35 5 6 11 32 15 59 4 27 14 61 21 75 8 14 14 52 14 85 l0 58 -72 75
c-77 80 -236 213 -254 213 -6 0 -13 -2 -15 -5z"/>
<path d="M1316 9063 c-3 -3 -6 -13 -6 -20 0 -26 -71 -157 -103 -193 -45 -48
-77 -96 -77 -114 0 -20 17 -24 73 -18 46 5 47 4 47 -22 0 -29 -35 -90 -69
-120 -11 -11 -21 -23 -21 -28 0 -6 -20 -33 -44 -61 -47 -53 -49 -78 -7 -92 21
-7 33 -28 25 -48 -2 -7 -29 -25 -60 -40 -30 -15 -58 -35 -61 -44 -9 -23 32
-53 72 -53 18 0 38 -7 45 -15 23 -27 -5 -67 -85 -119 -41 -27 -75 -54 -75 -61
0 -8 15 -16 33 -20 83 -16 127 -30 127 -40 0 -10 -62 -54 -130 -92 -97 -53
-129 -79 -130 -100 0 -26 42 -49 110 -61 31 -5 46 -13 48 -25 2 -11 -35 -57
-103 -126 -59 -61 -104 -115 -100 -120 3 -6 37 -11 76 -11 92 0 97 -14 32 -83
-74 -78 -105 -129 -101 -168 3 -28 8 -33 48 -45 25 -8 55 -14 68 -14 12 0 25
-7 28 -15 6 -14 -63 -111 -105 -149 -46 -41 -109 -204 -97 -251 9 -36 29 -40
88 -21 59 19 68 20 68 6 0 -10 -46 -75 -104 -146 -29 -35 -60 -168 -50 -209 9
-37 35 -47 109 -39 83 9 84 -1 9 -77 -39 -39 -58 -68 -64 -95 -9 -41 2 -197
19 -275 6 -24 15 -73 22 -109 27 -159 41 -222 65 -306 8 -28 14 -64 14 -80 0
-17 4 -34 9 -39 8 -9 36 -108 75 -262 7 -28 17 -44 31 -47 11 -3 478 -6 1038
-6 841 0 1019 2 1023 13 3 8 -12 45 -32 83 -61 115 -71 195 -55 449 7 99 13
200 14 225 l2 45 -45 7 c-25 3 -110 14 -190 23 -80 9 -149 21 -155 26 -5 5
-22 9 -39 9 -16 0 -57 7 -90 16 -337 86 -359 91 -466 104 -109 14 -151 25
-184 51 -37 29 -34 57 7 64 82 16 275 -7 472 -55 247 -60 384 -80 589 -87
l169 -5 23 29 c13 15 23 33 24 39 0 6 10 19 21 30 12 10 35 47 51 81 16 35 33
65 39 68 5 4 9 14 9 24 0 10 7 24 15 31 25 21 18 66 -16 104 -41 47 -31 60 41
52 33 -4 61 -3 64 3 3 5 -9 31 -28 58 -81 118 -107 203 -73 241 17 19 16 21
-23 66 -22 26 -40 51 -40 56 0 6 17 25 38 44 l37 35 -37 34 c-25 23 -38 43
-38 61 0 32 -54 94 -98 113 -46 19 -31 33 38 33 62 0 80 10 55 30 -32 27 -56
82 -71 166 -11 59 -26 105 -45 137 -34 56 -38 83 -11 72 95 -40 89 -1 -23 153
-55 75 -85 100 -85 70 0 -6 -6 -19 -14 -27 -23 -26 -29 -76 -11 -91 20 -16 19
-36 -3 -68 -42 -61 -71 -146 -65 -189 4 -32 0 -50 -18 -82 -22 -40 -22 -41 -3
-55 17 -13 18 -18 7 -46 -10 -26 -9 -32 3 -36 8 -2 21 -6 29 -9 19 -6 19 -39
0 -55 -17 -14 -85 -150 -85 -169 0 -7 16 -19 35 -27 54 -22 49 -58 -18 -121
-63 -60 -78 -68 -138 -77 -50 -7 -75 -2 -83 20 -10 25 5 44 35 44 16 0 29 5
29 11 0 6 -22 36 -48 67 -99 116 -112 152 -55 152 62 0 64 26 6 95 -23 27 -32
46 -29 60 3 11 8 29 11 40 4 14 -9 43 -40 90 -46 70 -46 70 -40 136 6 66 -5
116 -28 131 -31 20 -48 6 -83 -64 -36 -71 -36 -74 -20 -101 21 -37 21 -35 -17
-119 -54 -119 -76 -179 -71 -193 3 -8 17 -21 30 -30 32 -20 30 -37 -6 -78 -17
-19 -30 -40 -30 -45 0 -6 -14 -27 -31 -46 -25 -29 -28 -39 -20 -55 6 -11 23
-21 38 -23 44 -5 40 -36 -9 -88 -55 -57 -88 -104 -88 -123 0 -9 12 -22 27 -29
14 -7 28 -18 30 -24 2 -5 -25 -40 -61 -77 -79 -83 -86 -108 -40 -149 40 -37
41 -40 12 -78 -31 -42 -90 -42 -143 0 -21 17 -42 30 -47 30 -5 0 -45 36 -89
81 -55 56 -79 88 -79 105 0 29 7 30 121 8 92 -18 119 -15 119 13 0 9 -70 86
-155 171 -142 142 -176 184 -162 199 7 7 41 7 97 0 58 -7 90 1 90 22 0 16 -55
77 -174 189 -36 35 -64 68 -60 73 3 5 61 9 129 9 68 0 126 4 129 9 3 5 -7 17
-22 27 -75 48 -248 237 -331 362 -23 34 -23 36 -5 49 14 10 43 13 103 11 90
-3 107 6 74 39 -21 21 -57 72 -146 208 -33 50 -72 109 -88 133 -16 23 -29 47
-29 52 0 15 43 12 121 -7 99 -24 105 -10 29 63 -68 64 -76 97 -27 102 42 5 35
40 -23 106 -55 62 -55 65 -38 130 12 44 11 46 -55 184 -37 76 -68 154 -69 173
-3 30 0 34 22 37 14 2 29 7 34 12 9 9 -40 118 -77 173 -20 30 -51 50 -61 40z
m1389 -2423 c20 -20 35 -28 47 -24 39 12 67 -45 32 -64 -20 -11 -84 2 -94 18
-4 7 -18 17 -30 23 -34 18 -47 42 -31 61 20 24 44 19 76 -14z m78 -178 c21
-19 22 -50 2 -79 -17 -25 -37 -22 -72 10 -14 12 -23 32 -23 48 0 48 49 59 93
21z"/>
<path d="M13483 8500 c0 -25 2 -35 4 -22 2 12 2 32 0 45 -2 12 -4 2 -4 -23z"/>
<path d="M13484 8315 c0 -60 1 -84 3 -52 2 32 2 81 0 110 -2 29 -3 3 -3 -58z"/>
<path d="M10011 8247 c-12 -16 -39 -86 -51 -136 -7 -27 -4 -39 11 -61 l20 -27
-30 -60 c-17 -32 -40 -68 -51 -78 -11 -10 -20 -26 -20 -35 0 -10 -6 -23 -14
-29 -21 -17 -26 -61 -13 -109 12 -45 3 -72 -46 -145 -25 -37 -16 -58 21 -51
17 3 32 1 36 -5 10 -15 -19 -66 -66 -117 -50 -54 -47 -76 9 -63 21 5 48 9 61
9 62 0 -17 -127 -148 -235 -90 -76 -91 -89 -3 -101 86 -11 92 -29 26 -71 -26
-16 -72 -49 -102 -73 -62 -49 -57 -60 31 -60 38 0 62 -5 72 -16 9 -8 16 -18
16 -20 0 -14 -145 -145 -166 -150 -27 -7 -67 15 -84 46 -10 18 -8 20 20 20 37
0 38 13 4 61 -29 43 -26 55 15 64 l30 6 -57 61 c-76 80 -78 85 -57 123 20 38
13 59 -37 112 -33 34 -30 53 8 53 36 0 40 26 13 77 -23 44 -90 113 -108 113
-25 0 -51 -54 -51 -107 0 -29 -7 -70 -15 -91 -15 -33 -14 -39 2 -69 17 -32 17
-33 -10 -87 -15 -29 -37 -82 -48 -117 l-21 -64 21 -14 22 -14 -27 -28 c-26
-27 -26 -30 -11 -47 24 -27 21 -38 -18 -69 -19 -15 -35 -37 -35 -48 0 -11 -7
-29 -15 -39 -18 -23 -20 -62 -4 -72 6 -4 8 -20 5 -38 -5 -24 -2 -37 11 -48 21
-19 115 -48 154 -48 14 0 43 -7 62 -15 20 -8 48 -15 62 -15 14 0 33 -4 43 -10
9 -5 62 -24 117 -41 55 -18 137 -49 182 -70 46 -22 86 -39 91 -39 5 0 31 -11
58 -24 115 -56 198 -60 329 -17 113 37 198 79 300 150 44 30 153 92 243 137
173 89 228 124 237 155 8 25 58 51 115 60 66 10 79 -6 40 -46 -21 -21 -28 -35
-21 -40 7 -3 54 -11 106 -15 179 -17 326 -50 665 -146 90 -26 123 -35 170 -45
25 -6 54 -14 65 -19 11 -5 49 -14 84 -20 35 -6 125 -27 200 -47 75 -19 149
-36 166 -37 29 -1 30 1 37 54 3 30 2 62 -3 72 -5 9 -9 26 -9 38 0 12 -21 48
-46 80 -54 68 -53 90 5 113 21 9 41 23 44 32 10 25 -4 77 -32 120 -44 67 -63
111 -59 136 3 21 8 24 41 21 49 -4 48 7 -13 100 -27 42 -50 80 -50 86 0 5 12
14 26 20 42 20 29 58 -36 110 -125 100 -133 115 -59 120 24 2 48 7 52 11 5 5
-10 27 -32 50 -34 36 -41 49 -41 84 0 27 -7 48 -20 62 l-20 22 20 25 c27 35
26 43 -14 67 -48 30 -78 102 -65 159 11 50 -8 130 -44 184 -34 50 -52 44 -53
-21 -2 -62 -11 -83 -76 -170 -27 -35 -48 -68 -48 -72 0 -5 14 -9 30 -9 42 0
59 -36 37 -76 -9 -16 -21 -40 -27 -53 -6 -13 -22 -37 -35 -53 -28 -34 -32 -60
-10 -78 17 -14 20 -56 5 -65 -16 -10 -41 -78 -33 -86 5 -4 21 -9 38 -11 20 -2
31 -9 33 -22 6 -30 -32 -96 -92 -160 l-56 -59 -52 6 c-36 5 -59 14 -78 32 -14
14 -31 25 -37 25 -14 0 -95 95 -116 136 -23 44 -5 67 48 62 62 -5 58 21 -19
103 -81 86 -86 121 -16 131 37 5 36 34 -3 77 -49 54 -54 77 -26 107 22 23 22
25 6 57 -9 17 -22 41 -29 52 -75 121 -86 155 -64 197 18 34 9 78 -35 164 -39
76 -54 78 -87 14 -13 -25 -31 -56 -41 -70 -28 -39 -51 -87 -51 -107 0 -10 14
-29 31 -44 l31 -25 -35 -46 c-51 -67 -57 -81 -57 -143 0 -55 -2 -58 -56 -116
-64 -66 -59 -80 22 -60 25 6 49 9 55 6 15 -10 10 -39 -13 -72 -56 -75 -110
-144 -133 -167 -23 -23 -35 -75 -17 -77 70 -6 112 -28 112 -60 0 -11 -41 -65
-96 -124 -52 -58 -92 -110 -89 -115 3 -6 30 -10 59 -10 29 0 56 -3 59 -6 9
-10 -12 -44 -26 -44 -16 0 -97 -82 -97 -98 0 -14 51 -42 77 -42 10 0 25 -4 33
-10 12 -7 12 -12 -4 -29 -23 -25 -132 -81 -158 -81 -25 0 -107 77 -115 108 -5
20 1 30 28 53 l34 29 -87 83 c-49 46 -88 89 -88 95 0 12 4 13 52 16 48 3 53
20 17 60 -20 23 -35 54 -40 83 -5 26 -17 58 -27 71 -62 86 -78 142 -42 142 31
0 25 42 -20 132 -37 74 -40 86 -40 164 0 45 -4 85 -9 88 -14 9 -81 -74 -81
-99 0 -12 7 -28 15 -35 21 -18 18 -59 -8 -101 -12 -20 -35 -57 -51 -83 -28
-47 -29 -48 -12 -82 20 -44 20 -60 -4 -104 -50 -91 -53 -101 -34 -121 18 -20
17 -25 -34 -81 -34 -37 -26 -62 22 -68 54 -7 64 -27 41 -86 -22 -58 -82 -125
-153 -171 -57 -36 -66 -65 -23 -71 31 -5 71 -31 71 -46 0 -6 -11 -28 -25 -49
-30 -43 -61 -49 -75 -12 -5 13 -20 41 -34 62 -13 21 -27 57 -31 80 -5 34 -3
45 14 62 35 35 25 64 -57 166 -29 37 -42 63 -42 87 0 26 3 28 40 28 75 0 66
29 -44 144 -74 78 -89 111 -61 133 11 7 27 13 37 13 27 0 35 30 12 47 -37 27
-64 53 -64 61 0 5 9 19 20 32 27 31 25 49 -5 60 -29 11 -76 83 -100 155 -20
58 -15 89 12 81 10 -3 25 -1 33 4 12 8 13 15 2 52 -7 24 -19 75 -26 114 -16
82 -55 204 -85 263 -24 46 -24 46 -40 28z m2065 -1268 c14 -24 -97 -109 -143
-109 -28 0 -82 37 -95 66 -20 43 7 54 128 54 63 0 105 -4 110 -11z m-57 -206
l21 -18 -30 -62 c-38 -77 -65 -96 -92 -63 -22 27 -23 63 -3 80 8 7 15 18 15
25 0 13 46 55 60 55 4 0 17 -8 29 -17z"/>
<path d="M13483 8040 c0 -47 2 -66 4 -42 2 23 2 61 0 85 -2 23 -4 4 -4 -43z"/>
<path d="M11095 6389 c-16 -5 -52 -17 -80 -25 -42 -14 -192 -81 -260 -117 -11
-6 -119 -62 -240 -125 -121 -63 -228 -121 -237 -129 -22 -20 -23 -53 -3 -53 9
0 28 -8 43 -18 40 -27 57 -36 176 -97 60 -31 123 -67 138 -81 16 -13 34 -24
40 -24 5 0 30 -13 54 -30 24 -16 65 -44 92 -62 26 -18 64 -48 85 -67 20 -20
46 -40 56 -46 10 -5 133 -122 274 -259 141 -138 266 -255 279 -262 17 -9 79
-10 248 -3 124 4 318 8 432 9 200 0 208 1 228 22 11 12 20 33 20 47 0 13 7 49
16 80 9 31 22 76 29 101 7 25 20 79 29 120 9 41 21 89 26 105 11 37 54 265 69
363 18 115 15 144 -19 190 -44 61 -100 84 -270 113 -86 14 -168 34 -176 42 -4
4 -17 7 -28 7 -21 0 -128 27 -217 55 -26 8 -53 15 -60 15 -8 0 -26 6 -40 14
-14 7 -48 17 -75 21 -27 4 -53 10 -59 15 -5 4 -37 15 -70 25 -33 9 -73 21 -90
27 -107 33 -340 49 -410 27z"/>
<path d="M1160 4891 c-65 -20 -71 -34 -41 -100 11 -25 30 -79 42 -119 12 -40
28 -79 35 -87 12 -11 50 -13 207 -9 206 4 558 17 967 35 140 6 299 13 352 14
54 2 202 9 330 15 266 13 277 16 234 73 -14 18 -26 38 -26 42 0 5 -21 41 -46
82 l-45 73 -977 -1 c-889 -1 -982 -2 -1032 -18z"/>
<path d="M11566 4901 c-8 -12 31 -92 90 -184 l44 -68 273 3 c320 4 319 3 354
90 12 31 25 74 29 95 10 66 4 67 -417 71 -249 2 -369 0 -373 -7z"/>
<path d="M1830 4346 c-3 -3 -89 -6 -190 -6 -193 -2 -275 -11 -299 -34 -27 -28
36 -45 201 -57 185 -12 2411 -6 2477 7 48 10 76 38 52 53 -14 9 -87 22 -156
27 -79 6 -2080 16 -2085 10z"/>
<path d="M5365 4343 c-38 -6 -85 -40 -85 -62 0 -30 22 -41 85 -41 81 1 145 29
145 65 0 39 -48 52 -145 38z"/>
<path d="M11958 4343 c-29 -7 -20 -31 24 -63 51 -37 96 -39 134 -7 40 35 27
63 -33 71 -50 7 -98 6 -125 -1z"/>
<path d="M1460 4031 c0 -6 15 -35 34 -64 19 -29 49 -80 66 -113 56 -103 375
-576 458 -679 4 -5 35 -46 69 -90 34 -44 79 -100 100 -124 l39 -44 89 18 c50
9 115 21 146 26 31 4 67 12 80 17 13 5 57 13 97 17 39 4 75 11 78 16 3 5 23 9
46 9 22 0 70 6 107 14 77 17 184 34 294 47 42 4 86 13 97 19 10 5 32 10 49 10
25 0 101 34 101 46 0 11 -54 28 -148 45 -164 29 -213 41 -352 85 -98 31 -116
56 -52 73 130 34 577 79 861 88 251 7 257 11 102 59 -168 52 -136 87 124 134
33 6 81 15 106 21 25 6 81 14 125 19 73 9 179 24 344 49 122 19 210 43 210 57
0 21 -135 51 -340 74 -47 5 -96 12 -110 16 -14 3 -91 16 -173 29 -81 13 -151
26 -156 30 -5 3 -33 10 -62 15 -53 10 -89 33 -89 55 0 7 -8 17 -17 21 -27 13
-2323 17 -2323 5z"/>
<path d="M2354 2795 c-11 -28 18 -44 96 -50 58 -5 79 -3 95 8 18 14 16 16 -35
32 -86 26 -149 30 -156 10z"/>
<path d="M3537 1792 c-24 -5 -21 -21 6 -31 12 -5 67 -37 122 -71 85 -54 165
-98 340 -188 17 -9 36 -22 43 -29 7 -7 19 -13 26 -13 6 0 61 -26 121 -57 l110
-58 877 0 c482 0 879 3 882 6 3 3 2 26 -3 50 -5 24 -17 82 -26 129 -9 47 -24
123 -34 170 l-17 85 -1215 5 c-669 3 -1223 4 -1232 2z"/>
</g>
</svg>
