<?xml version="1.0" standalone="no"?>
<!DOCTYPE svg PUBLIC "-//W3C//DTD SVG 20010904//EN"
 "http://www.w3.org/TR/2001/REC-SVG-20010904/DTD/svg10.dtd">
<svg version="1.0" xmlns="http://www.w3.org/2000/svg"
 width="450.000000pt" height="337.000000pt" viewBox="0 0 450.000000 337.000000"
 preserveAspectRatio="xMidYMid meet">
<metadata>
Created by potrace 1.10, written by Peter Selinger 2001-2011
</metadata>
<g transform="translate(0.000000,337.000000) scale(0.100000,-0.100000)"
fill="#000000" stroke="none">
<path d="M3530 3042 c-17 -15 -43 -58 -59 -97 -16 -38 -34 -71 -39 -73 -5 -1
-7 22 -4 51 7 89 -28 87 -74 -4 -36 -71 -44 -69 -37 11 l6 70 -26 0 c-37 0
-63 -40 -83 -128 -15 -69 -62 -204 -76 -218 -3 -3 -9 16 -13 41 -14 98 -59
180 -91 168 -11 -4 -14 -38 -14 -167 0 -280 -52 -471 -117 -430 -28 18 -41 81
-35 174 4 72 2 89 -12 103 -10 9 -26 17 -36 17 -13 0 -31 24 -61 80 -50 93
-78 124 -104 114 -15 -6 -17 -16 -12 -68 3 -34 13 -80 21 -104 l15 -42 -37
-16 c-45 -18 -97 -67 -113 -105 -6 -16 -16 -29 -22 -29 -5 0 -40 17 -76 38
-149 86 -212 82 -366 -21 l-70 -48 -15 23 c-42 63 -116 128 -147 128 -4 0 -21
-25 -37 -55 -16 -31 -30 -54 -32 -52 -2 2 16 64 41 137 45 135 53 174 36 184
-21 13 -42 -10 -83 -90 -41 -81 -44 -84 -73 -79 -60 11 -66 -8 -51 -160 10
-102 -6 -160 -44 -160 -20 0 -30 10 -52 55 -52 104 -62 167 -62 378 0 151 -2
192 -13 192 -30 0 -60 -105 -69 -249 -4 -61 0 -132 16 -245 12 -93 18 -175 15
-198 -4 -22 -9 -37 -11 -35 -8 8 -52 310 -59 402 -6 68 -19 126 -57 240 -27
83 -52 161 -56 174 -19 65 -52 17 -52 -75 0 -70 -12 -64 -55 32 -19 41 -39 74
-45 74 -7 0 -10 -21 -8 -62 2 -35 -1 -65 -7 -68 -5 -3 -22 27 -38 65 -31 74
-71 135 -89 135 -7 0 -8 -27 -4 -82 l7 -83 -32 35 c-85 94 -101 110 -110 104
-14 -8 -11 -38 11 -88 19 -46 33 -139 44 -291 6 -79 6 -79 -9 -41 -8 21 -22
77 -30 125 -20 105 -42 176 -60 191 -21 17 -25 -13 -17 -117 4 -51 4 -93 -1
-93 -21 0 -114 103 -160 177 -55 91 -83 108 -74 46 14 -101 100 -253 196 -348
l51 -49 1 34 c0 31 2 29 15 -20 52 -197 202 -359 358 -385 37 -6 38 -5 33 17
-3 13 -14 63 -25 112 -14 61 -27 93 -39 99 -36 20 -79 75 -123 157 -25 45 -55
94 -67 107 -19 20 -20 23 -5 23 27 0 37 -11 77 -89 22 -41 61 -97 87 -125 l48
-51 -5 35 c-8 51 7 94 33 98 38 6 68 -40 91 -141 12 -50 33 -112 46 -136 19
-33 21 -40 8 -30 -33 26 -42 44 -74 141 -17 53 -40 105 -51 115 l-21 18 6 -95
c6 -111 49 -255 99 -334 59 -91 170 -137 285 -118 32 6 103 18 159 27 75 13
122 16 188 10 l89 -7 -28 -22 c-28 -23 -30 -39 -10 -91 8 -20 8 -20 -13 -1
-12 11 -27 36 -32 58 -11 37 -11 38 -59 38 l-49 0 -26 -62 c-36 -88 -55 -169
-62 -268 -10 -140 20 -243 113 -383 l48 -72 5 34 5 34 35 -54 c19 -29 47 -74
62 -99 25 -40 28 -42 28 -19 0 44 -30 130 -81 232 -57 113 -75 208 -60 312 l9
60 1 -61 c1 -85 31 -192 86 -308 46 -97 53 -124 75 -274 15 -107 47 -163 156
-277 l96 -100 -4 63 c-2 34 -2 62 1 62 3 0 20 -14 37 -31 l33 -32 11 44 c14
54 37 93 108 184 66 85 76 104 97 185 30 117 73 169 75 90 1 -25 1 -24 31 10
40 46 94 161 109 231 8 35 11 104 8 185 -5 130 -14 169 -83 327 -6 15 -1 17
38 17 25 0 82 -7 128 -16 126 -25 244 -23 294 3 45 24 73 52 103 102 18 30 30
37 94 53 113 29 209 80 263 140 44 49 93 132 110 188 4 13 39 61 78 105 144
165 227 329 197 386 -18 33 -37 21 -87 -58 -28 -43 -72 -102 -99 -132 l-49
-55 -5 91 c-4 67 -10 96 -23 110 -9 11 -17 31 -17 44 0 37 -22 61 -51 57 -16
-2 -35 -20 -56 -52 -34 -50 -40 -46 -23 14 20 68 -12 96 -60 52z m27 -49 c-34
-124 3 -153 73 -58 45 61 65 63 56 6 -3 -20 -11 -81 -16 -136 -12 -114 -40
-216 -71 -260 -13 -18 -18 -22 -14 -10 18 53 34 129 29 136 -12 19 -26 5 -94
-95 -102 -150 -152 -194 -142 -126 2 16 1 42 -2 56 -7 25 -8 26 -26 9 -11 -10
-24 -33 -31 -52 -9 -27 -21 -40 -55 -55 -90 -39 -111 0 -88 160 9 59 27 134
39 167 13 33 26 83 30 110 16 118 52 165 41 53 -11 -105 23 -117 74 -27 l25
44 5 -50 c4 -42 9 -51 26 -53 23 -3 55 33 69 78 13 44 55 120 66 120 6 0 8 -8
6 -17z m418 -80 c-15 -61 -158 -280 -211 -324 -16 -13 -17 -11 -10 31 5 34 17
56 50 90 45 46 110 139 140 198 20 40 41 43 31 5z m-248 -178 c-12 -251 -93
-412 -247 -490 -52 -26 -159 -59 -167 -52 -3 3 6 34 20 69 21 51 35 70 77 101
l51 39 -15 -31 c-20 -37 -20 -70 -2 -77 41 -16 135 80 188 193 33 70 68 223
68 299 0 28 3 66 7 85 13 68 25 -12 20 -136z m-641 -16 c20 -95 12 -243 -22
-391 -24 -107 -29 -162 -18 -193 8 -20 55 -45 85 -45 30 0 96 71 134 142 40
77 44 66 6 -15 -34 -71 -108 -160 -152 -182 -39 -20 -119 -19 -241 5 -126 24
-224 25 -295 3 -52 -16 -54 -16 -82 5 l-29 21 -4 -40 c-2 -24 0 -38 7 -35 21
7 45 -15 45 -44 0 -20 -9 -35 -30 -52 -89 -68 -85 -62 -85 -121 0 -31 3 -59 7
-62 4 -4 22 5 40 20 l33 28 3 -38 c2 -21 -2 -50 -8 -66 l-12 -29 -27 19 -26
19 0 -155 c0 -145 -1 -156 -20 -167 -11 -6 -22 -12 -24 -14 -3 -1 6 -13 19
-27 20 -22 24 -36 26 -115 2 -83 0 -93 -22 -119 -29 -35 -97 -55 -164 -49 -56
6 -64 -4 -22 -26 36 -20 4 -22 -41 -2 -72 31 -107 105 -107 231 0 49 3 57 45
102 51 55 59 46 15 -18 -33 -49 -35 -64 -18 -157 11 -59 15 -66 45 -78 37 -16
121 -18 143 -4 23 14 22 172 -2 229 -23 56 -23 61 6 61 l25 0 -32 67 c-30 64
-32 75 -32 180 0 94 3 115 18 130 15 15 20 16 38 5 33 -21 33 -7 0 63 -17 36
-33 89 -37 118 -3 29 -15 80 -26 115 -13 43 -18 74 -13 101 8 47 61 113 105
131 23 9 28 15 18 21 -21 14 -141 10 -192 -5 l-48 -15 19 21 c27 31 76 48 140
48 l58 1 -48 25 c-52 27 -68 50 -46 65 26 18 89 1 170 -47 l81 -48 -22 -18
-22 -18 24 0 c29 0 68 39 97 97 20 40 66 83 103 96 25 9 64 -117 52 -171 -4
-20 -8 -30 -10 -22 -1 8 -6 33 -9 55 l-7 40 -17 -67 c-15 -59 -42 -108 -60
-108 -10 0 5 172 18 203 16 40 -5 24 -29 -22 -10 -21 -22 -62 -26 -92 -9 -72
-26 -104 -66 -119 -35 -14 -68 -38 -68 -50 0 -4 21 -5 48 -3 72 6 188 -10 184
-26 -5 -22 59 -4 88 24 22 23 25 34 25 98 -1 61 -10 98 -63 253 -64 187 -75
237 -47 214 23 -19 51 -87 112 -275 70 -215 75 -225 113 -225 49 0 85 47 113
150 21 73 26 135 27 315 0 165 10 179 36 54z m-1183 -318 c26 -31 47 -106 47
-166 0 -18 5 -46 10 -61 14 -35 3 -45 -20 -17 -9 12 -29 25 -43 28 -32 8 -71
51 -86 94 -16 50 -13 60 8 25 22 -36 67 -74 89 -74 12 0 13 10 7 57 -8 62 -25
104 -59 142 l-21 24 21 -11 c12 -7 33 -25 47 -41z m-89 -242 c6 -1 -2 -4 -19
-8 l-30 -7 35 -22 c25 -15 30 -22 17 -22 -26 0 -87 63 -87 89 0 20 1 20 36 -4
20 -14 42 -26 48 -26z m854 -226 c48 -104 66 -185 66 -298 0 -102 -18 -186
-52 -250 l-17 -30 -5 50 -5 50 -44 -68 c-24 -37 -45 -67 -46 -65 -2 2 3 30 11
63 15 66 19 212 5 233 -5 8 -10 -13 -14 -55 -7 -80 -37 -184 -69 -233 l-22
-35 -8 60 c-11 89 0 182 30 240 17 34 28 76 33 130 11 110 20 155 30 155 23 0
70 -138 82 -240 2 -19 5 6 5 55 2 101 -16 186 -53 252 -24 43 -21 51 21 52 17
1 28 -14 52 -66z m-647 -90 c25 -15 49 -66 36 -79 -8 -9 -77 63 -77 80 0 20 5
20 41 -1z m489 1 c0 -21 -73 -91 -78 -75 -8 24 9 61 36 75 35 20 42 19 42 0z
m-515 -124 c16 -48 58 -110 74 -110 4 0 22 20 41 45 18 25 35 43 38 41 2 -3
-8 -28 -23 -58 -19 -36 -29 -77 -34 -128 l-7 -75 -14 59 c-7 32 -24 73 -37 90
-38 52 -63 109 -63 149 0 20 2 37 4 37 3 0 12 -23 21 -50z"/>
<path d="M2120 2558 c-69 -61 -126 -117 -128 -123 -2 -7 4 -18 12 -24 17 -14
18 -13 168 122 41 37 78 67 82 67 4 0 44 -31 89 -69 101 -84 140 -106 156 -87
9 11 -14 35 -110 115 -66 56 -126 104 -132 106 -7 3 -68 -45 -137 -107z"/>
<path d="M1288 1867 c-45 -38 -84 -72 -85 -76 -2 -8 477 -404 483 -398 2 2 -3
24 -11 49 -14 39 -36 61 -195 193 -99 81 -180 151 -180 155 0 4 31 33 70 65
38 32 67 62 65 65 -3 4 -18 10 -34 12 -24 4 -43 -7 -113 -65z"/>
<path d="M3030 1931 c0 -4 34 -36 75 -70 41 -34 75 -66 75 -71 0 -4 -83 -77
-185 -162 -158 -131 -186 -159 -195 -191 -6 -21 -10 -43 -8 -48 3 -8 480 384
486 400 1 4 -38 40 -86 79 -74 60 -95 72 -126 72 -20 0 -36 -4 -36 -9z"/>
</g>
</svg>
