<?xml version="1.0" standalone="no"?>
<!DOCTYPE svg PUBLIC "-//W3C//DTD SVG 20010904//EN"
 "http://www.w3.org/TR/2001/REC-SVG-20010904/DTD/svg10.dtd">
<svg version="1.0" xmlns="http://www.w3.org/2000/svg"
 width="1350.000000pt" height="996.000000pt" viewBox="0 0 1350.000000 996.000000"
 preserveAspectRatio="xMidYMid meet">
<metadata>
Created by potrace 1.10, written by Peter Selinger 2001-2011
</metadata>
<g transform="translate(0.000000,996.000000) scale(0.100000,-0.100000)"
fill="#000000" stroke="none">
<path d="M11728 9887 c-14 -7 -44 -35 -67 -64 -28 -36 -49 -53 -68 -55 -22 -2
-28 -8 -28 -28 0 -18 8 -29 32 -39 32 -14 63 -72 63 -118 0 -12 10 -32 22 -43
26 -24 18 -47 -25 -68 -30 -15 -36 -52 -12 -72 26 -22 17 -48 -30 -82 l-44
-33 1 -143 c1 -93 -2 -146 -10 -154 -8 -8 -13 -3 -18 18 -6 26 -48 73 -66 74
-4 0 -35 19 -70 43 -35 24 -84 56 -110 71 -45 26 -46 27 -53 6 -8 -24 -21 -24
-60 1 -16 10 -39 23 -50 29 -11 6 -32 18 -47 28 -42 27 -167 106 -186 117 -9
6 -44 28 -77 50 -75 49 -96 62 -115 71 -8 4 -31 19 -50 34 -19 15 -42 30 -50
33 -27 12 -55 32 -63 45 -4 6 -17 12 -27 12 -11 0 -20 4 -20 9 0 9 -29 28 -77
50 -13 6 -23 15 -23 21 0 5 -6 10 -14 10 -7 0 -19 7 -26 15 -14 17 -50 20 -50
5 0 -6 10 -15 23 -20 29 -13 60 -33 68 -43 8 -11 47 -34 72 -43 9 -3 17 -10
17 -14 0 -5 10 -12 23 -16 12 -4 38 -20 58 -35 20 -16 39 -29 42 -29 3 0 35
-20 71 -45 37 -25 69 -45 72 -45 2 0 18 -10 34 -22 23 -17 30 -30 30 -57 1
-33 7 -41 82 -96 79 -58 99 -71 143 -95 101 -55 194 -123 200 -148 5 -20 8
-22 21 -11 21 17 43 -4 25 -25 -10 -12 -8 -15 11 -18 21 -3 23 -9 28 -83 4
-44 12 -89 19 -100 17 -26 77 -65 100 -65 34 0 40 -21 30 -104 -6 -43 -19 -97
-29 -119 -11 -23 -20 -45 -20 -49 0 -5 -13 -38 -30 -73 -31 -66 -38 -109 -20
-120 14 -9 12 -127 -4 -263 -8 -64 -20 -190 -27 -279 -14 -180 -7 -223 36
-223 31 0 38 11 19 32 -14 15 -16 32 -10 105 3 49 11 115 16 148 6 33 14 141
18 239 l8 179 44 38 c25 22 48 35 53 30 9 -9 5 -79 -9 -154 -3 -21 -2 -43 4
-50 7 -8 7 -46 0 -114 -7 -68 -6 -108 0 -120 8 -13 6 -25 -5 -44 -16 -26 -15
-29 16 -68 28 -35 32 -47 31 -98 -1 -184 -1 -190 14 -203 9 -7 16 -25 16 -41
0 -41 -32 -59 -107 -59 -82 0 -212 -29 -235 -52 -24 -24 -61 -38 -102 -38 -32
0 -107 -44 -131 -78 -8 -9 -43 -16 -111 -20 -92 -7 -103 -10 -154 -43 -30 -20
-75 -47 -100 -59 -25 -12 -76 -43 -113 -67 -37 -25 -74 -42 -82 -40 -7 3 -15
21 -17 39 l-3 33 -28 -57 c-46 -93 -62 -77 -46 44 6 46 13 103 15 128 l5 45
-19 -24 c-20 -25 -25 -22 -36 22 -8 35 -26 26 -26 -14 0 -16 -7 -46 -15 -66
-8 -19 -15 -52 -15 -72 0 -48 -16 -75 -24 -40 -3 13 -7 42 -8 64 -3 40 -20 52
-27 18 -5 -24 -71 -123 -82 -123 -5 0 -9 13 -9 29 0 16 -7 34 -15 41 -8 7 -15
25 -15 41 0 42 -13 42 -61 -1 -24 -22 -54 -40 -66 -40 -21 0 -22 4 -21 69 2
51 -3 78 -17 104 -17 32 -18 40 -5 93 14 57 59 124 84 124 7 0 28 17 49 38 26
27 39 52 48 92 9 43 21 64 59 102 32 33 57 71 79 125 18 43 40 94 49 113 12
26 17 74 20 185 1 83 8 162 13 177 7 17 28 35 55 48 56 28 106 90 102 127 -3
28 -5 28 -50 16 -10 -3 -18 0 -18 6 0 6 8 15 18 18 33 12 130 120 152 169 29
64 42 244 18 244 -9 0 -26 16 -39 35 -25 37 -49 46 -49 19 0 -12 -7 -15 -26
-11 -23 4 -25 2 -19 -24 8 -34 -16 -49 -46 -31 -33 21 -31 13 13 -45 24 -32
51 -73 61 -91 26 -47 24 -114 -5 -154 -35 -50 -70 -79 -92 -77 -12 1 -29 -1
-39 -6 -10 -4 -23 -2 -32 5 -16 13 -17 11 -29 -40 -3 -14 -16 -38 -28 -53 -19
-23 -34 -29 -79 -34 -69 -7 -99 7 -99 45 0 34 -15 59 -24 43 -11 -18 -26 -13
-38 14 -13 29 -28 24 -28 -11 0 -36 -47 -32 -102 9 -35 27 -44 41 -50 77 -10
53 -2 111 17 137 19 24 19 53 0 53 -7 0 -18 8 -24 17 -8 15 -10 14 -17 -12 -8
-35 -31 -65 -51 -65 -18 0 -17 87 2 120 8 14 14 31 15 38 0 23 -18 12 -35 -20
-41 -80 -57 -210 -34 -276 11 -32 88 -91 138 -107 l25 -8 -27 -14 c-31 -16
-31 -16 -13 -51 23 -44 57 -69 121 -90 55 -17 60 -22 63 -50 3 -32 -29 -93
-63 -122 -12 -10 -53 -17 -129 -21 -86 -4 -127 -12 -181 -32 -102 -39 -227
-34 -480 19 -82 17 -156 18 -205 3 -19 -5 -55 -14 -80 -18 -25 -5 -58 -14 -75
-20 -16 -6 -61 -18 -99 -27 l-68 -18 5 -41 c4 -23 -1 -72 -9 -111 -9 -38 -19
-87 -23 -109 -15 -76 -88 -183 -128 -185 -20 0 -62 -59 -74 -103 -76 -279 -75
-278 -201 -285 l-77 -5 -3 49 -3 49 -57 3 c-56 3 -58 4 -58 31 l0 27 -116 -4
c-66 -3 -119 -1 -125 5 -16 16 28 46 74 52 33 5 42 10 42 26 1 35 15 45 64 45
35 0 58 7 85 25 20 14 41 25 46 25 13 0 13 17 -2 56 -10 28 -9 35 11 60 12 16
34 31 49 34 29 6 32 23 5 28 -36 7 -38 22 -8 46 17 13 27 27 23 31 -4 4 -63 2
-130 -5 -135 -14 -163 -12 -163 10 0 10 14 17 40 22 116 20 205 49 220 72 5 8
7 17 5 20 -9 8 -175 24 -202 19 -15 -3 -36 -2 -45 2 -17 6 -17 7 0 20 13 9 17
20 12 35 -5 15 2 28 26 51 19 17 44 35 58 40 46 18 8 32 -66 25 -91 -9 -123
-10 -155 -1 -25 7 -28 5 -28 -19 0 -22 -4 -26 -29 -26 -18 0 -31 6 -35 16 -8
20 20 54 44 54 10 0 23 7 30 15 7 9 20 13 28 10 8 -3 20 -1 26 4 7 6 32 10 57
10 134 -1 129 -2 129 26 0 30 20 41 49 25 18 -9 27 -6 56 16 19 14 35 29 35
33 0 10 -222 5 -325 -8 -128 -15 -157 -1 -139 66 6 20 13 22 88 25 78 3 81 4
79 26 -2 13 2 32 8 43 10 19 12 19 28 5 18 -17 42 -14 70 8 7 6 26 9 42 8 20
-3 29 1 29 11 0 9 -6 17 -12 20 -10 3 -10 9 0 26 6 11 12 27 12 36 0 8 9 19
21 26 l21 11 -23 24 c-29 31 -39 30 -74 -6 -19 -19 -39 -30 -57 -30 -29 0 -39
23 -14 33 15 6 46 62 46 82 0 7 -6 18 -14 25 -8 6 -16 24 -18 38 -3 23 -8 27
-38 30 -20 2 -49 -4 -65 -12 -36 -19 -48 -9 -64 48 -11 42 -8 56 14 56 8 0 21
14 30 30 11 21 23 30 40 30 27 0 34 23 13 37 -7 4 -39 10 -72 14 -32 4 -62 11
-67 16 -14 14 -1 39 26 51 19 9 55 66 55 88 0 8 -65 3 -79 -5 -16 -11 -61 7
-61 23 0 11 61 78 98 108 24 19 30 58 9 58 -7 0 -23 -7 -36 -16 -28 -20 -52
-5 -32 20 7 8 8 17 3 20 -5 3 -12 27 -16 53 -4 27 -13 57 -21 67 -8 11 -15 30
-15 43 0 13 -4 23 -8 23 -13 0 -32 -47 -32 -79 0 -16 -7 -31 -15 -35 -18 -6
-20 -39 -3 -65 9 -14 8 -23 -5 -42 -17 -24 -22 -76 -9 -95 4 -6 15 -13 25 -17
25 -9 21 -34 -8 -53 -30 -20 -35 -77 -8 -92 15 -9 14 -12 -6 -38 -27 -34 -22
-66 16 -106 l26 -27 -28 -11 c-25 -9 -27 -13 -21 -48 4 -20 16 -43 27 -51 24
-17 24 -38 -1 -46 -19 -6 -60 -62 -60 -83 0 -5 10 -12 22 -16 18 -4 20 -8 10
-18 -10 -10 -17 -10 -32 0 -17 10 -20 9 -25 -11 -34 -149 -34 -165 3 -173 55
-12 57 -13 39 -31 -9 -10 -29 -17 -44 -18 l-28 0 -8 -105 c-14 -167 -13 -309
3 -395 7 -44 14 -91 13 -105 -1 -73 -24 -361 -33 -400 -5 -25 -9 -87 -10 -138
0 -85 3 -97 30 -145 17 -30 30 -65 30 -78 0 -29 33 -134 52 -169 43 -76 55
-89 108 -115 30 -15 73 -36 94 -47 32 -16 51 -18 100 -14 196 20 175 22 267
-26 l84 -43 155 2 c85 1 220 4 300 7 80 3 161 2 180 -3 176 -45 190 -47 244
-26 38 15 52 16 95 5 30 -7 71 -9 100 -5 35 5 67 1 117 -13 38 -12 108 -24
155 -27 83 -7 87 -6 150 26 57 29 73 33 149 33 66 1 91 -3 110 -16 13 -10 33
-18 44 -18 11 0 38 -6 61 -14 137 -47 145 -48 223 -43 91 7 208 29 239 45 12
7 68 12 130 13 59 0 135 5 168 10 33 5 117 13 186 18 69 4 135 13 147 20 11 6
32 11 47 11 14 0 42 7 63 16 29 12 82 16 237 19 116 1 212 7 228 14 44 17 297
14 340 -4 20 -8 49 -15 63 -15 15 0 56 -12 92 -26 70 -28 128 -29 317 -3 96
13 138 13 338 3 l129 -6 58 46 c32 25 62 46 67 46 4 0 27 17 49 38 42 37 86
118 99 182 4 19 14 44 21 55 7 11 16 52 19 90 9 102 26 183 41 196 10 8 14 41
14 124 0 103 -24 403 -35 433 -2 7 -16 17 -30 22 -28 11 -35 47 -10 56 15 6
21 55 8 67 -3 4 -14 0 -24 -9 -17 -15 -18 -14 -24 12 -11 53 -24 74 -44 74
-11 0 -23 -4 -26 -10 -10 -16 -45 -12 -45 5 0 27 29 73 50 80 11 3 20 15 20
25 0 19 -32 36 -50 25 -5 -3 -19 -1 -31 6 l-22 11 27 25 c32 30 29 46 -10 53
-32 6 -42 30 -21 51 8 8 19 24 26 37 10 18 9 22 -3 22 -14 0 -44 53 -61 109
-10 31 -25 9 -25 -37 0 -22 -8 -41 -25 -56 l-24 -23 29 -28 c17 -16 30 -32 30
-36 0 -10 -26 -36 -42 -42 -9 -4 -6 -11 10 -25 22 -17 23 -20 7 -35 -9 -9 -27
-17 -41 -17 -17 0 -24 -5 -24 -20 0 -11 4 -20 9 -20 6 0 26 -10 47 -22 l37
-22 -27 -22 c-31 -28 -33 -40 -6 -54 11 -6 20 -15 20 -20 0 -16 -42 -11 -61 6
-17 16 -19 15 -29 -10 -14 -37 -13 -51 5 -66 8 -7 15 -16 15 -21 0 -12 -47
-11 -55 1 -12 20 -25 10 -25 -20 0 -33 32 -68 70 -76 14 -3 33 -9 42 -15 10
-5 28 -9 41 -9 13 0 32 -6 43 -14 18 -14 18 -15 1 -33 -16 -16 -36 -18 -168
-18 -170 -1 -180 -5 -160 -68 6 -17 18 -75 27 -127 9 -52 18 -103 21 -112 7
-27 -26 -22 -37 5 -13 30 -31 52 -56 65 -27 14 -34 7 -34 -34 0 -45 -17 -51
-33 -12 l-14 33 -16 -37 c-21 -49 -47 -51 -47 -3 0 59 -65 76 -72 19 -4 -35
-25 -43 -36 -13 -9 23 -9 23 -16 -4 -8 -32 -32 -36 -41 -7 -5 15 -15 20 -45
20 -35 0 -39 3 -54 40 -10 25 -16 71 -16 118 -1 42 -5 97 -11 122 -18 86 -29
169 -23 183 3 8 15 18 27 21 30 8 11 24 -33 28 -33 3 -35 5 -41 48 -3 25 -12
59 -21 76 -10 17 -17 57 -18 95 -2 100 -3 99 25 99 18 0 26 7 31 24 8 32 0
207 -10 229 -14 30 17 20 54 -18 39 -40 66 -45 81 -12 5 12 16 33 24 47 17 30
8 43 -44 59 -22 6 -42 15 -45 20 -6 9 34 128 62 186 30 61 34 184 10 254 -11
31 -24 60 -29 66 -5 5 -9 21 -9 36 0 15 -13 57 -30 94 -16 37 -30 77 -30 90 0
70 -123 255 -170 255 -49 0 -142 138 -142 209 1 59 -18 104 -61 143 -52 47
-105 59 -159 35z m-1190 -1090 c18 -22 20 -101 2 -104 -15 -3 -50 66 -50 100
0 20 32 23 48 4z m-2658 -190 c0 -23 -38 -60 -55 -54 -15 6 -12 29 8 55 13 16
47 15 47 -1z m1948 -86 c5 -68 -4 -81 -33 -46 -36 45 -31 99 9 93 17 -2 22
-11 24 -47z m-2180 -335 c4 -20 -16 -48 -29 -40 -11 6 -12 48 -2 58 11 10 28
1 31 -18z m4206 -193 c9 -26 16 -54 16 -62 0 -9 12 -38 26 -66 15 -27 30 -68
33 -90 5 -34 10 -41 39 -49 19 -5 41 -20 49 -33 19 -29 51 -138 63 -218 5 -33
12 -76 16 -97 5 -31 3 -38 -19 -53 -23 -15 -27 -15 -61 1 -33 16 -37 16 -54 1
-22 -20 -88 -30 -127 -19 l-29 8 -4 260 c-2 142 -7 273 -11 290 -6 21 -4 39 5
55 7 13 13 41 14 61 0 43 9 70 20 63 5 -3 15 -26 24 -52z m1386 -312 c0 -11
-26 -22 -34 -14 -12 12 -5 23 14 23 11 0 20 -4 20 -9z m-5250 -121 c0 -5 -7
-10 -15 -10 -8 0 -15 5 -15 10 0 6 7 10 15 10 8 0 15 -4 15 -10z m5069 1 c25
-16 4 -43 -31 -39 -39 4 -46 21 -16 36 29 13 30 14 47 3z m-4148 -93 c24 -29
33 -77 25 -131 -5 -31 -19 -55 -51 -92 -43 -47 -45 -53 -41 -100 2 -27 14 -81
26 -120 31 -98 37 -155 16 -155 -9 0 -16 4 -16 9 0 17 -31 41 -52 41 -12 0
-30 7 -39 16 -17 16 -19 15 -28 -10 -15 -37 -49 -35 -62 4 -6 17 -15 30 -19
30 -5 0 -10 9 -12 20 -2 12 -7 21 -13 21 -5 0 -11 -9 -13 -21 -4 -26 -32 -26
-32 0 0 25 -19 26 -97 4 -32 -9 -69 -17 -83 -18 -45 -2 -39 86 17 239 43 116
80 150 213 194 54 19 118 47 142 62 52 35 93 37 119 7z m344 -99 c42 -14 105
-23 210 -29 83 -4 153 -6 157 -4 3 2 17 0 30 -5 35 -13 67 -145 50 -206 -7
-25 -8 -56 -2 -80 11 -54 8 -208 -5 -211 -19 -6 -50 51 -56 101 l-6 50 -2 -43
c0 -27 -6 -45 -16 -48 -8 -3 -17 -21 -21 -40 -8 -45 -28 -38 -34 12 -4 33 -9
39 -30 39 -19 0 -25 7 -31 32 -3 18 -18 47 -31 65 -14 18 -29 47 -34 63 l-8
30 -3 -40 c-2 -24 6 -68 21 -109 23 -65 25 -103 5 -90 -5 3 -9 13 -9 23 0 10
-27 43 -61 74 -44 42 -68 57 -89 57 -16 0 -32 5 -35 10 -3 6 -11 10 -17 10 -8
0 -9 -42 -4 -140 6 -120 5 -141 -8 -146 -8 -3 -24 4 -35 15 -11 11 -31 27 -45
36 -14 10 -26 25 -26 34 0 9 -5 23 -10 31 -8 13 -14 12 -45 -4 -47 -26 -63
-16 -87 55 -40 113 -22 181 77 294 29 33 61 76 71 95 28 51 55 90 63 90 3 0
33 -10 66 -21z m-955 -320 c0 -5 -7 -9 -15 -9 -15 0 -20 12 -9 23 8 8 24 -1
24 -14z"/>
<path d="M9569 7020 c-6 -21 -5 -100 1 -100 12 0 20 84 9 95 -5 5 -10 7 -10 5z"/>
<path d="M4924 9882 c-20 -13 -32 -46 -39 -110 -8 -69 -4 -64 -155 -184 -60
-48 -80 -87 -39 -73 56 19 170 -6 200 -44 17 -21 17 -25 2 -64 -9 -23 -21 -48
-26 -55 -8 -10 -2 -21 21 -42 19 -17 30 -35 26 -43 -3 -8 -32 -35 -64 -61 -66
-50 -95 -88 -87 -111 5 -12 15 -10 62 10 65 29 78 30 95 10 17 -21 0 -39 -68
-73 -33 -16 -68 -44 -91 -72 -20 -25 -58 -66 -84 -91 -57 -54 -61 -87 -12 -80
59 7 105 6 107 -4 1 -5 -33 -32 -75 -60 -93 -61 -96 -81 -14 -79 39 1 64 7 76
19 24 21 84 29 136 18 34 -7 41 -13 43 -37 3 -22 -5 -36 -38 -67 -22 -21 -53
-42 -68 -45 -15 -4 -54 -20 -88 -35 -72 -34 -117 -36 -163 -8 l-34 21 29 23
c16 14 32 24 37 25 12 0 8 37 -5 47 -7 6 -24 13 -39 16 -61 15 -164 111 -157
147 3 12 19 15 72 15 43 0 71 4 73 12 5 13 -63 78 -113 109 -46 28 -70 62 -55
77 14 14 14 54 1 62 -18 11 7 31 55 45 85 24 83 40 -17 117 -61 47 -71 70 -43
107 19 25 19 45 1 65 -17 20 -46 145 -46 199 0 24 -7 49 -18 62 -20 25 -42 20
-42 -8 0 -25 -39 -143 -51 -159 -7 -8 -9 -30 -4 -59 l7 -46 -56 -52 c-65 -59
-71 -83 -24 -88 17 -2 33 -8 35 -14 2 -5 -24 -30 -58 -55 -33 -24 -65 -51 -70
-61 -8 -14 -3 -17 28 -20 52 -4 51 -25 -1 -68 -60 -49 -81 -79 -67 -93 6 -6
43 -14 82 -18 38 -3 75 -11 82 -18 6 -6 12 -30 12 -53 0 -38 -6 -46 -73 -109
-93 -87 -94 -99 -2 -99 l70 0 0 -59 c0 -57 -2 -61 -37 -88 -57 -44 -129 -90
-151 -97 -11 -4 -27 -15 -37 -25 -16 -18 -16 -20 6 -31 23 -13 127 -9 161 5
13 5 20 0 27 -18 5 -14 16 -27 23 -29 10 -4 11 -12 3 -33 -7 -21 -27 -37 -70
-59 -78 -40 -84 -64 -18 -68 36 -2 49 -7 51 -20 2 -11 -3 -18 -12 -18 -22 0
-85 -35 -126 -69 -27 -23 -32 -32 -23 -42 9 -9 26 -9 80 5 84 20 153 21 153 3
0 -8 -11 -24 -25 -37 -28 -26 -31 -41 -13 -70 11 -17 9 -22 -10 -36 -53 -37
-119 -100 -139 -133 -12 -20 -38 -47 -57 -60 -20 -13 -36 -30 -36 -39 0 -28
59 -10 224 68 22 11 43 17 48 14 13 -9 9 -81 -6 -93 -8 -7 -31 -15 -53 -18
-21 -3 -53 -19 -71 -35 -18 -15 -39 -28 -46 -28 -7 0 -23 -11 -36 -25 -13 -14
-43 -35 -65 -46 -79 -40 -80 -79 -1 -100 22 -6 57 -17 76 -24 54 -19 128 -41
205 -60 39 -10 74 -21 79 -26 11 -10 -21 -49 -41 -49 -49 0 -214 -110 -202
-136 2 -4 27 -20 54 -34 54 -27 73 -65 38 -76 -57 -19 -73 -30 -109 -80 -21
-30 -63 -71 -92 -91 -49 -35 -58 -37 -124 -36 -70 1 -87 9 -88 41 0 7 14 15
30 19 20 3 30 12 30 23 0 17 -49 60 -82 73 -27 10 -22 42 8 56 l27 12 -25 27
c-14 15 -29 44 -32 66 -6 32 -3 42 15 62 l22 24 -21 23 c-16 17 -22 36 -22 69
0 27 -6 50 -14 57 -8 6 -17 32 -21 56 -7 49 -7 50 -36 35 -14 -8 -19 -21 -19
-48 0 -31 -7 -45 -40 -76 -44 -42 -48 -51 -23 -64 15 -9 15 -12 0 -44 -9 -20
-23 -41 -32 -48 -23 -19 -18 -47 10 -54 46 -12 28 -42 -47 -80 -44 -22 -50
-46 -12 -46 33 0 64 -17 64 -35 0 -8 -26 -29 -57 -47 -66 -39 -75 -54 -39 -68
40 -15 36 -64 -6 -90 -73 -44 -108 -17 -127 96 -10 66 -10 92 2 159 20 106 53
243 79 320 5 17 13 44 18 60 10 37 34 90 60 130 64 99 80 174 87 395 5 166 3
194 -16 273 -12 49 -26 96 -30 105 -8 16 -27 69 -38 104 -3 10 6 25 24 40 58
47 121 119 127 145 5 17 2 31 -8 42 -14 13 -21 13 -53 2 -21 -7 -58 -26 -83
-41 -92 -58 -115 -65 -160 -50 -37 12 -47 12 -101 -8 -58 -21 -62 -21 -91 -4
-54 30 -66 38 -81 50 -24 21 -110 27 -125 10 -10 -12 -5 -23 28 -60 22 -25 58
-53 80 -62 22 -9 43 -23 46 -31 4 -9 -15 -39 -49 -77 -65 -76 -80 -102 -72
-129 9 -26 44 -39 105 -39 144 0 163 -84 35 -153 -39 -21 -49 -22 -335 -19
-260 3 -306 1 -390 -16 -52 -11 -111 -27 -130 -35 -51 -22 -124 -90 -155 -144
-28 -46 -28 -47 -11 -92 12 -34 16 -81 16 -181 l0 -134 -88 -86 c-86 -82 -152
-175 -152 -213 0 -11 -6 -31 -14 -45 -7 -15 -23 -48 -35 -74 -19 -41 -27 -48
-51 -48 -16 0 -44 -7 -63 -16 -32 -15 -35 -15 -83 12 -77 42 -147 91 -199 137
-27 23 -76 56 -109 72 -33 17 -62 37 -64 46 -2 9 22 34 57 62 33 25 65 55 71
67 10 19 6 23 -39 44 -59 27 -81 44 -81 61 0 12 68 63 103 77 27 11 17 40 -18
51 -16 6 -47 23 -67 39 -53 42 -51 73 7 116 25 18 52 35 60 38 26 10 18 43
-12 50 -65 15 -92 75 -53 114 28 28 26 35 -25 72 -53 40 -68 85 -41 131 22 39
20 56 -8 86 -13 15 -37 48 -53 76 -28 48 -63 72 -63 43 0 -8 -23 -49 -51 -92
-28 -43 -47 -81 -43 -86 5 -5 20 -10 34 -12 18 -2 26 -10 28 -29 2 -21 -9 -37
-59 -83 -34 -32 -73 -62 -86 -67 -18 -6 -23 -15 -21 -31 2 -13 10 -24 18 -25
87 -11 108 -16 123 -28 17 -12 17 -15 3 -37 -8 -13 -59 -50 -112 -83 -96 -60
-120 -84 -110 -111 6 -17 88 -19 155 -3 36 8 47 7 59 -5 12 -12 13 -18 3 -30
-27 -32 -137 -84 -213 -100 -19 -4 -28 -13 -28 -25 0 -20 19 -31 54 -31 31 0
66 -40 66 -76 0 -34 -37 -74 -69 -74 -20 0 -58 -14 -139 -54 -47 -23 -72 -53
-50 -61 77 -28 108 -35 154 -35 92 0 85 -34 -24 -117 -136 -103 -182 -119
-228 -79 -41 35 -25 57 54 71 62 12 92 28 92 50 0 17 -33 45 -54 45 -9 0 -35
9 -56 20 -48 25 -52 51 -12 85 l27 24 -43 41 c-24 22 -42 46 -40 52 2 6 26 17
52 23 56 15 81 35 72 61 -4 11 -33 40 -65 66 -55 45 -58 50 -57 90 0 24 9 54
19 68 9 13 17 28 17 31 0 4 -20 31 -45 60 -25 29 -45 58 -45 65 0 7 9 28 20
48 12 19 17 37 12 40 -6 3 -13 21 -16 40 -4 19 -14 40 -22 47 -13 11 -19 9
-35 -11 -38 -50 -71 -131 -64 -159 22 -79 -3 -138 -91 -216 -33 -29 -44 -45
-39 -57 9 -22 24 -23 61 -3 67 35 95 3 45 -49 -21 -21 -29 -38 -25 -49 3 -9
10 -17 15 -17 5 0 9 -10 9 -23 0 -15 -24 -47 -70 -92 -38 -38 -70 -75 -70 -82
0 -18 32 -24 70 -13 50 14 116 12 129 -4 17 -20 2 -49 -47 -93 -58 -51 -153
-113 -172 -113 -22 0 -40 -20 -40 -43 0 -19 7 -20 144 -15 80 3 150 2 156 -2
9 -6 10 -24 2 -76 -6 -38 -14 -91 -17 -119 -4 -27 -15 -70 -26 -94 -10 -24
-19 -47 -19 -52 0 -13 100 -109 113 -109 6 0 18 -6 26 -13 19 -16 89 -37 123
-37 31 0 88 23 138 56 54 36 132 35 189 0 41 -26 100 -49 156 -60 17 -3 40 -8
53 -12 18 -5 24 -1 33 25 15 42 37 39 84 -9 22 -23 49 -40 61 -40 12 0 44 18
70 40 59 49 78 48 82 -3 4 -48 26 -49 107 -5 l58 31 22 -26 c26 -33 36 -33 83
-3 20 14 48 26 62 28 24 3 25 1 22 -39 -3 -52 13 -59 98 -42 34 7 80 9 107 5
27 -4 65 -10 86 -13 21 -3 71 3 112 12 63 15 80 24 116 61 24 24 51 44 60 44
10 0 33 -14 51 -31 18 -17 45 -37 59 -44 35 -19 283 -47 313 -36 12 5 44 28
70 50 54 47 61 49 77 20 9 -18 17 -20 50 -15 39 6 69 -10 81 -44 2 -6 30 -18
63 -25 73 -17 123 -7 208 43 42 24 68 49 93 88 38 60 59 68 75 27 21 -56 67
-59 114 -7 15 16 40 25 95 34 81 13 137 28 159 44 10 8 19 3 35 -17 12 -15 26
-27 30 -27 5 0 40 12 79 27 51 20 72 35 80 53 16 37 38 60 58 60 10 0 44 -11
75 -25 77 -34 115 -32 173 7 38 26 54 31 91 29 85 -6 96 -4 139 23 43 28 103
48 174 61 21 3 52 14 70 24 18 11 49 24 70 31 56 18 40 34 -42 43 -98 11 -165
36 -169 64 -4 27 17 38 87 46 29 4 63 12 75 19 11 8 47 22 80 33 32 10 68 30
81 44 94 104 86 99 250 162 84 32 128 43 185 46 120 7 158 31 144 90 -8 31
-87 157 -106 170 -7 4 -97 8 -200 8 -125 0 -191 4 -198 11 -12 12 -23 193 -14
229 7 29 80 65 132 65 36 0 43 3 40 18 -3 17 -85 78 -144 108 -60 29 -81 62
-87 135 -2 37 -1 73 4 80 6 10 35 14 106 14 66 0 108 5 128 15 48 24 42 43
-17 62 -69 21 -236 118 -243 140 -8 23 6 46 35 61 33 17 49 45 31 56 -8 5 -11
16 -8 25 5 13 23 16 89 16 108 0 183 19 183 46 0 16 -11 21 -65 30 -36 6 -80
18 -98 28 -31 16 -33 20 -28 51 6 28 3 36 -14 45 -39 21 -24 40 33 41 69 0
145 13 159 27 11 11 -12 24 -122 68 -66 27 -140 74 -140 89 0 8 8 16 18 19 37
11 138 26 173 26 21 0 41 5 44 11 10 15 -23 37 -65 44 -19 4 -46 11 -60 17
-14 6 -38 14 -55 19 -75 20 -110 38 -113 58 -2 15 5 24 30 34 64 27 64 37 -2
102 -63 62 -73 87 -41 105 26 13 36 47 20 66 -9 11 -8 18 6 34 22 25 103 27
185 5 56 -15 175 -20 204 -9 32 12 18 48 -32 82 -26 17 -53 32 -59 32 -12 0
-50 15 -128 52 -112 53 -245 154 -245 186 0 15 -40 62 -53 62 -7 0 -17 -4 -23
-8z m-434 -1443 c37 -17 65 -21 152 -21 126 0 155 -11 120 -46 -27 -27 -28
-42 -2 -42 43 0 16 -28 -74 -74 -70 -37 -99 -47 -117 -41 -51 15 -195 90 -211
109 -43 51 1 133 72 135 8 0 35 -9 60 -20z m85 -285 c28 -4 65 -8 84 -8 46 -1
48 -17 11 -60 -17 -19 -29 -40 -25 -46 9 -15 36 -12 55 5 11 10 48 16 123 19
101 5 107 4 122 -17 8 -12 15 -32 15 -45 0 -49 -28 -78 -142 -147 -148 -90
-208 -135 -208 -157 0 -30 17 -29 87 4 59 29 77 33 136 31 37 -2 76 -7 86 -12
22 -12 36 -83 21 -111 -5 -10 -10 -38 -10 -62 0 -24 -7 -53 -15 -66 l-16 -22
-37 25 c-99 65 -172 95 -231 95 -34 0 -72 7 -91 17 -29 14 -41 15 -98 3 -77
-15 -86 -8 -77 60 5 49 29 77 74 85 51 11 75 20 74 30 0 6 -30 26 -66 45 -37
19 -76 45 -88 57 l-22 21 27 34 c30 40 32 64 11 104 -32 62 -12 109 41 98 22
-4 34 0 49 16 12 13 27 19 40 16 11 -2 43 -8 70 -12z m-1809 -828 c27 -8 76
-17 109 -21 104 -11 123 -25 146 -110 4 -16 17 -61 29 -100 26 -89 60 -277 60
-332 0 -55 -21 -68 -104 -59 -51 5 -66 11 -88 36 -15 16 -31 30 -36 30 -5 0
-22 -16 -39 -35 -29 -33 -35 -35 -90 -35 -107 1 -244 18 -268 34 -36 24 -125
218 -125 273 0 44 30 84 169 226 100 101 108 107 147 107 22 0 63 -6 90 -14z
m437 -107 c11 -137 5 -465 -10 -480 -16 -16 -20 24 -32 316 -10 239 -7 272 23
262 6 -2 14 -45 19 -98z m-875 69 c2 -9 -26 -50 -62 -93 -37 -42 -66 -83 -66
-90 0 -7 29 -71 65 -143 70 -140 87 -192 63 -192 -8 0 -19 5 -25 11 -17 17
-50 1 -61 -31 -6 -16 -22 -36 -37 -46 -24 -15 -35 -16 -113 -5 -144 21 -236
57 -261 105 -12 21 -9 32 20 92 56 115 270 313 434 402 25 14 39 10 43 -10z"/>
<path d="M11467 7523 c-15 -8 -25 -18 -22 -24 9 -13 17 -11 50 16 33 27 17 32
-28 8z"/>
<path d="M10262 7110 c0 -19 2 -27 5 -17 2 9 2 25 0 35 -3 9 -5 1 -5 -18z"/>
<path d="M3808 6291 c-19 -23 -63 -99 -98 -169 -34 -70 -67 -136 -72 -146 -6
-11 -14 -31 -18 -45 -5 -14 -18 -51 -30 -81 -50 -126 -61 -244 -36 -360 18
-78 43 -159 54 -174 22 -28 34 -108 28 -183 -3 -43 -9 -126 -12 -185 l-7 -107
49 -51 c27 -28 65 -60 84 -72 135 -84 322 -254 424 -386 40 -53 46 -65 35 -78
-10 -13 -24 -14 -68 -9 -117 15 -210 89 -278 222 -22 43 -44 78 -49 78 -16 0
-16 -64 0 -119 18 -61 20 -92 7 -100 -14 -9 -67 22 -112 65 -22 21 -45 39 -50
39 -36 0 31 -114 110 -188 57 -54 218 -142 260 -142 11 0 35 -6 53 -14 61 -26
219 -61 343 -76 161 -19 286 -59 380 -120 17 -11 36 -23 42 -26 7 -3 62 -38
122 -78 60 -39 117 -76 127 -82 11 -7 15 -16 11 -20 -5 -5 -349 -11 -765 -14
-794 -5 -802 -6 -802 -49 0 -10 9 -26 21 -37 21 -19 89 -19 3165 -22 2913 -2
3146 -1 3170 14 32 22 29 63 -6 81 -19 10 -192 13 -770 13 -449 0 -751 4 -760
10 -18 11 -10 20 40 47 19 10 73 44 120 75 141 92 232 143 290 160 96 29 187
48 226 48 21 0 63 6 93 14 31 8 92 21 136 31 241 50 392 128 489 253 77 101
72 156 -8 79 -45 -44 -101 -75 -113 -63 -3 3 -1 30 6 58 7 29 13 76 14 103 3
67 -18 66 -47 -3 -12 -29 -28 -58 -34 -64 -7 -7 -12 -17 -12 -24 0 -19 -83
-89 -137 -116 -67 -34 -145 -45 -163 -24 -11 14 -8 23 16 58 69 100 231 264
320 323 152 102 214 156 236 203 24 50 26 103 6 160 -18 55 -17 274 2 297 15
18 30 55 57 140 24 77 28 253 8 323 -31 105 -48 147 -136 327 -88 182 -120
235 -143 235 -17 0 -18 -5 -12 -52 7 -53 25 -121 51 -188 7 -19 27 -82 45
-140 18 -58 39 -122 46 -143 9 -24 14 -80 14 -158 0 -115 -1 -120 -22 -128
-13 -5 -26 -7 -29 -5 -15 9 -127 254 -142 309 -41 157 -53 193 -74 228 -22 36
-53 47 -44 16 2 -8 7 -32 12 -54 4 -22 12 -53 18 -68 11 -29 7 -47 -10 -47 -5
0 -46 35 -90 77 -94 91 -204 173 -230 173 -12 0 -19 -7 -19 -18 0 -20 10 -33
145 -191 50 -58 108 -128 130 -156 22 -27 47 -58 55 -67 23 -26 86 -158 97
-205 10 -42 0 -61 -23 -45 -33 23 -243 282 -314 387 -18 28 -52 77 -74 110
-78 115 -117 193 -131 265 -7 30 -16 55 -21 55 -5 0 -10 -28 -12 -62 -3 -62
10 -115 57 -243 27 -70 27 -70 -10 -70 -35 0 -83 26 -143 77 -64 54 -89 38
-42 -26 23 -31 170 -151 185 -151 13 0 161 -152 206 -210 55 -72 195 -279 195
-288 0 -5 5 -13 11 -19 16 -16 49 -112 49 -143 0 -64 -67 -218 -116 -270 -35
-36 -55 -18 -77 66 -52 197 -77 284 -93 322 -8 18 -14 39 -14 47 0 18 -44 118
-88 200 -38 71 -120 120 -115 70 2 -28 28 -109 53 -175 12 -30 24 -66 27 -80
3 -14 11 -45 19 -70 7 -25 15 -85 16 -135 3 -83 2 -90 -17 -90 -23 0 -59 50
-114 160 -22 44 -46 89 -55 100 -14 19 -15 19 -22 2 -11 -29 26 -186 58 -247
16 -30 53 -84 84 -120 77 -91 98 -138 91 -203 -9 -79 -29 -140 -66 -196 -33
-53 -164 -171 -188 -171 -9 0 -13 19 -13 73 -1 43 -6 82 -15 97 -8 14 -14 37
-15 52 0 15 -6 42 -14 60 -8 18 -23 54 -33 80 -21 55 -38 61 -46 18 -6 -26
-11 -30 -41 -30 -39 0 -53 14 -36 35 9 10 8 20 -4 43 -13 25 -13 31 0 44 13
13 11 21 -16 74 -17 32 -33 60 -35 62 -2 3 -10 -11 -18 -29 -8 -19 -21 -40
-30 -48 -20 -16 -21 -34 -5 -60 6 -10 8 -26 5 -35 -7 -17 -13 -20 -57 -30 -27
-6 -65 -59 -55 -76 3 -6 17 -10 31 -10 37 0 29 -26 -13 -43 -45 -18 -49 -16
-68 29 -17 41 -24 42 -55 9 -21 -23 -31 -25 -106 -25 -111 0 -120 15 -30 50
58 22 58 40 -1 40 -59 0 -145 38 -169 75 -24 36 -8 48 41 30 52 -18 106 -19
131 -1 18 14 16 16 -31 36 l-50 21 25 19 c14 10 22 21 19 25 -4 3 -33 13 -65
22 -33 9 -65 21 -71 26 -18 13 -16 44 2 51 23 8 18 34 -10 52 -14 9 -25 23
-25 30 0 8 11 20 25 26 33 15 32 35 -6 74 -20 21 -32 45 -36 73 -7 48 -28 55
-45 14 -7 -16 -27 -47 -45 -70 -38 -48 -39 -50 -16 -55 12 -2 17 -15 19 -46 2
-49 -20 -72 -73 -72 -22 0 -36 -6 -43 -20 -6 -11 -20 -20 -30 -20 -16 0 -20
-7 -20 -34 0 -34 13 -46 50 -46 22 0 32 -13 25 -32 -7 -18 -71 -47 -125 -56
-22 -4 -41 -11 -41 -17 -1 -13 75 -33 129 -34 34 -1 42 -5 42 -19 0 -21 -58
-37 -172 -48 -37 -3 -70 -10 -73 -15 -3 -5 12 -16 35 -25 22 -9 47 -26 55 -37
12 -17 28 -22 80 -25 53 -4 65 -7 61 -19 -3 -8 -6 -16 -6 -18 0 -1 -25 -15
-55 -30 -30 -16 -53 -30 -50 -33 2 -3 47 1 100 8 52 8 98 10 102 7 11 -12 -36
-53 -95 -82 -43 -21 -77 -30 -142 -34 -48 -3 -84 -10 -83 -16 1 -6 3 -17 5
-25 2 -11 -10 -16 -52 -20 -67 -6 -68 -24 -3 -28 56 -4 72 -15 53 -36 -19 -24
14 -32 64 -17 93 28 115 24 101 -19 -5 -17 -116 -78 -198 -109 -38 -15 -25
-31 23 -31 21 0 41 -4 45 -9 9 -16 -57 -44 -119 -50 -33 -3 -61 -11 -63 -16
-6 -19 108 -56 150 -49 43 8 53 -13 15 -33 -13 -6 -39 -19 -58 -29 -20 -10
-67 -19 -112 -22 -103 -6 -102 -8 -96 217 l6 176 -39 64 c-23 38 -39 77 -39
95 0 41 24 164 40 201 7 17 13 73 13 125 1 76 -3 102 -19 130 -54 98 -101 137
-202 169 -86 27 -164 33 -317 21 -88 -7 -157 -7 -185 -1 -134 27 -206 85 -185
150 7 23 67 61 97 61 29 0 88 68 88 102 0 27 -17 43 -95 84 -33 18 -28 39 14
68 43 30 111 121 111 149 0 21 -31 23 -68 3 -156 -80 -190 -88 -176 -43 7 21
16 30 133 128 91 76 131 152 79 146 -21 -2 -23 3 -28 57 -3 39 -10 61 -19 64
-11 4 -13 -3 -8 -32 7 -43 -2 -108 -15 -104 -18 6 -78 153 -78 194 0 22 -7 49
-15 60 -8 10 -15 24 -15 31 0 16 -50 70 -50 54 0 -11 4 -20 33 -79 29 -57 17
-132 -20 -132 -8 0 -48 30 -87 68 -88 83 -136 119 -136 100 0 -7 12 -27 28
-44 117 -131 131 -154 92 -154 -12 0 -26 12 -35 31 -12 22 -21 29 -33 24 -54
-23 -143 -15 -209 17 -13 6 -26 9 -29 6 -10 -10 30 -48 51 -48 11 -1 31 -7 45
-15 14 -8 42 -14 62 -15 57 0 105 -27 112 -63 9 -44 7 -102 -3 -130 -14 -36
-78 -97 -102 -97 -26 0 -154 126 -169 165 -8 20 -14 25 -21 18 -16 -16 5 -72
47 -128 45 -58 42 -79 -11 -83 -56 -5 -121 16 -140 45 -28 43 -55 163 -55 251
0 122 -31 99 -47 -35 -3 -23 2 -71 12 -108 27 -110 12 -120 -68 -42 -76 74
-91 106 -84 184 6 63 17 86 70 156 22 29 27 41 18 50 -8 8 -23 -2 -60 -41 -45
-48 -71 -64 -71 -44 -3 73 -9 135 -15 140 -15 15 -25 -29 -25 -110 0 -69 -3
-88 -14 -88 -8 0 -17 11 -20 25 -4 14 -11 25 -17 25 -21 0 -4 -102 27 -165 32
-66 130 -172 184 -199 19 -10 83 -42 142 -72 96 -49 108 -57 119 -91 7 -21 37
-61 71 -95 l60 -59 -7 -75 c-4 -41 -20 -112 -36 -157 -28 -79 -29 -89 -29
-267 0 -163 3 -193 21 -245 26 -73 50 -118 94 -173 23 -28 35 -54 35 -74 0
-16 7 -58 16 -92 12 -45 14 -79 9 -131 -4 -38 -7 -104 -6 -145 2 -83 -20 -198
-41 -211 -15 -10 -142 -12 -187 -3 -31 7 -91 58 -91 79 0 6 14 19 31 29 24 14
42 17 78 12 26 -3 50 -3 54 0 10 11 -13 34 -34 34 -29 0 -32 19 -4 30 25 9 27
30 3 30 -20 0 -95 40 -113 60 -18 20 -18 20 53 14 l72 -7 -6 34 c-8 42 -7 41
-78 70 -53 21 -106 66 -106 90 0 9 22 13 50 9 8 -1 40 6 72 16 74 22 78 44 9
44 -57 0 -77 17 -32 26 43 9 40 34 -4 34 -48 0 -105 29 -105 53 0 18 5 19 54
13 57 -8 86 7 52 26 -9 5 -21 20 -26 33 -5 12 -21 25 -35 29 -15 4 -38 14 -51
23 -23 14 -23 17 -9 33 14 15 14 18 0 30 -20 16 -19 39 1 61 15 17 14 21 -15
54 -17 20 -31 45 -31 55 0 27 -19 25 -29 -3 -5 -13 -16 -29 -25 -36 -13 -11
-15 -25 -10 -67 6 -47 4 -54 -12 -60 -40 -13 -114 -49 -114 -56 0 -10 30 -38
41 -38 15 0 10 -26 -9 -43 -10 -10 -33 -17 -50 -17 -17 0 -34 -5 -37 -10 -7
-12 36 -30 70 -30 31 0 39 -14 19 -34 -11 -11 -34 -16 -80 -16 -67 0 -83 -13
-37 -31 27 -10 27 -10 7 -30 -20 -20 -21 -20 -65 -1 -76 33 -152 113 -134 142
3 6 41 10 83 10 61 0 88 5 122 23 25 12 43 27 40 32 -3 6 -33 9 -70 7 -60 -4
-68 -1 -95 24 l-30 27 28 -7 c34 -8 107 12 107 31 0 9 -14 13 -42 14 -54 0
-120 27 -159 63 -48 46 -35 64 31 41 49 -17 126 -20 135 -5 10 16 -13 38 -46
45 -37 8 -47 25 -20 32 41 10 19 36 -44 53 -33 8 -66 19 -73 23 -17 11 -15 47
3 47 25 0 17 37 -12 59 l-28 21 28 23 c35 29 34 55 -3 91 -25 24 -30 37 -30
77 0 26 -4 50 -9 54 -5 3 -21 -18 -34 -47 -14 -29 -37 -64 -51 -77 -29 -28
-33 -49 -10 -58 8 -3 13 -12 9 -21 -3 -8 2 -23 10 -32 15 -16 13 -19 -18 -39
-19 -11 -46 -21 -59 -21 -14 0 -32 -7 -39 -16 -7 -9 -23 -20 -36 -25 -15 -6
-23 -17 -23 -33 0 -28 16 -43 50 -48 17 -2 25 -9 25 -23 0 -25 -52 -51 -117
-61 -29 -4 -48 -12 -48 -20 0 -12 69 -30 140 -36 83 -7 11 -56 -85 -57 -118
-2 -162 -27 -91 -51 19 -6 42 -22 50 -36 15 -21 23 -24 82 -24 57 0 65 -2 62
-17 -2 -10 -15 -23 -29 -30 -15 -7 -32 -20 -39 -28 -11 -13 -4 -15 54 -15 57
0 66 -2 66 -18 0 -45 -106 -92 -205 -92 -39 0 -67 -5 -71 -12 -4 -6 -2 -14 4
-16 17 -5 15 -29 -3 -36 -22 -8 -45 4 -54 28 -8 20 0 185 14 303 11 88 -26 82
-69 -13 -27 -58 -36 -64 -64 -36 -10 10 -26 21 -35 25 -22 8 -40 54 -33 82 6
24 -18 65 -39 65 -19 0 -28 -17 -27 -51 0 -20 -8 -35 -34 -54 -28 -22 -32 -29
-24 -45 8 -15 6 -21 -11 -30 -32 -18 -46 -6 -58 49 -8 38 -7 60 3 96 12 38 52
105 76 125 11 10 75 95 87 117 23 41 52 137 59 196 5 48 4 57 -10 57 -9 0 -26
-22 -41 -52 -65 -132 -120 -208 -149 -208 -13 0 -16 12 -16 64 0 36 5 77 11
93 6 15 15 48 19 73 11 57 32 127 64 212 48 130 34 170 -36 102 -61 -59 -139
-239 -192 -444 -10 -36 -24 -85 -32 -110 -8 -25 -14 -55 -14 -67 0 -35 -32
-93 -51 -93 -21 0 -61 52 -101 133 -29 56 -32 71 -32 152 0 92 1 96 59 193 37
61 176 256 195 272 3 3 29 34 57 70 59 74 60 76 168 152 116 81 185 149 185
181 0 18 -36 4 -79 -30 -61 -50 -104 -73 -135 -73 -21 0 -26 5 -26 24 0 13 6
37 14 53 24 49 38 95 52 178 16 93 17 115 6 115 -12 0 -42 -56 -42 -80 0 -12
-6 -34 -14 -48 -8 -15 -17 -34 -20 -42 -4 -8 -15 -28 -26 -45 -11 -16 -23 -37
-27 -45 -11 -20 -106 -164 -113 -170 -3 -3 -34 -43 -70 -90 -64 -86 -197 -247
-231 -281 -26 -26 -39 -24 -39 9 1 29 27 111 49 152 21 38 96 134 191 245 47
55 103 123 125 150 22 28 42 52 45 55 3 3 10 15 17 27 11 19 10 23 -7 28 -30
10 -115 -50 -244 -171 -38 -36 -74 -63 -82 -60 -15 6 -10 56 13 120 16 47 2
72 -22 40 -35 -46 -85 -185 -85 -237 0 -14 -7 -43 -16 -64 -9 -21 -24 -54 -32
-73 -8 -19 -19 -42 -23 -50 -5 -8 -21 -39 -36 -68 -38 -73 -57 -82 -83 -40
-25 41 -27 142 -4 219 8 30 22 79 31 109 8 30 21 71 28 90 27 76 37 107 52
160 26 94 32 114 45 157 19 65 0 75 -44 24z m2528 -305 c16 -12 19 -26 18 -94
-1 -76 -3 -83 -41 -138 -39 -58 -65 -73 -99 -60 -12 5 -13 10 -3 28 6 13 19
31 27 41 18 21 52 121 52 155 0 13 -5 33 -11 44 -9 16 -8 23 2 29 20 12 32 11
55 -5z m124 -23 c0 -21 -3 -24 -9 -14 -5 8 -7 20 -4 28 8 21 13 15 13 -14z
m-365 -312 c3 -5 1 -13 -5 -16 -15 -9 -43 3 -35 15 8 13 32 13 40 1z m-1485
-1057 c0 -11 -8 -14 -32 -12 -46 4 -49 28 -4 28 26 0 36 -4 36 -16z m3716 -16
c-3 -18 -10 -59 -15 -90 -5 -32 -12 -62 -16 -68 -22 -36 -171 37 -210 103 -28
46 -15 57 67 58 40 0 89 7 108 14 60 23 73 20 66 -17z m389 15 c40 -19 44 -50
6 -45 -24 2 -63 41 -54 54 6 11 7 10 48 -9z m-205 -28 c0 -32 -73 -48 -84 -18
-8 21 10 33 52 33 21 0 32 -5 32 -15z m-3910 -100 c0 -17 -36 -20 -45 -5 -4 6
-4 18 -1 26 4 12 10 13 26 4 11 -6 20 -17 20 -25z m2260 -7 c11 -12 34 -52 51
-87 28 -58 31 -73 27 -141 -3 -64 -9 -87 -45 -160 -68 -137 -55 -129 -210
-121 -73 4 -136 10 -140 15 -4 4 -8 80 -8 169 0 160 16 277 40 297 6 5 61 15
124 24 62 8 115 17 118 20 11 11 22 6 43 -16z m226 -25 c59 -67 132 -172 148
-215 11 -30 19 -90 23 -170 5 -109 4 -125 -11 -137 -22 -18 -214 -37 -279 -27
-71 11 -73 25 -20 136 25 52 62 119 83 150 20 30 45 72 55 92 l19 38 -32 62
c-47 92 -40 130 14 71z m-702 -3 c14 -5 32 -22 40 -38 14 -27 35 -232 39 -377
l2 -60 -70 -18 c-38 -10 -88 -24 -110 -31 -64 -20 -79 -12 -71 37 3 23 10 70
15 103 5 34 14 71 20 82 6 12 11 56 11 99 0 93 28 193 56 204 27 11 39 10 68
-1z m-816 -37 c-4 -22 -47 -30 -59 -12 -12 20 -1 29 32 29 24 0 30 -4 27 -17z
m82 -36 c0 -17 -25 -40 -69 -62 -33 -17 -35 -17 -48 1 -20 27 -12 36 40 49 26
7 50 15 54 18 11 11 23 8 23 -6z m-247 -64 c8 -5 10 -63 1 -63 -3 0 -28 12
-55 28 -65 36 -66 57 -1 47 26 -4 50 -9 55 -12z"/>
<path d="M10970 4552 c0 -27 -26 -62 -45 -62 -5 0 -17 8 -27 17 -18 16 -19 16
-24 -4 -4 -12 -16 -23 -28 -25 -14 -2 -22 -11 -24 -28 -2 -14 -10 -32 -17 -40
-7 -8 -15 -35 -18 -60 l-6 -45 97 -93 c100 -96 204 -172 234 -172 10 0 35 -6
55 -14 21 -8 65 -22 98 -31 50 -15 65 -25 92 -60 43 -57 94 -81 143 -66 71 21
93 9 41 -22 -23 -13 -49 -16 -127 -14 -55 2 -106 7 -114 12 -64 41 -151 35
-214 -13 -19 -15 -61 -48 -93 -73 -61 -47 -97 -62 -199 -78 -58 -9 -186 -61
-198 -79 -3 -5 -33 -15 -66 -22 -49 -10 -74 -10 -138 0 -42 8 -113 14 -157 14
-83 1 -99 -5 -230 -87 -46 -29 -183 -133 -218 -166 -76 -71 -81 -87 -80 -245
0 -78 8 -199 16 -271 9 -71 21 -196 27 -278 10 -142 9 -149 -11 -189 -14 -28
-18 -43 -10 -46 17 -6 13 -73 -6 -94 -16 -18 -16 -25 -1 -111 14 -81 14 -94 1
-109 -13 -14 -13 -19 2 -41 12 -20 15 -47 13 -138 l-3 -114 -50 -9 -50 -10 45
-11 c43 -10 45 -13 48 -50 2 -22 8 -45 14 -52 14 -17 48 -16 71 1 23 18 29
109 10 148 -8 16 -13 64 -13 121 0 79 3 98 20 120 17 21 18 26 5 37 -17 14
-11 110 12 174 7 21 13 48 13 60 1 11 12 34 25 50 13 17 40 82 61 145 51 163
64 192 96 226 15 17 28 35 28 39 0 19 63 86 81 86 25 0 24 -22 -1 -45 -24 -21
-25 -44 -5 -71 19 -25 19 -60 -2 -120 -20 -58 -80 -164 -93 -164 -22 0 -9 -57
20 -88 17 -18 30 -37 30 -43 0 -5 4 -9 9 -9 4 0 22 -21 39 -48 17 -26 49 -74
71 -107 43 -63 51 -92 26 -101 -25 -10 -17 -20 22 -30 50 -12 53 -35 8 -57
-20 -9 -40 -17 -46 -17 -16 0 -129 -71 -129 -81 0 -13 48 -11 55 2 4 5 17 14
28 20 12 5 29 13 37 18 37 23 93 42 106 37 8 -3 24 -26 35 -52 20 -43 22 -45
52 -39 42 9 44 12 49 66 5 45 4 47 -26 56 -21 6 -32 16 -34 31 -5 35 21 36 99
3 l72 -31 156 6 c164 6 180 9 275 55 33 16 71 29 86 29 15 0 46 7 69 15 23 8
48 12 56 9 11 -5 15 1 15 19 0 36 18 79 30 72 17 -10 12 -105 -5 -111 -12 -5
-15 -24 -14 -100 1 -52 -1 -97 -4 -101 -11 -11 -110 -43 -132 -43 -11 0 -44
-9 -73 -20 -56 -21 -116 -26 -155 -11 -13 5 -39 26 -58 46 -69 74 -170 100
-177 45 -4 -30 -34 -64 -84 -96 -54 -34 -89 -29 -58 9 55 65 58 71 40 82 -6 3
-14 -5 -19 -18 -17 -44 -114 -97 -178 -97 -18 0 -50 7 -70 15 -40 17 -129 20
-138 5 -3 -6 6 -15 20 -20 46 -18 16 -30 -73 -30 -61 1 -93 5 -106 15 -22 17
-82 20 -91 6 -3 -5 4 -12 15 -16 20 -6 25 -21 21 -65 -5 -51 -83 -82 -218 -87
-96 -4 -124 -13 -87 -27 9 -3 59 -6 112 -6 102 0 138 9 252 65 127 62 165 71
365 85 160 11 215 30 282 92 22 21 45 32 75 35 39 5 49 1 96 -36 28 -23 52
-46 52 -52 0 -12 -62 -39 -91 -39 -11 0 -41 -13 -65 -30 -151 -103 -164 -108
-312 -120 -140 -12 -182 -25 -345 -104 -147 -72 -211 -94 -299 -103 l-58 -5 0
33 c0 19 -4 41 -9 48 -8 12 -11 8 -16 -15 -9 -42 -19 -57 -48 -74 -38 -22 -64
6 -71 76 -3 30 -9 79 -12 109 -5 55 -5 55 28 69 l33 14 -38 7 c-39 8 -63 35
-53 61 3 8 -6 30 -19 50 -29 42 -38 84 -39 177 -1 77 6 87 67 87 23 0 36 4 32
10 -3 6 -19 10 -34 10 -15 0 -31 4 -36 9 -6 6 -30 4 -63 -4 -44 -12 -59 -12
-98 0 -25 7 -56 21 -69 29 -24 16 -125 158 -125 176 0 5 -6 13 -13 17 -8 4
-16 16 -20 26 -3 9 -11 17 -18 17 -7 0 -8 -7 -4 -17 4 -10 12 -31 17 -48 12
-36 30 -80 49 -118 11 -23 11 -32 0 -49 -14 -23 -2 -38 30 -38 24 0 49 -33 56
-74 5 -31 3 -36 -14 -36 -19 0 -189 138 -206 166 -4 8 -13 56 -19 106 -7 69
-18 107 -39 148 -31 59 -101 144 -111 135 -3 -3 13 -43 36 -89 66 -131 83
-206 48 -206 -17 0 -62 49 -62 67 0 10 -45 53 -55 53 -3 0 -13 7 -21 15 -18
17 -34 20 -34 5 0 -5 5 -10 11 -10 13 0 69 -61 69 -75 0 -16 35 -81 63 -118
28 -37 42 -87 32 -118 -6 -16 -12 -19 -33 -14 l-25 6 26 -35 c34 -44 36 -76 5
-76 -13 0 -29 -4 -37 -9 -11 -7 -10 -10 6 -15 27 -9 41 -44 35 -84 -6 -41 -25
-50 -62 -28 -16 9 -43 16 -62 16 -19 0 -43 7 -54 15 -22 17 -60 20 -69 5 -4
-6 7 -13 24 -16 17 -4 36 -13 42 -20 6 -8 21 -14 33 -14 29 0 116 -56 116 -75
0 -16 -18 -21 -93 -28 -88 -8 -77 -28 20 -38 86 -9 93 -18 93 -131 0 -48 -2
-88 -5 -88 -2 0 -25 20 -51 45 -35 34 -54 45 -77 45 -18 0 -45 7 -61 15 -33
17 -56 19 -56 5 0 -13 83 -50 114 -50 31 0 76 -61 76 -103 0 -30 21 -77 52
-117 16 -20 18 -33 13 -72 -6 -45 -5 -48 20 -58 14 -5 51 -10 82 -10 48 0 58
4 83 30 27 29 31 30 120 30 75 0 99 -4 125 -20 32 -20 32 -20 58 0 31 24 41
25 58 3 8 -9 34 -25 59 -36 25 -11 64 -37 87 -58 26 -24 52 -39 68 -39 14 0
38 -6 54 -14 15 -8 56 -18 92 -22 35 -4 81 -13 102 -20 35 -12 46 -11 125 13
121 36 149 38 205 14 31 -13 58 -18 77 -14 35 6 111 -12 154 -38 27 -16 32
-16 59 -3 35 19 67 12 121 -23 38 -24 42 -25 95 -13 31 7 65 17 76 23 11 6 66
10 129 8 87 -2 113 1 134 15 14 9 48 18 76 19 50 2 72 11 128 49 22 14 38 17
73 12 24 -4 47 -11 50 -17 17 -26 95 6 95 40 0 38 111 91 149 71 9 -5 24 -11
34 -14 9 -3 21 -16 27 -30 5 -13 14 -27 19 -31 6 -3 11 -15 11 -26 0 -17 7
-19 79 -19 68 0 83 3 117 26 37 25 42 26 104 16 89 -13 94 -8 95 111 0 75 3
97 18 111 9 10 17 25 17 33 0 14 2 14 18 0 10 -10 25 -17 34 -17 8 0 29 -7 47
-16 25 -12 30 -20 25 -36 -6 -19 -3 -19 53 -12 32 3 84 15 117 25 72 23 102
24 152 3 67 -27 84 -50 84 -110 0 -56 17 -84 50 -84 10 0 25 6 32 13 7 7 28
23 46 36 17 12 32 29 32 37 0 21 17 17 23 -6 3 -11 13 -23 24 -26 10 -4 26
-13 35 -21 22 -19 58 -1 58 30 0 39 38 81 107 119 55 29 69 42 74 66 3 17 16
45 27 64 42 67 55 105 60 176 4 70 6 74 50 119 l45 47 -17 65 c-11 40 -19 122
-23 221 -7 172 -20 222 -61 228 -33 5 -38 44 -13 92 17 33 21 58 21 133 0 91
-12 140 -25 105 -4 -9 -14 -49 -24 -90 -14 -59 -22 -74 -38 -76 -30 -4 -39 43
-18 86 17 33 17 62 0 65 -5 1 -11 -12 -13 -28 -4 -37 -39 -65 -54 -43 -5 7 -8
82 -6 167 2 114 0 155 -9 158 -7 3 -15 -8 -19 -24 -4 -15 -11 -33 -16 -39 -4
-7 -15 -38 -24 -70 -13 -48 -13 -68 -4 -109 16 -72 18 -200 3 -200 -20 0 -111
94 -115 117 -2 12 -9 23 -15 26 -21 6 -15 -50 8 -74 12 -12 18 -27 14 -33 -12
-20 -43 -11 -70 20 -21 25 -25 40 -23 73 2 22 8 40 13 39 6 -1 17 -3 25 -5 10
-2 16 10 20 44 3 27 11 53 18 60 15 15 17 218 2 218 -17 0 -30 -38 -30 -88 0
-107 -75 -200 -116 -145 -19 26 -28 9 -15 -28 6 -19 8 -53 5 -81 -5 -33 -2
-53 6 -63 9 -11 10 -19 3 -26 -7 -7 -17 -2 -32 17 -16 21 -21 41 -21 88 0 33
-6 73 -14 87 -7 14 -16 38 -20 54 -4 16 -18 52 -31 80 -13 27 -26 60 -29 72
-4 11 -14 24 -23 27 -14 6 -15 0 -10 -45 4 -28 12 -61 20 -73 7 -11 21 -46 30
-76 9 -30 24 -79 33 -108 9 -29 14 -56 10 -59 -11 -11 -36 7 -47 34 -37 96
-75 157 -132 208 -62 56 -87 67 -87 39 0 -15 48 -84 76 -109 25 -24 72 -92 75
-110 9 -55 -42 -59 -124 -10 -32 19 -63 35 -70 35 -7 0 -21 7 -31 15 -11 8
-37 15 -58 15 -32 0 -38 -3 -38 -20 0 -17 3 -19 19 -10 24 12 45 5 94 -33 44
-34 46 -45 12 -77 -14 -13 -25 -28 -25 -33 0 -5 26 -8 58 -7 86 3 85 4 125
-50 55 -74 52 -80 -40 -73 -44 3 -85 12 -94 19 -22 20 -27 18 -31 -14 l-3 -27
-110 -3 c-74 -2 -125 2 -155 11 -106 33 -138 39 -157 29 -13 -8 -23 -6 -37 6
-16 15 -45 17 -257 15 l-240 -3 -9 26 c-6 14 -7 30 -4 35 3 6 0 16 -6 24 -9
10 -10 35 -6 77 3 35 9 123 12 197 l7 135 86 85 c80 80 88 92 109 160 22 72
23 73 4 105 -10 17 -22 44 -26 59 -3 15 -11 27 -16 27 -6 0 -10 8 -10 18 0 9
-14 37 -30 62 -18 26 -30 58 -30 77 0 18 -13 55 -30 83 -16 28 -30 57 -30 64
0 8 -7 19 -15 26 -8 7 -15 17 -15 23 0 6 -7 18 -15 27 -22 25 -31 140 -12 164
12 17 14 12 20 -57 5 -58 13 -84 33 -114 14 -21 30 -47 35 -58 5 -11 20 -39
33 -62 13 -24 27 -61 31 -83 7 -43 30 -96 46 -105 5 -4 9 -17 9 -30 0 -13 6
-28 13 -32 6 -4 20 -22 29 -38 29 -53 10 -207 -30 -247 -7 -7 -12 -16 -12 -21
0 -14 -50 -65 -102 -103 l-48 -36 0 -155 c0 -196 23 -199 55 -5 7 42 33 89
116 207 68 97 92 151 84 193 -16 93 -17 153 -1 177 20 31 21 97 1 136 -19 36
-17 180 2 186 7 3 14 -6 17 -19 2 -13 9 -52 16 -87 15 -84 50 -151 90 -173
l31 -17 14 32 c8 18 17 58 20 90 6 56 25 77 39 41 12 -32 26 0 26 62 0 45 5
70 15 80 17 18 20 86 5 115 -15 27 3 25 57 -7 28 -16 55 -24 76 -22 34 3 34 3
21 81 -10 55 18 49 49 -10 21 -42 29 -48 59 -51 46 -4 56 12 49 78 -5 48 -9
55 -29 58 -16 3 -20 7 -14 15 5 7 14 31 21 54 10 36 9 48 -4 72 -22 44 -72 78
-155 105 -102 33 -134 77 -89 125 25 26 60 41 99 41 16 0 35 7 44 15 8 8 18
15 22 15 15 0 95 73 109 100 19 36 32 140 17 140 -5 0 -12 -7 -16 -15 -3 -10
-19 -15 -45 -15 -44 0 -51 -10 -51 -74 0 -23 -4 -46 -9 -52 -5 -5 -14 -26 -21
-46 -9 -30 -17 -38 -36 -38 -27 0 -32 21 -9 40 25 21 14 53 -24 72 -19 9 -38
21 -44 27 -16 16 -37 83 -37 121 0 37 -18 74 -26 54 -28 -67 -111 -59 -128 12
-7 28 -26 23 -26 -7 0 -10 -6 -19 -13 -19 -17 0 -78 68 -88 100 -6 17 -7 10
-3 -23 7 -60 -7 -80 -50 -72 -17 3 -38 1 -46 -4 -12 -8 -12 -12 3 -29 9 -10
17 -22 17 -26 0 -5 14 -21 30 -36 39 -37 38 -68 -4 -123 l-34 -44 67 -6 c36
-3 89 -2 116 3 36 5 59 4 83 -6 39 -16 49 -37 34 -70 -9 -18 -19 -24 -45 -24
-18 0 -38 -5 -43 -10 -8 -8 -19 -8 -38 0 -43 16 -64 12 -82 -15 -22 -34 -6
-72 36 -88 34 -13 52 -66 30 -92 -10 -12 -9 -20 3 -39 33 -50 73 -85 101 -88
16 -2 31 -9 34 -15 6 -19 -53 -16 -68 2 -7 8 -17 15 -23 15 -5 0 -28 20 -51
44 -27 29 -51 45 -71 48 -19 2 -31 9 -33 21 -3 14 4 17 35 18 24 1 30 3 15 6
-13 3 -27 16 -33 29 -6 18 -14 24 -27 20 -12 -4 -32 4 -57 24 -34 27 -45 30
-111 30 -41 0 -76 5 -79 11 -10 15 -6 17 72 29 74 12 87 9 145 -32 14 -10 20
-10 29 -1 20 20 -5 60 -48 80 -33 15 -38 23 -41 55 -2 29 1 38 17 43 15 5 21
18 26 63 13 116 13 117 -17 114 -26 -3 -28 -1 -28 37 0 47 -17 63 -26 26 -5
-21 -12 -26 -33 -23 -24 3 -26 0 -29 -42 -1 -25 -5 -51 -8 -59 -6 -19 -24 -1
-28 30 -15 92 -16 119 -5 141 10 23 7 29 -41 77 -61 61 -75 64 -66 15 8 -40
-5 -64 -35 -64 -12 0 -24 -11 -29 -26 -13 -34 -40 -28 -62 15 l-16 33 -7 -45
c-7 -43 -25 -64 -46 -51 -5 3 -21 29 -35 57 -44 90 -82 147 -95 147 -5 0 -9
-13 -9 -28z m387 -118 c8 -20 -13 -42 -27 -28 -12 12 -3 44 11 44 5 0 12 -7
16 -16z m31 -204 c24 -20 22 -40 -4 -40 -15 0 -53 37 -54 53 0 14 35 6 58 -13z
m537 -201 c10 -15 -1 -23 -20 -15 -9 3 -13 10 -10 16 8 13 22 13 30 -1z m-330
-324 c11 -82 66 -133 163 -150 23 -4 42 -11 42 -16 0 -17 -89 -9 -129 12 -49
25 -101 77 -101 100 0 27 -11 50 -21 43 -15 -9 -10 -80 6 -94 8 -7 15 -17 15
-22 0 -11 42 -72 53 -76 9 -4 10 -42 1 -42 -14 0 -66 67 -83 107 -6 11 -15 24
-20 28 -6 3 -11 27 -11 53 0 36 5 50 20 60 11 7 20 21 20 31 0 19 18 32 32 24
4 -2 10 -28 13 -58z m443 -62 c4 -16 -22 -27 -43 -19 -22 8 -6 38 18 34 11 -2
22 -9 25 -15z m-948 -155 c0 -18 7 -55 16 -83 9 -27 18 -56 20 -63 2 -7 8 -11
14 -7 5 3 9 35 9 70 -1 35 2 68 6 74 14 24 25 9 25 -36 1 -27 7 -66 15 -88 9
-24 15 -77 15 -130 0 -119 20 -175 86 -242 29 -28 60 -53 69 -55 10 -1 20 -9
23 -15 5 -18 -33 -16 -48 2 -7 8 -17 15 -22 15 -15 0 -70 49 -84 74 -30 53
-54 110 -54 131 0 12 -7 28 -15 35 -8 7 -15 28 -15 47 0 22 -10 47 -28 71 -45
58 -74 170 -56 216 10 27 24 18 24 -16z m-870 -162 c0 -32 -8 -54 -30 -84 -34
-47 -38 -73 -14 -93 12 -9 14 -24 9 -58 -5 -44 4 -137 21 -191 l7 -25 -25 25
c-34 34 -52 92 -44 149 13 98 13 96 -11 94 -13 -2 -23 1 -23 7 0 15 23 64 39
84 11 12 16 42 17 95 2 102 1 100 29 68 18 -21 25 -40 25 -71z m-280 78 c0 -3
-10 -20 -22 -37 -15 -20 -21 -42 -19 -66 4 -61 -10 -151 -24 -151 -15 0 -29
144 -19 187 11 42 36 72 62 73 12 0 22 -3 22 -6z m1000 -49 c0 -14 -6 -36 -14
-48 -35 -58 -43 -181 -20 -336 5 -34 3 -42 -7 -39 -8 3 -15 20 -17 39 -2 19
-11 42 -19 51 -23 25 -22 201 1 243 9 17 16 35 16 41 0 6 7 17 15 24 8 7 15
21 15 31 0 11 7 19 15 19 9 0 15 -9 15 -25z m150 -474 c20 -27 34 -58 40 -93
12 -76 29 -146 39 -166 43 -86 56 -172 26 -172 -9 0 -15 9 -15 21 0 12 -6 35
-14 52 -49 114 -64 164 -72 242 -5 40 -15 70 -31 91 -23 31 -31 64 -14 64 5 0
23 -18 41 -39z m-90 -33 c0 -46 14 -95 73 -253 8 -22 20 -60 26 -85 24 -90 39
-139 68 -211 8 -19 13 -53 11 -75 -3 -36 -5 -39 -41 -45 -21 -3 -48 -11 -60
-17 -12 -5 -47 -14 -77 -19 l-55 -9 49 -8 c35 -6 57 -5 80 6 39 17 105 9 120
-14 9 -14 6 -21 -14 -35 -50 -36 -130 -53 -246 -53 -81 0 -123 -5 -155 -17
-58 -23 -387 -25 -414 -3 -21 17 -70 122 -95 203 -37 117 -22 173 65 243 27
22 56 52 63 68 12 25 11 30 -13 62 -17 22 -21 34 -13 34 8 0 20 -6 27 -12 17
-18 370 -17 426 0 22 7 64 17 94 22 29 5 59 15 67 21 18 15 18 70 -1 95 -21
27 -21 144 0 144 11 0 15 -11 15 -42z m-870 -439 c0 -6 -5 -19 -10 -30 -8 -14
-5 -31 15 -72 28 -60 29 -67 15 -67 -24 0 -80 83 -80 119 0 23 28 59 48 60 6
1 12 -4 12 -10z m2440 -161 c21 -35 27 -78 10 -78 -6 0 -15 10 -20 23 -6 12
-15 29 -22 38 -10 15 -6 49 7 49 3 0 14 -15 25 -32z m47 -107 c3 -11 11 -22
19 -25 17 -6 19 -26 3 -26 -14 0 -48 41 -49 58 0 19 21 14 27 -7z m-644 -36
c33 -8 101 -15 156 -15 76 0 101 -3 111 -15 11 -13 16 -13 34 -2 42 27 63 26
92 -4 32 -34 28 -41 -41 -57 -37 -9 -60 -23 -87 -53 -21 -22 -38 -44 -38 -48
0 -19 15 -18 44 3 25 20 107 51 111 43 0 -1 -2 -36 -5 -77 l-5 -75 -50 -7
c-27 -4 -84 -15 -126 -24 -95 -21 -120 -15 -156 36 -15 22 -34 40 -40 40 -7 0
-28 -24 -48 -52 l-35 -53 -78 -11 c-46 -7 -82 -7 -89 -2 -7 6 -9 29 -6 66 7
77 -17 169 -62 232 -41 58 -43 68 -12 80 37 15 266 12 330 -5z m525 -12 c43
-15 112 -71 112 -90 0 -14 -87 -4 -122 13 -38 19 -78 58 -78 76 0 21 11 30 29
22 9 -3 35 -13 59 -21z m-931 -54 c117 -73 123 -228 11 -309 -56 -41 -80 -38
-141 15 -29 25 -59 45 -69 45 -29 0 -38 34 -38 137 0 75 4 104 17 122 15 23
20 23 101 17 60 -4 95 -13 119 -27z m1503 -45 c0 -29 40 -84 61 -84 21 0 32
-21 43 -81 6 -32 4 -37 -21 -49 -38 -17 -203 -27 -203 -11 0 13 -36 15 -44 2
-4 -5 -25 -12 -47 -16 -49 -8 -70 5 -48 31 8 9 16 42 19 73 l5 56 51 3 c50 3
52 2 73 -33 23 -40 44 -42 49 -4 6 52 35 129 48 129 8 0 14 -7 14 -16z m-3671
-83 c8 -5 14 -23 13 -43 -1 -18 -2 -79 -2 -135 -1 -57 -5 -105 -10 -108 -14
-9 -32 35 -26 61 8 30 -26 145 -55 185 -11 16 -17 33 -14 39 8 12 75 13 94 1z
m3129 -45 c77 -83 78 -120 5 -98 -21 6 -64 14 -96 18 l-58 6 3 52 c3 48 5 51
33 57 60 13 72 10 113 -35z m-3453 -43 c107 -81 121 -98 135 -166 19 -93 6
-89 -78 27 -18 25 -60 69 -95 97 -34 28 -66 60 -71 70 -12 24 0 54 17 42 6 -5
48 -37 92 -70z m3557 60 c21 -19 25 -83 5 -83 -17 0 -51 65 -44 84 8 20 16 20
39 -1z m-3603 -165 c22 -24 52 -59 67 -78 38 -50 104 -195 104 -229 0 -16 7
-34 15 -41 18 -15 20 -63 3 -58 -7 3 -14 14 -16 26 -2 12 -22 43 -45 68 -51
55 -77 100 -77 134 0 29 -57 130 -96 171 -13 14 -24 30 -24 37 0 24 29 11 69
-30z m2175 -14 c9 -8 16 -26 16 -39 0 -29 26 -45 73 -45 39 0 61 20 53 48 -4
12 0 24 10 33 14 11 19 10 35 -11 40 -53 16 -132 -54 -178 -39 -25 -48 -27
-138 -25 -54 2 -114 9 -139 18 -23 8 -72 15 -109 15 -85 0 -181 16 -198 33
-18 17 10 57 40 57 29 0 165 36 180 47 16 13 156 54 209 62 4 1 14 -6 22 -15z
m721 -22 c28 -10 61 -24 74 -31 20 -11 37 -11 94 -1 67 12 98 9 162 -16 31
-12 108 -61 109 -69 0 -6 -24 -13 -55 -16 -31 -3 -62 -10 -70 -15 -8 -5 -81
-11 -164 -15 -162 -6 -213 -17 -289 -62 -47 -27 -51 -28 -99 -15 -48 12 -50
11 -66 -10 -9 -13 -46 -58 -84 -101 l-67 -77 -113 -18 c-111 -18 -181 -36
-245 -62 -18 -8 -62 -14 -97 -14 -35 0 -79 -6 -97 -14 -18 -8 -45 -17 -61 -21
-15 -3 -44 -21 -64 -40 -44 -41 -60 -44 -74 -11 -6 13 -29 33 -51 46 l-39 22
-25 -27 c-13 -14 -31 -42 -39 -61 -8 -19 -20 -34 -27 -34 -7 0 -29 -3 -49 -6
-28 -5 -41 -1 -65 19 -23 20 -45 26 -107 32 -96 9 -137 -6 -183 -69 -27 -35
-41 -44 -85 -55 -30 -7 -81 -11 -114 -9 -59 3 -60 3 -63 35 -3 33 -50 83 -78
83 -8 0 -19 12 -25 26 -9 26 -10 26 -29 9 -11 -10 -26 -15 -35 -12 -9 4 -15 1
-15 -8 0 -21 -27 -19 -52 5 -16 14 -21 31 -21 64 2 71 15 86 76 86 29 1 88 7
132 15 44 8 90 15 102 15 13 0 52 14 86 30 65 31 107 38 107 20 0 -26 -64
-102 -95 -114 -35 -13 -5 -18 45 -7 51 11 129 61 157 100 15 22 141 109 188
130 84 37 130 43 375 48 232 5 249 4 325 -18 170 -47 235 -36 321 53 30 32 61
58 70 58 28 0 90 38 126 78 59 66 74 72 163 72 50 -1 99 -7 130 -18z m-2929
-55 c6 -17 15 -40 19 -49 12 -29 -22 -34 -50 -8 -19 18 -23 29 -18 54 6 30 22
50 32 40 3 -2 10 -19 17 -37z m464 -146 c12 -45 13 -208 1 -215 -5 -3 -12 27
-16 67 -4 39 -13 84 -21 99 -16 31 -21 79 -10 96 12 19 34 -3 46 -47z m-473
-53 c28 -30 32 -41 38 -118 3 -47 11 -106 17 -133 9 -36 9 -50 0 -59 -16 -16
-52 17 -52 48 0 13 -6 38 -14 56 -27 63 -46 141 -46 189 0 59 13 63 57 17z
m3895 -390 c-15 -15 -26 -4 -18 18 5 13 9 15 18 6 9 -9 9 -15 0 -24z"/>
<path d="M11447 4483 c-4 -3 -7 -10 -7 -14 0 -12 51 -69 61 -69 18 0 8 47 -14
68 -25 24 -30 26 -40 15z"/>
<path d="M11547 4446 c-11 -27 -8 -36 8 -36 16 0 17 5 6 34 -7 18 -8 18 -14 2z"/>
<path d="M2530 3598 c-199 -27 -420 -95 -580 -178 -195 -101 -389 -248 -490
-371 -25 -30 -48 -56 -51 -59 -3 -3 -9 -15 -13 -27 -9 -27 18 -37 74 -28 30 5
44 15 65 45 39 56 67 71 131 71 52 0 59 -2 104 -45 27 -25 52 -46 55 -46 4 0
21 11 38 24 78 60 222 82 422 66 222 -17 343 -56 658 -212 31 -15 65 -28 75
-28 19 0 128 -24 217 -49 77 -21 174 -19 250 4 83 25 332 26 389 1 30 -13 73
-16 202 -16 91 0 165 4 169 9 6 11 -75 134 -129 197 l-34 39 -448 6 c-328 4
-455 8 -471 17 -29 16 -30 57 -4 72 12 6 95 10 200 10 195 0 196 0 220 58 7
16 30 39 51 51 34 19 45 20 78 11 44 -11 92 -45 92 -64 0 -7 10 -22 23 -34 19
-18 35 -22 85 -22 35 0 64 5 68 12 15 24 -148 156 -341 275 -42 26 -225 113
-237 113 -8 0 -18 4 -24 8 -8 8 -90 34 -192 62 -141 37 -477 52 -652 28z
m-332 -380 c21 -17 14 -37 -20 -58 -61 -37 -132 -15 -126 38 3 24 9 28 48 33
49 6 78 2 98 -13z"/>
<path d="M2149 2995 c-42 -16 -127 -62 -150 -81 -17 -15 -49 -19 -49 -6 0 4 9
22 20 40 19 30 19 32 2 32 -28 0 -107 -56 -157 -112 l-45 -50 -10 27 c-13 34
-22 27 -87 -61 -45 -62 -63 -71 -63 -34 0 49 -34 23 -87 -65 -16 -27 -32 -58
-36 -67 -9 -26 -27 -22 -27 6 0 14 -4 27 -8 30 -17 10 -65 -75 -183 -329 -23
-49 -63 -135 -89 -190 -26 -55 -50 -108 -53 -117 -7 -20 -37 -24 -54 -7 -6 6
-16 8 -22 5 -16 -10 -13 -52 4 -66 19 -16 19 -44 0 -60 -8 -7 -15 -17 -15 -22
0 -5 -11 -24 -25 -42 -14 -18 -25 -38 -25 -45 0 -24 64 -107 136 -178 82 -79
83 -85 31 -140 -69 -73 -174 -26 -241 108 -26 51 -35 129 -16 129 6 0 14 -10
19 -22 19 -47 110 -128 145 -128 29 0 24 16 -25 70 -57 63 -135 217 -154 303
-3 16 -11 27 -18 24 -9 -3 -12 -40 -11 -133 l1 -130 -45 -34 c-79 -61 -117
-74 -217 -74 -75 0 -98 4 -135 23 -25 13 -47 27 -50 31 -3 4 -15 10 -27 14
-18 6 -23 3 -23 -11 1 -57 55 -147 131 -218 142 -132 253 -185 389 -185 106 0
434 38 565 66 39 8 79 14 90 14 21 1 97 26 150 50 17 8 51 31 77 51 43 33 64
55 138 148 56 70 30 -40 -27 -117 -39 -52 -23 -60 140 -69 79 -5 138 -12 138
-18 0 -13 -114 -43 -168 -44 -52 -1 -58 -11 -66 -112 -8 -100 -31 -139 -158
-266 l-102 -103 -261 -1 c-144 0 -281 -2 -305 -4 -75 -6 -105 -63 -44 -86 35
-13 969 -12 994 1 11 6 19 21 19 35 0 34 -33 53 -83 48 -23 -2 -49 1 -57 6
-24 17 1 46 40 47 21 0 35 6 38 15 10 38 46 114 60 129 10 9 54 47 98 83 45
37 107 98 138 136 47 57 64 71 101 80 57 14 65 29 29 54 -101 70 -190 197
-223 319 -13 47 -9 94 4 51 4 -13 11 -23 15 -23 4 0 20 -24 35 -52 55 -106
118 -173 302 -320 63 -51 163 -163 163 -184 0 -4 6 -15 13 -23 21 -25 47 -103
47 -142 0 -19 -14 -63 -33 -99 l-33 -65 -252 -6 c-178 -5 -256 -10 -267 -19
-21 -18 -19 -57 5 -70 13 -7 381 -9 1165 -8 1006 3 1147 5 1155 18 25 39 -3
73 -61 75 -70 3 -71 3 -67 33 2 22 8 27 32 27 37 1 40 11 27 88 -11 62 1 171
28 274 6 21 12 73 13 116 3 77 2 79 -27 100 -53 37 -90 85 -109 137 -23 64
-24 213 -1 318 17 83 19 189 5 245 -6 20 -14 52 -18 70 -11 41 -59 143 -86
182 -86 123 -205 207 -361 256 -55 17 -93 20 -213 20 -144 0 -158 -2 -332 -46
-180 -46 -207 -49 -360 -50 -154 0 -176 3 -360 50 -143 36 -182 44 -282 55
-98 12 -159 11 -312 -6 -45 -5 -58 -4 -54 6 9 27 207 69 328 69 83 1 225 -18
285 -38 157 -51 388 -72 538 -49 48 7 88 18 88 23 0 6 -53 18 -118 28 -196 30
-222 37 -233 58 -9 16 -22 19 -80 19 -72 0 -86 10 -57 39 10 11 -2 12 -65 9
-84 -5 -99 5 -59 39 11 9 18 20 15 25 -8 12 -80 9 -152 -6 -69 -14 -83 -7 -53
26 12 12 21 25 21 30 0 19 -147 -4 -198 -31 -26 -14 -52 -14 -52 0 0 6 9 24
21 40 l20 29 -23 -1 c-13 -1 -39 -7 -59 -14z m-295 -527 c-3 -18 -12 -46 -19
-63 -7 -16 -21 -75 -30 -130 -18 -106 -38 -149 -86 -190 -29 -24 -79 -35 -79
-17 0 5 13 33 30 63 16 30 30 64 30 75 0 12 6 39 13 60 24 67 27 112 11 118
-46 18 -174 -106 -174 -167 0 -25 -20 -30 -41 -11 -47 43 0 153 90 211 72 45
167 79 234 82 27 1 28 -1 21 -31z m-441 -484 c13 -14 -9 -38 -57 -60 -28 -13
-57 -24 -63 -24 -19 0 -16 35 5 52 30 26 101 46 115 32z m2478 -290 c4 -72 11
-99 34 -142 33 -62 107 -132 168 -160 103 -46 119 -52 148 -52 44 0 32 -24
-14 -28 -44 -4 -46 -13 -9 -61 42 -55 57 -128 42 -204 -14 -63 -70 -200 -87
-210 -13 -8 -683 -10 -691 -2 -12 12 16 40 40 40 37 0 55 21 63 72 6 44 15 55
126 163 123 119 140 148 102 176 -29 21 -23 145 10 209 23 46 25 58 20 127 -6
82 11 172 31 165 6 -2 13 -41 17 -93z m-991 -43 c49 -82 86 -183 95 -263 10
-84 24 -92 132 -83 129 10 253 53 350 123 61 43 71 22 18 -37 -41 -45 -42 -53
-15 -104 39 -73 21 -168 -47 -242 -16 -17 -63 -72 -107 -123 l-79 -92 -159 0
-159 0 3 27 c2 21 10 29 36 37 32 9 33 11 27 50 -3 23 -12 64 -20 91 -20 75
-45 226 -45 273 0 70 -44 267 -77 344 -13 32 -13 68 1 68 2 0 23 -31 46 -69z
m-1620 -193 c0 -28 -34 -73 -74 -97 -41 -26 -126 -30 -126 -6 0 9 9 15 21 15
37 0 103 40 133 80 30 41 46 43 46 8z"/>
<path d="M1286 2807 c-42 -54 -38 -57 82 -57 l108 0 37 38 c21 21 34 41 31 45
-4 4 -58 7 -120 7 l-113 0 -25 -33z"/>
<path d="M1253 2643 c-44 -3 -55 -9 -71 -31 -24 -36 -45 -99 -37 -112 3 -5 34
-10 67 -10 50 0 64 4 79 22 11 11 19 27 19 34 0 7 8 25 17 42 17 30 12 63 -9
60 -7 -1 -36 -3 -65 -5z"/>
<path d="M4110 2639 c0 -6 10 -19 23 -29 12 -10 46 -39 75 -64 49 -43 56 -46
95 -40 69 9 70 10 52 43 -8 17 -15 37 -15 45 0 8 -12 24 -26 35 -23 18 -41 21
-115 21 -57 0 -89 -4 -89 -11z"/>
<path d="M13170 2601 c0 -12 5 -21 10 -21 6 0 10 6 10 14 0 8 -4 18 -10 21 -5
3 -10 -3 -10 -14z"/>
<path d="M13190 2557 c0 -23 11 -47 22 -47 14 0 5 53 -9 58 -7 2 -13 -3 -13
-11z"/>
<path d="M1068 2428 l-3 -53 -72 -6 c-77 -7 -124 -29 -157 -73 l-19 -26 -176
0 c-181 0 -235 -9 -298 -50 -58 -38 -38 -40 361 -40 472 0 453 -5 494 119 l21
64 -31 26 c-18 14 -45 41 -62 59 -42 46 -54 42 -58 -20z"/>
<path d="M4364 2363 c9 -36 55 -103 81 -117 90 -50 165 -167 165 -257 0 -19
-18 -81 -40 -137 -22 -55 -40 -114 -40 -129 0 -53 48 -111 120 -144 36 -16 78
-37 94 -45 95 -49 11 93 -96 162 -21 13 -38 30 -38 38 0 7 12 35 26 61 40 75
54 125 54 190 0 98 -38 190 -109 268 -27 29 -136 107 -150 107 -5 0 -14 7 -21
15 -7 8 -21 15 -32 15 -17 0 -19 -5 -14 -27z"/>
<path d="M4675 2260 c-3 -5 6 -26 21 -45 l26 -35 199 0 c209 0 227 4 176 42
-48 34 -125 48 -273 48 -84 0 -145 -4 -149 -10z"/>
<path d="M9590 1961 c-12 -9 -12 -11 2 -16 23 -9 73 -2 73 10 0 13 -56 18 -75
6z"/>
<path d="M563 1895 c-11 -30 13 -134 46 -203 22 -48 45 -61 85 -52 66 15 72
31 25 76 -41 38 -111 137 -125 177 -8 21 -23 22 -31 2z"/>
<path d="M10482 1868 c5 -15 37 -18 41 -3 1 6 -9 12 -22 13 -16 3 -22 -1 -19
-10z"/>
<path d="M9555 1660 c-8 -13 20 -24 40 -16 8 3 15 10 15 16 0 13 -47 13 -55 0z"/>
<path d="M798 814 c-38 -20 -38 -61 -1 -75 38 -14 90 -3 104 23 10 19 8 25
-15 45 -31 27 -50 28 -88 7z"/>
</g>
</svg>
