<?xml version="1.0" standalone="no"?>
<!DOCTYPE svg PUBLIC "-//W3C//DTD SVG 20010904//EN"
 "http://www.w3.org/TR/2001/REC-SVG-20010904/DTD/svg10.dtd">
<svg version="1.0" xmlns="http://www.w3.org/2000/svg"
 width="1350.000000pt" height="780.000000pt" viewBox="0 0 1350.000000 780.000000"
 preserveAspectRatio="xMidYMid meet">
<metadata>
Created by potrace 1.10, written by Peter Selinger 2001-2011
</metadata>
<g transform="translate(0.000000,780.000000) scale(0.100000,-0.100000)"
fill="#000000" stroke="none">
<path d="M13280 7784 c0 -9 18 -36 40 -61 22 -26 45 -64 50 -87 6 -23 15 -51
20 -64 6 -15 10 -1393 10 -3797 l0 -3775 50 0 50 0 0 3900 0 3900 -110 0 c-94
0 -110 -2 -110 -16z"/>
<path d="M9589 7741 c-73 -14 -123 -58 -183 -158 -46 -78 -83 -109 -138 -118
-92 -14 -125 -45 -99 -94 16 -28 82 -61 125 -61 46 0 69 -24 61 -61 -5 -20 0
-43 14 -72 12 -24 26 -70 32 -103 13 -71 36 -113 66 -120 60 -16 -5 -116 -93
-144 -77 -25 -80 -39 -24 -122 68 -103 51 -163 -65 -223 -31 -16 -65 -40 -76
-52 -19 -19 -20 -26 -10 -70 15 -63 32 -559 20 -590 -10 -28 -38 -30 -69 -5
-18 15 -20 21 -11 45 6 16 11 37 11 48 0 22 -69 75 -148 114 -28 14 -67 38
-85 53 -17 16 -54 41 -82 57 -27 16 -108 66 -178 112 -128 84 -168 98 -175 61
-2 -9 7 -31 19 -48 18 -24 20 -33 11 -42 -10 -10 -16 -10 -30 -1 -9 7 -100 63
-202 124 -102 62 -234 144 -295 182 -118 74 -128 81 -280 179 -55 35 -128 82
-163 104 -34 21 -115 73 -180 115 -64 42 -229 148 -367 236 -137 89 -273 176
-302 194 -179 116 -235 149 -253 149 -47 0 -12 -34 126 -120 48 -30 143 -91
210 -135 67 -44 148 -96 180 -116 125 -78 559 -360 591 -385 36 -27 41 -54 21
-110 -9 -26 -9 -36 1 -48 25 -30 322 -242 450 -321 342 -211 435 -272 458
-302 15 -20 34 -33 47 -33 32 0 115 -56 126 -85 5 -14 14 -25 19 -25 20 0 32
-39 20 -62 -18 -34 -20 -164 -3 -247 22 -112 35 -134 95 -170 30 -17 69 -43
88 -56 20 -15 48 -25 67 -25 49 0 83 -16 89 -43 4 -13 -8 -106 -24 -207 -27
-159 -36 -192 -66 -247 -19 -35 -35 -76 -35 -91 0 -15 -27 -81 -60 -147 -78
-153 -86 -208 -45 -286 26 -51 27 -55 20 -173 -4 -67 -11 -152 -16 -191 -5
-38 -16 -151 -24 -250 -8 -99 -24 -265 -34 -370 -37 -355 -44 -494 -30 -565
15 -77 42 -110 92 -110 43 0 51 9 30 33 -15 16 -18 44 -21 191 -3 140 2 212
22 377 39 308 54 491 62 739 4 124 11 230 16 237 5 7 26 17 46 24 43 13 78 43
98 82 15 29 44 36 62 14 6 -7 14 -60 17 -117 6 -97 5 -110 -19 -173 -32 -83
-33 -123 -4 -154 22 -23 22 -25 10 -186 -6 -89 -17 -188 -24 -220 -12 -54 -11
-61 10 -100 28 -53 28 -70 -3 -115 -36 -52 -32 -74 24 -136 61 -67 67 -78 76
-141 4 -36 2 -64 -9 -95 -20 -59 -20 -67 4 -73 18 -5 20 -14 20 -93 0 -48 -5
-114 -12 -145 -14 -67 -2 -109 31 -109 28 0 41 -29 41 -90 0 -48 -3 -55 -41
-90 -46 -41 -34 -39 -297 -60 -68 -6 -151 -16 -185 -24 -34 -8 -89 -17 -122
-21 -56 -6 -64 -11 -117 -62 l-57 -56 -88 -7 c-134 -12 -253 -65 -312 -139
-19 -24 -55 -51 -89 -67 -53 -25 -67 -27 -240 -32 -179 -5 -184 -5 -220 -32
-120 -86 -180 -124 -287 -180 -66 -34 -171 -95 -233 -136 -137 -90 -187 -116
-215 -112 -21 3 -22 7 -19 90 2 51 0 88 -5 88 -13 0 -36 -48 -69 -143 -40
-115 -79 -154 -114 -112 -18 22 -3 222 25 325 27 102 49 229 43 256 -3 14 -11
4 -33 -38 -38 -75 -59 -77 -74 -7 -12 56 -27 89 -41 89 -15 0 -43 -110 -91
-360 -11 -58 -25 -116 -31 -130 -6 -14 -14 -54 -17 -90 -5 -56 -9 -65 -26 -65
-17 0 -20 8 -23 52 -2 29 1 61 7 71 5 10 12 65 16 123 3 57 10 133 16 169 20
120 7 112 -68 -41 -67 -134 -115 -210 -185 -292 -21 -25 -29 -29 -39 -20 -10
10 -8 26 6 78 l18 66 -31 32 c-36 38 -52 74 -53 125 -1 80 -9 81 -78 14 -35
-34 -71 -62 -81 -62 -10 0 -25 -12 -35 -26 -23 -35 -81 -60 -102 -42 -13 10
-15 29 -10 99 5 80 4 87 -14 92 -25 7 -25 44 1 77 21 27 26 60 10 60 -12 0
-44 62 -58 111 -10 36 14 210 37 271 16 43 90 117 149 151 72 40 158 121 184
171 12 23 27 78 35 124 7 46 20 97 28 113 9 16 48 56 88 89 83 68 119 122 176
265 21 55 64 163 95 241 l56 141 0 229 c1 278 12 424 37 468 14 23 44 43 116
79 80 39 104 57 142 104 60 73 95 143 95 188 0 31 -3 35 -26 35 -15 0 -58 -16
-95 -35 -66 -34 -122 -45 -133 -26 -8 12 30 43 99 81 122 67 254 188 310 283
84 144 114 273 115 484 0 128 -7 171 -25 143 -13 -21 -46 -10 -63 21 -42 77
-134 180 -148 166 -3 -3 4 -23 15 -46 25 -47 26 -64 7 -80 -11 -9 -22 -8 -50
6 -20 9 -36 20 -36 25 0 4 -7 8 -15 8 -18 0 -18 -8 0 -40 22 -38 19 -107 -4
-120 -26 -13 -47 -13 -63 3 -7 7 -33 28 -58 47 -25 19 -48 39 -52 45 -5 7 -8
7 -8 0 0 -6 43 -65 96 -130 102 -128 166 -229 197 -310 41 -107 2 -215 -122
-347 -73 -77 -141 -125 -162 -112 -6 3 -15 17 -20 31 l-10 26 -33 -39 c-28
-32 -37 -37 -52 -28 -10 6 -23 26 -29 44 -19 57 -32 46 -39 -32 -14 -136 -66
-213 -165 -242 -62 -18 -212 -22 -242 -6 -30 17 -50 66 -56 141 -6 72 -17 94
-28 59 -9 -28 -40 -43 -64 -31 -21 12 -58 69 -67 106 -3 13 -12 29 -20 36 -17
14 -17 1 -5 -76 5 -28 5 -60 0 -74 -9 -21 -14 -23 -62 -19 -154 14 -283 154
-295 319 -6 91 10 151 69 248 27 45 49 86 49 92 0 14 -16 11 -30 -7 -23 -26
-62 -13 -75 25 l-11 35 -17 -24 c-9 -14 -17 -33 -17 -43 0 -24 -33 -88 -58
-110 -28 -26 -73 -19 -91 14 -13 24 -13 35 7 114 11 48 35 125 53 171 18 47
28 88 24 92 -4 4 -10 2 -12 -5 -2 -6 -20 -32 -38 -56 -126 -165 -166 -565 -70
-691 28 -37 116 -100 185 -133 98 -46 137 -63 175 -75 25 -8 41 -20 43 -32 4
-17 0 -18 -39 -11 -24 4 -69 8 -99 9 -45 1 -55 -2 -58 -17 -5 -26 33 -99 80
-152 67 -76 127 -105 246 -121 64 -8 98 -33 113 -82 9 -31 7 -46 -11 -95 -27
-71 -99 -169 -158 -214 l-44 -33 -192 0 c-204 0 -279 -12 -389 -60 -103 -46
-183 -60 -347 -59 -85 0 -185 4 -222 9 -255 37 -454 68 -548 87 -106 20 -324
23 -400 5 -30 -8 -102 -25 -160 -39 -58 -14 -130 -33 -160 -43 -109 -35 -206
-60 -275 -69 -60 -9 -74 -15 -98 -41 -27 -30 -27 -33 -13 -53 51 -71 49 -59
27 -149 -18 -73 -57 -255 -81 -373 -5 -22 -21 -69 -36 -105 -68 -158 -117
-214 -262 -298 -88 -52 -95 -66 -151 -262 -62 -221 -81 -292 -91 -331 -26
-100 -80 -182 -137 -205 -18 -8 -56 -14 -85 -14 -29 -1 -100 -9 -158 -19 -112
-19 -150 -15 -150 17 0 10 9 27 20 37 25 23 25 31 1 62 -17 20 -18 28 -8 50
10 22 8 28 -12 44 -21 17 -35 19 -130 13 -121 -8 -151 1 -151 42 0 24 9 31 65
49 19 6 19 7 -4 26 -29 24 -57 24 -107 2 -32 -14 -69 -17 -214 -16 -187 1
-225 7 -247 40 -13 19 -12 23 8 42 13 12 35 21 49 21 14 0 35 7 46 15 10 8 36
15 56 15 20 0 40 5 43 10 3 6 24 10 46 10 46 0 59 18 35 52 -9 12 -16 35 -16
49 0 38 39 49 174 49 121 0 130 4 193 68 19 19 41 32 57 32 35 0 40 15 23 63
-36 102 -40 126 -29 151 6 14 21 26 34 28 17 2 24 11 26 33 6 49 17 55 83 48
50 -5 60 -3 65 11 9 25 -16 46 -67 57 -61 14 -91 35 -87 62 3 19 9 22 44 22
24 0 50 7 60 16 11 9 27 19 37 22 10 4 17 13 14 20 -7 22 -390 8 -498 -19
-106 -26 -169 -11 -169 42 0 56 15 66 98 64 84 -2 152 10 178 31 10 8 33 15
53 15 55 2 144 32 161 54 9 12 30 20 55 22 37 3 40 5 40 33 0 35 -8 37 -192
54 -65 6 -126 17 -144 27 -29 15 -34 15 -71 -2 -57 -26 -126 -23 -150 6 -24
29 -8 50 38 50 40 0 42 7 13 44 l-22 28 23 48 c15 32 34 54 56 66 18 10 43 31
54 46 12 16 30 28 43 28 24 0 67 26 67 40 0 26 -145 21 -345 -10 -93 -15 -143
-4 -188 40 -39 40 -45 65 -24 94 10 13 18 15 37 8 40 -15 45 -14 50 9 5 19 13
22 64 24 56 1 86 -11 86 -36 0 -17 32 -9 63 17 29 24 36 26 111 22 45 -3 88
-6 96 -9 12 -3 14 6 12 47 -5 77 31 92 127 53 32 -14 34 -13 60 19 16 18 37
32 50 32 25 0 74 45 68 63 -6 19 -52 20 -113 2 -47 -13 -67 -14 -137 -4 -132
18 -243 14 -312 -11 -84 -31 -111 -34 -146 -20 -43 18 -84 15 -124 -10 -31
-19 -40 -20 -92 -11 -33 6 -63 19 -70 28 -14 18 -18 168 -7 211 8 27 35 29 52
2 11 -19 23 -20 158 -20 l145 0 -6 55 c-8 63 9 140 32 149 17 7 42 -5 67 -33
20 -22 51 -28 61 -11 3 6 19 10 36 10 18 0 29 5 29 14 0 8 9 24 19 37 l19 24
46 -22 46 -23 21 21 21 21 -43 39 c-48 44 -44 62 16 73 40 8 44 23 15 56 -11
13 -20 26 -20 30 0 16 28 30 61 30 21 0 41 5 44 11 8 13 -98 119 -119 119 -9
0 -23 -14 -31 -30 -9 -17 -27 -35 -40 -40 -14 -5 -26 -20 -30 -39 -9 -40 -37
-55 -90 -48 -109 15 -130 62 -45 98 57 25 76 49 60 78 -13 26 -5 46 26 59 39
18 32 54 -16 81 -51 28 -55 35 -55 101 l0 55 -46 3 c-31 2 -67 -5 -115 -24
-97 -37 -125 -40 -154 -16 -19 16 -26 33 -33 88 -17 146 -18 141 48 161 27 8
30 12 27 45 -4 42 0 46 86 67 76 20 104 47 76 75 -11 12 -25 15 -45 11 -22 -5
-33 -1 -50 19 -20 24 -24 24 -50 11 -39 -21 -83 -19 -132 6 -111 57 -124 86
-50 114 70 26 133 80 133 114 0 15 7 36 15 47 8 10 15 34 15 52 0 36 -14 41
-58 18 -16 -8 -56 -24 -91 -36 -61 -20 -63 -20 -94 -2 -18 10 -39 30 -47 45
-14 24 -13 28 12 54 14 15 29 38 33 50 3 13 17 26 31 29 21 5 24 11 20 29 -10
41 2 55 48 55 51 0 80 27 90 80 3 20 16 44 27 54 16 13 18 21 10 29 -8 8 -33
0 -95 -32 -71 -36 -87 -41 -105 -32 -28 15 -27 42 4 71 32 30 32 44 -1 59 -27
12 -28 27 -9 88 6 17 2 22 -17 25 -24 3 -28 27 -13 75 6 17 3 22 -16 25 -33 4
-49 43 -49 120 0 69 -9 83 -42 67 -13 -7 -15 -17 -11 -44 4 -24 0 -46 -12 -68
-16 -31 -16 -35 -1 -65 9 -17 16 -41 16 -53 0 -19 -4 -21 -35 -16 -34 6 -35 5
-35 -27 0 -25 -6 -35 -25 -44 -29 -14 -25 -30 19 -71 35 -33 33 -68 -5 -115
l-32 -38 11 -89 c6 -49 14 -94 17 -99 3 -6 21 -10 39 -10 39 0 59 -19 54 -52
-2 -16 -18 -31 -52 -48 -49 -24 -50 -27 -67 -95 -28 -109 -28 -108 31 -100 75
10 77 -12 6 -78 -56 -52 -56 -53 -56 -110 0 -77 18 -108 79 -136 49 -23 67
-43 55 -62 -3 -5 -12 -9 -21 -9 -27 0 -82 -31 -88 -51 -3 -10 1 -47 9 -81 8
-35 16 -74 18 -88 3 -22 7 -25 40 -22 48 4 80 -13 76 -41 -2 -17 -14 -25 -52
-34 -26 -7 -57 -20 -68 -30 -40 -36 -143 -230 -168 -318 -14 -46 -42 -285 -36
-301 3 -9 20 -14 48 -14 66 0 118 -18 118 -40 0 -22 -51 -76 -81 -85 -11 -4
-30 0 -44 9 -41 27 -45 21 -45 -76 -1 -100 -18 -243 -45 -377 -15 -70 -17
-117 -12 -275 4 -105 12 -222 20 -261 8 -38 24 -119 37 -180 21 -101 21 -119
11 -230 -6 -66 -18 -217 -27 -335 -8 -118 -25 -291 -36 -385 -12 -93 -22 -213
-24 -265 -1 -52 -5 -129 -9 -170 -8 -83 10 -169 45 -213 28 -35 70 -118 70
-136 0 -16 24 -134 41 -201 4 -19 17 -72 28 -116 15 -63 30 -96 63 -140 39
-54 68 -105 81 -144 3 -8 27 -24 53 -34 80 -31 158 -71 230 -118 38 -25 90
-50 116 -56 81 -20 206 -15 302 13 188 55 372 13 502 -112 28 -27 39 -30 120
-37 49 -3 110 -13 135 -22 37 -12 89 -14 260 -11 195 3 219 5 274 26 84 33
204 39 294 16 65 -17 72 -17 113 -2 31 12 74 17 148 17 88 0 116 -5 175 -26
39 -15 104 -30 145 -35 41 -5 100 -18 131 -29 47 -17 81 -20 223 -20 92 0 187
-5 211 -11 39 -10 53 -8 127 17 70 24 98 28 183 27 88 0 110 -4 185 -33 71
-28 103 -34 200 -39 66 -4 140 -15 174 -25 60 -18 60 -18 140 4 45 13 106 38
136 56 201 122 482 119 640 -6 33 -26 46 -30 103 -30 72 0 168 -27 233 -65 39
-23 53 -25 163 -25 127 0 158 -7 257 -57 l50 -26 70 40 c38 22 74 42 79 44 6
2 40 21 76 42 155 88 311 111 451 67 47 -15 91 -20 175 -20 98 0 117 3 160 24
107 54 129 58 323 63 132 3 196 8 225 19 24 10 82 17 151 19 111 3 113 4 204
49 135 68 181 78 313 74 97 -3 121 -7 177 -32 81 -36 104 -36 210 3 71 26 100
31 176 31 58 0 130 9 200 24 98 21 134 24 361 25 274 1 321 -7 419 -64 34 -20
56 -25 112 -25 109 0 196 -36 376 -157 l79 -53 101 0 101 0 110 61 c242 134
283 149 420 149 75 0 115 -5 158 -20 52 -18 82 -20 349 -20 161 0 298 4 303 8
6 4 34 39 62 77 29 39 77 90 107 113 108 86 169 160 224 274 29 58 52 118 52
132 0 29 38 143 64 191 9 17 16 39 16 50 0 11 11 55 25 98 21 65 25 98 25 195
0 132 19 208 71 284 26 38 29 52 29 123 1 98 -35 683 -54 892 -16 170 -28 206
-68 211 -30 4 -88 65 -88 94 0 10 19 28 46 44 33 20 43 31 38 43 -14 36 -15
48 0 76 11 21 12 32 4 42 -18 22 -32 15 -61 -33 -38 -63 -60 -57 -67 16 -3 30
-18 81 -33 113 -33 69 -51 72 -125 26 -83 -51 -115 -23 -87 75 22 76 52 117
100 133 67 23 73 52 14 78 -31 14 -46 16 -67 9 -34 -13 -108 10 -122 36 -8 15
-5 22 16 37 75 50 103 105 69 133 -11 9 -22 9 -50 0 -32 -10 -39 -10 -57 6
-51 47 -44 73 46 170 72 77 75 104 6 69 -30 -15 -59 -11 -61 9 -1 6 -2 25 -4
41 -1 17 -15 62 -30 100 -15 39 -30 85 -32 103 -7 42 -21 50 -28 15 -3 -15
-10 -49 -16 -75 -6 -26 -9 -69 -7 -95 l3 -47 -39 -8 c-78 -16 -84 -39 -25 -94
23 -22 53 -49 65 -61 29 -27 31 -73 5 -97 -15 -14 -29 -16 -59 -11 -45 7 -57
-3 -48 -41 5 -17 20 -31 50 -44 50 -21 60 -32 51 -59 -9 -29 -66 -51 -134 -51
-53 0 -61 -2 -61 -19 0 -25 65 -72 146 -107 49 -21 66 -33 71 -52 8 -32 -22
-58 -84 -73 -24 -6 -46 -16 -49 -21 -10 -16 38 -58 78 -69 48 -13 59 -36 29
-61 -34 -27 -66 -22 -110 17 -21 19 -41 35 -45 35 -3 0 -17 -18 -31 -40 -17
-27 -25 -54 -25 -86 0 -40 5 -50 35 -77 21 -18 35 -40 35 -54 0 -20 -5 -23
-36 -23 -40 0 -63 10 -115 51 -20 16 -40 29 -43 29 -16 0 -3 -75 23 -132 31
-69 45 -78 161 -108 25 -7 59 -20 76 -31 22 -13 50 -19 91 -19 46 0 67 -5 87
-21 36 -28 33 -73 -7 -103 -27 -20 -40 -21 -300 -21 -150 0 -296 4 -324 8 -47
8 -53 7 -53 -9 0 -10 -10 -28 -22 -41 -19 -21 -20 -27 -10 -65 43 -168 52
-212 58 -278 3 -41 17 -120 31 -175 14 -55 29 -118 34 -140 23 -91 -19 -115
-55 -32 -13 28 -39 75 -59 102 -19 28 -37 60 -41 72 -11 33 -31 46 -54 34 -16
-8 -25 -6 -47 14 -44 42 -61 8 -29 -59 11 -23 15 -45 10 -70 -7 -37 -32 -70
-46 -61 -16 10 -70 115 -70 137 0 13 -4 29 -9 37 -6 10 -11 4 -15 -20 -4 -19
-13 -61 -21 -94 -8 -33 -17 -77 -20 -97 -5 -29 -10 -38 -26 -38 -28 0 -49 55
-49 127 0 76 -8 103 -30 103 -10 0 -26 7 -34 16 -10 9 -29 14 -48 12 l-33 -3
-7 -74 c-5 -41 -12 -79 -17 -84 -16 -16 -41 1 -52 33 -13 36 -29 39 -29 6 0
-14 -11 -38 -25 -53 l-25 -28 -35 39 c-19 22 -35 45 -35 51 0 17 -27 38 -34
27 -3 -5 -36 -9 -73 -8 l-68 1 -27 80 c-16 47 -29 114 -33 165 -19 273 -28
362 -41 425 -34 163 -54 282 -54 321 0 41 2 44 55 74 30 17 55 36 55 41 0 6
-34 9 -81 7 -78 -3 -81 -2 -106 26 -20 24 -23 35 -17 60 14 58 7 91 -41 189
l-47 99 -3 153 c-4 177 0 188 74 184 23 -2 45 1 50 7 5 5 15 81 22 169 11 143
10 169 -5 244 -10 47 -24 97 -32 112 -20 40 -18 79 4 79 10 0 60 -39 111 -87
51 -49 102 -92 112 -97 24 -11 41 3 69 57 12 23 35 65 51 94 48 85 45 88 -96
123 -49 12 -95 26 -102 32 -18 15 -16 46 5 76 25 37 32 57 42 126 6 41 28 97
73 185 l64 126 6 177 6 178 -31 92 c-17 51 -42 116 -56 143 -14 28 -33 88 -42
135 -10 47 -34 120 -54 163 -21 43 -50 133 -67 199 -45 183 -99 291 -210 421
-86 101 -95 108 -148 123 -116 33 -153 67 -219 204 -17 36 -46 82 -64 103 -33
38 -33 40 -38 165 -7 152 -23 194 -111 284 -87 89 -203 129 -310 109z m-2650
-2360 c25 -25 59 -119 67 -186 6 -45 4 -59 -11 -75 -25 -28 -40 -25 -69 13
-56 73 -91 201 -67 246 15 26 54 28 80 2z m-5781 -414 c18 -38 0 -98 -39 -131
-35 -30 -65 -33 -91 -9 -26 23 -22 39 16 68 19 15 40 42 46 60 17 52 46 57 68
12z m4239 -107 c11 -23 32 -163 36 -235 3 -48 -30 -44 -85 11 -73 72 -84 169
-26 231 27 29 59 26 75 -7z m-4895 -136 c13 -13 -7 -45 -40 -64 -69 -41 -116
6 -49 49 30 20 77 28 89 15z m178 -653 c11 -22 13 -73 4 -120 -9 -42 -43 -42
-78 0 -34 40 -34 83 0 114 32 30 60 32 74 6z m-212 -22 c4 -30 -22 -46 -44
-28 -15 12 -19 41 -7 53 16 16 48 1 51 -25z m9336 -351 c8 -29 24 -91 36 -138
32 -129 54 -189 96 -270 33 -62 39 -85 43 -147 3 -71 5 -76 35 -94 17 -10 48
-19 68 -19 60 0 84 -14 103 -62 56 -138 120 -374 134 -494 6 -50 18 -113 26
-140 24 -78 20 -137 -12 -174 -26 -32 -27 -32 -102 -27 -42 3 -100 10 -129 15
-51 8 -54 7 -73 -19 -18 -25 -26 -28 -112 -34 -80 -6 -102 -4 -166 15 l-73 23
8 61 c5 33 7 86 6 116 -1 30 -4 262 -7 515 -4 370 -8 469 -20 507 -13 42 -13
52 -1 85 24 62 44 153 51 233 12 131 58 155 89 48z m-8932 17 c22 -21 26 -30
21 -60 -3 -20 0 -54 7 -75 10 -30 10 -43 1 -53 -32 -39 -146 -25 -157 18 -10
41 3 70 41 88 34 16 36 19 29 53 -5 26 -3 39 7 45 20 12 21 12 51 -16z m-17
-700 c0 -31 -49 -28 -53 3 -3 20 0 23 25 20 20 -2 28 -8 28 -23z m115 -10 c10
-12 10 -18 0 -31 -18 -21 -64 -14 -68 10 -7 33 45 49 68 21z m11855 -69 c13
-20 14 -29 5 -46 -10 -19 -17 -21 -53 -16 -59 10 -75 27 -53 60 23 36 79 36
101 2z m-865 -235 c13 -26 13 -68 -2 -77 -15 -10 -58 44 -58 74 0 29 44 31 60
3z m-10529 -23 c13 -21 -4 -48 -37 -58 -29 -10 -39 -9 -59 4 -30 20 -23 43 19
62 31 13 66 10 77 -8z m10739 -11 c0 -13 -9 -32 -20 -42 -19 -17 -22 -17 -37
-3 -10 11 -13 25 -9 42 5 21 12 26 36 26 25 0 30 -4 30 -23z m296 0 c23 -20
25 -26 15 -45 -18 -35 -146 -65 -195 -46 -22 8 -20 47 3 75 12 15 34 25 67 30
79 10 82 10 110 -14z m-9103 -146 c72 -28 130 -142 130 -256 1 -121 -42 -213
-138 -305 -66 -62 -95 -109 -95 -154 0 -23 14 -88 31 -146 17 -58 37 -127 45
-155 8 -27 27 -94 44 -149 33 -107 39 -193 16 -202 -8 -3 -28 2 -45 11 -29 14
-48 43 -66 100 -6 20 -7 20 -21 1 -12 -17 -18 -18 -54 -7 -22 6 -54 25 -72 41
-18 17 -38 30 -45 30 -23 0 -44 -32 -41 -65 2 -36 -15 -65 -39 -65 -22 0 -71
56 -78 90 -3 16 -20 47 -36 69 -16 23 -29 50 -29 60 0 23 -25 51 -45 51 -28 0
-26 -21 5 -50 28 -26 30 -31 18 -50 -14 -23 -44 -23 -102 -1 -25 10 -28 15
-24 47 l4 35 -50 -6 c-28 -4 -76 -16 -106 -26 -30 -10 -65 -19 -78 -19 -12 0
-36 -7 -52 -15 -36 -19 -140 -29 -159 -16 -27 18 1 193 63 396 62 206 75 238
123 314 77 119 169 178 388 246 152 48 200 68 300 129 117 72 159 85 208 67z
m9476 -115 c16 -19 3 -45 -25 -52 -43 -11 -74 16 -60 51 7 19 69 20 85 1z
m-8708 -135 c106 -41 166 -51 384 -62 105 -5 224 -14 265 -20 41 -5 117 -9
168 -9 69 1 99 -2 116 -14 39 -25 62 -116 87 -339 12 -105 12 -109 -10 -138
-14 -19 -20 -37 -16 -47 8 -19 22 -127 31 -240 6 -66 4 -76 -15 -96 l-22 -23
28 -54 c15 -30 27 -68 27 -86 0 -35 -28 -73 -54 -73 -22 0 -56 38 -64 72 -4
20 -13 27 -34 30 -21 2 -30 11 -39 38 -17 52 -52 36 -53 -25 -1 -43 -36 -138
-55 -150 -23 -14 -42 14 -50 75 -7 54 -1 98 21 148 17 36 15 63 -3 69 -7 3
-15 -8 -19 -24 -9 -42 -36 -113 -45 -118 -28 -18 -61 33 -98 153 -27 88 -44
91 -71 14 -16 -46 -17 -57 -5 -85 7 -18 17 -60 20 -93 6 -51 4 -63 -11 -78
-17 -18 -18 -18 -31 0 -7 9 -16 39 -19 66 -6 41 -15 58 -60 106 -30 31 -57 65
-60 74 -3 10 -18 18 -37 20 -27 2 -34 9 -43 38 -10 30 -17 35 -45 38 -19 2
-44 13 -56 24 -21 20 -24 20 -41 5 -10 -10 -23 -17 -29 -17 -15 0 -61 63 -69
94 -4 16 -10 24 -15 19 -5 -5 -3 -30 6 -59 11 -37 12 -59 5 -84 -5 -18 -6 -38
-2 -44 4 -6 8 -45 8 -86 1 -41 5 -131 9 -200 3 -69 3 -150 -2 -180 -7 -49 -11
-55 -33 -55 -18 0 -35 14 -64 53 -22 29 -47 52 -57 52 -10 0 -23 9 -29 20 -6
11 -28 28 -48 38 -31 14 -38 23 -40 51 -2 22 -14 44 -33 62 -16 15 -29 34 -29
43 0 31 -15 15 -45 -47 -33 -68 -58 -83 -76 -44 -10 21 -16 25 -44 20 -31 -5
-32 -4 -53 53 -11 33 -28 93 -37 134 -9 41 -23 92 -31 113 -28 75 -16 132 62
294 19 39 65 105 102 148 136 155 192 230 239 322 26 52 56 103 66 113 24 27
59 25 148 -9z m-2031 -686 c19 -23 4 -64 -26 -71 -44 -11 -83 43 -52 74 17 17
63 15 78 -3z m4005 -506 c11 -16 -4 -59 -20 -59 -18 0 -37 34 -29 54 7 18 39
21 49 5z"/>
<path d="M4545 1556 c-8 -69 0 -109 18 -103 22 7 19 167 -3 167 -5 0 -11 -29
-15 -64z"/>
<path d="M4857 1463 c-10 -9 -8 -51 2 -57 10 -7 21 17 21 45 0 19 -11 25 -23
12z"/>
<path d="M4982 1368 c-14 -14 -16 -57 -3 -77 7 -10 11 -1 16 33 8 51 5 62 -13
44z"/>
<path d="M9014 2597 c-27 -18 -63 -43 -80 -56 l-29 -24 27 7 c52 12 73 24 118
64 53 49 35 53 -36 9z"/>
<path d="M6362 1720 c0 -19 2 -27 5 -17 2 9 2 25 0 35 -3 9 -5 1 -5 -18z"/>
</g>
</svg>
