<?xml version="1.0" standalone="no"?>
<!DOCTYPE svg PUBLIC "-//W3C//DTD SVG 20010904//EN"
 "http://www.w3.org/TR/2001/REC-SVG-20010904/DTD/svg10.dtd">
<svg version="1.0" xmlns="http://www.w3.org/2000/svg"
 width="1350.000000pt" height="1128.000000pt" viewBox="0 0 1350.000000 1128.000000"
 preserveAspectRatio="xMidYMid meet">
<metadata>
Created by potrace 1.10, written by Peter Selinger 2001-2011
</metadata>
<g transform="translate(0.000000,1128.000000) scale(0.100000,-0.100000)"
fill="#000000" stroke="none">
<path d="M11265 10970 c3 -5 12 -10 20 -10 8 0 17 5 20 10 4 6 -5 10 -20 10
-15 0 -24 -4 -20 -10z"/>
<path d="M11394 10969 c-3 -5 56 -9 130 -9 84 0 137 4 141 11 5 7 -36 9 -129
8 -75 -1 -139 -6 -142 -10z"/>
<path d="M11173 10943 c9 -2 25 -2 35 0 9 3 1 5 -18 5 -19 0 -27 -2 -17 -5z"/>
<path d="M11260 10940 c-11 -7 -6 -10 20 -10 26 0 31 3 20 10 -8 5 -17 10 -20
10 -3 0 -12 -5 -20 -10z"/>
<path d="M11657 10938 c-7 -4 11 -8 40 -8 28 0 55 4 58 10 7 11 -80 10 -98 -2z"/>
<path d="M11105 10919 c-10 -15 3 -25 16 -12 7 7 7 13 1 17 -6 3 -14 1 -17 -5z"/>
<path d="M11783 10918 c-44 -12 -41 -17 7 -16 22 0 40 4 40 9 0 14 -14 16 -47
7z"/>
<path d="M11820 10880 c-12 -8 -10 -10 10 -10 14 0 32 5 40 10 12 8 10 10 -10
10 -14 0 -32 -5 -40 -10z"/>
<path d="M11920 10825 c-10 -12 -10 -15 3 -15 19 0 31 16 18 24 -5 3 -14 -1
-21 -9z"/>
<path d="M11975 10761 c-6 -11 9 -23 19 -14 9 9 7 23 -3 23 -6 0 -12 -4 -16
-9z"/>
<path d="M10750 10616 c0 -74 -3 -142 -7 -152 -6 -16 -4 -16 19 2 15 11 22 22
15 26 -6 4 -10 53 -10 127 0 67 -3 124 -8 127 -5 3 -9 -54 -9 -130z"/>
<path d="M12047 10714 c-4 -4 -7 -14 -7 -23 0 -11 3 -12 11 -4 6 6 10 16 7 23
-2 6 -7 8 -11 4z"/>
<path d="M10805 10699 c18 -5 33 -5 39 1 7 7 -4 10 -29 9 -40 -1 -40 -1 -10
-10z"/>
<path d="M12070 10660 c0 -11 5 -20 10 -20 6 0 10 9 10 20 0 11 -4 20 -10 20
-5 0 -10 -9 -10 -20z"/>
<path d="M12100 10615 c0 -14 5 -25 10 -25 6 0 10 11 10 25 0 14 -4 25 -10 25
-5 0 -10 -11 -10 -25z"/>
<path d="M12130 10560 c0 -16 5 -30 10 -30 6 0 10 14 10 30 0 17 -4 30 -10 30
-5 0 -10 -13 -10 -30z"/>
<path d="M11446 10511 c-5 -7 -3 -18 3 -24 14 -14 20 -6 11 17 -5 15 -9 16
-14 7z"/>
<path d="M12160 10486 c0 -19 5 -38 10 -41 6 -4 10 10 10 34 0 23 -4 41 -10
41 -5 0 -10 -15 -10 -34z"/>
<path d="M11330 10479 c-9 -16 -14 -18 -26 -8 -11 9 -14 7 -14 -10 0 -26 12
-27 32 -3 19 22 31 42 24 42 -3 0 -10 -9 -16 -21z"/>
<path d="M12192 10240 c1 -93 5 -167 9 -164 12 7 12 334 0 334 -5 0 -9 -76 -9
-170z"/>
<path d="M11435 10340 c3 -5 13 -10 21 -10 8 0 14 5 14 10 0 6 -9 10 -21 10
-11 0 -17 -4 -14 -10z"/>
<path d="M11950 10335 c0 -9 6 -12 15 -9 8 4 15 10 15 15 0 5 -7 9 -15 9 -8 0
-15 -7 -15 -15z"/>
<path d="M11135 10319 c-4 -6 -5 -13 -2 -16 7 -7 27 6 27 18 0 12 -17 12 -25
-2z"/>
<path d="M11510 10310 c0 -5 6 -10 14 -10 8 0 18 5 21 10 3 6 -3 10 -14 10
-12 0 -21 -4 -21 -10z"/>
<path d="M11607 10248 c12 -13 20 -15 34 -7 26 14 24 16 -16 21 -32 4 -33 3
-18 -14z"/>
<path d="M11897 10254 c-4 -4 -7 -14 -7 -23 0 -11 3 -12 11 -4 6 6 10 16 7 23
-2 6 -7 8 -11 4z"/>
<path d="M11758 10233 c-10 -2 -18 -13 -18 -24 0 -19 1 -19 25 -2 13 10 25 21
25 26 0 7 -4 7 -32 0z"/>
<path d="M10719 10228 c-9 -31 -7 -48 6 -48 9 0 15 9 15 25 0 14 -4 25 -10 25
-5 0 -10 -1 -11 -2z"/>
<path d="M11130 10220 c0 -5 9 -10 20 -10 11 0 20 5 20 10 0 6 -9 10 -20 10
-11 0 -20 -4 -20 -10z"/>
<path d="M11867 10203 c-11 -10 -8 -53 3 -53 6 0 10 14 10 30 0 31 -2 35 -13
23z"/>
<path d="M11387 10183 c-4 -3 -7 -20 -7 -38 0 -17 -5 -36 -12 -43 -9 -9 -6
-12 14 -12 25 0 25 2 20 48 -5 53 -6 55 -15 45z"/>
<path d="M11707 10173 c-4 -3 -2 -12 4 -20 9 -10 7 -13 -9 -11 -11 2 -22 -1
-24 -7 -2 -5 11 -11 28 -13 29 -3 30 -1 26 27 -4 30 -12 38 -25 24z"/>
<path d="M11317 10148 c-7 -25 8 -48 21 -32 5 5 3 19 -3 32 l-12 23 -6 -23z"/>
<path d="M10744 10019 c-10 -17 13 -36 27 -22 12 12 4 33 -11 33 -5 0 -12 -5
-16 -11z"/>
<path d="M12168 10014 c-5 -4 -8 -19 -8 -33 0 -18 3 -22 11 -14 6 6 9 21 7 33
-1 12 -6 18 -10 14z"/>
<path d="M12130 9920 c0 -11 5 -20 10 -20 6 0 10 9 10 20 0 11 -4 20 -10 20
-5 0 -10 -9 -10 -20z"/>
<path d="M12100 9870 c-9 -16 -8 -20 5 -20 8 0 15 9 15 20 0 11 -2 20 -5 20
-2 0 -9 -9 -15 -20z"/>
<path d="M10832 9843 c-10 -4 -10 -8 -1 -19 9 -11 15 -11 25 -3 23 19 6 34
-24 22z"/>
<path d="M12000 9743 c0 -5 5 -15 10 -23 9 -13 11 -13 19 0 5 8 7 18 5 22 -6
10 -34 11 -34 1z"/>
<path d="M10954 9689 c-10 -17 13 -36 27 -22 12 12 4 33 -11 33 -5 0 -12 -5
-16 -11z"/>
<path d="M11860 9605 c0 -14 5 -25 10 -25 6 0 10 11 10 25 0 14 -4 25 -10 25
-5 0 -10 -11 -10 -25z"/>
<path d="M11110 9575 c0 -14 5 -25 10 -25 6 0 10 11 10 25 0 14 -4 25 -10 25
-5 0 -10 -11 -10 -25z"/>
<path d="M11674 9539 c-10 -17 13 -36 27 -22 12 12 4 33 -11 33 -5 0 -12 -5
-16 -11z"/>
<path d="M11286 9511 c-3 -5 1 -14 8 -20 16 -13 32 2 21 19 -8 12 -22 13 -29
1z"/>
<path d="M11492 9498 c6 -18 28 -21 28 -4 0 9 -7 16 -16 16 -9 0 -14 -5 -12
-12z"/>
<path d="M10461 9007 c-13 -16 -1 -130 18 -165 6 -12 11 -30 11 -41 0 -11 6
-35 14 -53 16 -40 35 -93 46 -133 5 -16 20 -61 33 -100 13 -38 32 -97 42 -130
9 -33 23 -80 31 -105 9 -29 14 -90 14 -170 0 -107 -3 -130 -20 -158 -17 -27
-23 -31 -38 -21 -10 6 -55 88 -101 181 -67 139 -86 188 -102 267 -31 156 -68
252 -121 309 -19 19 -23 20 -31 7 -4 -8 -5 -20 -2 -26 11 -17 55 -198 55 -224
0 -14 -3 -25 -8 -25 -4 0 -66 58 -137 128 -162 161 -290 240 -323 200 -8 -10
5 -32 55 -93 36 -44 80 -96 99 -117 40 -44 164 -193 256 -307 78 -98 130 -197
152 -294 19 -82 19 -77 2 -77 -28 0 -268 282 -397 465 -219 313 -299 450 -299
515 0 34 -32 124 -45 128 -6 1 -10 -33 -9 -91 1 -113 26 -214 89 -366 17 -41
23 -67 17 -73 -22 -22 -159 47 -232 116 -76 73 -111 67 -70 -12 29 -55 97
-117 219 -197 163 -107 257 -215 496 -565 107 -158 135 -221 135 -307 0 -82
-23 -160 -73 -253 -76 -139 -113 -161 -147 -86 -11 25 -20 52 -20 61 0 21 -26
125 -78 305 -23 80 -72 230 -86 265 -46 108 -101 207 -140 247 -41 44 -89 69
-103 54 -10 -10 40 -192 66 -244 20 -38 40 -102 56 -177 10 -44 22 -93 27
-110 5 -16 12 -76 15 -132 5 -88 4 -103 -9 -103 -24 0 -56 30 -93 90 -35 57
-116 214 -134 263 -6 15 -17 27 -26 27 -17 0 -19 -64 -5 -160 15 -109 83 -249
152 -318 84 -82 148 -196 141 -252 -21 -186 -56 -264 -162 -370 -81 -81 -166
-144 -182 -135 -13 8 -11 99 2 128 9 19 8 30 -5 48 -8 14 -20 49 -26 79 -12
57 -33 123 -56 177 -8 17 -14 36 -14 41 0 16 -41 82 -50 82 -12 0 -20 -28 -20
-71 0 -39 0 -39 -38 -39 -25 0 -45 7 -55 18 -23 25 -21 31 8 42 33 13 32 20
-10 49 -34 23 -38 41 -9 41 8 0 20 11 26 25 10 23 8 29 -23 61 -26 27 -35 45
-39 85 -6 59 -22 69 -31 17 -5 -32 -31 -71 -84 -129 -17 -18 -10 -29 17 -29
14 0 18 -8 18 -33 0 -41 -15 -57 -55 -57 -40 0 -74 -24 -91 -67 -19 -43 -12
-53 37 -53 46 0 49 -11 12 -38 -61 -42 -113 -38 -113 10 0 16 -5 38 -10 49 -9
16 -15 17 -31 9 -11 -6 -25 -21 -30 -34 -8 -17 -19 -22 -47 -22 -20 0 -71 -2
-113 -4 -54 -3 -82 0 -93 9 -24 20 -19 31 13 31 15 0 43 5 62 11 37 13 82 49
73 58 -3 3 -42 6 -87 7 -96 1 -145 22 -202 85 -41 45 -45 65 -12 54 73 -23
172 -36 194 -26 13 6 37 11 53 11 39 0 40 27 3 35 -125 27 -161 47 -104 60 37
8 59 31 43 47 -6 6 -39 14 -74 17 -107 12 -163 56 -116 93 13 10 29 18 36 18
6 0 12 6 12 14 0 8 -6 17 -12 20 -47 23 -73 45 -76 64 -3 18 2 22 24 22 27 0
53 23 54 48 0 7 -17 29 -39 50 -51 49 -58 65 -66 150 -10 100 -23 97 -40 -10
-4 -27 -24 -59 -70 -112 -36 -40 -65 -78 -65 -85 0 -14 15 -14 41 0 11 5 27 9
36 7 13 -2 11 -9 -11 -34 -33 -40 -33 -44 4 -44 17 0 30 -5 30 -12 -1 -20 -72
-48 -123 -48 -49 0 -66 -12 -48 -34 14 -17 -5 -26 -52 -26 -18 0 -39 -4 -46
-9 -12 -8 -10 -12 12 -22 21 -9 24 -15 16 -25 -20 -24 -2 -42 48 -49 26 -4 54
-8 60 -10 25 -8 0 -33 -62 -64 -54 -26 -76 -31 -136 -31 -52 0 -70 -3 -67 -12
3 -7 13 -15 24 -17 10 -2 30 -12 43 -22 20 -16 41 -19 129 -19 104 0 105 0 86
-19 -47 -43 -111 -61 -223 -61 -113 0 -135 -6 -129 -36 2 -14 16 -21 57 -27
47 -8 54 -12 66 -42 16 -38 50 -47 138 -38 68 7 84 -10 41 -44 -16 -12 -36
-23 -44 -23 -9 0 -20 -4 -25 -9 -6 -5 -30 -13 -54 -18 -25 -4 -46 -14 -49 -21
-6 -20 190 -10 251 13 26 10 51 15 54 11 21 -21 -62 -91 -161 -134 -40 -18
-68 -22 -155 -22 -131 0 -146 -8 -103 -48 17 -16 28 -32 25 -36 -3 -3 -44 -6
-89 -6 -46 0 -85 -4 -89 -9 -11 -19 34 -31 110 -31 l75 0 -16 -24 c-8 -14 -25
-26 -37 -28 -41 -6 -17 -23 31 -22 48 1 114 17 168 39 37 16 72 2 41 -16 -14
-8 -16 -14 -7 -24 7 -8 9 -18 6 -23 -8 -13 -179 -96 -244 -118 -42 -15 -52
-23 -50 -39 3 -18 10 -20 83 -18 l80 3 -35 -19 c-86 -48 -108 -54 -187 -59
-62 -3 -83 -8 -83 -18 0 -7 12 -16 28 -20 78 -17 101 -25 112 -39 16 -20 61
-19 105 2 25 12 38 14 46 6 12 -12 -68 -68 -136 -95 -51 -21 -192 -32 -228
-19 l-27 11 0 198 c0 120 4 212 11 231 13 37 1 75 -41 131 -54 73 -63 100 -57
180 3 41 15 107 26 145 61 202 64 232 33 355 -15 58 -76 150 -128 192 -43 35
-161 88 -197 88 -12 0 -57 8 -99 17 -69 14 -92 15 -195 4 -276 -30 -310 -28
-413 24 -14 7 -37 15 -51 18 -53 13 -106 88 -94 134 7 29 66 66 130 82 48 12
85 35 85 53 0 5 9 21 21 37 18 24 19 33 10 67 -9 35 -16 41 -63 58 -93 32
-116 75 -55 101 82 35 217 245 156 245 -5 0 -37 -13 -72 -29 -34 -16 -82 -37
-107 -47 -25 -10 -62 -29 -83 -41 -43 -27 -57 -23 -57 15 0 27 48 72 203 192
25 19 59 56 77 82 31 45 32 49 25 118 -8 78 -18 85 -21 16 -3 -92 -34 -84 -34
8 0 65 -21 126 -58 175 -14 17 -21 20 -27 12 -4 -7 0 -20 9 -30 9 -10 16 -25
16 -35 0 -9 7 -31 16 -48 20 -39 14 -103 -12 -143 l-19 -29 -9 54 c-5 35 -18
68 -36 90 -22 29 -28 48 -32 105 -3 39 -13 86 -22 105 -25 52 -70 128 -84 142
-18 18 -16 -36 3 -73 37 -71 43 -86 49 -116 9 -40 -3 -103 -20 -110 -31 -12
-64 11 -175 122 -114 112 -159 141 -143 93 4 -13 32 -50 62 -83 78 -84 132
-154 132 -171 0 -20 -34 -17 -52 4 -9 9 -26 36 -38 59 -22 44 -43 49 -38 10 3
-21 0 -22 -87 -22 -77 1 -98 5 -146 28 -105 51 -135 29 -39 -27 47 -28 84 -40
168 -54 158 -28 165 -35 166 -167 1 -66 -1 -74 -34 -115 -90 -117 -105 -119
-205 -28 -89 82 -125 132 -125 175 0 23 -5 33 -15 33 -12 0 -15 -13 -15 -58 0
-62 13 -88 90 -182 20 -25 35 -51 33 -57 -6 -16 -149 -18 -190 -2 -35 13 -83
58 -83 77 0 8 -7 35 -15 61 -20 63 -45 195 -45 234 0 18 6 55 14 82 7 28 10
59 6 70 -5 16 -10 11 -27 -26 -67 -147 -69 -209 -11 -397 5 -19 7 -36 4 -40
-20 -20 -156 104 -208 190 -44 71 -8 219 78 320 30 35 54 69 54 76 0 45 -130
-53 -150 -112 -14 -44 -38 -54 -46 -19 -4 14 -4 75 -1 134 3 63 2 109 -3 109
-30 0 -60 -130 -60 -261 0 -45 -3 -59 -15 -59 -8 0 -17 10 -19 23 -3 12 -7 33
-10 47 -6 31 -32 67 -41 58 -9 -9 13 -139 34 -203 26 -79 74 -155 143 -225 49
-51 87 -77 173 -121 61 -31 133 -68 160 -83 28 -14 61 -28 75 -30 20 -4 29
-16 44 -58 24 -70 54 -108 114 -147 32 -20 52 -41 57 -58 11 -45 -6 -174 -32
-248 -61 -173 -63 -188 -63 -393 0 -145 4 -211 16 -260 33 -135 74 -223 124
-263 38 -31 55 -73 70 -179 5 -30 14 -85 21 -122 11 -58 11 -80 -3 -153 -13
-66 -15 -98 -7 -147 11 -73 -8 -211 -35 -253 -16 -24 -20 -25 -134 -25 -136 0
-167 11 -219 79 -43 55 -42 65 3 56 32 -6 36 -4 32 12 -4 15 2 18 43 21 26 1
50 -2 54 -8 3 -5 31 -10 61 -10 63 0 69 15 14 35 -40 14 -70 28 -120 56 -34
19 -35 19 -8 19 15 0 30 -4 33 -10 8 -13 72 -13 80 0 4 6 -19 21 -52 36 -32
13 -82 37 -111 52 -92 47 -85 58 27 41 62 -10 86 -10 107 -1 33 16 27 34 -17
45 l-34 9 28 14 c34 18 29 30 -17 37 -43 7 -135 50 -168 79 -14 13 -29 38 -33
57 -7 33 -7 34 21 26 42 -11 83 -9 140 6 56 15 84 34 84 56 0 11 -13 12 -62 7
-41 -4 -73 -2 -93 7 l-30 12 48 8 c83 13 101 49 25 49 -58 0 -112 18 -147 51
-34 31 -42 55 -13 44 27 -11 137 -18 167 -11 34 9 25 21 -37 48 -50 21 -51 22
-25 31 43 14 34 37 -14 37 -40 0 -104 23 -115 42 -4 5 6 22 21 38 l27 28 -24
7 c-39 13 -63 55 -30 55 21 0 42 18 42 37 0 7 -16 27 -35 44 -32 30 -35 36
-35 91 0 68 -21 77 -31 14 -5 -32 -35 -76 -78 -113 -19 -17 -6 -43 20 -43 21
0 21 -1 5 -19 -16 -17 -15 -19 6 -34 25 -17 26 -16 -48 -36 -22 -6 -51 -20
-64 -31 -13 -11 -33 -20 -45 -20 -13 0 -28 -7 -35 -15 -10 -12 -9 -16 6 -23
45 -18 92 -54 88 -66 -7 -17 -92 -46 -136 -46 -21 0 -38 -4 -38 -9 0 -20 52
-41 102 -41 57 0 90 -13 73 -28 -19 -17 -93 -32 -156 -32 -97 0 -123 -30 -39
-44 35 -6 41 -10 38 -29 -4 -28 -58 -36 -93 -13 -14 9 -29 16 -36 16 -13 0
-87 55 -112 84 -28 33 -49 88 -37 96 6 4 35 3 63 -2 105 -19 293 46 274 95 -5
13 -12 14 -39 6 -53 -15 -174 -11 -192 6 -8 8 -21 15 -30 15 -8 0 -18 5 -22
11 -5 9 9 10 52 6 49 -5 67 -3 104 16 70 34 60 50 -35 52 -59 1 -91 8 -120 23
-48 25 -105 73 -105 89 0 6 -6 13 -12 16 -7 2 -10 8 -6 12 4 4 20 3 35 -3 15
-6 60 -16 98 -22 57 -10 79 -10 118 2 27 8 48 18 49 23 0 9 -74 37 -134 50
-16 3 -28 9 -28 14 0 5 12 11 28 14 15 3 36 12 47 21 30 22 8 37 -72 46 -74 8
-98 17 -126 47 -16 19 -16 20 0 35 10 9 28 21 41 27 31 17 28 25 -22 49 -62
31 -74 72 -22 72 14 0 30 10 40 25 17 26 16 27 -33 81 -48 53 -51 59 -52 112
-2 110 -28 141 -42 50 -8 -57 -31 -96 -101 -173 -47 -52 -48 -73 -2 -55 53 20
63 4 21 -34 -33 -31 -32 -36 10 -36 19 0 35 -4 35 -9 0 -17 -80 -51 -119 -51
-56 0 -75 -9 -60 -27 17 -20 1 -31 -50 -35 -48 -3 -66 -22 -30 -31 19 -5 20
-8 9 -22 -20 -24 6 -44 69 -52 67 -8 65 -25 -9 -67 -44 -25 -70 -32 -133 -36
-72 -5 -105 -20 -61 -29 10 -2 30 -12 43 -22 20 -16 41 -19 127 -19 57 0 104
-3 104 -6 0 -11 -45 -43 -60 -44 -8 0 -24 -7 -34 -15 -15 -11 -50 -15 -138
-15 -107 0 -118 -2 -128 -20 -15 -29 -7 -37 47 -43 50 -5 77 -28 68 -58 -8
-24 32 -31 126 -23 66 5 79 4 79 -8 0 -31 -75 -72 -155 -87 -22 -3 -38 -11
-35 -16 6 -12 172 -12 218 -1 30 8 32 7 32 -16 0 -36 -18 -54 -87 -88 -51 -25
-74 -30 -131 -30 -97 0 -162 -10 -162 -26 0 -7 12 -21 28 -32 l27 -21 -28 -10
c-39 -15 -52 -14 -69 7 -12 14 -13 44 -6 192 13 259 14 308 7 314 -11 11 -38
-5 -45 -27 -3 -12 -12 -29 -19 -37 -7 -8 -17 -31 -24 -50 -6 -19 -18 -45 -27
-58 -12 -19 -18 -21 -30 -11 -8 6 -14 19 -14 29 0 12 -13 22 -42 32 -38 11
-43 16 -43 43 0 17 -4 36 -9 43 -5 8 -2 20 7 30 14 15 12 21 -19 56 -20 23
-38 36 -42 30 -40 -45 -51 -68 -41 -80 16 -19 1 -53 -26 -60 -13 -3 -33 -16
-45 -29 l-22 -23 27 -14 c25 -13 25 -15 8 -30 -29 -25 -59 -30 -76 -13 -18 18
-32 129 -22 176 12 56 39 99 119 192 94 108 136 185 156 282 4 22 14 65 21 95
7 33 9 71 5 95 l-8 39 -19 -24 c-10 -14 -42 -72 -71 -130 -74 -148 -126 -222
-166 -234 -21 -7 -22 -4 -22 58 0 35 5 88 11 118 20 100 50 219 68 271 10 29
34 100 54 160 54 158 49 189 -23 141 -47 -31 -98 -98 -130 -169 -13 -27 -36
-78 -51 -112 -16 -35 -29 -69 -29 -77 0 -9 -6 -30 -14 -48 -18 -41 -63 -195
-89 -303 -8 -33 -20 -80 -27 -105 -6 -25 -14 -59 -17 -75 -2 -17 -13 -42 -23
-55 -16 -21 -21 -23 -44 -12 -42 19 -125 165 -151 267 -27 103 -16 193 34 276
12 19 24 41 28 49 4 8 26 43 50 77 24 35 62 91 86 126 23 34 50 71 59 82 9 11
52 65 96 120 116 146 136 165 252 241 171 111 276 230 234 264 -9 8 -29 -4
-80 -50 -64 -58 -94 -76 -174 -106 -27 -10 -36 -10 -42 -1 -11 18 -10 27 12
76 11 24 20 48 20 53 0 6 6 24 14 41 50 119 74 342 36 342 -9 0 -17 -14 -21
-35 -24 -133 -59 -212 -166 -373 -40 -61 -73 -112 -73 -115 0 -2 -55 -77 -122
-165 -134 -178 -339 -418 -350 -410 -21 12 8 147 48 225 27 53 96 150 137 195
21 22 48 54 60 70 12 17 29 37 37 45 8 8 34 37 57 64 237 280 258 313 188 300
-63 -12 -158 -79 -286 -203 -70 -68 -132 -123 -138 -123 -16 0 -14 18 14 126
28 107 31 144 12 144 -14 0 -64 -82 -89 -145 -22 -55 -46 -151 -52 -208 -3
-26 -21 -80 -39 -120 -19 -39 -38 -83 -42 -97 -4 -14 -12 -31 -18 -39 -14 -17
-29 -43 -62 -109 -34 -69 -59 -69 -87 3 -17 41 -19 65 -15 140 3 50 10 104 15
120 6 17 15 50 22 75 6 25 15 63 21 85 6 22 14 44 20 50 5 5 9 21 9 35 0 14 7
35 15 46 8 10 15 27 15 37 0 11 6 33 14 50 8 18 22 64 32 102 9 39 28 103 41
144 41 130 25 181 -33 104 -15 -21 -31 -40 -34 -43 -22 -18 -126 -223 -215
-425 -21 -47 -63 -160 -90 -244 -19 -56 -26 -230 -13 -306 13 -74 53 -206 77
-253 39 -76 46 -109 45 -222 -1 -73 -7 -135 -18 -169 -9 -30 -16 -90 -16 -133
0 -65 4 -85 24 -116 31 -49 119 -123 244 -206 140 -93 259 -202 390 -356 26
-30 57 -66 69 -79 12 -13 30 -39 40 -58 16 -31 16 -34 1 -49 -15 -15 -24 -16
-80 -5 -175 35 -275 113 -360 284 -55 112 -63 125 -73 126 -18 1 -9 -159 12
-219 30 -84 30 -84 4 -88 -29 -5 -113 52 -169 113 -23 25 -46 45 -51 45 -31 0
6 -98 67 -178 40 -54 136 -141 182 -167 109 -60 215 -104 270 -112 19 -3 40
-10 47 -15 21 -17 211 -59 378 -84 55 -8 125 -19 155 -23 30 -5 73 -13 95 -19
22 -6 63 -16 90 -23 73 -18 170 -70 344 -186 84 -57 155 -103 157 -103 2 0 22
-13 46 -29 24 -16 54 -32 67 -36 18 -6 20 -9 10 -16 -8 -5 -461 -9 -1016 -9
-879 0 -1003 -2 -1017 -15 -22 -23 -28 -49 -16 -79 22 -59 -279 -55 4116 -55
3805 0 4042 1 4074 17 45 22 60 63 38 100 l-17 27 -1008 2 c-554 2 -1015 5
-1023 9 -10 3 2 14 35 30 27 14 128 78 225 142 207 138 350 212 413 212 12 0
40 7 63 15 22 7 97 21 165 30 68 9 171 28 229 42 58 14 128 29 155 33 90 15
284 89 370 143 94 58 190 155 235 238 49 92 34 142 -23 74 -42 -52 -144 -125
-173 -125 -29 0 -29 5 -5 72 33 91 40 238 11 238 -6 0 -15 -11 -20 -24 -9 -26
-61 -131 -86 -177 -33 -62 -104 -126 -176 -161 -106 -51 -211 -68 -231 -37
-15 24 51 111 215 285 105 111 156 156 243 214 250 169 290 207 315 299 12 46
7 99 -25 241 -26 114 -14 268 25 315 5 6 16 30 25 55 114 317 102 471 -68 840
-33 72 -123 254 -141 285 -88 154 -105 175 -125 152z m-4051 -469 c0 -35 -10
-59 -21 -52 -10 6 -12 64 -3 89 9 23 24 0 24 -37z m-175 18 c31 -31 40 -95 25
-176 -9 -50 -22 -79 -55 -125 -69 -94 -71 -96 -108 -80 -17 7 -33 18 -35 24
-2 5 14 29 36 53 27 30 44 62 55 104 19 67 23 169 7 179 -5 3 -10 15 -10 26 0
28 54 26 85 -5z m-307 -443 c5 -31 -18 -29 -49 3 l-24 26 35 -4 c27 -2 36 -8
38 -25z m-1953 -1333 c35 -3 50 -9 50 -20 0 -23 -69 -25 -100 -3 -25 18 -36
51 -12 36 6 -4 35 -10 62 -13z m4835 3 c0 -10 -7 -43 -15 -73 -8 -30 -15 -76
-15 -102 0 -71 -5 -78 -59 -78 -82 0 -221 98 -241 169 -12 44 -2 51 57 39 37
-8 64 -6 139 12 52 13 99 29 105 36 16 19 29 17 29 -3z m510 -27 c26 -12 36
-36 26 -62 -5 -12 -10 -13 -28 -3 -34 17 -88 71 -82 81 6 9 46 2 84 -16z
m-5565 4 c7 -11 -7 -18 -45 -22 -16 -2 -25 3 -28 15 -3 14 3 17 32 17 19 0 38
-5 41 -10z m5299 -29 c17 -6 14 -10 -19 -30 -50 -29 -109 -26 -113 6 -3 19 2
22 35 26 63 6 77 6 97 -2z m-5080 -101 c29 -11 37 -54 11 -64 -21 -8 -70 37
-62 57 7 20 16 21 51 7z m3227 -80 c29 -36 71 -84 93 -108 44 -45 105 -154
106 -187 0 -11 7 -39 15 -63 15 -42 23 -290 11 -311 -3 -4 -27 -11 -53 -14
-27 -4 -68 -11 -93 -16 -25 -6 -89 -10 -143 -11 -79 0 -105 4 -137 20 -22 11
-40 22 -40 25 0 2 11 25 25 51 14 26 25 53 25 59 0 7 7 18 15 25 8 7 15 20 15
30 0 10 7 23 15 30 8 7 15 20 15 30 0 10 20 45 45 79 62 84 105 163 105 193 0
14 -11 45 -25 69 -56 102 -82 177 -56 167 4 -1 32 -32 62 -68z m-240 -47 l54
-108 -2 -104 c-2 -66 -7 -110 -15 -120 -12 -15 -37 -64 -52 -101 -3 -8 -21
-40 -39 -71 -58 -99 -49 -92 -93 -80 -58 16 -212 30 -265 24 -42 -5 -47 -3
-52 18 -3 13 -4 126 -3 250 3 191 6 230 20 250 9 13 16 40 16 61 0 21 3 38 8
39 4 0 39 3 77 5 71 4 225 30 233 39 3 3 18 5 33 5 24 0 32 -10 80 -107z
m-632 33 c34 -36 51 -124 51 -269 0 -87 5 -147 16 -182 8 -30 14 -75 12 -101
-3 -53 -1 -51 -113 -74 -33 -6 -78 -18 -100 -25 -22 -8 -57 -17 -77 -21 l-38
-6 0 59 c0 58 27 202 49 256 6 16 11 70 11 120 1 90 21 196 48 245 11 18 21
22 66 22 43 0 57 -4 75 -24z m-1054 -16 c3 -5 -15 -20 -41 -32 -36 -18 -48
-20 -52 -10 -2 7 -15 17 -29 23 -13 5 -21 13 -18 19 8 13 132 13 140 0z m80
-61 c11 -17 -24 -47 -92 -79 -45 -21 -69 -28 -80 -21 -14 7 -13 10 5 15 30 10
28 34 -4 42 -39 10 -10 24 51 24 28 0 61 7 75 15 30 17 37 18 45 4z m-243 -11
c-9 -9 -15 -9 -24 0 -9 9 -7 12 12 12 19 0 21 -3 12 -12z m-197 -58 c3 -5 35
-10 70 -10 61 0 93 -14 61 -26 -21 -8 -20 -24 2 -40 16 -12 16 -13 0 -19 -11
-5 -36 4 -68 24 -28 17 -55 31 -60 31 -6 0 -10 4 -10 10 0 5 -12 16 -27 24
l-28 15 27 1 c15 0 30 -4 33 -10z"/>
<path d="M7695 5032 c-4 -4 -43 -9 -88 -12 l-82 -5 4 -50 c1 -27 5 -52 7 -54
2 -2 46 17 98 42 52 26 100 47 105 47 6 0 11 4 11 8 0 12 -47 32 -55 24z"/>
<path d="M8376 5033 c-4 -5 -121 -10 -259 -13 l-252 -5 -3 -32 c-3 -27 0 -33
16 -33 11 0 24 -6 29 -12 13 -18 32 -108 39 -194 l7 -71 89 -43 c81 -39 91
-41 100 -27 19 34 108 5 108 -35 0 -7 7 -24 16 -36 l16 -23 19 25 c16 20 19
41 19 129 0 90 -3 108 -20 128 -20 24 -20 24 -35 5 -8 -11 -15 -34 -15 -51 0
-42 -16 -55 -66 -55 -61 0 -74 23 -74 124 0 73 2 82 27 108 24 25 34 28 90 28
67 0 109 -15 150 -54 13 -12 23 -27 23 -34 0 -24 30 -25 50 -2 24 28 25 40 5
87 -8 19 -15 42 -15 51 0 27 -47 52 -64 35z"/>
<path d="M9915 5030 c-3 -5 -35 -10 -71 -10 l-64 0 0 -50 c0 -66 22 -73 90
-31 8 5 36 19 62 31 49 22 54 41 17 60 -22 12 -26 12 -34 0z"/>
<path d="M4493 5023 c-28 -2 -57 -11 -63 -18 -7 -8 -18 -15 -25 -15 -24 0
-124 -107 -141 -150 -3 -8 -12 -31 -20 -51 -33 -79 -3 -360 38 -351 7 2 55 24
106 49 75 36 92 48 86 61 -21 52 -44 164 -44 219 0 41 34 118 55 127 43 16 85
6 125 -30 22 -20 40 -44 40 -53 0 -9 7 -25 15 -35 8 -11 15 -33 15 -48 0 -16
8 -41 17 -56 9 -15 18 -28 19 -30 1 -2 33 11 70 28 103 46 134 63 134 69 -1
16 -28 83 -38 93 -7 7 -12 17 -12 23 0 20 -99 122 -138 143 -41 21 -147 32
-239 25z"/>
<path d="M5060 5021 c-30 -5 -36 -11 -38 -35 -3 -24 -1 -28 10 -19 14 12 51 2
63 -16 3 -6 15 -11 26 -11 11 0 31 -7 44 -16 34 -22 45 -11 45 46 0 34 -4 50
-16 54 -19 7 -85 6 -134 -3z"/>
<path d="M5625 5018 c-22 -5 -52 -11 -67 -14 -36 -8 -44 -42 -12 -54 32 -13
52 -66 60 -162 5 -60 11 -81 23 -86 9 -3 28 -13 42 -23 14 -10 29 -16 33 -12
3 3 6 62 6 129 l0 123 30 23 c28 20 41 61 23 71 -19 11 -102 14 -138 5z"/>
<path d="M3466 4998 c-21 -30 -20 -37 7 -48 12 -6 31 -16 41 -22 44 -29 149
-163 175 -225 6 -11 15 -24 20 -28 6 -3 11 -37 11 -75 0 -62 2 -69 22 -76 17
-5 127 -56 179 -82 4 -1 8 53 11 121 5 137 2 129 99 257 65 87 116 130 153
130 23 0 26 4 26 35 l0 35 -125 0 -125 0 0 -36 c0 -19 4 -44 10 -54 10 -19 -5
-67 -33 -102 -23 -29 -70 -23 -95 12 -24 32 -31 95 -14 125 7 13 7 26 1 37 -9
16 -27 18 -179 18 -163 0 -169 -1 -184 -22z"/>
<path d="M5267 5013 c-11 -10 -8 -91 4 -98 14 -9 79 36 79 56 0 33 -62 64 -83
42z"/>
<path d="M5857 5013 c-16 -15 -5 -54 23 -85 l30 -32 0 -169 c0 -151 2 -168 18
-174 9 -3 50 -21 90 -39 40 -19 74 -34 76 -34 2 0 6 21 9 46 5 52 17 64 63 64
22 0 36 -8 52 -30 12 -16 22 -34 22 -39 0 -6 10 -40 21 -75 16 -47 27 -66 43
-70 43 -12 108 -5 146 14 39 20 40 22 40 70 0 61 -32 117 -84 148 -44 26 -48
61 -10 91 61 48 82 146 47 219 -18 38 -47 72 -62 72 -5 0 -14 7 -21 15 -10 13
-52 15 -255 15 -133 0 -245 -3 -248 -7z m344 -86 c34 -22 34 -24 37 -106 3
-75 1 -86 -20 -108 -18 -20 -30 -23 -68 -21 l-45 3 -3 100 c-2 91 -1 103 20
128 26 33 35 33 79 4z"/>
<path d="M7240 5016 c0 -8 208 -106 224 -106 13 0 16 11 16 55 l0 55 -120 0
c-66 0 -120 -2 -120 -4z"/>
<path d="M8588 4993 c-20 -22 -24 -33 -17 -50 4 -13 16 -23 26 -23 18 0 73
-47 73 -63 0 -5 14 -26 30 -47 17 -21 30 -41 30 -45 0 -3 20 -33 45 -65 25
-32 45 -66 45 -75 0 -16 -38 -77 -52 -83 -5 -2 -8 -8 -8 -14 0 -10 -88 -129
-104 -140 -6 -4 -7 -10 -4 -14 13 -12 166 68 177 93 14 31 53 48 77 35 13 -7
27 -5 53 8 20 10 60 29 89 41 28 13 52 30 52 37 0 7 -18 37 -40 66 -22 29 -40
60 -40 68 0 8 11 32 25 52 14 20 25 41 25 46 0 6 4 10 9 10 5 0 19 16 31 36
25 39 88 84 119 84 26 0 30 9 24 43 l-5 28 -122 -3 -121 -3 -3 -29 c-2 -19 2
-32 12 -38 24 -14 19 -60 -10 -91 -21 -23 -32 -27 -53 -22 -14 4 -26 7 -26 8
-1 1 -9 19 -20 39 -18 35 -18 38 -2 56 9 10 17 33 17 50 l0 32 -153 0 -153 0
-26 -27z"/>
<path d="M9500 5010 c0 -5 7 -10 16 -10 8 0 58 -21 110 -46 52 -26 96 -45 98
-43 3 2 6 27 7 54 l3 50 -117 3 c-75 2 -117 -1 -117 -8z"/>
<path d="M9414 4992 c-25 -18 -54 -94 -54 -146 0 -90 42 -101 97 -26 50 69 61
80 84 80 15 0 25 -11 37 -41 14 -37 18 -40 45 -35 16 3 39 14 52 24 l23 18
-31 16 c-71 35 -163 76 -184 82 -11 4 -27 13 -33 21 -14 17 -20 18 -36 7z"/>
<path d="M7159 4952 c-35 -77 -32 -173 5 -180 20 -4 76 44 76 65 0 8 7 16 15
19 8 4 15 12 15 20 0 18 47 29 64 15 7 -6 16 -25 20 -41 4 -20 11 -30 23 -30
17 1 63 32 63 44 0 3 -17 13 -37 22 -21 9 -65 29 -98 44 -33 16 -70 31 -82 35
-13 3 -23 11 -23 16 0 23 -27 5 -41 -29z"/>
<path d="M7715 4946 c-90 -50 -83 -41 -57 -68 12 -14 22 -31 22 -38 0 -20 51
-70 70 -70 49 0 76 83 46 138 -8 15 -17 35 -20 45 -7 21 -11 21 -61 -7z"/>
<path d="M9935 4922 c-50 -27 -50 -27 -40 -59 19 -57 89 -99 120 -73 21 18 20
123 -1 144 -19 20 -19 20 -79 -12z"/>
<path d="M5030 4934 c0 -3 9 -17 20 -31 11 -14 20 -41 20 -59 0 -18 5 -36 10
-39 6 -3 10 -1 10 4 0 6 8 11 18 11 9 1 30 11 46 24 32 26 34 24 -53 68 -55
28 -71 33 -71 22z"/>
<path d="M5153 4809 c-5 -5 -25 -18 -44 -27 l-34 -17 -3 -152 c-2 -137 0 -158
18 -198 20 -44 92 -125 111 -125 5 0 9 119 9 265 l0 265 -23 0 c-13 0 -28 -5
-34 -11z"/>
<path d="M7393 4792 l-32 -27 -7 -170 c-5 -142 -10 -175 -26 -202 -10 -17 -29
-33 -41 -35 -16 -2 -23 -11 -25 -33 -3 -27 2 -33 33 -48 23 -11 60 -17 104
-17 l69 0 7 233 c4 127 5 252 3 277 -3 40 -6 45 -28 47 -16 2 -37 -7 -57 -25z"/>
<path d="M7525 4811 c-3 -5 -5 -131 -4 -280 l1 -271 37 0 c43 0 91 31 91 59 0
10 -18 32 -40 50 l-40 32 0 194 c0 106 -3 200 -6 209 -7 18 -29 21 -39 7z"/>
<path d="M9698 4813 c-10 -3 -18 -8 -18 -13 0 -5 -13 -11 -29 -15 -52 -11 -57
-26 -70 -215 -13 -181 -21 -210 -61 -210 -19 0 -40 -19 -40 -37 0 -7 17 -24
37 -38 33 -22 48 -25 125 -25 l88 0 0 274 c0 151 -3 277 -7 279 -5 2 -16 2
-25 0z"/>
<path d="M9776 4723 c4 -49 8 -90 10 -92 2 -2 4 37 4 87 0 55 -4 92 -10 92 -7
0 -8 -31 -4 -87z"/>
<path d="M4903 4687 c-7 -11 -133 -76 -175 -91 -15 -4 -18 -17 -18 -68 0 -51
-5 -70 -25 -101 -23 -33 -30 -37 -70 -37 -38 0 -48 5 -82 43 l-38 43 -90 -46
c-61 -30 -89 -50 -87 -60 3 -16 66 -64 121 -92 46 -24 225 -25 255 -3 11 8 26
15 34 15 46 0 148 121 181 215 31 88 26 234 -6 182z"/>
<path d="M5608 4588 c-9 -136 -64 -198 -173 -198 -57 0 -64 3 -103 39 -23 22
-42 49 -42 60 0 21 -16 37 -22 21 -1 -5 -2 -64 0 -130 l3 -120 113 0 c134 0
184 17 250 84 38 40 42 50 60 143 21 109 18 129 -16 142 -69 26 -66 28 -70
-41z"/>
<path d="M7949 4558 c0 -29 -8 -89 -18 -133 -14 -69 -20 -82 -44 -93 -28 -14
-35 -40 -15 -60 9 -9 86 -12 286 -12 272 0 274 0 293 23 28 34 25 79 -8 95
-35 16 -58 15 -72 -2 -15 -18 -125 -31 -184 -22 -42 6 -44 8 -55 54 -6 26 -14
66 -17 89 -6 40 -10 43 -77 77 -38 20 -74 36 -79 36 -5 0 -9 -24 -10 -52z"/>
<path d="M9038 4487 c-65 -31 -86 -46 -81 -57 15 -36 14 -76 -1 -89 -22 -18
-20 -58 3 -71 11 -5 78 -10 150 -10 158 0 200 14 201 68 0 20 -5 32 -13 32
-18 0 -107 88 -107 105 0 12 -44 65 -54 65 -6 -1 -50 -20 -98 -43z"/>
<path d="M5910 4465 c0 -42 -18 -85 -46 -110 -25 -22 -24 -46 3 -71 24 -23 33
-24 144 -24 106 0 121 2 139 20 27 27 26 31 -15 80 -19 23 -35 46 -35 51 0 6
-103 61 -182 97 -5 2 -8 -17 -8 -43z"/>
<path d="M8447 4482 c-24 -27 -21 -39 14 -51 41 -14 39 -15 39 13 0 55 -23 71
-53 38z"/>
<path d="M3720 4443 c-1 -31 -32 -74 -67 -92 -14 -7 -23 -21 -23 -34 0 -38 66
-57 200 -57 98 0 120 3 148 20 23 14 32 26 28 36 -3 9 -6 17 -6 20 0 2 -39 22
-87 44 -49 22 -95 45 -103 50 -16 10 -80 40 -86 40 -2 0 -4 -12 -4 -27z"/>
<path d="M9788 4330 c-2 -51 0 -61 15 -66 10 -3 26 1 36 10 10 9 23 16 30 16
25 0 7 54 -21 68 -16 7 -28 17 -28 23 0 5 -6 9 -14 9 -10 0 -15 -17 -18 -60z"/>
<path d="M8730 4334 c-88 -58 -89 -74 -2 -74 62 0 102 19 102 48 -1 15 -32 62
-42 62 -2 0 -28 -16 -58 -36z"/>
<path d="M6460 4336 c-96 -63 -73 -100 51 -80 25 4 41 15 52 34 16 26 15 28
-6 49 -29 27 -53 26 -97 -3z"/>
<path d="M8550 4307 c0 -17 20 -37 37 -37 10 0 10 6 -3 25 -18 27 -34 33 -34
12z"/>
<path d="M10795 4139 c-16 -4 -88 -22 -160 -39 -71 -17 -148 -36 -170 -42 -46
-12 -142 -35 -200 -47 -22 -5 -62 -14 -90 -21 -206 -52 -246 -62 -290 -71 -22
-4 -74 -17 -115 -29 -41 -11 -97 -25 -125 -30 -48 -8 -75 -15 -190 -45 -69
-18 -142 -36 -190 -46 -38 -8 -107 -25 -200 -48 -22 -6 -107 -27 -188 -46
-148 -36 -148 -36 -180 -18 -25 15 -32 26 -32 49 0 25 3 29 25 27 14 -2 53 -6
87 -9 39 -4 81 -2 110 6 27 7 55 14 65 16 23 7 30 31 19 73 -41 155 -44 161
-70 161 -49 0 -137 -35 -193 -77 -31 -24 -62 -43 -68 -43 -7 0 -20 10 -30 22
-15 19 -21 21 -43 11 -14 -7 -27 -22 -29 -34 -6 -46 -101 -49 -118 -4 -17 45
-90 26 -90 -24 0 -34 -24 -56 -68 -64 -25 -5 -35 -2 -44 13 -16 26 -53 26 -71
0 -8 -12 -21 -18 -29 -15 -8 3 -28 -5 -44 -19 -24 -19 -34 -22 -48 -14 -14 8
-31 7 -65 -5 -25 -8 -62 -18 -82 -21 -19 -4 -44 -12 -54 -20 -16 -12 -17 -18
-7 -57 6 -24 17 -68 24 -98 7 -29 18 -55 24 -58 18 -7 181 46 200 65 15 15 98
26 116 15 13 -7 -14 -51 -38 -62 -14 -6 -42 -14 -64 -17 -42 -7 -70 -39 -83
-94 -9 -36 -183 -210 -211 -210 -12 0 -31 7 -43 15 -46 32 -117 29 -248 -9
-63 -18 -201 -56 -240 -66 -32 -8 -157 -43 -240 -66 -27 -8 -65 -17 -83 -20
-44 -9 -92 -64 -92 -107 0 -18 9 -57 20 -87 41 -108 75 -231 91 -325 9 -54 36
-98 63 -103 9 -2 48 20 87 49 61 45 74 51 90 41 20 -13 21 -12 34 34 3 12 200
166 239 187 11 7 55 38 97 69 114 85 121 87 156 49 29 -34 78 -50 146 -51 31
0 39 4 47 25 5 14 7 37 4 53 -3 15 1 47 10 72 9 25 16 52 16 61 0 21 73 99 92
99 13 0 58 -50 58 -65 0 -3 10 -19 22 -35 25 -34 63 -39 121 -15 38 16 50 34
36 56 -7 11 -14 9 -34 -13 -26 -28 -49 -33 -93 -22 -19 5 -22 12 -20 37 4 37
25 48 30 15 6 -45 23 -22 23 32 0 52 1 55 27 58 22 3 30 -2 40 -23 15 -33 32
-27 36 14 3 24 12 37 35 51 l32 20 31 -31 31 -30 39 17 c21 9 53 23 69 30 17
7 56 24 87 38 31 15 61 26 67 26 10 0 47 43 53 61 3 9 106 50 173 69 17 5 55
18 85 30 30 11 105 37 165 56 61 20 141 47 179 59 53 19 72 21 86 13 15 -10
24 -6 53 19 19 17 51 33 70 37 38 7 87 55 87 83 0 9 -7 24 -15 33 -21 23 -6
35 67 54 31 8 66 19 77 25 11 6 36 11 56 11 19 0 52 7 72 15 19 8 45 15 57 15
11 0 41 6 66 14 25 8 68 20 95 26 28 7 66 16 85 21 19 5 62 15 95 24 33 8 89
22 125 31 36 9 92 23 125 31 33 8 88 21 121 29 34 7 74 18 89 24 14 5 35 10
47 10 38 0 88 31 88 55 0 19 -29 57 -41 54 -2 -1 -17 -5 -34 -10z m-2214 -439
c24 -14 24 -30 -2 -74 -14 -24 -28 -36 -43 -36 -12 0 -42 -6 -67 -14 -103 -32
-149 -39 -167 -25 -52 40 -54 65 -6 85 31 13 39 13 57 1 18 -12 28 -12 66 0
24 7 53 21 64 30 15 14 57 38 75 42 2 1 12 -4 23 -9z"/>
<path d="M2630 4121 c-26 -50 -14 -60 120 -91 52 -12 115 -28 139 -36 25 -8
54 -14 65 -14 12 0 41 -6 66 -14 25 -8 74 -22 110 -31 36 -9 88 -22 115 -30
100 -26 141 -36 180 -44 22 -4 60 -13 85 -20 192 -52 228 -61 280 -71 54 -10
100 -30 100 -43 0 -5 -7 -15 -16 -22 -15 -10 -14 -15 4 -52 20 -38 40 -52 102
-68 14 -4 35 -19 47 -33 20 -24 25 -26 44 -14 18 11 30 10 87 -12 37 -14 132
-45 212 -71 80 -25 158 -52 173 -60 16 -8 36 -15 45 -15 9 0 30 -7 46 -15 15
-8 35 -15 43 -15 31 0 87 -35 105 -66 13 -23 34 -38 66 -50 26 -10 51 -21 56
-26 6 -4 20 -8 32 -8 13 0 25 -4 28 -9 6 -10 97 -41 119 -41 8 0 22 9 32 20
22 24 43 25 73 4 20 -13 22 -24 22 -97 l0 -82 43 -17 c54 -23 100 -23 119 0 8
9 25 38 37 65 24 50 30 53 64 36 55 -28 87 -97 96 -204 6 -74 8 -80 32 -89 41
-14 138 2 164 28 12 12 24 28 26 35 8 22 39 6 160 -84 63 -47 123 -91 134 -99
11 -8 54 -39 95 -68 42 -30 76 -62 78 -73 7 -43 11 -48 27 -35 20 16 46 5 119
-50 29 -22 60 -40 69 -40 23 0 57 48 57 82 0 16 5 39 11 50 6 11 15 44 19 72
10 61 31 131 61 206 31 79 35 118 14 156 -19 36 -36 45 -120 68 -296 79 -503
136 -560 154 -69 22 -173 22 -205 0 -13 -10 -35 -18 -47 -18 -30 0 -181 150
-207 205 -40 86 -41 87 -107 107 -102 31 -118 70 -30 73 40 2 54 -2 61 -15 5
-10 22 -22 37 -28 52 -19 164 -45 170 -39 5 6 53 182 53 197 0 17 -143 62
-205 64 -22 1 -52 10 -67 20 -16 10 -35 16 -43 12 -9 -3 -19 3 -25 14 -14 27
-57 26 -65 0 -5 -15 -15 -20 -40 -20 -41 0 -75 32 -75 70 0 50 -80 66 -95 20
-8 -24 -39 -32 -85 -22 -28 6 -36 13 -38 35 -5 37 -47 49 -68 18 -8 -11 -20
-21 -25 -21 -6 0 -36 19 -67 43 -59 45 -158 82 -202 75 -24 -3 -31 -20 -60
-156 -12 -53 1 -82 34 -82 13 0 39 -7 58 -14 27 -12 49 -13 99 -5 109 16 104
17 107 -12 4 -35 -22 -59 -64 -59 -34 0 -238 45 -340 75 -28 8 -58 15 -66 15
-9 0 -38 6 -64 14 -27 8 -85 22 -129 31 -44 9 -93 21 -110 27 -16 6 -48 14
-70 18 -44 8 -112 24 -190 45 -121 32 -142 37 -185 45 -25 5 -65 14 -90 20
-25 7 -72 19 -105 27 -33 8 -83 21 -111 29 -28 8 -60 14 -71 14 -11 0 -39 6
-64 14 -24 8 -71 19 -104 25 -33 7 -80 18 -105 26 -64 20 -265 65 -289 65 -11
0 -25 -9 -31 -19z m2327 -423 c15 -6 37 -19 48 -28 11 -10 38 -24 60 -32 35
-14 44 -14 67 -2 24 13 32 12 63 0 49 -21 46 -45 -7 -79 -25 -16 -31 -16 -110
4 -163 40 -158 38 -175 74 -16 33 -15 36 2 55 21 24 17 23 52 8z m361 -570
c16 -16 15 -71 0 -87 -11 -10 -8 -11 15 -5 26 6 28 4 25 -17 -2 -19 -10 -25
-36 -27 -19 -2 -44 4 -58 13 -20 13 -24 24 -24 63 0 52 12 72 45 72 12 0 26
-5 33 -12z"/>
<path d="M4270 1645 c-14 -8 -56 -28 -95 -45 -124 -57 -144 -65 -240 -105 -22
-9 -56 -24 -75 -32 -19 -9 -48 -22 -65 -29 -16 -7 -46 -19 -66 -28 l-36 -15
-7 -273 -7 -273 28 -22 c15 -13 34 -23 41 -23 8 0 26 -6 40 -14 30 -15 90 -43
137 -62 17 -6 48 -20 70 -30 22 -9 54 -23 70 -30 36 -14 76 -32 168 -73 37
-17 73 -31 80 -31 8 0 51 16 98 36 131 55 168 71 262 113 37 17 73 31 81 31 7
0 19 6 25 14 6 8 22 16 34 19 12 3 42 13 66 22 44 16 62 14 116 -10 17 -7 46
-20 65 -28 19 -9 65 -30 103 -46 37 -17 73 -31 81 -31 7 0 19 -7 26 -15 7 -8
21 -15 30 -15 10 0 31 -7 47 -15 71 -36 165 -75 183 -75 11 0 50 14 87 31 38
16 82 36 98 43 56 24 100 43 138 59 20 9 53 23 72 31 20 9 51 22 70 30 20 9
52 23 71 33 52 25 99 21 179 -17 39 -17 85 -38 103 -46 40 -18 79 -35 165 -73
37 -17 71 -31 76 -31 5 0 24 -8 43 -17 18 -9 45 -22 60 -30 14 -7 35 -13 45
-13 20 0 146 51 238 96 28 13 58 24 66 24 9 0 22 7 29 15 7 8 19 15 26 15 12
0 79 28 179 75 56 26 81 28 130 6 26 -12 53 -21 60 -21 7 0 18 -7 25 -15 7 -8
19 -15 28 -15 14 0 103 -38 175 -75 16 -8 33 -15 38 -15 5 0 39 -14 76 -31
152 -69 145 -68 201 -43 21 8 51 21 67 28 42 18 92 40 145 64 25 11 72 32 105
47 33 14 74 32 90 39 132 60 151 62 220 31 17 -8 37 -16 45 -19 8 -3 22 -10
30 -15 8 -5 56 -26 105 -46 50 -21 94 -41 100 -46 5 -5 15 -9 22 -9 12 0 116
-44 176 -75 36 -19 71 -19 105 -1 27 14 74 35 135 59 62 26 104 44 217 95 25
12 86 38 135 59 l90 39 5 110 c3 60 2 117 -2 126 -5 9 -8 87 -8 173 l0 155
-37 16 c-21 9 -51 22 -68 29 -16 7 -60 26 -97 44 -37 17 -70 31 -74 31 -6 0
-42 15 -119 50 -22 10 -67 30 -100 45 -33 14 -75 33 -93 42 -31 16 -35 15 -62
0 -15 -9 -33 -17 -39 -17 -6 0 -42 -14 -79 -31 -72 -34 -104 -48 -167 -74 -22
-9 -53 -22 -70 -30 -16 -7 -48 -21 -70 -31 -22 -9 -51 -23 -65 -29 -52 -25
-98 -36 -117 -27 -27 14 -83 39 -128 57 -22 9 -53 22 -70 30 -73 32 -153 67
-225 97 -14 6 -32 14 -40 19 -8 5 -22 12 -30 15 -8 3 -31 12 -51 21 -31 13
-39 13 -70 -1 -118 -51 -158 -70 -192 -87 -21 -10 -42 -19 -48 -19 -5 0 -37
-13 -72 -29 -34 -16 -80 -37 -102 -46 -45 -18 -101 -43 -127 -56 -26 -13 -34
-12 -96 17 -31 14 -72 31 -90 39 -18 8 -49 22 -70 31 -58 25 -104 45 -137 58
-16 7 -47 20 -68 29 -36 16 -58 26 -140 63 -35 15 -40 15 -70 1 -18 -9 -59
-28 -92 -42 -33 -15 -78 -35 -100 -45 -22 -9 -80 -34 -130 -55 -49 -20 -112
-47 -140 -60 -111 -50 -103 -49 -196 -10 -112 48 -168 73 -202 90 -16 8 -33
15 -38 15 -5 0 -39 14 -76 31 -38 16 -81 36 -98 43 -16 7 -47 21 -67 31 -37
18 -39 18 -75 0 -38 -18 -81 -37 -138 -61 -16 -6 -48 -20 -70 -30 -22 -9 -53
-23 -70 -30 -16 -7 -59 -26 -95 -42 -168 -74 -200 -86 -212 -74 -7 7 -18 12
-25 12 -7 0 -43 14 -80 31 -38 16 -81 36 -98 43 -16 7 -48 21 -70 30 -22 10
-53 24 -70 30 -16 7 -48 21 -70 30 -22 10 -56 25 -75 33 -19 8 -48 21 -63 29
-34 17 -54 17 -87 -1z m78 -54 c17 -8 59 -27 130 -57 20 -9 50 -23 65 -30 16
-8 33 -14 38 -14 5 0 40 -14 77 -31 37 -18 81 -38 97 -45 110 -48 123 -56 129
-80 8 -30 7 -420 -1 -451 -3 -13 -12 -23 -20 -23 -8 0 -27 -6 -41 -13 -32 -16
-97 -45 -207 -92 -16 -7 -60 -26 -97 -44 -37 -17 -73 -31 -79 -31 -6 0 -23 -6
-37 -14 -91 -47 -66 -51 -275 43 -37 17 -73 31 -81 31 -7 0 -19 6 -25 14 -6 8
-22 16 -34 19 -40 10 -97 33 -109 45 -7 7 -17 12 -24 12 -24 0 -102 40 -108
56 -3 9 -6 112 -6 230 0 209 6 254 32 254 7 0 30 9 52 19 89 42 422 184 476
204 22 8 29 8 48 -2z m1262 -23 c69 -31 107 -47 142 -62 50 -20 104 -44 238
-104 36 -16 75 -32 86 -36 12 -4 25 -17 28 -29 3 -12 6 -116 6 -230 0 -198 -6
-247 -30 -247 -6 0 -38 -13 -72 -29 -35 -15 -103 -45 -153 -66 -49 -20 -115
-48 -145 -62 -30 -13 -71 -31 -90 -39 -19 -9 -47 -22 -62 -29 -24 -12 -32 -12
-55 0 -16 7 -44 20 -63 28 -19 8 -53 23 -75 33 -22 9 -53 23 -70 30 -16 7 -60
27 -98 43 -37 17 -73 31 -81 31 -7 0 -19 7 -26 15 -7 8 -17 15 -24 15 -29 0
-97 37 -102 55 -2 11 -3 121 -2 244 l3 225 50 24 c28 13 63 30 78 38 16 8 33
14 38 14 5 0 39 14 76 31 38 16 84 37 103 46 19 9 49 22 65 29 17 7 55 24 85
38 60 28 78 27 150 -6z m1202 5 c35 -15 72 -33 83 -40 11 -7 25 -13 32 -13 8
0 44 -14 81 -31 37 -17 82 -37 100 -45 61 -26 107 -46 134 -60 14 -8 33 -14
42 -14 9 0 20 -10 24 -22 7 -18 9 -439 3 -470 -1 -7 -93 -50 -196 -92 -45 -19
-93 -40 -167 -75 -37 -17 -73 -31 -79 -31 -6 0 -23 -6 -37 -14 -76 -39 -80
-40 -124 -26 -24 8 -50 20 -59 27 -8 7 -22 13 -30 13 -7 0 -43 14 -79 31 -79
37 -109 50 -180 79 -30 12 -77 33 -105 45 -27 13 -58 26 -67 29 -17 5 -18 26
-18 244 0 180 3 242 13 249 6 5 100 47 207 93 107 45 215 92 240 103 52 24
102 44 112 46 4 0 35 -11 70 -26z m1300 -39 c84 -36 173 -74 198 -85 25 -11
61 -27 80 -36 19 -8 47 -22 62 -29 14 -8 33 -14 42 -14 8 0 20 -9 26 -19 11
-21 15 -437 4 -465 -6 -15 -69 -47 -199 -100 -45 -19 -93 -40 -167 -75 -37
-17 -71 -31 -75 -31 -5 0 -35 -13 -67 -29 l-60 -28 -45 20 c-25 10 -50 23 -55
28 -6 5 -16 9 -23 9 -7 0 -44 14 -81 31 -84 39 -156 71 -237 105 -16 7 -52 23
-80 36 l-50 24 0 239 c0 201 2 239 15 245 8 4 31 15 50 23 36 16 67 29 160 70
30 14 80 35 110 47 48 20 112 48 200 87 14 7 28 12 32 12 3 1 75 -28 160 -65z
m1096 50 c15 -4 32 -10 37 -14 6 -4 51 -25 100 -45 50 -21 113 -48 140 -60 28
-13 91 -40 140 -61 50 -20 96 -42 103 -47 9 -7 12 -69 12 -249 0 -218 -1 -239
-17 -245 -10 -3 -46 -19 -81 -34 -35 -16 -66 -29 -69 -29 -3 0 -21 -7 -41 -16
-21 -9 -50 -22 -67 -29 -16 -7 -60 -27 -97 -44 -37 -17 -74 -31 -82 -31 -7 0
-19 -7 -26 -15 -7 -8 -20 -15 -29 -15 -9 -1 -27 -7 -41 -14 -26 -15 -21 -17
-109 29 -16 8 -34 15 -40 15 -6 0 -42 14 -79 31 -81 38 -132 61 -237 105 -16
7 -51 22 -77 34 l-48 22 0 244 c0 224 1 245 18 250 9 3 31 12 47 19 17 7 46
20 65 28 19 8 65 29 102 46 37 17 72 31 77 31 5 0 22 7 38 15 15 8 57 27 93
43 36 15 76 33 90 39 14 7 31 10 38 7 8 -2 26 -7 40 -10z"/>
<path d="M3943 1324 c-43 -18 -63 -50 -63 -99 0 -51 23 -85 91 -135 55 -41 77
-76 60 -93 -16 -16 -45 -3 -51 23 -5 22 -11 25 -50 25 l-45 0 -3 -41 c-3 -36
1 -45 28 -68 27 -22 41 -26 100 -26 59 0 73 4 99 26 27 23 31 32 31 78 0 62
-12 81 -90 141 -44 34 -60 53 -60 71 0 30 34 33 50 4 22 -41 100 -37 100 5 0
83 -104 130 -197 89z"/>
<path d="M4555 1330 c-3 -5 -15 -10 -26 -10 -11 0 -28 -14 -40 -32 -18 -30
-19 -47 -17 -181 l3 -147 30 -25 c25 -20 41 -24 99 -25 64 0 70 2 102 34 32
32 34 37 34 106 0 96 -8 110 -68 110 -27 0 -53 -5 -60 -12 -17 -17 -15 -53 3
-68 9 -7 15 -29 15 -51 0 -35 -3 -39 -25 -39 l-26 0 3 128 c3 123 4 127 26
130 17 3 22 -2 22 -20 0 -40 14 -50 61 -46 41 3 44 5 47 33 6 46 -24 91 -72
109 -47 18 -102 21 -111 6z"/>
<path d="M4157 1316 c-3 -8 -2 -39 4 -68 5 -29 14 -78 20 -108 5 -30 13 -64
18 -75 5 -11 12 -45 15 -75 7 -70 22 -82 100 -78 l58 3 19 60 c10 33 19 74 19
92 0 17 5 44 11 60 10 26 27 117 32 173 2 23 -1 25 -41 25 l-44 0 -19 -55
c-10 -30 -19 -73 -19 -96 0 -24 -6 -47 -15 -54 -15 -13 -17 -8 -30 75 -3 22
-13 61 -21 88 -15 46 -16 47 -59 47 -28 0 -45 -5 -48 -14z"/>
<path d="M5110 1321 c-15 -29 -13 -384 2 -399 18 -18 163 -15 204 4 57 27 66
57 62 209 -3 123 -5 135 -26 158 -30 32 -84 47 -165 47 -55 0 -68 -3 -77 -19z
m147 -83 c6 -7 11 -58 12 -113 2 -107 -10 -144 -43 -132 -14 5 -16 24 -16 125
0 65 3 122 7 125 10 11 30 8 40 -5z"/>
<path d="M5397 1333 c-4 -3 -7 -13 -7 -20 0 -14 38 -104 66 -155 13 -25 13
-31 0 -55 -8 -16 -29 -59 -46 -96 -24 -54 -28 -72 -19 -83 13 -15 56 -18 77
-6 16 11 52 77 52 97 0 34 28 11 49 -40 24 -57 43 -70 92 -63 18 2 25 10 27
32 2 16 -1 33 -7 39 -6 6 -11 18 -11 26 0 8 -6 22 -13 30 -7 9 -19 33 -26 54
-14 42 -11 56 36 153 28 57 27 87 0 92 -41 8 -67 -8 -90 -56 -12 -26 -23 -49
-24 -51 -6 -10 -33 23 -33 41 0 29 -48 68 -85 68 -17 0 -35 -3 -38 -7z"/>
<path d="M5732 1328 c-9 -9 -12 -69 -12 -210 l0 -197 37 -7 c55 -10 67 3 73
82 l5 69 44 5 c50 6 67 25 57 63 -5 23 -12 27 -44 27 -51 0 -64 11 -60 51 3
34 3 34 60 37 67 3 89 25 69 68 -10 23 -15 24 -114 24 -67 0 -107 -4 -115 -12z"/>
<path d="M6317 1313 c-13 -12 -8 -388 5 -401 16 -16 73 -15 86 1 6 7 12 40 14
72 2 44 7 59 16 57 38 -8 132 46 132 75 0 7 5 13 10 13 6 0 10 -42 10 -105 0
-95 2 -105 20 -115 12 -6 33 -10 48 -8 l27 3 3 105 c3 105 3 105 19 70 9 -19
26 -64 39 -99 26 -71 35 -81 80 -81 52 0 54 7 54 216 0 207 1 204 -54 204 -34
0 -46 -19 -46 -73 0 -60 -18 -59 -36 1 -18 62 -30 72 -83 72 -54 0 -71 -12
-71 -52 0 -15 -4 -28 -10 -28 -5 0 -10 6 -10 14 0 8 -14 26 -31 40 -28 24 -38
26 -123 26 -51 0 -96 -3 -99 -7z m147 -89 c12 -31 6 -82 -10 -88 -26 -10 -34
3 -34 55 0 41 3 49 19 49 10 0 22 -7 25 -16z"/>
<path d="M6943 1296 l-28 -24 -3 -154 c-2 -172 2 -184 72 -213 47 -20 82 -19
133 4 51 24 66 63 61 161 l-3 65 -65 0 -65 0 -3 -32 c-2 -24 1 -33 17 -38 14
-4 19 -14 19 -35 -1 -34 -21 -55 -43 -46 -12 4 -15 28 -15 131 l0 125 24 0
c19 0 25 -7 30 -35 8 -39 36 -60 71 -51 29 7 39 35 30 85 -10 58 -47 81 -134
81 -59 0 -74 -4 -98 -24z"/>
<path d="M8125 1324 c-66 -23 -75 -49 -75 -212 0 -132 1 -143 23 -167 26 -31
86 -47 142 -39 47 7 81 31 95 69 15 40 12 147 -5 169 -13 17 -13 22 1 38 21
23 13 82 -16 113 -20 21 -82 46 -111 44 -8 0 -32 -7 -54 -15z m83 -104 c2 -14
11 -31 19 -37 19 -14 18 -14 -19 -31 -21 -9 -28 -18 -28 -41 0 -16 7 -34 15
-41 8 -7 15 -28 15 -46 0 -30 -3 -34 -25 -34 l-25 0 0 123 c0 68 3 127 7 131
14 14 38 0 41 -24z"/>
<path d="M7787 1318 c-16 -12 -17 -31 -15 -208 l3 -195 29 -3 c15 -2 39 -1 52
2 22 6 24 11 24 75 l0 69 53 4 c79 6 101 32 105 124 4 67 2 73 -24 103 -27 29
-35 31 -119 37 -68 4 -94 3 -108 -8z m143 -128 c0 -47 -2 -50 -25 -50 -23 0
-25 3 -25 50 0 47 2 50 25 50 23 0 25 -3 25 -50z"/>
<path d="M7635 1308 c-3 -7 -6 -80 -7 -162 l-3 -148 -35 -12 c-69 -22 -47 -76
31 -76 40 0 55 5 81 29 l33 29 0 174 0 173 -48 3 c-32 2 -49 -1 -52 -10z"/>
<path d="M9017 1313 c-4 -3 -7 -16 -7 -28 0 -11 -4 -25 -10 -31 -5 -5 -14 -37
-19 -69 -13 -79 -30 -161 -43 -207 -16 -55 -6 -70 44 -66 36 3 44 7 46 26 4
27 37 42 74 35 20 -4 28 -12 30 -32 3 -23 8 -26 49 -29 56 -4 63 7 48 76 -6
26 -14 70 -19 99 -4 29 -13 67 -18 85 -6 18 -13 53 -17 78 -3 24 -11 50 -17
57 -11 14 -129 19 -141 6z m77 -199 c13 -34 7 -64 -14 -64 -14 0 -20 7 -20 24
0 30 9 56 20 56 4 0 11 -7 14 -16z"/>
<path d="M9263 1306 c-4 -8 -6 -99 -3 -203 l5 -188 45 0 45 0 0 200 0 200 -42
3 c-29 2 -44 -1 -50 -12z"/>
<path d="M5026 492 c-55 -1 -106 -8 -113 -14 -18 -14 -16 -53 2 -68 12 -10 15
-36 15 -115 0 -79 -3 -105 -15 -115 -17 -14 -20 -57 -5 -80 13 -20 240 -25
267 -5 15 11 21 11 35 -2 16 -14 29 -15 95 -5 48 7 82 7 89 1 16 -13 75 8 102
38 18 20 22 36 22 88 0 49 -4 66 -16 73 -15 8 -15 11 5 31 11 11 32 21 46 21
24 0 25 -2 25 -62 -1 -36 -7 -74 -15 -88 -19 -33 -19 -75 1 -94 13 -13 35 -16
115 -13 89 3 101 6 115 25 19 28 27 28 39 0 9 -20 18 -22 100 -24 62 -2 97 2
112 12 18 11 23 11 34 -2 21 -25 80 -14 99 18 14 26 13 31 -8 70 -17 33 -22
60 -22 116 0 72 7 85 30 57 7 -8 23 -15 36 -15 23 0 24 -3 24 -66 0 -51 -5
-72 -20 -91 -25 -33 -25 -54 0 -81 25 -26 110 -31 129 -8 18 21 16 73 -2 94
-13 14 -17 38 -17 90 0 71 0 72 24 66 30 -7 38 5 41 67 5 84 12 81 -285 79
-52 -1 -113 -1 -134 0 -22 0 -43 -6 -48 -13 -13 -20 -9 -54 7 -71 11 -11 15
-39 15 -115 0 -91 -2 -101 -18 -101 -19 0 -32 41 -52 160 -5 30 -15 73 -23 95
-12 34 -18 40 -42 40 -15 0 -31 -7 -35 -15 -17 -35 -33 -88 -40 -135 -8 -50
-30 -148 -35 -153 -1 -1 -10 0 -19 4 -13 5 -16 22 -16 91 0 75 2 84 15 73 8
-7 22 -10 30 -6 19 7 22 131 3 142 -6 4 -48 6 -92 5 -45 -2 -117 -3 -160 -2
-52 0 -91 -5 -112 -15 -30 -14 -34 -14 -51 3 -20 20 -50 22 -111 8 -17 -3 -39
-3 -49 2 -10 4 -63 7 -117 5z m54 -197 c0 -96 -2 -105 -19 -105 -25 0 -31 19
-31 101 0 74 11 109 35 109 12 0 15 -19 15 -105z m354 69 c23 -22 20 -34 -9
-34 -18 0 -25 5 -25 18 0 16 8 32 16 32 1 0 10 -7 18 -16z m-115 -98 c-11 -5
-19 -18 -19 -29 0 -11 -2 -18 -5 -15 -5 5 -9 111 -6 143 1 6 12 -12 25 -40 22
-48 22 -50 5 -59z m118 -32 c3 -8 0 -21 -6 -27 -10 -9 -16 -8 -27 7 -8 11 -14
23 -14 28 0 15 41 8 47 -8z"/>
<path d="M6624 405 c-3 -8 1 -24 10 -37 21 -30 22 -126 1 -134 -20 -8 -19 -60
1 -68 9 -3 53 -6 99 -6 78 0 86 2 108 26 l24 26 26 -26 c22 -21 35 -26 79 -26
43 0 58 5 81 25 24 23 27 32 27 96 0 77 9 83 30 17 7 -24 22 -64 33 -90 17
-42 23 -48 49 -48 21 0 31 6 35 20 7 25 15 25 38 0 21 -24 64 -23 76 0 21 42
39 90 39 107 1 10 9 33 19 51 16 31 18 32 32 16 19 -23 21 -105 2 -119 -9 -7
-13 -23 -11 -40 l3 -30 222 -2 c212 -3 223 -2 236 17 14 20 14 20 32 0 24 -27
119 -28 148 -3 18 17 19 17 28 0 11 -19 89 -25 89 -7 0 18 29 23 44 7 12 -12
45 -15 146 -16 74 -1 140 3 150 9 49 26 66 140 32 210 l-17 35 -105 0 c-93 0
-105 -2 -108 -18 -2 -10 4 -27 13 -37 12 -13 15 -32 13 -71 -3 -46 -6 -54 -22
-54 -15 0 -24 14 -38 55 -10 30 -23 64 -27 75 -5 11 -12 28 -15 38 -3 11 -16
17 -36 17 -23 0 -35 -7 -50 -32 -11 -18 -20 -42 -21 -53 0 -11 -9 -38 -19 -60
l-19 -40 0 66 c-1 51 -6 72 -22 93 -19 24 -27 26 -89 26 -64 0 -70 -2 -89 -28
-11 -16 -21 -48 -23 -73 -2 -35 -7 -45 -23 -47 -11 -2 -27 -10 -36 -18 -9 -8
-18 -12 -21 -9 -10 11 1 95 16 118 9 13 14 32 10 41 -5 14 -25 16 -139 16 -83
0 -136 -4 -140 -10 -5 -7 -11 -8 -19 -1 -17 14 -445 15 -461 1 -9 -8 -15 -8
-20 0 -3 5 -37 10 -75 10 -60 0 -71 -3 -84 -22 l-16 -22 -23 22 c-21 20 -34
22 -120 22 -76 0 -99 -3 -103 -15z m1074 -118 c-3 -44 -6 -52 -23 -52 -17 0
-20 8 -23 55 -3 43 1 57 14 67 26 19 36 -4 32 -70z m-923 7 c0 -38 -4 -49 -17
-52 -15 -3 -18 4 -18 46 0 27 3 52 7 56 16 16 28 -4 28 -50z m218 -11 c-7 -59
-30 -57 -35 2 -4 50 9 73 28 53 6 -8 9 -31 7 -55z m1015 8 c-2 -33 -7 -46 -18
-46 -10 0 -16 12 -18 39 -4 49 3 67 23 60 12 -5 15 -18 13 -53z m464 49 c2 -6
1 -31 0 -56 -3 -34 -8 -44 -20 -42 -26 5 -19 108 8 108 4 0 10 -5 12 -10z"/>
</g>
</svg>
