<?xml version="1.0" standalone="no"?>
<!DOCTYPE svg PUBLIC "-//W3C//DTD SVG 20010904//EN"
 "http://www.w3.org/TR/2001/REC-SVG-20010904/DTD/svg10.dtd">
<svg version="1.0" xmlns="http://www.w3.org/2000/svg"
 width="360.000000pt" height="359.000000pt" viewBox="0 0 360.000000 359.000000"
 preserveAspectRatio="xMidYMid meet">
<metadata>
Created by potrace 1.10, written by Peter Selinger 2001-2011
</metadata>
<g transform="translate(0.000000,359.000000) scale(0.100000,-0.100000)"
fill="#000000" stroke="none">
<path d="M1 2748 c1 -522 5 -814 10 -768 67 588 411 1099 940 1392 194 108
458 187 709 211 19 2 -346 5 -812 5 l-848 2 1 -842z"/>
<path d="M1945 3584 c241 -28 436 -84 632 -181 l92 -45 -6 -87 c-3 -47 -7 -87
-8 -89 -1 -2 -29 13 -61 33 -78 46 -247 117 -357 149 -385 111 -791 74 -1148
-105 -57 -28 -128 -67 -157 -85 -29 -19 -54 -34 -56 -34 -2 0 -9 14 -16 30
-20 48 -64 64 -94 34 -12 -11 -16 -36 -16 -93 0 -68 -3 -80 -23 -99 -13 -12
-30 -22 -39 -22 -8 0 -36 -26 -61 -57 -26 -32 -77 -94 -113 -138 -161 -196
-279 -458 -331 -738 -25 -136 -23 -418 4 -552 106 -512 429 -936 888 -1164
453 -226 943 -235 1393 -25 503 234 862 702 948 1234 18 113 20 341 4 460 -23
175 -82 357 -166 519 l-54 104 46 73 c25 41 47 74 49 74 5 0 83 -136 123 -215
82 -165 152 -414 171 -613 5 -54 9 237 10 776 l1 862 -842 -1 c-464 -1 -829
-4 -813 -5z m840 -83 c3 -11 10 -127 15 -258 9 -246 17 -298 51 -308 60 -19
113 122 125 333 7 115 19 150 47 139 24 -9 30 -81 25 -276 l-6 -175 24 27 c33
38 61 137 68 242 11 150 17 185 31 185 7 0 16 -7 19 -16 14 -35 18 -281 7
-353 -6 -40 -9 -76 -7 -79 14 -14 37 28 57 104 24 93 39 114 60 88 10 -12 13
-44 13 -108 -2 -168 -71 -322 -204 -457 -94 -95 -171 -135 -285 -149 -93 -11
-197 -35 -263 -60 -41 -16 -48 -23 -56 -55 -4 -20 -25 -54 -45 -75 -20 -21
-35 -43 -33 -49 6 -17 -71 -93 -113 -112 -22 -10 -63 -19 -93 -19 l-52 0 17
-27 c9 -16 29 -42 43 -59 22 -25 65 -115 121 -252 10 -25 76 -57 153 -74 63
-13 72 -17 241 -108 166 -89 247 -162 340 -305 31 -49 73 -106 91 -125 24 -26
31 -39 24 -50 -13 -21 -68 34 -137 139 -113 174 -165 218 -387 335 -80 42
-148 76 -151 76 -4 0 26 -33 67 -73 95 -94 197 -231 250 -334 23 -46 43 -81
45 -79 5 5 -46 165 -63 199 -8 15 -12 27 -10 27 9 0 119 -184 143 -239 13 -29
26 -51 28 -49 3 2 -8 46 -24 96 -16 51 -27 92 -25 92 8 0 77 -136 120 -237
l47 -113 -29 -42 c-16 -24 -87 -102 -159 -174 -229 -230 -472 -366 -785 -441
-84 -20 -142 -26 -286 -30 l-181 -6 0 69 c0 38 -8 96 -17 129 -9 33 -16 97
-16 145 0 92 -21 184 -44 193 -8 3 -27 32 -42 64 -28 55 -29 65 -29 193 0 74
4 173 9 219 l9 84 -44 -26 c-32 -18 -53 -41 -75 -83 -18 -31 -42 -65 -55 -75
-34 -26 -107 -40 -154 -29 -38 8 -51 20 -110 95 -15 19 -35 28 -80 36 -76 13
-101 30 -126 82 -11 23 -27 55 -35 71 -14 24 -14 39 -5 104 7 45 21 93 36 117
53 92 187 214 360 329 l81 54 -4 40 c-5 56 10 78 79 113 53 26 60 33 57 56 -3
23 -15 30 -138 72 -303 106 -491 234 -569 389 -61 120 -91 285 -55 299 16 6
40 -16 85 -79 10 -13 19 -21 23 -18 3 3 -1 48 -9 100 -17 114 -19 216 -4 226
20 12 36 -21 68 -146 48 -187 94 -273 122 -229 5 8 6 82 2 165 -5 132 -4 151
10 157 24 9 33 -9 66 -138 37 -142 75 -227 126 -284 42 -46 71 -52 85 -18 5
12 14 90 19 172 11 167 15 185 42 185 21 0 21 -3 44 -190 19 -152 34 -231 47
-247 21 -26 52 -12 110 47 60 60 80 71 94 48 15 -25 3 -75 -42 -170 -51 -106
-53 -135 -9 -164 34 -22 110 -30 130 -14 16 13 91 16 192 7 56 -5 69 -2 130
28 37 18 87 46 110 63 40 30 41 32 32 66 -5 19 -21 61 -35 92 -50 113 -72 306
-39 334 23 19 32 6 70 -105 34 -99 72 -159 117 -184 23 -13 29 -13 51 2 53 34
116 213 148 419 14 91 29 119 53 99 13 -11 16 -43 18 -190 3 -168 4 -176 23
-176 48 0 97 157 114 366 21 247 41 339 76 339 7 0 16 -9 20 -19z m145 -356
c0 -27 -30 -119 -48 -146 -28 -44 -34 -26 -40 114 l-5 120 47 -38 c25 -22 46
-44 46 -50z m-2548 -760 c14 -28 14 -33 3 -28 -20 7 -19 0 10 -57 18 -35 21
-50 12 -53 -8 -3 -4 -13 12 -31 22 -23 23 -26 6 -26 -17 0 -16 -3 5 -25 l24
-25 -33 6 -33 7 27 -44 c15 -24 35 -52 44 -63 15 -18 15 -19 -16 -14 -18 2
-33 2 -33 -2 0 -12 50 -75 78 -97 l27 -23 -40 0 -40 0 38 -36 c20 -19 37 -38
37 -41 0 -3 -13 -3 -30 -1 -16 3 -30 1 -30 -2 0 -4 22 -28 49 -53 27 -25 47
-48 44 -50 -2 -3 -20 -1 -39 3 -18 4 -34 5 -34 2 0 -14 65 -72 81 -72 25 0 35
21 15 32 -15 9 -14 12 11 36 25 23 26 27 10 30 -17 3 -16 7 9 33 22 23 24 29
11 29 -22 0 -21 6 4 38 17 22 18 28 6 30 -12 3 -12 9 4 42 22 44 23 54 9 45
-6 -4 -2 9 7 28 17 32 18 33 29 13 6 -13 7 -23 1 -27 -6 -4 0 -20 12 -38 14
-19 18 -31 10 -31 -8 0 -6 -6 4 -18 21 -23 22 -33 2 -26 -23 9 -18 -10 11 -41
15 -16 19 -25 10 -22 -9 4 -16 2 -16 -4 0 -21 32 -21 56 1 28 27 31 40 8 40
-13 0 -12 6 7 37 20 33 21 36 5 30 -16 -6 -17 -5 -6 8 10 12 10 15 0 15 -10 0
-10 3 0 15 6 8 9 19 5 25 -3 5 1 20 9 32 18 25 21 42 7 34 -5 -4 -4 5 2 17
l11 24 23 -34 c28 -41 28 -44 6 -36 -17 7 -17 5 -2 -17 9 -14 15 -34 13 -44
-1 -11 5 -25 14 -33 15 -11 15 -12 -8 -13 l-24 0 22 -16 c12 -8 20 -20 17 -25
-4 -5 1 -12 10 -15 14 -6 14 -7 -1 -18 -15 -11 -15 -13 1 -26 12 -10 13 -15 4
-21 -9 -5 -6 -17 11 -45 l24 -37 -22 5 c-24 7 -31 -9 -8 -18 11 -4 8 -16 -16
-55 l-31 -49 -56 0 c-31 0 -90 9 -131 20 -41 11 -95 20 -119 20 -37 0 -42 -2
-31 -15 7 -8 24 -15 38 -15 14 0 58 -9 96 -19 39 -11 97 -22 128 -26 l57 -6
-6 -78 c-4 -61 -2 -84 11 -109 l17 -32 -280 0 -279 0 -21 78 c-11 42 -26 110
-32 150 -12 71 -11 73 12 99 l24 26 -27 -7 c-26 -6 -28 -4 -28 27 0 23 8 41
25 57 29 27 27 37 -4 20 -19 -10 -21 -8 -21 17 1 16 14 43 31 63 l30 35 -26 3
c-32 4 -32 19 2 54 l27 28 -29 0 -29 0 33 34 34 35 -27 7 c-14 3 -26 9 -26 13
0 3 19 17 43 31 l42 24 -30 6 -30 6 28 18 c32 22 35 36 7 36 -11 0 -20 4 -20
9 0 5 9 13 20 16 24 8 27 25 4 25 -12 0 -8 9 15 35 36 41 40 59 11 50 -26 -8
-25 1 5 37 14 16 25 36 25 44 0 24 14 15 32 -21z m2323 -260 c1 -11 6 -28 10
-38 5 -13 4 -16 -9 -11 -14 5 -14 2 -5 -26 7 -17 18 -34 26 -37 12 -5 12 -7 1
-14 -10 -6 -9 -11 7 -23 18 -14 18 -15 3 -16 -25 0 -22 -12 7 -40 28 -26 33
-45 10 -36 -21 8 -19 -7 6 -39 17 -20 19 -29 10 -35 -10 -6 -9 -15 4 -40 15
-30 17 -31 30 -13 12 16 11 19 -8 24 -22 5 -22 5 4 22 14 10 31 28 37 42 10
22 9 25 -10 25 -20 0 -21 1 -3 20 11 12 13 20 6 20 -7 0 -5 9 6 27 13 19 14
28 5 31 -9 3 -6 13 9 34 15 21 18 32 10 37 -8 5 -7 13 4 27 14 19 14 19 16 -1
1 -11 1 -24 0 -28 -1 -4 6 -21 15 -38 8 -17 11 -28 5 -25 -17 11 -13 -20 4
-34 8 -7 12 -17 8 -23 -3 -5 2 -16 12 -24 18 -12 17 -13 -6 -13 -23 -1 -23 -1
10 -29 25 -22 29 -30 17 -33 -15 -3 -15 -5 -1 -25 16 -22 17 -23 48 -6 30 16
30 18 10 21 -13 2 -23 7 -23 11 0 5 10 16 23 24 l22 16 -24 0 -25 1 32 33 c33
34 33 47 0 47 -17 0 -16 5 11 37 37 45 39 57 9 47 l-23 -6 23 25 c14 15 19 26
12 29 -7 2 -4 13 10 31 18 22 19 27 5 27 -13 0 -12 6 7 39 l22 38 15 -31 c9
-17 13 -32 9 -34 -13 -6 -9 -22 12 -52 15 -21 17 -29 8 -33 -10 -3 -8 -10 6
-26 17 -19 17 -21 3 -21 -23 0 -21 -13 3 -35 24 -21 26 -37 5 -29 -27 11 -16
-23 15 -50 34 -28 51 -26 74 9 20 30 20 35 1 35 -13 0 -13 4 2 27 10 15 12 24
6 20 -17 -11 -16 3 2 27 21 27 19 47 -2 39 -14 -5 -13 -1 5 19 13 14 23 32 22
39 -6 37 2 41 18 9 9 -19 13 -38 9 -41 -12 -8 10 -49 26 -49 8 0 7 -4 -3 -11
-11 -8 -12 -12 -2 -16 6 -2 9 -10 6 -15 -4 -6 1 -17 11 -25 18 -12 17 -13 -6
-13 -23 -1 -23 -2 11 -30 27 -23 31 -30 17 -30 -17 0 -16 -3 4 -32 19 -26 20
-30 6 -25 -21 8 -22 -11 -2 -37 19 -25 19 -46 0 -46 -8 0 -15 -4 -15 -9 0 -5
7 -14 15 -21 8 -7 15 -26 15 -42 0 -25 -3 -29 -17 -23 -10 5 -40 12 -68 18
-27 5 -95 22 -149 38 -54 16 -117 29 -139 29 -38 0 -40 1 -21 15 20 15 13 18
-23 9 -13 -4 -20 -10 -18 -15 3 -4 -15 -17 -39 -28 -25 -11 -65 -33 -89 -49
-23 -17 -62 -35 -86 -42 -41 -11 -49 -9 -112 20 -37 17 -95 36 -128 42 -49 9
-58 14 -50 25 9 10 8 13 -1 13 -10 0 -10 3 0 15 7 8 9 15 4 15 -5 0 -1 5 10
11 15 9 16 13 5 20 -10 6 -11 9 -1 9 6 0 12 5 12 11 0 5 -6 7 -12 3 -9 -5 -9
-2 1 9 7 9 11 17 7 17 -4 0 1 11 10 25 10 16 12 25 5 25 -8 0 -9 5 -2 19 6 10
8 21 5 24 -3 3 -2 13 3 21 8 14 12 12 31 -14 20 -26 20 -30 6 -30 -16 0 -16
-1 0 -19 13 -15 14 -20 4 -24 -10 -3 -7 -11 9 -27 l21 -23 34 24 33 24 -27 3
-28 3 30 26 c17 14 35 34 41 45 10 19 9 20 -17 14 l-29 -8 23 24 c26 29 28 40
6 31 -14 -5 -14 -3 1 21 13 20 15 30 7 35 -8 5 -3 19 16 46 17 24 23 40 16 42
-9 3 -9 12 -1 33 l11 29 15 -32 c8 -18 15 -41 16 -52z m418 -444 c52 -16 120
-34 151 -40 92 -17 99 -24 91 -86 -3 -29 -16 -90 -28 -136 l-22 -84 -121 -3
-120 -3 -90 88 c-65 65 -111 99 -172 131 l-82 44 52 28 c194 104 197 105 341
61z m-2255 -405 l20 -34 -101 -6 c-56 -3 -184 -8 -283 -12 l-181 -6 -11 29
c-5 15 -13 36 -17 46 -7 16 10 17 273 17 l280 0 20 -34z m2432 25 c0 -5 -4
-21 -10 -35 -9 -25 -13 -26 -89 -26 l-79 0 -21 35 -20 35 109 0 c62 0 110 -4
110 -9z m-2206 -156 c5 -13 -40 -15 -363 -15 -319 0 -370 2 -375 15 -5 13 40
15 363 15 319 0 370 -2 375 -15z m380 0 c-6 -16 -64 -22 -64 -7 0 15 13 22 41
22 21 0 27 -4 23 -15z m1766 5 c0 -19 -31 -23 -48 -6 -15 15 -14 16 16 16 18
0 32 -5 32 -10z m-2215 -79 c-17 -7 -14 -10 20 -19 22 -6 84 -16 138 -23 53
-7 94 -16 90 -20 -5 -4 -46 -13 -93 -19 -121 -15 -190 -30 -190 -40 0 -5 19
-13 43 -18 l42 -10 -65 -1 c-94 -2 -253 -20 -263 -30 -7 -7 114 -41 149 -41 7
0 15 -4 18 -9 3 -5 -33 -14 -82 -21 -48 -6 -121 -19 -162 -27 l-74 -15 -28 34
c-38 45 -119 162 -152 221 l-28 47 329 -1 c180 0 319 -4 308 -8z m-345 -331
c22 -7 21 -8 -12 -9 -20 -1 -40 4 -43 9 -7 12 19 12 55 0z m925 -297 c3 -21 9
-48 12 -60 l5 -23 -236 0 -236 0 -68 34 c-37 19 -85 46 -107 60 l-40 25 331 1
332 0 7 -37z"/>
<path d="M2753 3385 c0 -44 2 -61 4 -37 2 23 2 59 0 80 -2 20 -4 1 -4 -43z"/>
<path d="M2500 2988 c-10 -61 -38 -168 -65 -253 -4 -12 0 -10 9 6 32 55 92
319 73 319 -2 0 -10 -33 -17 -72z"/>
<path d="M3263 3013 c-32 -93 -105 -233 -161 -313 -17 -25 -11 -21 22 14 49
54 117 180 140 264 14 48 13 74 -1 35z"/>
<path d="M846 2901 c7 -52 45 -166 68 -207 9 -16 15 -22 12 -14 -3 8 -19 60
-36 115 -48 150 -51 157 -44 106z"/>
<path d="M1325 2778 c12 -286 38 -376 122 -425 44 -25 117 -46 128 -35 3 3
-17 18 -44 33 -62 36 -116 98 -141 166 -22 59 -50 251 -50 344 0 34 -4 59 -10
59 -7 0 -9 -46 -5 -142z"/>
<path d="M3015 2846 c-25 -33 -70 -135 -62 -142 2 -2 24 37 49 86 25 50 44 90
42 90 -2 0 -15 -15 -29 -34z"/>
<path d="M1025 2805 c-9 -56 -12 -60 -40 -66 l-30 -6 27 -7 c15 -4 31 -5 37
-2 13 9 23 64 19 107 -3 29 -4 25 -13 -26z"/>
<path d="M2815 2748 c-26 -46 -63 -102 -82 -126 -20 -24 -33 -45 -30 -48 2 -3
23 17 45 44 43 51 128 199 119 208 -2 3 -26 -32 -52 -78z"/>
<path d="M2565 2745 c-16 -8 -23 -14 -14 -15 8 0 24 7 35 15 23 18 18 18 -21
0z"/>
<path d="M2232 2646 c26 -25 47 -36 65 -35 l28 1 -30 10 c-16 6 -46 22 -65 35
l-35 25 37 -36z"/>
<path d="M1541 2616 c-13 -14 -40 -33 -60 -42 -20 -10 -30 -19 -23 -22 16 -5
71 32 95 64 23 31 17 31 -12 0z"/>
<path d="M915 2540 c73 -78 274 -188 450 -245 112 -37 135 -41 135 -25 0 6 -7
10 -15 10 -28 0 -239 81 -351 135 -61 30 -142 77 -180 106 -52 38 -61 43 -39
19z"/>
<path d="M2126 2408 c-26 -17 -83 -46 -125 -64 -42 -18 -77 -40 -79 -49 -3
-11 16 -6 75 20 82 38 183 101 183 116 0 11 3 13 -54 -23z"/>
<path d="M2485 2403 c-280 -70 -553 -159 -537 -175 6 -6 28 -8 49 -5 34 4 520
171 532 182 5 6 -16 5 -44 -2z"/>
<path d="M1740 2333 c-8 -3 -26 -10 -40 -16 -14 -6 -32 -9 -42 -8 -46 6 -158
-68 -158 -104 0 -27 -20 -88 -27 -81 -10 9 -102 -44 -113 -65 -14 -25 -3 -41
11 -16 10 17 81 67 96 67 4 0 -4 -12 -18 -27 -14 -16 -32 -37 -40 -47 -13 -18
-13 -19 11 -6 14 7 40 26 59 44 31 28 33 28 20 6 -17 -28 -80 -75 -256 -195
-139 -94 -303 -247 -333 -311 -29 -58 -20 -80 10 -26 49 87 335 297 595 437
50 27 103 57 119 69 29 19 29 19 22 0 -22 -52 -16 -54 22 -7 54 67 91 87 151
80 25 -3 55 -9 65 -13 13 -5 17 -4 13 3 -12 19 -104 35 -159 28 -63 -9 -59 -2
19 31 l58 25 -58 -5 c-31 -2 -82 -16 -113 -30 -68 -31 -68 -31 -54 -5 17 30 5
34 -29 9 l-31 -21 0 23 c0 48 72 128 89 99 5 -7 23 -2 56 14 28 15 66 25 90
25 26 0 48 6 55 15 11 13 7 15 -31 14 -24 0 -51 -3 -59 -6z"/>
<path d="M2385 2246 c-83 -83 -75 -90 14 -10 46 41 79 83 69 87 -2 1 -39 -34
-83 -77z"/>
<path d="M1856 2289 c-18 -42 -9 -74 26 -104 22 -19 40 -25 71 -24 36 1 38 2
17 9 -21 7 -22 8 -5 10 14 1 9 6 -18 17 -24 10 -39 24 -43 40 -4 16 -11 22
-21 18 -16 -5 -15 6 2 48 4 10 3 17 -4 17 -7 0 -18 -14 -25 -31z"/>
<path d="M2282 2276 c-35 -13 -66 -27 -69 -30 -28 -28 88 3 127 34 32 25 20
24 -58 -4z"/>
<path d="M2085 2210 c-3 -5 -1 -10 4 -10 6 0 11 5 11 10 0 6 -2 10 -4 10 -3 0
-8 -4 -11 -10z"/>
<path d="M2324 2160 c-18 -18 -137 -42 -178 -36 -38 6 -40 5 -22 -9 38 -29
173 -7 211 35 18 20 8 29 -11 10z"/>
<path d="M2080 2116 c0 -7 -10 -26 -22 -41 l-21 -28 21 12 c32 17 57 71 32 71
-5 0 -10 -6 -10 -14z"/>
<path d="M1743 2066 c-15 -13 -37 -39 -47 -57 l-19 -34 39 37 c49 47 83 59
139 52 63 -9 95 7 35 17 -83 14 -117 11 -147 -15z"/>
<path d="M1800 2031 c0 -11 26 -22 34 -14 12 12 5 23 -14 23 -11 0 -20 -4 -20
-9z"/>
<path d="M1852 1982 c-19 -20 -30 -23 -59 -17 -24 4 -33 3 -28 -4 11 -19 80
-13 99 8 26 29 15 40 -12 13z"/>
<path d="M1946 1924 c-4 -14 -19 -37 -33 -50 -28 -26 -24 -31 9 -13 16 9 48
64 48 84 0 17 -19 1 -24 -21z"/>
<path d="M1874 1930 c-5 -5 -27 -14 -49 -19 l-40 -9 36 -1 c23 -1 46 6 60 19
13 10 19 19 14 20 -6 0 -15 -4 -21 -10z"/>
<path d="M2200 1937 c0 -5 16 -55 35 -110 50 -147 68 -266 68 -437 0 -164 11
-152 25 25 l8 110 13 -105 c23 -176 -1 -401 -63 -602 -13 -43 -20 -76 -16 -73
14 8 78 179 99 263 70 272 46 474 -93 802 -33 77 -75 148 -76 127z"/>
<path d="M2120 1886 c0 -2 9 -24 19 -49 20 -46 48 -164 55 -232 2 -22 3 3 2
56 -3 84 -7 106 -34 163 -26 56 -42 79 -42 62z"/>
<path d="M1485 1840 c-3 -6 1 -7 9 -4 18 7 21 14 7 14 -6 0 -13 -4 -16 -10z"/>
<path d="M1483 1823 c-24 -5 -73 -57 -73 -76 0 -7 8 -2 18 10 9 12 37 33 62
47 43 25 42 28 -7 19z"/>
<path d="M1591 1615 c-41 -35 -98 -75 -125 -90 -48 -25 -49 -26 -16 -20 19 3
50 16 70 30 33 23 160 145 150 145 -3 -1 -39 -29 -79 -65z"/>
<path d="M2134 1552 c-1 -86 -6 -135 -21 -184 -26 -86 -12 -79 19 10 18 52 23
88 23 162 -1 52 -5 103 -11 112 -6 12 -10 -19 -10 -100z"/>
<path d="M2360 1665 c0 -3 20 -30 45 -61 48 -59 85 -124 105 -189 19 -60 32
-68 24 -15 -4 25 -11 56 -16 69 -28 76 44 -26 87 -122 14 -32 32 -93 39 -135
l14 -77 1 60 c2 150 -86 337 -198 419 -45 33 -101 61 -101 51z"/>
<path d="M1971 1612 c-31 -75 -137 -128 -274 -139 -52 -4 -74 -9 -64 -15 18
-10 182 7 223 22 15 6 40 20 55 31 32 23 83 102 77 121 -2 6 -10 -3 -17 -20z"/>
<path d="M1115 1609 c-16 -5 -46 -7 -66 -5 -30 5 -40 1 -61 -22 -30 -32 -40
-56 -32 -77 9 -22 23 -19 97 25 125 73 171 69 187 -16 l8 -39 1 51 c2 81 -46
111 -134 83z"/>
<path d="M1115 1481 c-31 -21 -39 -33 -37 -52 2 -13 4 -39 5 -56 0 -18 4 -33
8 -33 31 0 109 111 109 155 0 24 -41 17 -85 -14z"/>
<path d="M1427 1390 c-14 -11 -45 -29 -69 -39 -23 -11 -35 -20 -25 -20 28 -1
80 24 106 53 29 31 24 34 -12 6z"/>
<path d="M1878 1259 c4 -128 -7 -213 -40 -327 l-13 -44 -1 84 c0 45 -5 92 -12
103 -9 16 -11 2 -12 -76 0 -53 -5 -120 -10 -149 -6 -29 -8 -55 -6 -58 10 -9
62 88 89 167 21 61 31 111 34 180 5 90 -10 235 -25 245 -4 2 -6 -54 -4 -125z"/>
<path d="M1180 1284 c-17 -10 -46 -14 -87 -11 -70 3 -75 -8 -9 -18 48 -8 107
7 126 31 15 17 3 17 -30 -2z"/>
<path d="M1370 1230 c0 -6 -19 -28 -41 -50 -23 -22 -37 -40 -31 -40 17 0 82
68 82 85 0 8 -2 15 -5 15 -3 0 -5 -5 -5 -10z"/>
<path d="M1551 989 c-1 -64 22 -169 37 -169 7 0 -2 67 -28 195 -7 37 -8 35 -9
-26z"/>
<path d="M1740 915 c-1 -53 -26 -158 -47 -198 l-17 -32 -12 60 c-7 33 -13 89
-14 125 0 47 -3 61 -11 53 -16 -16 -6 -169 15 -217 16 -37 17 -38 35 -22 45
41 84 193 62 246 -9 23 -10 22 -11 -15z"/>
<path d="M2696 933 c-19 -67 -42 -408 -28 -417 23 -14 30 30 36 227 6 194 5
232 -8 190z"/>
<path d="M2235 763 c-10 -43 -87 -202 -129 -267 -49 -77 -39 -83 14 -9 66 93
157 303 131 303 -5 0 -12 -12 -16 -27z"/>
<path d="M1694 596 c-15 -63 30 -183 100 -261 l35 -40 -44 90 c-25 50 -50 119
-57 155 -14 76 -24 93 -34 56z"/>
<path d="M700 1772 c0 -11 37 -32 44 -25 10 10 7 25 -3 18 -5 -3 -12 -1 -16 5
-7 12 -25 14 -25 2z"/>
<path d="M717 1723 c-6 -10 19 -34 27 -26 3 4 6 12 6 20 0 14 -26 18 -33 6z"/>
<path d="M3153 1856 c2 -5 11 -14 20 -20 13 -8 21 -6 37 9 l20 20 -40 0 c-22
0 -39 -4 -37 -9z"/>
<path d="M2548 1796 c16 -19 16 -19 -3 -12 -19 7 -19 6 -3 -10 17 -17 19 -17
43 6 14 13 25 26 25 29 0 3 -18 6 -40 6 -38 1 -39 0 -22 -19z"/>
<path d="M3185 1800 c3 -5 2 -10 -4 -10 -6 0 -8 -7 -5 -15 9 -21 17 -18 31 10
10 22 9 25 -9 25 -10 0 -16 -4 -13 -10z"/>
<path d="M2493 1743 c4 -3 10 -3 14 0 3 4 0 7 -7 7 -7 0 -10 -3 -7 -7z"/>
<path d="M2783 1723 c4 -3 10 -3 14 0 3 4 0 7 -7 7 -7 0 -10 -3 -7 -7z"/>
<path d="M3590 1661 c0 -156 -79 -442 -175 -637 -100 -201 -208 -347 -383
-515 -294 -283 -665 -455 -1077 -498 -49 -5 251 -9 783 -10 l862 -1 0 855 c0
470 -2 855 -5 855 -3 0 -5 -22 -5 -49z"/>
<path d="M1 838 l-1 -838 858 1 c757 1 845 3 752 14 -201 25 -362 70 -541 151
-581 260 -986 810 -1058 1434 -5 47 -9 -235 -10 -762z"/>
</g>
</svg>
