<?xml version="1.0" standalone="no"?>
<!DOCTYPE svg PUBLIC "-//W3C//DTD SVG 20010904//EN"
 "http://www.w3.org/TR/2001/REC-SVG-20010904/DTD/svg10.dtd">
<svg version="1.0" xmlns="http://www.w3.org/2000/svg"
 width="1350.000000pt" height="951.000000pt" viewBox="0 0 1350.000000 951.000000"
 preserveAspectRatio="xMidYMid meet">
<metadata>
Created by potrace 1.10, written by Peter Selinger 2001-2011
</metadata>
<g transform="translate(0.000000,951.000000) scale(0.100000,-0.100000)"
fill="#000000" stroke="none">
<path d="M2497 9208 c-39 -42 -30 -130 15 -147 13 -5 59 -23 103 -41 44 -18
98 -39 120 -47 22 -9 54 -21 70 -28 17 -7 50 -21 75 -30 25 -9 59 -23 75 -30
17 -7 48 -19 70 -28 22 -8 76 -29 120 -47 44 -18 98 -39 120 -47 22 -9 54 -21
70 -28 17 -7 50 -21 75 -30 25 -10 59 -23 75 -30 17 -7 50 -21 75 -30 25 -9
59 -23 75 -30 17 -7 50 -20 75 -30 25 -9 59 -23 75 -30 17 -7 48 -19 70 -28
77 -29 130 -50 160 -62 17 -7 50 -21 75 -30 25 -9 59 -23 75 -30 17 -7 48 -19
70 -28 22 -8 76 -29 120 -47 44 -18 98 -39 120 -47 22 -8 54 -21 70 -28 17 -7
38 -16 48 -19 20 -6 23 -41 4 -53 -7 -4 -21 -26 -32 -48 -15 -34 -16 -45 -6
-80 31 -103 44 -164 38 -186 -3 -13 -27 -46 -52 -72 -24 -26 -48 -59 -51 -72
-4 -18 -26 -34 -77 -60 -40 -20 -85 -45 -102 -56 -16 -10 -37 -22 -45 -25 -8
-4 -34 -25 -58 -48 -36 -35 -68 -88 -113 -191 -5 -11 -13 -27 -18 -35 -4 -8
-16 -31 -26 -50 -10 -19 -36 -58 -57 -86 -39 -52 -63 -122 -78 -224 -10 -74
-22 -122 -75 -305 -29 -99 -64 -193 -106 -283 -35 -76 -36 -105 -4 -157 37
-60 30 -117 -22 -173 -34 -37 -63 -148 -63 -241 l0 -82 -54 -64 c-34 -40 -57
-76 -60 -97 -3 -18 -7 -46 -10 -63 -2 -16 -9 -48 -15 -70 -6 -22 -18 -74 -27
-115 -9 -41 -29 -99 -44 -130 -15 -30 -35 -72 -44 -94 -22 -50 -23 -175 -2
-213 41 -77 59 -188 34 -215 -42 -44 -48 -73 -48 -226 l0 -150 33 -43 c48 -62
89 -81 162 -73 68 7 89 16 127 51 23 22 32 25 71 19 34 -5 48 -3 61 9 20 20
20 15 -5 100 -11 39 -27 95 -35 125 -8 30 -20 94 -25 143 l-10 87 64 133 c94
193 116 257 117 336 0 26 9 41 41 70 94 84 152 146 206 219 70 93 93 133 93
161 0 31 36 97 56 105 45 17 94 -115 94 -252 0 -47 6 -65 30 -102 38 -56 38
-92 2 -139 -49 -62 -92 -157 -92 -202 0 -16 -6 -42 -13 -57 -24 -46 -40 -146
-32 -198 3 -27 9 -276 13 -554 6 -423 9 -509 22 -528 8 -12 18 -22 21 -22 12
0 38 37 64 95 16 33 44 82 64 109 40 56 41 70 23 218 -15 121 -16 278 -2 278
6 0 13 -8 16 -17 3 -10 11 -34 18 -53 50 -136 68 -209 62 -245 -25 -143 -26
-167 -16 -218 6 -28 16 -97 21 -152 10 -108 31 -180 60 -208 11 -10 19 -30 19
-45 0 -40 26 -172 41 -209 11 -28 11 -37 -4 -68 -12 -26 -17 -63 -17 -138 -1
-69 -5 -110 -15 -127 -8 -14 -14 -46 -15 -71 0 -36 6 -51 28 -75 24 -24 31
-46 47 -137 21 -125 18 -132 -56 -145 -44 -7 -44 -8 -47 -51 -2 -25 -1 -55 3
-68 5 -22 8 -23 73 -17 52 5 70 3 79 -8 12 -14 36 -109 52 -198 4 -25 12 -61
19 -80 6 -19 18 -64 27 -100 10 -36 23 -83 29 -105 7 -22 21 -67 31 -100 10
-33 31 -92 46 -132 38 -94 41 -184 7 -207 -12 -9 -30 -16 -39 -16 -9 0 -35
-18 -57 -41 l-41 -40 -83 27 c-46 14 -96 32 -113 39 -43 18 -95 35 -133 45
-54 13 -69 35 -77 103 -3 34 -13 82 -20 107 -8 25 -15 56 -17 69 -5 41 -26 35
-52 -17 -26 -52 -90 -116 -109 -109 -7 2 -14 33 -17 70 -3 37 -9 66 -15 65
-11 -3 -45 -66 -45 -83 0 -14 -56 -75 -69 -75 -18 0 -44 63 -44 105 0 22 6 64
13 92 23 89 -4 85 -83 -13 -44 -54 -76 -110 -91 -156 -3 -10 -10 -18 -16 -18
-21 0 -4 222 32 415 6 33 14 83 18 110 9 60 30 147 76 310 16 57 26 86 59 175
40 107 48 126 56 142 13 26 11 29 -12 16 -25 -16 -133 -176 -187 -280 -61
-114 -126 -275 -157 -383 -9 -33 -23 -80 -31 -105 -8 -25 -14 -56 -14 -70 0
-14 -4 -32 -9 -39 -18 -29 -25 42 -11 124 16 97 18 144 7 147 -9 3 -25 -36
-55 -132 -13 -43 -17 -93 -17 -225 0 -93 3 -181 7 -195 10 -37 -2 -49 -52 -52
l-45 -3 -3 215 c-5 295 34 611 105 870 8 30 22 80 30 110 9 30 22 70 29 88 8
18 14 40 14 48 0 9 6 28 14 42 8 15 21 47 31 72 9 25 23 57 30 72 18 35 6 43
-21 15 -22 -23 -105 -142 -117 -167 -4 -8 -16 -28 -26 -45 -34 -53 -104 -200
-136 -285 -9 -25 -23 -60 -31 -78 -8 -18 -14 -39 -14 -46 0 -7 -9 -35 -21 -61
-27 -61 -39 -46 -39 49 0 160 -108 661 -195 906 -7 19 -20 60 -29 90 -19 59
-40 117 -61 165 -7 17 -23 55 -35 85 -22 55 -94 212 -110 240 -4 8 -27 51 -50
95 -23 44 -66 116 -94 160 -29 44 -61 94 -71 112 -24 41 -45 50 -45 20 0 -13
4 -27 10 -33 5 -5 21 -41 34 -79 14 -39 35 -95 46 -125 12 -30 25 -68 30 -85
5 -16 14 -46 21 -65 6 -19 17 -51 24 -70 7 -19 20 -62 30 -95 10 -33 23 -80
31 -105 7 -25 20 -74 29 -110 19 -76 37 -143 59 -221 9 -31 16 -68 16 -83 0
-15 7 -55 15 -89 19 -81 40 -198 59 -322 8 -55 22 -146 31 -202 9 -57 14 -107
10 -113 -9 -15 -25 -2 -25 20 0 10 -6 31 -14 47 -8 15 -22 48 -32 73 -18 49
-70 166 -84 190 -5 8 -19 35 -31 60 -72 144 -297 460 -341 478 -11 5 -10 -35
1 -42 10 -7 78 -146 125 -258 8 -18 21 -49 29 -68 8 -19 22 -54 31 -77 9 -24
23 -60 31 -80 8 -21 22 -63 31 -93 9 -30 23 -71 29 -90 7 -19 21 -64 30 -100
34 -125 48 -175 61 -219 8 -25 14 -57 14 -73 0 -16 6 -57 14 -91 22 -96 40
-207 34 -212 -3 -3 -37 32 -76 77 -104 123 -279 278 -314 278 -10 0 26 -55 42
-65 17 -11 194 -255 213 -295 4 -8 16 -28 27 -45 23 -36 33 -54 93 -168 47
-87 59 -123 35 -99 -24 24 -38 13 -38 -27 0 -44 -31 -133 -60 -171 l-18 -24
-20 44 c-12 25 -23 53 -26 63 -12 37 -30 9 -42 -62 -16 -92 -19 -101 -41 -101
-39 0 -82 81 -92 173 -3 32 -10 59 -14 60 -29 7 -72 -237 -82 -461 l-8 -163
-61 -62 c-87 -87 -136 -169 -136 -228 0 -40 36 -105 75 -134 43 -33 123 -76
160 -85 17 -5 44 -13 60 -19 17 -5 64 -17 105 -25 214 -43 435 -58 905 -61
143 -1 316 -7 385 -12 69 -6 193 -16 275 -22 83 -6 206 -16 275 -22 69 -6 206
-15 305 -19 99 -5 252 -13 340 -19 545 -36 1649 -48 2035 -21 80 5 204 10 275
10 211 0 800 51 1220 106 131 17 326 18 667 3 395 -17 848 8 1043 58 76 20
144 53 157 76 15 28 0 69 -35 98 l-31 26 17 70 c17 72 24 243 9 243 -4 0 -34
-27 -67 -60 -62 -63 -85 -74 -85 -40 0 33 -28 23 -89 -30 -32 -28 -63 -50 -69
-50 -14 0 -14 1 -12 116 2 113 -8 123 -61 64 -22 -24 -42 -41 -45 -38 -6 6 18
83 35 115 5 10 19 38 31 63 23 49 30 62 73 128 15 24 27 46 27 49 0 7 103 137
112 141 14 6 8 22 -7 22 -8 0 -15 -4 -15 -10 0 -5 -6 -10 -13 -10 -7 0 -52
-41 -101 -90 -49 -50 -91 -88 -94 -85 -18 18 167 320 265 431 52 60 65 95 25
66 -9 -7 -23 -15 -30 -18 -77 -37 -287 -276 -342 -388 -39 -82 -53 -30 -24 92
31 131 72 276 90 320 8 18 14 39 14 47 0 8 6 29 14 47 8 18 31 72 50 120 37
90 138 291 159 318 22 28 38 62 33 68 -12 12 -256 -257 -256 -282 0 -3 -13
-24 -29 -48 -54 -80 -157 -298 -181 -383 -4 -16 -13 -43 -18 -60 -34 -98 -69
-262 -78 -360 -5 -57 -11 -75 -32 -98 -41 -43 -52 -36 -52 36 0 35 -3 67 -6
70 -4 4 -22 -7 -41 -23 -55 -49 -63 -42 -63 53 1 115 23 242 54 311 18 40 26
76 26 113 0 60 13 120 75 348 8 30 22 80 30 110 40 145 47 173 60 215 66 227
69 250 55 378 -6 59 -18 141 -25 182 -8 41 -16 92 -17 113 l-3 39 350 2 c354
3 503 15 625 50 104 31 266 58 450 76 47 4 98 13 113 19 16 6 39 11 52 11 29
0 51 33 32 47 -6 6 -40 18 -75 27 -55 15 -114 17 -515 15 -589 -3 -755 0 -852
17 -44 7 -97 14 -117 14 -20 0 -67 7 -105 15 -76 18 -103 40 -103 87 0 16 -6
57 -14 91 -20 85 -38 364 -35 538 2 153 -4 222 -25 279 -7 19 -21 62 -31 95
-10 33 -24 71 -30 85 -7 14 -19 41 -27 60 -62 139 -175 370 -189 385 -5 5 -9
15 -9 23 0 23 -66 146 -122 229 -86 126 -109 201 -112 356 l-1 92 30 3 c87 10
71 81 -47 207 -49 53 -119 95 -159 95 -11 0 -45 6 -77 14 -58 15 -232 36 -287
36 -29 0 -88 -18 -112 -33 -22 -14 -107 -37 -137 -37 -16 0 -43 4 -60 9 -159
49 -263 71 -326 71 -56 0 -60 -2 -66 -26 -11 -44 3 -201 20 -226 21 -30 20
-35 -11 -50 -55 -26 -33 -101 53 -179 45 -40 191 -149 200 -149 3 0 23 -13 44
-30 21 -16 41 -30 44 -30 3 0 27 -13 54 -30 l48 -29 17 -105 c22 -135 21 -235
-3 -376 -29 -171 -46 -216 -110 -290 -50 -58 -82 -109 -135 -220 -51 -105 -63
-132 -70 -156 -9 -35 -40 -57 -62 -45 -27 14 -96 -5 -124 -35 -22 -24 -22 -27
-11 -112 7 -48 15 -132 19 -187 18 -271 113 -327 293 -172 43 37 99 67 125 67
7 0 17 -29 25 -71 18 -106 60 -169 192 -291 195 -179 223 -210 241 -263 20
-56 22 -170 6 -277 -10 -69 -15 -99 -54 -313 -9 -49 -17 -133 -18 -185 -2
-118 7 -135 195 -386 92 -122 100 -138 117 -211 10 -43 22 -119 26 -170 l6
-92 -57 -45 c-32 -25 -61 -43 -65 -41 -4 3 -10 22 -13 42 -9 49 -26 93 -37 93
-4 0 -17 -19 -27 -43 -26 -57 -83 -110 -113 -105 -22 3 -24 8 -27 65 -4 77
-19 81 -50 13 -24 -54 -46 -66 -97 -52 -19 5 -31 16 -33 30 -3 18 21 109 43
165 5 13 2 17 -14 17 -13 0 -50 -29 -96 -73 -41 -41 -77 -72 -80 -69 -3 3 -5
17 -5 32 0 14 -6 46 -14 71 -8 24 -17 60 -20 80 -7 39 -28 65 -46 54 -5 -3
-10 -12 -10 -19 0 -14 -56 -124 -71 -140 -8 -9 -11 -3 -26 44 -3 12 -9 9 -24
-10 -11 -14 -24 -34 -29 -45 -25 -51 -71 -117 -78 -110 -6 6 -20 62 -38 146
-3 14 -16 39 -29 55 -22 27 -24 28 -30 9 -19 -57 -40 -96 -74 -135 -50 -58
-68 -51 -77 30 -7 62 -20 85 -30 53 -53 -161 -109 -198 -133 -88 -9 42 -10 67
0 114 6 33 8 68 5 78 -6 15 -11 13 -40 -17 -44 -47 -103 -133 -108 -156 -2
-10 -12 -20 -23 -22 -15 -2 -27 11 -48 49 -15 28 -33 49 -40 46 -16 -5 -35
-72 -36 -129 -1 -51 -12 -66 -31 -43 -29 35 -59 9 -60 -51 0 -27 -30 -54 -61
-54 -18 1 -33 14 -58 55 -51 81 -80 85 -82 12 -2 -74 -11 -90 -53 -99 -43 -9
-62 1 -78 41 -7 21 -11 23 -18 11 -6 -8 -10 -29 -10 -46 0 -30 -2 -32 -50 -38
-28 -4 -54 -4 -59 -2 -5 3 -14 33 -20 66 -10 48 -16 61 -29 58 -9 -2 -19 -14
-22 -28 -8 -34 -42 -34 -51 0 -4 14 -8 39 -8 55 -3 76 -33 68 -77 -20 -15 -28
-35 -63 -45 -76 -19 -26 -17 -28 -34 28 -5 14 -10 13 -30 -12 -13 -17 -24 -33
-25 -38 0 -15 -74 -106 -82 -101 -4 3 -8 17 -8 32 0 39 -37 164 -54 180 -18
18 -36 7 -36 -22 0 -42 -96 -154 -123 -143 -9 3 -16 27 -20 63 -6 62 -22 90
-33 58 -31 -97 -75 -154 -119 -154 -13 0 -36 -5 -50 -10 -35 -13 -63 2 -70 38
-3 15 -12 52 -19 82 -38 150 -46 191 -46 216 0 15 -6 53 -14 83 -55 216 -56
249 -1 352 43 81 104 205 119 244 56 136 158 317 210 373 29 31 33 32 86 27
61 -7 69 -3 90 40 8 17 16 33 18 37 2 5 -8 12 -22 18 -35 13 -33 24 10 56 65
50 69 77 28 222 -13 44 -14 88 -8 245 6 171 9 196 29 232 12 22 26 62 29 88 8
56 -12 108 -76 193 l-38 51 -1 104 c0 57 -5 127 -10 154 -5 28 -16 113 -24
190 -14 145 -38 273 -57 308 -13 26 -13 90 2 117 14 26 28 107 39 220 7 65 13
87 27 97 57 37 55 33 41 103 -6 36 -11 118 -10 184 3 124 0 138 -51 263 -14
35 -26 72 -26 84 0 22 -24 70 -50 103 -11 13 -15 43 -15 115 0 82 3 100 21
126 16 22 25 57 33 135 9 78 16 108 29 115 32 20 74 65 70 77 -3 7 -15 15 -29
18 -27 7 -36 34 -19 56 7 8 23 33 35 57 27 50 50 56 102 29 66 -34 113 -52
134 -52 11 0 29 -5 40 -11 38 -20 164 -49 215 -49 45 0 58 5 97 38 92 75 165
208 175 317 3 36 12 58 32 80 38 42 50 85 50 184 -1 152 -28 259 -86 338 -13
17 -24 36 -24 41 0 5 -7 15 -15 22 -12 10 -15 31 -13 94 3 70 5 81 22 84 20 4
91 -14 216 -56 41 -14 91 -29 110 -33 19 -4 49 -12 65 -17 141 -48 154 -48
173 -8 6 13 16 84 23 158 14 149 1 333 -27 376 -9 13 -18 68 -24 141 -10 132
-19 161 -54 161 -43 0 -56 -28 -56 -122 0 -84 0 -86 -27 -96 -16 -6 -46 -14
-68 -18 -24 -4 -53 -18 -72 -37 l-33 -31 -241 1 -242 1 -46 46 c-56 55 -90 60
-133 20 l-27 -27 -75 13 c-41 7 -95 10 -119 8 -42 -5 -47 -3 -89 41 -64 66
-146 88 -207 56 -16 -8 -32 -26 -35 -40 -8 -30 -29 -32 -83 -9 -97 41 -127 53
-220 88 -105 39 -131 49 -163 66 -32 16 -35 22 -38 69 -3 44 2 60 29 104 34
56 32 39 30 274 -1 103 -24 235 -54 304 -23 52 -98 131 -154 161 -71 38 -181
52 -285 37 -143 -21 -247 -87 -295 -189 -32 -66 -56 -195 -48 -257 4 -29 2
-54 -3 -57 -14 -9 -128 22 -188 50 -46 22 -53 29 -63 69 -6 24 -22 56 -35 72
-23 26 -26 27 -58 15 -47 -17 -192 -15 -252 3 -92 28 -177 9 -242 -54 -36 -36
-57 -36 -134 -3 -67 29 -95 40 -140 57 -25 9 -58 23 -75 30 -30 12 -83 33
-160 62 -22 9 -53 21 -70 28 -16 7 -50 21 -75 30 -25 9 -58 23 -75 30 -16 7
-48 19 -70 28 -22 8 -76 29 -120 47 -44 18 -98 39 -120 47 -22 9 -53 21 -70
28 -16 7 -48 20 -70 28 -22 8 -76 29 -120 47 -44 18 -98 39 -120 47 -22 8 -52
21 -67 29 -36 19 -69 16 -91 -8z m1197 -4820 c9 -12 16 -35 16 -50 0 -23 -4
-28 -25 -28 -31 0 -51 36 -41 74 8 32 30 33 50 4z m1814 -486 c27 -40 32 -56
32 -108 0 -57 24 -147 47 -176 6 -7 13 -60 16 -118 3 -58 11 -145 18 -194 13
-96 21 -107 117 -156 l42 -22 0 -97 c-1 -64 -5 -104 -15 -121 -8 -14 -14 -48
-15 -77 0 -38 -9 -69 -34 -120 -83 -163 -115 -271 -116 -382 0 -120 -36 -232
-119 -371 -11 -19 -25 -46 -31 -59 -6 -13 -14 -21 -18 -17 -10 10 -30 206 -41
406 -6 91 -15 197 -21 235 -18 114 -16 243 5 298 16 42 17 54 5 105 -17 76
-16 94 14 182 29 83 33 155 13 203 -17 41 -36 94 -47 132 -5 17 -15 49 -22 72
-11 40 -10 47 19 105 51 106 62 139 74 239 14 112 24 118 77 41z m4065 -1699
c22 -119 41 -194 74 -293 70 -213 75 -265 48 -570 -22 -236 -25 -254 -51 -258
-19 -3 -22 3 -27 59 -5 56 -16 78 -40 79 -4 0 -11 -8 -14 -17 -16 -42 -47 -73
-74 -73 -15 0 -31 6 -36 13 -15 23 -21 281 -10 440 10 149 10 159 -9 181 -108
135 -136 189 -136 270 1 81 53 153 170 233 77 53 84 49 105 -64z"/>
<path d="M11785 6926 c-42 -10 -133 -61 -155 -85 -3 -3 -50 -42 -105 -86 -55
-44 -104 -85 -110 -91 -5 -6 -32 -28 -60 -50 -81 -64 -115 -96 -109 -105 9
-15 127 -10 158 6 15 8 33 15 40 15 6 0 46 23 89 50 43 28 82 50 88 50 5 0 16
-16 24 -35 8 -19 22 -51 30 -70 26 -62 20 -116 -20 -162 -20 -24 -46 -43 -64
-46 -44 -9 -30 -42 27 -68 44 -20 48 -21 104 -5 39 11 98 16 181 16 168 0 261
27 318 92 34 38 40 35 142 -71 57 -60 84 -81 103 -81 16 0 35 -11 51 -30 28
-34 39 -37 64 -14 16 14 23 15 49 4 57 -24 74 24 35 100 -22 42 -45 109 -45
131 0 20 -8 48 -46 168 -8 24 -12 47 -9 51 12 20 131 33 244 26 122 -7 171 1
171 28 0 9 -15 17 -41 21 -57 10 -92 26 -189 90 -37 24 -56 29 -106 30 -43 0
-68 -5 -80 -16 -43 -38 -61 -41 -104 -19 -36 18 -45 19 -83 9 -23 -7 -60 -24
-82 -38 -22 -14 -57 -35 -77 -46 -37 -19 -39 -19 -70 -2 -39 21 -84 79 -128
163 -30 58 -34 61 -81 72 -61 14 -89 14 -154 -2z"/>
<path d="M951 6246 c-7 -9 -24 -16 -37 -16 -34 0 -54 -34 -41 -69 8 -22 7 -33
-5 -49 -17 -25 -11 -76 16 -151 9 -24 14 -51 11 -62 -3 -10 1 -31 9 -47 8 -16
12 -39 9 -51 -8 -31 41 -148 83 -196 30 -36 34 -46 35 -100 0 -67 11 -133 29
-185 29 -79 43 -117 58 -146 10 -21 13 -49 10 -87 -6 -72 -28 -97 -126 -143
-60 -28 -84 -34 -141 -34 -59 0 -73 -4 -108 -29 -44 -32 -60 -70 -43 -101 19
-35 64 -50 147 -50 43 0 96 -5 118 -10 43 -10 202 -30 300 -37 77 -7 212 14
295 45 36 13 74 26 84 29 21 7 150 72 241 123 139 77 268 137 325 151 131 31
305 59 373 59 39 0 69 5 73 12 11 17 -33 48 -68 48 -17 0 -60 18 -99 42 l-70
41 -129 -13 c-127 -12 -129 -13 -196 -57 l-68 -45 -96 4 c-71 2 -102 8 -122
21 l-27 19 18 34 c22 40 18 63 -17 114 -13 19 -28 44 -33 55 -6 11 -15 29 -22
40 -7 11 -27 46 -45 78 -34 57 -66 75 -78 42 -4 -9 -19 -15 -39 -15 -30 0 -36
6 -76 73 -23 39 -76 116 -118 170 -226 291 -295 377 -368 456 -43 47 -50 51
-62 37z"/>
<path d="M10872 5928 c-12 -20 -22 -42 -22 -50 0 -26 -12 -28 -38 -8 -29 23
-42 25 -42 6 0 -22 -24 -38 -38 -24 -9 9 -15 9 -24 0 -10 -10 -8 -20 6 -46 20
-37 15 -56 -14 -56 -28 0 -32 -15 -13 -48 16 -27 16 -32 1 -62 -17 -35 -16
-41 22 -124 11 -25 20 -53 20 -63 1 -29 37 -158 54 -191 9 -17 31 -46 50 -67
47 -50 115 -156 133 -207 24 -71 71 -157 158 -288 86 -132 105 -172 105 -227
0 -81 -51 -140 -150 -173 -76 -25 -140 -64 -140 -86 0 -27 100 -138 143 -158
39 -18 42 -18 99 0 49 14 65 15 92 6 47 -17 58 -16 139 22 40 19 86 38 103 41
67 15 172 52 214 76 49 29 69 30 319 19 141 -5 288 -14 326 -20 39 -5 122 -9
186 -10 117 0 149 7 224 47 40 21 106 94 103 113 -4 21 -47 25 -83 7 -16 -8
-58 -28 -93 -46 -51 -25 -74 -31 -128 -31 -58 0 -76 5 -153 44 -47 24 -113 51
-146 61 -94 26 -195 73 -195 90 1 11 93 89 131 110 106 60 126 63 246 40 90
-17 209 -20 218 -5 10 17 -15 40 -43 40 -19 0 -49 24 -117 95 -129 133 -131
133 -347 -27 -135 -99 -159 -107 -294 -91 -96 12 -139 37 -197 117 -39 53 -63
80 -288 317 -155 163 -288 315 -328 374 -25 37 -86 156 -116 230 -22 52 -35
123 -35 188 0 37 -6 71 -13 81 -13 17 -15 16 -35 -16z"/>
</g>
</svg>
